<?xml version="1.0" encoding="utf-8" standalone="no"?>
<!DOCTYPE svg PUBLIC "-//W3C//DTD SVG 1.1//EN"
  "http://www.w3.org/Graphics/SVG/1.1/DTD/svg11.dtd">
<svg xmlns:xlink="http://www.w3.org/1999/xlink" width="568.46125pt" height="206.184125pt" viewBox="0 0 568.46125 206.184125" xmlns="http://www.w3.org/2000/svg" version="1.1">
 <metadata>
  <rdf:RDF xmlns:dc="http://purl.org/dc/elements/1.1/" xmlns:cc="http://creativecommons.org/ns#" xmlns:rdf="http://www.w3.org/1999/02/22-rdf-syntax-ns#">
   <cc:Work>
    <dc:type rdf:resource="http://purl.org/dc/dcmitype/StillImage"/>
    <dc:date>2024-05-25T02:59:17.603600</dc:date>
    <dc:format>image/svg+xml</dc:format>
    <dc:creator>
     <cc:Agent>
      <dc:title>Matplotlib v3.7.1, https://matplotlib.org/</dc:title>
     </cc:Agent>
    </dc:creator>
   </cc:Work>
  </rdf:RDF>
 </metadata>
 <defs>
  <style type="text/css">*{stroke-linejoin: round; stroke-linecap: butt}</style>
 </defs>
 <g id="figure_1">
  <g id="patch_1">
   <path d="M 0 206.184125 
L 568.46125 206.184125 
L 568.46125 0 
L 0 0 
z
" style="fill: #ffffff"/>
  </g>
  <g id="axes_1">
   <g id="patch_2">
    <path d="M 43.78125 182.306 
L 278.66125 182.306 
L 278.66125 24.72 
L 43.78125 24.72 
z
" style="fill: #ffffff"/>
   </g>
   <g id="patch_3">
    <path d="M 60.537151 182.306 
L 64.564515 182.306 
L 64.564515 182.296117 
L 60.537151 182.296117 
z
" clip-path="url(#p7e29318d26)" style="fill: #1f77b4; opacity: 0.4"/>
   </g>
   <g id="patch_4">
    <path d="M 64.564515 182.306 
L 68.591879 182.306 
L 68.591879 182.296117 
L 64.564515 182.296117 
z
" clip-path="url(#p7e29318d26)" style="fill: #1f77b4; opacity: 0.4"/>
   </g>
   <g id="patch_5">
    <path d="M 68.591879 182.306 
L 72.619243 182.306 
L 72.619243 182.306 
L 68.591879 182.306 
z
" clip-path="url(#p7e29318d26)" style="fill: #1f77b4; opacity: 0.4"/>
   </g>
   <g id="patch_6">
    <path d="M 72.619243 182.306 
L 76.646607 182.306 
L 76.646607 182.286235 
L 72.619243 182.286235 
z
" clip-path="url(#p7e29318d26)" style="fill: #1f77b4; opacity: 0.4"/>
   </g>
   <g id="patch_7">
    <path d="M 76.646607 182.306 
L 80.673971 182.306 
L 80.673971 182.286235 
L 76.646607 182.286235 
z
" clip-path="url(#p7e29318d26)" style="fill: #1f77b4; opacity: 0.4"/>
   </g>
   <g id="patch_8">
    <path d="M 80.673971 182.306 
L 84.701335 182.306 
L 84.701335 182.256587 
L 80.673971 182.256587 
z
" clip-path="url(#p7e29318d26)" style="fill: #1f77b4; opacity: 0.4"/>
   </g>
   <g id="patch_9">
    <path d="M 84.701335 182.306 
L 88.728699 182.306 
L 88.728699 182.217057 
L 84.701335 182.217057 
z
" clip-path="url(#p7e29318d26)" style="fill: #1f77b4; opacity: 0.4"/>
   </g>
   <g id="patch_10">
    <path d="M 88.728699 182.306 
L 92.756063 182.306 
L 92.756063 182.128114 
L 88.728699 182.128114 
z
" clip-path="url(#p7e29318d26)" style="fill: #1f77b4; opacity: 0.4"/>
   </g>
   <g id="patch_11">
    <path d="M 92.756063 182.306 
L 96.783427 182.306 
L 96.783427 181.861284 
L 92.756063 181.861284 
z
" clip-path="url(#p7e29318d26)" style="fill: #1f77b4; opacity: 0.4"/>
   </g>
   <g id="patch_12">
    <path d="M 96.783427 182.306 
L 100.810791 182.306 
L 100.810791 181.752576 
L 96.783427 181.752576 
z
" clip-path="url(#p7e29318d26)" style="fill: #1f77b4; opacity: 0.4"/>
   </g>
   <g id="patch_13">
    <path d="M 100.810791 182.306 
L 104.838155 182.306 
L 104.838155 181.129974 
L 100.810791 181.129974 
z
" clip-path="url(#p7e29318d26)" style="fill: #1f77b4; opacity: 0.4"/>
   </g>
   <g id="patch_14">
    <path d="M 104.838155 182.306 
L 108.865519 182.306 
L 108.865519 180.369016 
L 104.838155 180.369016 
z
" clip-path="url(#p7e29318d26)" style="fill: #1f77b4; opacity: 0.4"/>
   </g>
   <g id="patch_15">
    <path d="M 108.865519 182.306 
L 112.892882 182.306 
L 112.892882 178.995338 
L 108.865519 178.995338 
z
" clip-path="url(#p7e29318d26)" style="fill: #1f77b4; opacity: 0.4"/>
   </g>
   <g id="patch_16">
    <path d="M 112.892882 182.306 
L 116.920246 182.306 
L 116.920246 177.206592 
L 112.892882 177.206592 
z
" clip-path="url(#p7e29318d26)" style="fill: #1f77b4; opacity: 0.4"/>
   </g>
   <g id="patch_17">
    <path d="M 116.920246 182.306 
L 120.94761 182.306 
L 120.94761 174.449354 
L 116.920246 174.449354 
z
" clip-path="url(#p7e29318d26)" style="fill: #1f77b4; opacity: 0.4"/>
   </g>
   <g id="patch_18">
    <path d="M 120.94761 182.306 
L 124.974974 182.306 
L 124.974974 169.142412 
L 120.94761 169.142412 
z
" clip-path="url(#p7e29318d26)" style="fill: #1f77b4; opacity: 0.4"/>
   </g>
   <g id="patch_19">
    <path d="M 124.974974 182.306 
L 129.002338 182.306 
L 129.002338 165.25856 
L 124.974974 165.25856 
z
" clip-path="url(#p7e29318d26)" style="fill: #1f77b4; opacity: 0.4"/>
   </g>
   <g id="patch_20">
    <path d="M 129.002338 182.306 
L 133.029702 182.306 
L 133.029702 158.31111 
L 129.002338 158.31111 
z
" clip-path="url(#p7e29318d26)" style="fill: #1f77b4; opacity: 0.4"/>
   </g>
   <g id="patch_21">
    <path d="M 133.029702 182.306 
L 137.057066 182.306 
L 137.057066 149.565033 
L 133.029702 149.565033 
z
" clip-path="url(#p7e29318d26)" style="fill: #1f77b4; opacity: 0.4"/>
   </g>
   <g id="patch_22">
    <path d="M 137.057066 182.306 
L 141.08443 182.306 
L 141.08443 139.306921 
L 137.057066 139.306921 
z
" clip-path="url(#p7e29318d26)" style="fill: #1f77b4; opacity: 0.4"/>
   </g>
   <g id="patch_23">
    <path d="M 141.08443 182.306 
L 145.111794 182.306 
L 145.111794 130.877085 
L 141.08443 130.877085 
z
" clip-path="url(#p7e29318d26)" style="fill: #1f77b4; opacity: 0.4"/>
   </g>
   <g id="patch_24">
    <path d="M 145.111794 182.306 
L 149.139158 182.306 
L 149.139158 122.625136 
L 145.111794 122.625136 
z
" clip-path="url(#p7e29318d26)" style="fill: #1f77b4; opacity: 0.4"/>
   </g>
   <g id="patch_25">
    <path d="M 149.139158 182.306 
L 153.166522 182.306 
L 153.166522 112.81174 
L 149.139158 112.81174 
z
" clip-path="url(#p7e29318d26)" style="fill: #1f77b4; opacity: 0.4"/>
   </g>
   <g id="patch_26">
    <path d="M 153.166522 182.306 
L 157.193886 182.306 
L 157.193886 106.565953 
L 153.166522 106.565953 
z
" clip-path="url(#p7e29318d26)" style="fill: #1f77b4; opacity: 0.4"/>
   </g>
   <g id="patch_27">
    <path d="M 157.193886 182.306 
L 161.22125 182.306 
L 161.22125 105.864291 
L 157.193886 105.864291 
z
" clip-path="url(#p7e29318d26)" style="fill: #1f77b4; opacity: 0.4"/>
   </g>
   <g id="patch_28">
    <path d="M 161.22125 182.306 
L 165.248614 182.306 
L 165.248614 103.690124 
L 161.22125 103.690124 
z
" clip-path="url(#p7e29318d26)" style="fill: #1f77b4; opacity: 0.4"/>
   </g>
   <g id="patch_29">
    <path d="M 165.248614 182.306 
L 169.275978 182.306 
L 169.275978 108.255874 
L 165.248614 108.255874 
z
" clip-path="url(#p7e29318d26)" style="fill: #1f77b4; opacity: 0.4"/>
   </g>
   <g id="patch_30">
    <path d="M 169.275978 182.306 
L 173.303342 182.306 
L 173.303342 113.19716 
L 169.275978 113.19716 
z
" clip-path="url(#p7e29318d26)" style="fill: #1f77b4; opacity: 0.4"/>
   </g>
   <g id="patch_31">
    <path d="M 173.303342 182.306 
L 177.330706 182.306 
L 177.330706 120.421322 
L 173.303342 120.421322 
z
" clip-path="url(#p7e29318d26)" style="fill: #1f77b4; opacity: 0.4"/>
   </g>
   <g id="patch_32">
    <path d="M 177.330706 182.306 
L 181.35807 182.306 
L 181.35807 128.534915 
L 177.330706 128.534915 
z
" clip-path="url(#p7e29318d26)" style="fill: #1f77b4; opacity: 0.4"/>
   </g>
   <g id="patch_33">
    <path d="M 181.35807 182.306 
L 185.385434 182.306 
L 185.385434 137.172285 
L 181.35807 137.172285 
z
" clip-path="url(#p7e29318d26)" style="fill: #1f77b4; opacity: 0.4"/>
   </g>
   <g id="patch_34">
    <path d="M 185.385434 182.306 
L 189.412798 182.306 
L 189.412798 146.461904 
L 185.385434 146.461904 
z
" clip-path="url(#p7e29318d26)" style="fill: #1f77b4; opacity: 0.4"/>
   </g>
   <g id="patch_35">
    <path d="M 189.412798 182.306 
L 193.440162 182.306 
L 193.440162 155.168452 
L 189.412798 155.168452 
z
" clip-path="url(#p7e29318d26)" style="fill: #1f77b4; opacity: 0.4"/>
   </g>
   <g id="patch_36">
    <path d="M 193.440162 182.306 
L 197.467526 182.306 
L 197.467526 162.392614 
L 193.440162 162.392614 
z
" clip-path="url(#p7e29318d26)" style="fill: #1f77b4; opacity: 0.4"/>
   </g>
   <g id="patch_37">
    <path d="M 197.467526 182.306 
L 201.49489 182.306 
L 201.49489 168.124506 
L 197.467526 168.124506 
z
" clip-path="url(#p7e29318d26)" style="fill: #1f77b4; opacity: 0.4"/>
   </g>
   <g id="patch_38">
    <path d="M 201.49489 182.306 
L 205.522254 182.306 
L 205.522254 172.502487 
L 201.49489 172.502487 
z
" clip-path="url(#p7e29318d26)" style="fill: #1f77b4; opacity: 0.4"/>
   </g>
   <g id="patch_39">
    <path d="M 205.522254 182.306 
L 209.549618 182.306 
L 209.549618 176.198569 
L 205.522254 176.198569 
z
" clip-path="url(#p7e29318d26)" style="fill: #1f77b4; opacity: 0.4"/>
   </g>
   <g id="patch_40">
    <path d="M 209.549618 182.306 
L 213.576981 182.306 
L 213.576981 178.244262 
L 209.549618 178.244262 
z
" clip-path="url(#p7e29318d26)" style="fill: #1f77b4; opacity: 0.4"/>
   </g>
   <g id="patch_41">
    <path d="M 213.576981 182.306 
L 217.604345 182.306 
L 217.604345 179.904535 
L 213.576981 179.904535 
z
" clip-path="url(#p7e29318d26)" style="fill: #1f77b4; opacity: 0.4"/>
   </g>
   <g id="patch_42">
    <path d="M 217.604345 182.306 
L 221.631709 182.306 
L 221.631709 180.892792 
L 217.604345 180.892792 
z
" clip-path="url(#p7e29318d26)" style="fill: #1f77b4; opacity: 0.4"/>
   </g>
   <g id="patch_43">
    <path d="M 221.631709 182.306 
L 225.659073 182.306 
L 225.659073 181.643868 
L 221.631709 181.643868 
z
" clip-path="url(#p7e29318d26)" style="fill: #1f77b4; opacity: 0.4"/>
   </g>
   <g id="patch_44">
    <path d="M 225.659073 182.306 
L 229.686437 182.306 
L 229.686437 181.930462 
L 225.659073 181.930462 
z
" clip-path="url(#p7e29318d26)" style="fill: #1f77b4; opacity: 0.4"/>
   </g>
   <g id="patch_45">
    <path d="M 229.686437 182.306 
L 233.713801 182.306 
L 233.713801 182.128114 
L 229.686437 182.128114 
z
" clip-path="url(#p7e29318d26)" style="fill: #1f77b4; opacity: 0.4"/>
   </g>
   <g id="patch_46">
    <path d="M 233.713801 182.306 
L 237.741165 182.306 
L 237.741165 182.256587 
L 233.713801 182.256587 
z
" clip-path="url(#p7e29318d26)" style="fill: #1f77b4; opacity: 0.4"/>
   </g>
   <g id="patch_47">
    <path d="M 237.741165 182.306 
L 241.768529 182.306 
L 241.768529 182.246705 
L 237.741165 182.246705 
z
" clip-path="url(#p7e29318d26)" style="fill: #1f77b4; opacity: 0.4"/>
   </g>
   <g id="patch_48">
    <path d="M 241.768529 182.306 
L 245.795893 182.306 
L 245.795893 182.306 
L 241.768529 182.306 
z
" clip-path="url(#p7e29318d26)" style="fill: #1f77b4; opacity: 0.4"/>
   </g>
   <g id="patch_49">
    <path d="M 245.795893 182.306 
L 249.823257 182.306 
L 249.823257 182.296117 
L 245.795893 182.296117 
z
" clip-path="url(#p7e29318d26)" style="fill: #1f77b4; opacity: 0.4"/>
   </g>
   <g id="patch_50">
    <path d="M 249.823257 182.306 
L 253.850621 182.306 
L 253.850621 182.306 
L 249.823257 182.306 
z
" clip-path="url(#p7e29318d26)" style="fill: #1f77b4; opacity: 0.4"/>
   </g>
   <g id="patch_51">
    <path d="M 253.850621 182.306 
L 257.877985 182.306 
L 257.877985 182.306 
L 253.850621 182.306 
z
" clip-path="url(#p7e29318d26)" style="fill: #1f77b4; opacity: 0.4"/>
   </g>
   <g id="patch_52">
    <path d="M 257.877985 182.306 
L 261.905349 182.306 
L 261.905349 182.296117 
L 257.877985 182.296117 
z
" clip-path="url(#p7e29318d26)" style="fill: #1f77b4; opacity: 0.4"/>
   </g>
   <g id="patch_53">
    <path d="M 105.68791 182.306 
L 108.054127 182.306 
L 108.054127 182.28918 
L 105.68791 182.28918 
z
" clip-path="url(#p7e29318d26)" style="fill: #ff7f0e; opacity: 0.4"/>
   </g>
   <g id="patch_54">
    <path d="M 108.054127 182.306 
L 110.420343 182.306 
L 110.420343 182.280769 
L 108.054127 182.280769 
z
" clip-path="url(#p7e29318d26)" style="fill: #ff7f0e; opacity: 0.4"/>
   </g>
   <g id="patch_55">
    <path d="M 110.420343 182.306 
L 112.786559 182.306 
L 112.786559 182.29759 
L 110.420343 182.29759 
z
" clip-path="url(#p7e29318d26)" style="fill: #ff7f0e; opacity: 0.4"/>
   </g>
   <g id="patch_56">
    <path d="M 112.786559 182.306 
L 115.152775 182.306 
L 115.152775 182.196667 
L 112.786559 182.196667 
z
" clip-path="url(#p7e29318d26)" style="fill: #ff7f0e; opacity: 0.4"/>
   </g>
   <g id="patch_57">
    <path d="M 115.152775 182.306 
L 117.518991 182.306 
L 117.518991 182.137796 
L 115.152775 182.137796 
z
" clip-path="url(#p7e29318d26)" style="fill: #ff7f0e; opacity: 0.4"/>
   </g>
   <g id="patch_58">
    <path d="M 117.518991 182.306 
L 119.885207 182.306 
L 119.885207 182.070514 
L 117.518991 182.070514 
z
" clip-path="url(#p7e29318d26)" style="fill: #ff7f0e; opacity: 0.4"/>
   </g>
   <g id="patch_59">
    <path d="M 119.885207 182.306 
L 122.251423 182.306 
L 122.251423 181.507031 
L 119.885207 181.507031 
z
" clip-path="url(#p7e29318d26)" style="fill: #ff7f0e; opacity: 0.4"/>
   </g>
   <g id="patch_60">
    <path d="M 122.251423 182.306 
L 124.617639 182.306 
L 124.617639 180.825804 
L 122.251423 180.825804 
z
" clip-path="url(#p7e29318d26)" style="fill: #ff7f0e; opacity: 0.4"/>
   </g>
   <g id="patch_61">
    <path d="M 124.617639 182.306 
L 126.983855 182.306 
L 126.983855 180.186628 
L 124.617639 180.186628 
z
" clip-path="url(#p7e29318d26)" style="fill: #ff7f0e; opacity: 0.4"/>
   </g>
   <g id="patch_62">
    <path d="M 126.983855 182.306 
L 129.350071 182.306 
L 129.350071 178.512998 
L 126.983855 178.512998 
z
" clip-path="url(#p7e29318d26)" style="fill: #ff7f0e; opacity: 0.4"/>
   </g>
   <g id="patch_63">
    <path d="M 129.350071 182.306 
L 131.716288 182.306 
L 131.716288 176.208602 
L 129.350071 176.208602 
z
" clip-path="url(#p7e29318d26)" style="fill: #ff7f0e; opacity: 0.4"/>
   </g>
   <g id="patch_64">
    <path d="M 131.716288 182.306 
L 134.082504 182.306 
L 134.082504 173.214569 
L 131.716288 173.214569 
z
" clip-path="url(#p7e29318d26)" style="fill: #ff7f0e; opacity: 0.4"/>
   </g>
   <g id="patch_65">
    <path d="M 134.082504 182.306 
L 136.44872 182.306 
L 136.44872 168.025473 
L 134.082504 168.025473 
z
" clip-path="url(#p7e29318d26)" style="fill: #ff7f0e; opacity: 0.4"/>
   </g>
   <g id="patch_66">
    <path d="M 136.44872 182.306 
L 138.814936 182.306 
L 138.814936 161.356181 
L 136.44872 161.356181 
z
" clip-path="url(#p7e29318d26)" style="fill: #ff7f0e; opacity: 0.4"/>
   </g>
   <g id="patch_67">
    <path d="M 138.814936 182.306 
L 141.181152 182.306 
L 141.181152 153.980432 
L 138.814936 153.980432 
z
" clip-path="url(#p7e29318d26)" style="fill: #ff7f0e; opacity: 0.4"/>
   </g>
   <g id="patch_68">
    <path d="M 141.181152 182.306 
L 143.547368 182.306 
L 143.547368 143.972288 
L 141.181152 143.972288 
z
" clip-path="url(#p7e29318d26)" style="fill: #ff7f0e; opacity: 0.4"/>
   </g>
   <g id="patch_69">
    <path d="M 143.547368 182.306 
L 145.913584 182.306 
L 145.913584 131.895235 
L 143.547368 131.895235 
z
" clip-path="url(#p7e29318d26)" style="fill: #ff7f0e; opacity: 0.4"/>
   </g>
   <g id="patch_70">
    <path d="M 145.913584 182.306 
L 148.2798 182.306 
L 148.2798 119.675208 
L 145.913584 119.675208 
z
" clip-path="url(#p7e29318d26)" style="fill: #ff7f0e; opacity: 0.4"/>
   </g>
   <g id="patch_71">
    <path d="M 148.2798 182.306 
L 150.646016 182.306 
L 150.646016 103.687409 
L 148.2798 103.687409 
z
" clip-path="url(#p7e29318d26)" style="fill: #ff7f0e; opacity: 0.4"/>
   </g>
   <g id="patch_72">
    <path d="M 150.646016 182.306 
L 153.012232 182.306 
L 153.012232 90.903898 
L 150.646016 90.903898 
z
" clip-path="url(#p7e29318d26)" style="fill: #ff7f0e; opacity: 0.4"/>
   </g>
   <g id="patch_73">
    <path d="M 153.012232 182.306 
L 155.378448 182.306 
L 155.378448 77.80921 
L 153.012232 77.80921 
z
" clip-path="url(#p7e29318d26)" style="fill: #ff7f0e; opacity: 0.4"/>
   </g>
   <g id="patch_74">
    <path d="M 155.378448 182.306 
L 157.744665 182.306 
L 157.744665 66.68251 
L 155.378448 66.68251 
z
" clip-path="url(#p7e29318d26)" style="fill: #ff7f0e; opacity: 0.4"/>
   </g>
   <g id="patch_75">
    <path d="M 157.744665 182.306 
L 160.110881 182.306 
L 160.110881 58.322766 
L 157.744665 58.322766 
z
" clip-path="url(#p7e29318d26)" style="fill: #ff7f0e; opacity: 0.4"/>
   </g>
   <g id="patch_76">
    <path d="M 160.110881 182.306 
L 162.477097 182.306 
L 162.477097 57.397644 
L 160.110881 57.397644 
z
" clip-path="url(#p7e29318d26)" style="fill: #ff7f0e; opacity: 0.4"/>
   </g>
   <g id="patch_77">
    <path d="M 162.477097 182.306 
L 164.843313 182.306 
L 164.843313 60.215062 
L 162.477097 60.215062 
z
" clip-path="url(#p7e29318d26)" style="fill: #ff7f0e; opacity: 0.4"/>
   </g>
   <g id="patch_78">
    <path d="M 164.843313 182.306 
L 167.209529 182.306 
L 167.209529 63.755758 
L 164.843313 63.755758 
z
" clip-path="url(#p7e29318d26)" style="fill: #ff7f0e; opacity: 0.4"/>
   </g>
   <g id="patch_79">
    <path d="M 167.209529 182.306 
L 169.575745 182.306 
L 169.575745 71.880016 
L 167.209529 71.880016 
z
" clip-path="url(#p7e29318d26)" style="fill: #ff7f0e; opacity: 0.4"/>
   </g>
   <g id="patch_80">
    <path d="M 169.575745 182.306 
L 171.941961 182.306 
L 171.941961 84.831731 
L 169.575745 84.831731 
z
" clip-path="url(#p7e29318d26)" style="fill: #ff7f0e; opacity: 0.4"/>
   </g>
   <g id="patch_81">
    <path d="M 171.941961 182.306 
L 174.308177 182.306 
L 174.308177 98.489903 
L 171.941961 98.489903 
z
" clip-path="url(#p7e29318d26)" style="fill: #ff7f0e; opacity: 0.4"/>
   </g>
   <g id="patch_82">
    <path d="M 174.308177 182.306 
L 176.674393 182.306 
L 176.674393 111.508899 
L 174.308177 111.508899 
z
" clip-path="url(#p7e29318d26)" style="fill: #ff7f0e; opacity: 0.4"/>
   </g>
   <g id="patch_83">
    <path d="M 176.674393 182.306 
L 179.040609 182.306 
L 179.040609 126.184706 
L 176.674393 126.184706 
z
" clip-path="url(#p7e29318d26)" style="fill: #ff7f0e; opacity: 0.4"/>
   </g>
   <g id="patch_84">
    <path d="M 179.040609 182.306 
L 181.406825 182.306 
L 181.406825 138.320631 
L 179.040609 138.320631 
z
" clip-path="url(#p7e29318d26)" style="fill: #ff7f0e; opacity: 0.4"/>
   </g>
   <g id="patch_85">
    <path d="M 181.406825 182.306 
L 183.773042 182.306 
L 183.773042 150.187429 
L 181.406825 150.187429 
z
" clip-path="url(#p7e29318d26)" style="fill: #ff7f0e; opacity: 0.4"/>
   </g>
   <g id="patch_86">
    <path d="M 183.773042 182.306 
L 186.139258 182.306 
L 186.139258 158.513532 
L 183.773042 158.513532 
z
" clip-path="url(#p7e29318d26)" style="fill: #ff7f0e; opacity: 0.4"/>
   </g>
   <g id="patch_87">
    <path d="M 186.139258 182.306 
L 188.505474 182.306 
L 188.505474 166.637789 
L 186.139258 166.637789 
z
" clip-path="url(#p7e29318d26)" style="fill: #ff7f0e; opacity: 0.4"/>
   </g>
   <g id="patch_88">
    <path d="M 188.505474 182.306 
L 190.87169 182.306 
L 190.87169 170.893353 
L 188.505474 170.893353 
z
" clip-path="url(#p7e29318d26)" style="fill: #ff7f0e; opacity: 0.4"/>
   </g>
   <g id="patch_89">
    <path d="M 190.87169 182.306 
L 193.237906 182.306 
L 193.237906 175.350761 
L 190.87169 175.350761 
z
" clip-path="url(#p7e29318d26)" style="fill: #ff7f0e; opacity: 0.4"/>
   </g>
   <g id="patch_90">
    <path d="M 193.237906 182.306 
L 195.604122 182.306 
L 195.604122 177.865412 
L 193.237906 177.865412 
z
" clip-path="url(#p7e29318d26)" style="fill: #ff7f0e; opacity: 0.4"/>
   </g>
   <g id="patch_91">
    <path d="M 195.604122 182.306 
L 197.970338 182.306 
L 197.970338 179.530633 
L 195.604122 179.530633 
z
" clip-path="url(#p7e29318d26)" style="fill: #ff7f0e; opacity: 0.4"/>
   </g>
   <g id="patch_92">
    <path d="M 197.970338 182.306 
L 200.336554 182.306 
L 200.336554 180.6576 
L 197.970338 180.6576 
z
" clip-path="url(#p7e29318d26)" style="fill: #ff7f0e; opacity: 0.4"/>
   </g>
   <g id="patch_93">
    <path d="M 200.336554 182.306 
L 202.70277 182.306 
L 202.70277 181.380878 
L 200.336554 181.380878 
z
" clip-path="url(#p7e29318d26)" style="fill: #ff7f0e; opacity: 0.4"/>
   </g>
   <g id="patch_94">
    <path d="M 202.70277 182.306 
L 205.068986 182.306 
L 205.068986 181.742516 
L 202.70277 181.742516 
z
" clip-path="url(#p7e29318d26)" style="fill: #ff7f0e; opacity: 0.4"/>
   </g>
   <g id="patch_95">
    <path d="M 205.068986 182.306 
L 207.435202 182.306 
L 207.435202 181.994822 
L 205.068986 181.994822 
z
" clip-path="url(#p7e29318d26)" style="fill: #ff7f0e; opacity: 0.4"/>
   </g>
   <g id="patch_96">
    <path d="M 207.435202 182.306 
L 209.801419 182.306 
L 209.801419 182.154616 
L 207.435202 182.154616 
z
" clip-path="url(#p7e29318d26)" style="fill: #ff7f0e; opacity: 0.4"/>
   </g>
   <g id="patch_97">
    <path d="M 209.801419 182.306 
L 212.167635 182.306 
L 212.167635 182.255539 
L 209.801419 182.255539 
z
" clip-path="url(#p7e29318d26)" style="fill: #ff7f0e; opacity: 0.4"/>
   </g>
   <g id="patch_98">
    <path d="M 212.167635 182.306 
L 214.533851 182.306 
L 214.533851 182.280769 
L 212.167635 182.280769 
z
" clip-path="url(#p7e29318d26)" style="fill: #ff7f0e; opacity: 0.4"/>
   </g>
   <g id="patch_99">
    <path d="M 214.533851 182.306 
L 216.900067 182.306 
L 216.900067 182.28918 
L 214.533851 182.28918 
z
" clip-path="url(#p7e29318d26)" style="fill: #ff7f0e; opacity: 0.4"/>
   </g>
   <g id="patch_100">
    <path d="M 216.900067 182.306 
L 219.266283 182.306 
L 219.266283 182.306 
L 216.900067 182.306 
z
" clip-path="url(#p7e29318d26)" style="fill: #ff7f0e; opacity: 0.4"/>
   </g>
   <g id="patch_101">
    <path d="M 219.266283 182.306 
L 221.632499 182.306 
L 221.632499 182.306 
L 219.266283 182.306 
z
" clip-path="url(#p7e29318d26)" style="fill: #ff7f0e; opacity: 0.4"/>
   </g>
   <g id="patch_102">
    <path d="M 221.632499 182.306 
L 223.998715 182.306 
L 223.998715 182.28918 
L 221.632499 182.28918 
z
" clip-path="url(#p7e29318d26)" style="fill: #ff7f0e; opacity: 0.4"/>
   </g>
   <g id="matplotlib.axis_1">
    <g id="xtick_1">
     <g id="line2d_1">
      <defs>
       <path id="m5f7c8700c1" d="M 0 0 
L 0 3.5 
" style="stroke: #000000; stroke-width: 0.8"/>
      </defs>
      <g>
       <use xlink:href="#m5f7c8700c1" x="81.00334" y="182.306" style="stroke: #000000; stroke-width: 0.8"/>
      </g>
     </g>
     <g id="text_1">
      <!-- −4 -->
      <g transform="translate(73.632246 196.904437) scale(0.1 -0.1)">
       <defs>
        <path id="DejaVuSans-2212" d="M 678 2272 
L 4684 2272 
L 4684 1741 
L 678 1741 
L 678 2272 
z
" transform="scale(0.015625)"/>
        <path id="DejaVuSans-34" d="M 2419 4116 
L 825 1625 
L 2419 1625 
L 2419 4116 
z
M 2253 4666 
L 3047 4666 
L 3047 1625 
L 3713 1625 
L 3713 1100 
L 3047 1100 
L 3047 0 
L 2419 0 
L 2419 1100 
L 313 1100 
L 313 1709 
L 2253 4666 
z
" transform="scale(0.015625)"/>
       </defs>
       <use xlink:href="#DejaVuSans-2212"/>
       <use xlink:href="#DejaVuSans-34" x="83.789062"/>
      </g>
     </g>
    </g>
    <g id="xtick_2">
     <g id="line2d_2">
      <g>
       <use xlink:href="#m5f7c8700c1" x="121.413754" y="182.306" style="stroke: #000000; stroke-width: 0.8"/>
      </g>
     </g>
     <g id="text_2">
      <!-- −2 -->
      <g transform="translate(114.04266 196.904437) scale(0.1 -0.1)">
       <defs>
        <path id="DejaVuSans-32" d="M 1228 531 
L 3431 531 
L 3431 0 
L 469 0 
L 469 531 
Q 828 903 1448 1529 
Q 2069 2156 2228 2338 
Q 2531 2678 2651 2914 
Q 2772 3150 2772 3378 
Q 2772 3750 2511 3984 
Q 2250 4219 1831 4219 
Q 1534 4219 1204 4116 
Q 875 4013 500 3803 
L 500 4441 
Q 881 4594 1212 4672 
Q 1544 4750 1819 4750 
Q 2544 4750 2975 4387 
Q 3406 4025 3406 3419 
Q 3406 3131 3298 2873 
Q 3191 2616 2906 2266 
Q 2828 2175 2409 1742 
Q 1991 1309 1228 531 
z
" transform="scale(0.015625)"/>
       </defs>
       <use xlink:href="#DejaVuSans-2212"/>
       <use xlink:href="#DejaVuSans-32" x="83.789062"/>
      </g>
     </g>
    </g>
    <g id="xtick_3">
     <g id="line2d_3">
      <g>
       <use xlink:href="#m5f7c8700c1" x="161.824168" y="182.306" style="stroke: #000000; stroke-width: 0.8"/>
      </g>
     </g>
     <g id="text_3">
      <!-- 0 -->
      <g transform="translate(158.642918 196.904437) scale(0.1 -0.1)">
       <defs>
        <path id="DejaVuSans-30" d="M 2034 4250 
Q 1547 4250 1301 3770 
Q 1056 3291 1056 2328 
Q 1056 1369 1301 889 
Q 1547 409 2034 409 
Q 2525 409 2770 889 
Q 3016 1369 3016 2328 
Q 3016 3291 2770 3770 
Q 2525 4250 2034 4250 
z
M 2034 4750 
Q 2819 4750 3233 4129 
Q 3647 3509 3647 2328 
Q 3647 1150 3233 529 
Q 2819 -91 2034 -91 
Q 1250 -91 836 529 
Q 422 1150 422 2328 
Q 422 3509 836 4129 
Q 1250 4750 2034 4750 
z
" transform="scale(0.015625)"/>
       </defs>
       <use xlink:href="#DejaVuSans-30"/>
      </g>
     </g>
    </g>
    <g id="xtick_4">
     <g id="line2d_4">
      <g>
       <use xlink:href="#m5f7c8700c1" x="202.234583" y="182.306" style="stroke: #000000; stroke-width: 0.8"/>
      </g>
     </g>
     <g id="text_4">
      <!-- 2 -->
      <g transform="translate(199.053333 196.904437) scale(0.1 -0.1)">
       <use xlink:href="#DejaVuSans-32"/>
      </g>
     </g>
    </g>
    <g id="xtick_5">
     <g id="line2d_5">
      <g>
       <use xlink:href="#m5f7c8700c1" x="242.644997" y="182.306" style="stroke: #000000; stroke-width: 0.8"/>
      </g>
     </g>
     <g id="text_5">
      <!-- 4 -->
      <g transform="translate(239.463747 196.904437) scale(0.1 -0.1)">
       <use xlink:href="#DejaVuSans-34"/>
      </g>
     </g>
    </g>
   </g>
   <g id="matplotlib.axis_2">
    <g id="ytick_1">
     <g id="line2d_6">
      <defs>
       <path id="m07815c30d0" d="M 0 0 
L -3.5 0 
" style="stroke: #000000; stroke-width: 0.8"/>
      </defs>
      <g>
       <use xlink:href="#m07815c30d0" x="43.78125" y="182.306" style="stroke: #000000; stroke-width: 0.8"/>
      </g>
     </g>
     <g id="text_6">
      <!-- 0.0 -->
      <g transform="translate(20.878125 186.105219) scale(0.1 -0.1)">
       <defs>
        <path id="DejaVuSans-2e" d="M 684 794 
L 1344 794 
L 1344 0 
L 684 0 
L 684 794 
z
" transform="scale(0.015625)"/>
       </defs>
       <use xlink:href="#DejaVuSans-30"/>
       <use xlink:href="#DejaVuSans-2e" x="63.623047"/>
       <use xlink:href="#DejaVuSans-30" x="95.410156"/>
      </g>
     </g>
    </g>
    <g id="ytick_2">
     <g id="line2d_7">
      <g>
       <use xlink:href="#m07815c30d0" x="43.78125" y="142.9095" style="stroke: #000000; stroke-width: 0.8"/>
      </g>
     </g>
     <g id="text_7">
      <!-- 0.2 -->
      <g transform="translate(20.878125 146.708719) scale(0.1 -0.1)">
       <use xlink:href="#DejaVuSans-30"/>
       <use xlink:href="#DejaVuSans-2e" x="63.623047"/>
       <use xlink:href="#DejaVuSans-32" x="95.410156"/>
      </g>
     </g>
    </g>
    <g id="ytick_3">
     <g id="line2d_8">
      <g>
       <use xlink:href="#m07815c30d0" x="43.78125" y="103.513" style="stroke: #000000; stroke-width: 0.8"/>
      </g>
     </g>
     <g id="text_8">
      <!-- 0.4 -->
      <g transform="translate(20.878125 107.312219) scale(0.1 -0.1)">
       <use xlink:href="#DejaVuSans-30"/>
       <use xlink:href="#DejaVuSans-2e" x="63.623047"/>
       <use xlink:href="#DejaVuSans-34" x="95.410156"/>
      </g>
     </g>
    </g>
    <g id="ytick_4">
     <g id="line2d_9">
      <g>
       <use xlink:href="#m07815c30d0" x="43.78125" y="64.1165" style="stroke: #000000; stroke-width: 0.8"/>
      </g>
     </g>
     <g id="text_9">
      <!-- 0.6 -->
      <g transform="translate(20.878125 67.915719) scale(0.1 -0.1)">
       <defs>
        <path id="DejaVuSans-36" d="M 2113 2584 
Q 1688 2584 1439 2293 
Q 1191 2003 1191 1497 
Q 1191 994 1439 701 
Q 1688 409 2113 409 
Q 2538 409 2786 701 
Q 3034 994 3034 1497 
Q 3034 2003 2786 2293 
Q 2538 2584 2113 2584 
z
M 3366 4563 
L 3366 3988 
Q 3128 4100 2886 4159 
Q 2644 4219 2406 4219 
Q 1781 4219 1451 3797 
Q 1122 3375 1075 2522 
Q 1259 2794 1537 2939 
Q 1816 3084 2150 3084 
Q 2853 3084 3261 2657 
Q 3669 2231 3669 1497 
Q 3669 778 3244 343 
Q 2819 -91 2113 -91 
Q 1303 -91 875 529 
Q 447 1150 447 2328 
Q 447 3434 972 4092 
Q 1497 4750 2381 4750 
Q 2619 4750 2861 4703 
Q 3103 4656 3366 4563 
z
" transform="scale(0.015625)"/>
       </defs>
       <use xlink:href="#DejaVuSans-30"/>
       <use xlink:href="#DejaVuSans-2e" x="63.623047"/>
       <use xlink:href="#DejaVuSans-36" x="95.410156"/>
      </g>
     </g>
    </g>
    <g id="ytick_5">
     <g id="line2d_10">
      <g>
       <use xlink:href="#m07815c30d0" x="43.78125" y="24.72" style="stroke: #000000; stroke-width: 0.8"/>
      </g>
     </g>
     <g id="text_10">
      <!-- 0.8 -->
      <g transform="translate(20.878125 28.519219) scale(0.1 -0.1)">
       <defs>
        <path id="DejaVuSans-38" d="M 2034 2216 
Q 1584 2216 1326 1975 
Q 1069 1734 1069 1313 
Q 1069 891 1326 650 
Q 1584 409 2034 409 
Q 2484 409 2743 651 
Q 3003 894 3003 1313 
Q 3003 1734 2745 1975 
Q 2488 2216 2034 2216 
z
M 1403 2484 
Q 997 2584 770 2862 
Q 544 3141 544 3541 
Q 544 4100 942 4425 
Q 1341 4750 2034 4750 
Q 2731 4750 3128 4425 
Q 3525 4100 3525 3541 
Q 3525 3141 3298 2862 
Q 3072 2584 2669 2484 
Q 3125 2378 3379 2068 
Q 3634 1759 3634 1313 
Q 3634 634 3220 271 
Q 2806 -91 2034 -91 
Q 1263 -91 848 271 
Q 434 634 434 1313 
Q 434 1759 690 2068 
Q 947 2378 1403 2484 
z
M 1172 3481 
Q 1172 3119 1398 2916 
Q 1625 2713 2034 2713 
Q 2441 2713 2670 2916 
Q 2900 3119 2900 3481 
Q 2900 3844 2670 4047 
Q 2441 4250 2034 4250 
Q 1625 4250 1398 4047 
Q 1172 3844 1172 3481 
z
" transform="scale(0.015625)"/>
       </defs>
       <use xlink:href="#DejaVuSans-30"/>
       <use xlink:href="#DejaVuSans-2e" x="63.623047"/>
       <use xlink:href="#DejaVuSans-38" x="95.410156"/>
      </g>
     </g>
    </g>
    <g id="text_11">
     <!-- Density -->
     <g transform="translate(14.798438 122.521594) rotate(-90) scale(0.1 -0.1)">
      <defs>
       <path id="DejaVuSans-44" d="M 1259 4147 
L 1259 519 
L 2022 519 
Q 2988 519 3436 956 
Q 3884 1394 3884 2338 
Q 3884 3275 3436 3711 
Q 2988 4147 2022 4147 
L 1259 4147 
z
M 628 4666 
L 1925 4666 
Q 3281 4666 3915 4102 
Q 4550 3538 4550 2338 
Q 4550 1131 3912 565 
Q 3275 0 1925 0 
L 628 0 
L 628 4666 
z
" transform="scale(0.015625)"/>
       <path id="DejaVuSans-65" d="M 3597 1894 
L 3597 1613 
L 953 1613 
Q 991 1019 1311 708 
Q 1631 397 2203 397 
Q 2534 397 2845 478 
Q 3156 559 3463 722 
L 3463 178 
Q 3153 47 2828 -22 
Q 2503 -91 2169 -91 
Q 1331 -91 842 396 
Q 353 884 353 1716 
Q 353 2575 817 3079 
Q 1281 3584 2069 3584 
Q 2775 3584 3186 3129 
Q 3597 2675 3597 1894 
z
M 3022 2063 
Q 3016 2534 2758 2815 
Q 2500 3097 2075 3097 
Q 1594 3097 1305 2825 
Q 1016 2553 972 2059 
L 3022 2063 
z
" transform="scale(0.015625)"/>
       <path id="DejaVuSans-6e" d="M 3513 2113 
L 3513 0 
L 2938 0 
L 2938 2094 
Q 2938 2591 2744 2837 
Q 2550 3084 2163 3084 
Q 1697 3084 1428 2787 
Q 1159 2491 1159 1978 
L 1159 0 
L 581 0 
L 581 3500 
L 1159 3500 
L 1159 2956 
Q 1366 3272 1645 3428 
Q 1925 3584 2291 3584 
Q 2894 3584 3203 3211 
Q 3513 2838 3513 2113 
z
" transform="scale(0.015625)"/>
       <path id="DejaVuSans-73" d="M 2834 3397 
L 2834 2853 
Q 2591 2978 2328 3040 
Q 2066 3103 1784 3103 
Q 1356 3103 1142 2972 
Q 928 2841 928 2578 
Q 928 2378 1081 2264 
Q 1234 2150 1697 2047 
L 1894 2003 
Q 2506 1872 2764 1633 
Q 3022 1394 3022 966 
Q 3022 478 2636 193 
Q 2250 -91 1575 -91 
Q 1294 -91 989 -36 
Q 684 19 347 128 
L 347 722 
Q 666 556 975 473 
Q 1284 391 1588 391 
Q 1994 391 2212 530 
Q 2431 669 2431 922 
Q 2431 1156 2273 1281 
Q 2116 1406 1581 1522 
L 1381 1569 
Q 847 1681 609 1914 
Q 372 2147 372 2553 
Q 372 3047 722 3315 
Q 1072 3584 1716 3584 
Q 2034 3584 2315 3537 
Q 2597 3491 2834 3397 
z
" transform="scale(0.015625)"/>
       <path id="DejaVuSans-69" d="M 603 3500 
L 1178 3500 
L 1178 0 
L 603 0 
L 603 3500 
z
M 603 4863 
L 1178 4863 
L 1178 4134 
L 603 4134 
L 603 4863 
z
" transform="scale(0.015625)"/>
       <path id="DejaVuSans-74" d="M 1172 4494 
L 1172 3500 
L 2356 3500 
L 2356 3053 
L 1172 3053 
L 1172 1153 
Q 1172 725 1289 603 
Q 1406 481 1766 481 
L 2356 481 
L 2356 0 
L 1766 0 
Q 1100 0 847 248 
Q 594 497 594 1153 
L 594 3053 
L 172 3053 
L 172 3500 
L 594 3500 
L 594 4494 
L 1172 4494 
z
" transform="scale(0.015625)"/>
       <path id="DejaVuSans-79" d="M 2059 -325 
Q 1816 -950 1584 -1140 
Q 1353 -1331 966 -1331 
L 506 -1331 
L 506 -850 
L 844 -850 
Q 1081 -850 1212 -737 
Q 1344 -625 1503 -206 
L 1606 56 
L 191 3500 
L 800 3500 
L 1894 763 
L 2988 3500 
L 3597 3500 
L 2059 -325 
z
" transform="scale(0.015625)"/>
      </defs>
      <use xlink:href="#DejaVuSans-44"/>
      <use xlink:href="#DejaVuSans-65" x="77.001953"/>
      <use xlink:href="#DejaVuSans-6e" x="138.525391"/>
      <use xlink:href="#DejaVuSans-73" x="201.904297"/>
      <use xlink:href="#DejaVuSans-69" x="254.003906"/>
      <use xlink:href="#DejaVuSans-74" x="281.787109"/>
      <use xlink:href="#DejaVuSans-79" x="320.996094"/>
     </g>
    </g>
   </g>
   <g id="line2d_11">
    <path d="M 54.457614 182.305913 
L 87.720656 182.213613 
L 93.085663 181.950294 
L 100.596673 181.527596 
L 104.888678 180.718061 
L 108.107682 180.007975 
L 110.253685 179.27189 
L 113.472689 177.795878 
L 115.618692 176.683178 
L 116.691693 176.025754 
L 117.764694 175.224349 
L 118.837696 174.229967 
L 120.983699 171.736349 
L 123.129701 169.212881 
L 126.348705 165.735753 
L 127.421707 164.28078 
L 129.56771 160.773582 
L 131.713712 156.816232 
L 133.859715 152.152271 
L 139.224722 139.467509 
L 142.443726 132.310372 
L 145.66273 125.116968 
L 149.954736 115.678994 
L 152.100738 111.872588 
L 154.246741 108.407971 
L 155.319742 107.013079 
L 156.392744 106.069767 
L 157.465745 105.589831 
L 161.757751 104.93085 
L 162.830752 104.936096 
L 163.903753 105.303124 
L 164.976755 106.092049 
L 169.26876 110.407569 
L 170.341762 111.763957 
L 171.414763 113.404764 
L 173.560766 117.279471 
L 176.77977 123.087512 
L 177.852771 125.014315 
L 178.925773 127.188735 
L 187.509784 146.652096 
L 191.801789 155.609096 
L 193.947792 159.689328 
L 196.093795 163.321102 
L 198.239797 166.446949 
L 200.3858 169.190875 
L 202.531803 171.551737 
L 204.677806 173.560745 
L 206.823808 175.370265 
L 208.969811 176.876505 
L 211.115814 178.061555 
L 213.261816 179.002261 
L 215.407819 179.774775 
L 218.626823 180.645561 
L 221.845827 181.301352 
L 225.064832 181.778107 
L 228.283836 181.973224 
L 239.013849 182.245954 
L 252.962867 182.305974 
L 267.984886 182.305913 
L 267.984886 182.305913 
" clip-path="url(#p7e29318d26)" style="fill: none; stroke: #1f77b4; stroke-width: 1.5; stroke-linecap: square"/>
   </g>
   <g id="line2d_12">
    <path d="M 102.385141 182.30592 
L 114.311827 182.191938 
L 118.705869 182.025936 
L 119.96131 181.813866 
L 123.099911 180.930991 
L 126.866233 179.614565 
L 128.121674 178.545845 
L 130.004835 176.634924 
L 131.260276 175.440428 
L 132.515716 173.755285 
L 133.771157 171.432017 
L 135.026598 168.449472 
L 138.165199 159.880568 
L 139.42064 155.945721 
L 140.67608 151.390503 
L 141.931521 145.967747 
L 145.070123 130.281585 
L 146.325563 123.71178 
L 148.208724 112.21451 
L 150.091885 100.471853 
L 154.485928 76.456425 
L 156.996809 64.636646 
L 157.624529 62.102299 
L 158.252249 60.153411 
L 158.87997 58.881142 
L 159.50769 58.18995 
L 160.13541 57.845242 
L 160.763131 57.673484 
L 161.390851 57.69026 
L 162.018571 57.986213 
L 162.646292 58.577096 
L 163.901732 60.409971 
L 165.784893 63.498176 
L 166.412614 65.108399 
L 167.668054 69.60094 
L 168.923495 74.889809 
L 170.178936 81.450632 
L 175.200698 110.10569 
L 178.3393 128.767476 
L 182.105622 147.69836 
L 183.361062 152.914762 
L 185.871944 161.944676 
L 187.127384 165.820842 
L 188.382825 168.567209 
L 192.149147 175.307498 
L 193.404587 176.780931 
L 195.287748 178.515131 
L 196.543189 179.39426 
L 198.42635 180.361345 
L 200.309511 181.049957 
L 202.192672 181.456686 
L 205.958994 181.972872 
L 209.725316 182.197827 
L 214.119358 182.28419 
L 227.301485 182.30592 
L 227.301485 182.30592 
" clip-path="url(#p7e29318d26)" style="fill: none; stroke: #ff7f0e; stroke-width: 1.5; stroke-linecap: square"/>
   </g>
   <g id="patch_103">
    <path d="M 43.78125 182.306 
L 43.78125 24.72 
" style="fill: none; stroke: #000000; stroke-width: 0.8; stroke-linejoin: miter; stroke-linecap: square"/>
   </g>
   <g id="patch_104">
    <path d="M 278.66125 182.306 
L 278.66125 24.72 
" style="fill: none; stroke: #000000; stroke-width: 0.8; stroke-linejoin: miter; stroke-linecap: square"/>
   </g>
   <g id="patch_105">
    <path d="M 43.78125 182.306 
L 278.66125 182.306 
" style="fill: none; stroke: #000000; stroke-width: 0.8; stroke-linejoin: miter; stroke-linecap: square"/>
   </g>
   <g id="patch_106">
    <path d="M 43.78125 24.72 
L 278.66125 24.72 
" style="fill: none; stroke: #000000; stroke-width: 0.8; stroke-linejoin: miter; stroke-linecap: square"/>
   </g>
   <g id="text_12">
    <!-- $w \sim N(0, \sigma^2),$ $\sigma = n ^{-0.5}$ -->
    <g transform="translate(95.34125 18.72) scale(0.12 -0.12)">
     <defs>
      <path id="DejaVuSans-Oblique-77" d="M 544 3500 
L 1113 3500 
L 1259 684 
L 2566 3500 
L 3231 3500 
L 3425 684 
L 4666 3500 
L 5241 3500 
L 3641 0 
L 2969 0 
L 2797 2900 
L 1459 0 
L 781 0 
L 544 3500 
z
" transform="scale(0.015625)"/>
      <path id="DejaVuSans-223c" d="M 4684 2556 
L 4684 1997 
Q 4356 1753 4076 1645 
Q 3797 1538 3494 1538 
Q 3150 1538 2694 1722 
Q 2663 1734 2641 1744 
Q 2622 1750 2575 1769 
Q 2091 1959 1797 1959 
Q 1522 1959 1253 1840 
Q 984 1722 678 1459 
L 678 2019 
Q 1006 2263 1286 2370 
Q 1566 2478 1869 2478 
Q 2213 2478 2672 2294 
Q 2706 2278 2722 2272 
Q 2741 2266 2788 2247 
Q 3272 2056 3566 2056 
Q 3834 2056 4098 2173 
Q 4363 2291 4684 2556 
z
" transform="scale(0.015625)"/>
      <path id="DejaVuSans-Oblique-4e" d="M 1081 4666 
L 1931 4666 
L 3219 666 
L 4000 4666 
L 4616 4666 
L 3706 0 
L 2853 0 
L 1569 4025 
L 788 0 
L 172 0 
L 1081 4666 
z
" transform="scale(0.015625)"/>
      <path id="DejaVuSans-28" d="M 1984 4856 
Q 1566 4138 1362 3434 
Q 1159 2731 1159 2009 
Q 1159 1288 1364 580 
Q 1569 -128 1984 -844 
L 1484 -844 
Q 1016 -109 783 600 
Q 550 1309 550 2009 
Q 550 2706 781 3412 
Q 1013 4119 1484 4856 
L 1984 4856 
z
" transform="scale(0.015625)"/>
      <path id="DejaVuSans-2c" d="M 750 794 
L 1409 794 
L 1409 256 
L 897 -744 
L 494 -744 
L 750 256 
L 750 794 
z
" transform="scale(0.015625)"/>
      <path id="DejaVuSans-Oblique-3c3" d="M 2219 3044 
Q 1744 3044 1422 2700 
Q 1081 2341 969 1747 
Q 844 1119 1044 756 
Q 1241 397 1706 397 
Q 2166 397 2503 759 
Q 2844 1122 2966 1747 
Q 3075 2319 2881 2700 
Q 2700 3044 2219 3044 
z
M 2309 3503 
L 4219 3500 
L 4106 2925 
L 3463 2925 
Q 3706 2438 3575 1747 
Q 3406 888 2884 400 
Q 2359 -91 1609 -91 
Q 856 -91 525 400 
Q 194 888 363 1747 
Q 528 2609 1050 3097 
Q 1484 3503 2309 3503 
z
" transform="scale(0.015625)"/>
      <path id="DejaVuSans-29" d="M 513 4856 
L 1013 4856 
Q 1481 4119 1714 3412 
Q 1947 2706 1947 2009 
Q 1947 1309 1714 600 
Q 1481 -109 1013 -844 
L 513 -844 
Q 928 -128 1133 580 
Q 1338 1288 1338 2009 
Q 1338 2731 1133 3434 
Q 928 4138 513 4856 
z
" transform="scale(0.015625)"/>
      <path id="DejaVuSans-20" transform="scale(0.015625)"/>
      <path id="DejaVuSans-3d" d="M 678 2906 
L 4684 2906 
L 4684 2381 
L 678 2381 
L 678 2906 
z
M 678 1631 
L 4684 1631 
L 4684 1100 
L 678 1100 
L 678 1631 
z
" transform="scale(0.015625)"/>
      <path id="DejaVuSans-Oblique-6e" d="M 3566 2113 
L 3156 0 
L 2578 0 
L 2988 2091 
Q 3016 2238 3031 2350 
Q 3047 2463 3047 2528 
Q 3047 2791 2881 2937 
Q 2716 3084 2419 3084 
Q 1956 3084 1622 2776 
Q 1288 2469 1184 1941 
L 800 0 
L 225 0 
L 903 3500 
L 1478 3500 
L 1363 2950 
Q 1603 3253 1940 3418 
Q 2278 3584 2650 3584 
Q 3113 3584 3367 3334 
Q 3622 3084 3622 2631 
Q 3622 2519 3608 2391 
Q 3594 2263 3566 2113 
z
" transform="scale(0.015625)"/>
      <path id="DejaVuSans-35" d="M 691 4666 
L 3169 4666 
L 3169 4134 
L 1269 4134 
L 1269 2991 
Q 1406 3038 1543 3061 
Q 1681 3084 1819 3084 
Q 2600 3084 3056 2656 
Q 3513 2228 3513 1497 
Q 3513 744 3044 326 
Q 2575 -91 1722 -91 
Q 1428 -91 1123 -41 
Q 819 9 494 109 
L 494 744 
Q 775 591 1075 516 
Q 1375 441 1709 441 
Q 2250 441 2565 725 
Q 2881 1009 2881 1497 
Q 2881 1984 2565 2268 
Q 2250 2553 1709 2553 
Q 1456 2553 1204 2497 
Q 953 2441 691 2322 
L 691 4666 
z
" transform="scale(0.015625)"/>
     </defs>
     <use xlink:href="#DejaVuSans-Oblique-77" transform="translate(0 0.765625)"/>
     <use xlink:href="#DejaVuSans-223c" transform="translate(101.269531 0.765625)"/>
     <use xlink:href="#DejaVuSans-Oblique-4e" transform="translate(204.541016 0.765625)"/>
     <use xlink:href="#DejaVuSans-28" transform="translate(279.345703 0.765625)"/>
     <use xlink:href="#DejaVuSans-30" transform="translate(318.359375 0.765625)"/>
     <use xlink:href="#DejaVuSans-2c" transform="translate(381.982422 0.765625)"/>
     <use xlink:href="#DejaVuSans-Oblique-3c3" transform="translate(433.251953 0.765625)"/>
     <use xlink:href="#DejaVuSans-32" transform="translate(501.103568 39.046875) scale(0.7)"/>
     <use xlink:href="#DejaVuSans-29" transform="translate(548.374076 0.765625)"/>
     <use xlink:href="#DejaVuSans-2c" transform="translate(587.387747 0.765625)"/>
     <use xlink:href="#DejaVuSans-20" transform="translate(638.657279 0.765625)"/>
     <use xlink:href="#DejaVuSans-Oblique-3c3" transform="translate(670.444388 0.765625)"/>
     <use xlink:href="#DejaVuSans-3d" transform="translate(753.305716 0.765625)"/>
     <use xlink:href="#DejaVuSans-Oblique-6e" transform="translate(856.577201 0.765625)"/>
     <use xlink:href="#DejaVuSans-2212" transform="translate(924.606003 39.046875) scale(0.7)"/>
     <use xlink:href="#DejaVuSans-30" transform="translate(983.258346 39.046875) scale(0.7)"/>
     <use xlink:href="#DejaVuSans-2e" transform="translate(1027.794479 39.046875) scale(0.7)"/>
     <use xlink:href="#DejaVuSans-35" transform="translate(1050.045456 39.046875) scale(0.7)"/>
    </g>
   </g>
  </g>
  <g id="axes_2">
   <g id="patch_107">
    <path d="M 326.38125 182.306 
L 561.26125 182.306 
L 561.26125 24.72 
L 326.38125 24.72 
z
" style="fill: #ffffff"/>
   </g>
   <g id="patch_108">
    <path d="M 359.874215 182.306 
L 363.142006 182.306 
L 363.142006 182.224968 
L 359.874215 182.224968 
z
" clip-path="url(#p37de62ed19)" style="fill: #1f77b4; opacity: 0.4"/>
   </g>
   <g id="patch_109">
    <path d="M 363.142006 182.306 
L 366.409796 182.306 
L 366.409796 182.259696 
L 363.142006 182.259696 
z
" clip-path="url(#p37de62ed19)" style="fill: #1f77b4; opacity: 0.4"/>
   </g>
   <g id="patch_110">
    <path d="M 366.409796 182.306 
L 369.677587 182.306 
L 369.677587 182.190239 
L 366.409796 182.190239 
z
" clip-path="url(#p37de62ed19)" style="fill: #1f77b4; opacity: 0.4"/>
   </g>
   <g id="patch_111">
    <path d="M 369.677587 182.306 
L 372.945377 182.306 
L 372.945377 182.005023 
L 369.677587 182.005023 
z
" clip-path="url(#p37de62ed19)" style="fill: #1f77b4; opacity: 0.4"/>
   </g>
   <g id="patch_112">
    <path d="M 372.945377 182.306 
L 376.213168 182.306 
L 376.213168 181.854534 
L 372.945377 181.854534 
z
" clip-path="url(#p37de62ed19)" style="fill: #1f77b4; opacity: 0.4"/>
   </g>
   <g id="patch_113">
    <path d="M 376.213168 182.306 
L 379.480958 182.306 
L 379.480958 181.727197 
L 376.213168 181.727197 
z
" clip-path="url(#p37de62ed19)" style="fill: #1f77b4; opacity: 0.4"/>
   </g>
   <g id="patch_114">
    <path d="M 379.480958 182.306 
L 382.748749 182.306 
L 382.748749 181.067362 
L 379.480958 181.067362 
z
" clip-path="url(#p37de62ed19)" style="fill: #1f77b4; opacity: 0.4"/>
   </g>
   <g id="patch_115">
    <path d="M 382.748749 182.306 
L 386.016539 182.306 
L 386.016539 180.627472 
L 382.748749 180.627472 
z
" clip-path="url(#p37de62ed19)" style="fill: #1f77b4; opacity: 0.4"/>
   </g>
   <g id="patch_116">
    <path d="M 386.016539 182.306 
L 389.28433 182.306 
L 389.28433 179.527747 
L 386.016539 179.527747 
z
" clip-path="url(#p37de62ed19)" style="fill: #1f77b4; opacity: 0.4"/>
   </g>
   <g id="patch_117">
    <path d="M 389.28433 182.306 
L 392.55212 182.306 
L 392.55212 177.953403 
L 389.28433 177.953403 
z
" clip-path="url(#p37de62ed19)" style="fill: #1f77b4; opacity: 0.4"/>
   </g>
   <g id="patch_118">
    <path d="M 392.55212 182.306 
L 395.819911 182.306 
L 395.819911 175.568736 
L 392.55212 175.568736 
z
" clip-path="url(#p37de62ed19)" style="fill: #1f77b4; opacity: 0.4"/>
   </g>
   <g id="patch_119">
    <path d="M 395.819911 182.306 
L 399.087701 182.306 
L 399.087701 172.744178 
L 395.819911 172.744178 
z
" clip-path="url(#p37de62ed19)" style="fill: #1f77b4; opacity: 0.4"/>
   </g>
   <g id="patch_120">
    <path d="M 399.087701 182.306 
L 402.355492 182.306 
L 402.355492 169.491306 
L 399.087701 169.491306 
z
" clip-path="url(#p37de62ed19)" style="fill: #1f77b4; opacity: 0.4"/>
   </g>
   <g id="patch_121">
    <path d="M 402.355492 182.306 
L 405.623282 182.306 
L 405.623282 164.629363 
L 402.355492 164.629363 
z
" clip-path="url(#p37de62ed19)" style="fill: #1f77b4; opacity: 0.4"/>
   </g>
   <g id="patch_122">
    <path d="M 405.623282 182.306 
L 408.891073 182.306 
L 408.891073 157.660577 
L 405.623282 157.660577 
z
" clip-path="url(#p37de62ed19)" style="fill: #1f77b4; opacity: 0.4"/>
   </g>
   <g id="patch_123">
    <path d="M 408.891073 182.306 
L 412.158863 182.306 
L 412.158863 151.849397 
L 408.891073 151.849397 
z
" clip-path="url(#p37de62ed19)" style="fill: #1f77b4; opacity: 0.4"/>
   </g>
   <g id="patch_124">
    <path d="M 412.158863 182.306 
L 415.426654 182.306 
L 415.426654 143.804039 
L 412.158863 143.804039 
z
" clip-path="url(#p37de62ed19)" style="fill: #1f77b4; opacity: 0.4"/>
   </g>
   <g id="patch_125">
    <path d="M 415.426654 182.306 
L 418.694444 182.306 
L 418.694444 136.777373 
L 415.426654 136.777373 
z
" clip-path="url(#p37de62ed19)" style="fill: #1f77b4; opacity: 0.4"/>
   </g>
   <g id="patch_126">
    <path d="M 418.694444 182.306 
L 421.962235 182.306 
L 421.962235 127.342888 
L 418.694444 127.342888 
z
" clip-path="url(#p37de62ed19)" style="fill: #1f77b4; opacity: 0.4"/>
   </g>
   <g id="patch_127">
    <path d="M 421.962235 182.306 
L 425.230025 182.306 
L 425.230025 121.61274 
L 421.962235 121.61274 
z
" clip-path="url(#p37de62ed19)" style="fill: #1f77b4; opacity: 0.4"/>
   </g>
   <g id="patch_128">
    <path d="M 425.230025 182.306 
L 428.497816 182.306 
L 428.497816 113.567381 
L 425.230025 113.567381 
z
" clip-path="url(#p37de62ed19)" style="fill: #1f77b4; opacity: 0.4"/>
   </g>
   <g id="patch_129">
    <path d="M 428.497816 182.306 
L 431.765606 182.306 
L 431.765606 108.265548 
L 428.497816 108.265548 
z
" clip-path="url(#p37de62ed19)" style="fill: #1f77b4; opacity: 0.4"/>
   </g>
   <g id="patch_130">
    <path d="M 431.765606 182.306 
L 435.033397 182.306 
L 435.033397 105.660935 
L 431.765606 105.660935 
z
" clip-path="url(#p37de62ed19)" style="fill: #1f77b4; opacity: 0.4"/>
   </g>
   <g id="patch_131">
    <path d="M 435.033397 182.306 
L 438.301187 182.306 
L 438.301187 104.109744 
L 435.033397 104.109744 
z
" clip-path="url(#p37de62ed19)" style="fill: #1f77b4; opacity: 0.4"/>
   </g>
   <g id="patch_132">
    <path d="M 438.301187 182.306 
L 441.568978 182.306 
L 441.568978 105.88088 
L 438.301187 105.88088 
z
" clip-path="url(#p37de62ed19)" style="fill: #1f77b4; opacity: 0.4"/>
   </g>
   <g id="patch_133">
    <path d="M 441.568978 182.306 
L 444.836768 182.306 
L 444.836768 107.281583 
L 441.568978 107.281583 
z
" clip-path="url(#p37de62ed19)" style="fill: #1f77b4; opacity: 0.4"/>
   </g>
   <g id="patch_134">
    <path d="M 444.836768 182.306 
L 448.104559 182.306 
L 448.104559 112.247711 
L 444.836768 112.247711 
z
" clip-path="url(#p37de62ed19)" style="fill: #1f77b4; opacity: 0.4"/>
   </g>
   <g id="patch_135">
    <path d="M 448.104559 182.306 
L 451.372349 182.306 
L 451.372349 120.015244 
L 448.104559 120.015244 
z
" clip-path="url(#p37de62ed19)" style="fill: #1f77b4; opacity: 0.4"/>
   </g>
   <g id="patch_136">
    <path d="M 451.372349 182.306 
L 454.64014 182.306 
L 454.64014 127.389192 
L 451.372349 127.389192 
z
" clip-path="url(#p37de62ed19)" style="fill: #1f77b4; opacity: 0.4"/>
   </g>
   <g id="patch_137">
    <path d="M 454.64014 182.306 
L 457.90793 182.306 
L 457.90793 134.207489 
L 454.64014 134.207489 
z
" clip-path="url(#p37de62ed19)" style="fill: #1f77b4; opacity: 0.4"/>
   </g>
   <g id="patch_138">
    <path d="M 457.90793 182.306 
L 461.175721 182.306 
L 461.175721 142.310728 
L 457.90793 142.310728 
z
" clip-path="url(#p37de62ed19)" style="fill: #1f77b4; opacity: 0.4"/>
   </g>
   <g id="patch_139">
    <path d="M 461.175721 182.306 
L 464.443511 182.306 
L 464.443511 150.529727 
L 461.175721 150.529727 
z
" clip-path="url(#p37de62ed19)" style="fill: #1f77b4; opacity: 0.4"/>
   </g>
   <g id="patch_140">
    <path d="M 464.443511 182.306 
L 467.711302 182.306 
L 467.711302 157.266992 
L 464.443511 157.266992 
z
" clip-path="url(#p37de62ed19)" style="fill: #1f77b4; opacity: 0.4"/>
   </g>
   <g id="patch_141">
    <path d="M 467.711302 182.306 
L 470.979092 182.306 
L 470.979092 164.015832 
L 467.711302 164.015832 
z
" clip-path="url(#p37de62ed19)" style="fill: #1f77b4; opacity: 0.4"/>
   </g>
   <g id="patch_142">
    <path d="M 470.979092 182.306 
L 474.246883 182.306 
L 474.246883 167.77805 
L 470.979092 167.77805 
z
" clip-path="url(#p37de62ed19)" style="fill: #1f77b4; opacity: 0.4"/>
   </g>
   <g id="patch_143">
    <path d="M 474.246883 182.306 
L 477.514673 182.306 
L 477.514673 172.234832 
L 474.246883 172.234832 
z
" clip-path="url(#p37de62ed19)" style="fill: #1f77b4; opacity: 0.4"/>
   </g>
   <g id="patch_144">
    <path d="M 477.514673 182.306 
L 480.782464 182.306 
L 480.782464 174.862596 
L 477.514673 174.862596 
z
" clip-path="url(#p37de62ed19)" style="fill: #1f77b4; opacity: 0.4"/>
   </g>
   <g id="patch_145">
    <path d="M 480.782464 182.306 
L 484.050254 182.306 
L 484.050254 178.011283 
L 480.782464 178.011283 
z
" clip-path="url(#p37de62ed19)" style="fill: #1f77b4; opacity: 0.4"/>
   </g>
   <g id="patch_146">
    <path d="M 484.050254 182.306 
L 487.318045 182.306 
L 487.318045 179.064704 
L 484.050254 179.064704 
z
" clip-path="url(#p37de62ed19)" style="fill: #1f77b4; opacity: 0.4"/>
   </g>
   <g id="patch_147">
    <path d="M 487.318045 182.306 
L 490.585835 182.306 
L 490.585835 180.384375 
L 487.318045 180.384375 
z
" clip-path="url(#p37de62ed19)" style="fill: #1f77b4; opacity: 0.4"/>
   </g>
   <g id="patch_148">
    <path d="M 490.585835 182.306 
L 493.853626 182.306 
L 493.853626 180.905297 
L 490.585835 180.905297 
z
" clip-path="url(#p37de62ed19)" style="fill: #1f77b4; opacity: 0.4"/>
   </g>
   <g id="patch_149">
    <path d="M 493.853626 182.306 
L 497.121416 182.306 
L 497.121416 181.391492 
L 493.853626 181.391492 
z
" clip-path="url(#p37de62ed19)" style="fill: #1f77b4; opacity: 0.4"/>
   </g>
   <g id="patch_150">
    <path d="M 497.121416 182.306 
L 500.389207 182.306 
L 500.389207 181.842958 
L 497.121416 181.842958 
z
" clip-path="url(#p37de62ed19)" style="fill: #1f77b4; opacity: 0.4"/>
   </g>
   <g id="patch_151">
    <path d="M 500.389207 182.306 
L 503.656997 182.306 
L 503.656997 182.039751 
L 500.389207 182.039751 
z
" clip-path="url(#p37de62ed19)" style="fill: #1f77b4; opacity: 0.4"/>
   </g>
   <g id="patch_152">
    <path d="M 503.656997 182.306 
L 506.924788 182.306 
L 506.924788 182.167087 
L 503.656997 182.167087 
z
" clip-path="url(#p37de62ed19)" style="fill: #1f77b4; opacity: 0.4"/>
   </g>
   <g id="patch_153">
    <path d="M 506.924788 182.306 
L 510.192578 182.306 
L 510.192578 182.213392 
L 506.924788 182.213392 
z
" clip-path="url(#p37de62ed19)" style="fill: #1f77b4; opacity: 0.4"/>
   </g>
   <g id="patch_154">
    <path d="M 510.192578 182.306 
L 513.460369 182.306 
L 513.460369 182.24812 
L 510.192578 182.24812 
z
" clip-path="url(#p37de62ed19)" style="fill: #1f77b4; opacity: 0.4"/>
   </g>
   <g id="patch_155">
    <path d="M 513.460369 182.306 
L 516.728159 182.306 
L 516.728159 182.294424 
L 513.460369 182.294424 
z
" clip-path="url(#p37de62ed19)" style="fill: #1f77b4; opacity: 0.4"/>
   </g>
   <g id="patch_156">
    <path d="M 516.728159 182.306 
L 519.99595 182.306 
L 519.99595 182.306 
L 516.728159 182.306 
z
" clip-path="url(#p37de62ed19)" style="fill: #1f77b4; opacity: 0.4"/>
   </g>
   <g id="patch_157">
    <path d="M 519.99595 182.306 
L 523.26374 182.306 
L 523.26374 182.282848 
L 519.99595 182.282848 
z
" clip-path="url(#p37de62ed19)" style="fill: #1f77b4; opacity: 0.4"/>
   </g>
   <g id="patch_158">
    <path d="M 342.348094 182.306 
L 346.40702 182.306 
L 346.40702 182.30134 
L 342.348094 182.30134 
z
" clip-path="url(#p37de62ed19)" style="fill: #ff7f0e; opacity: 0.4"/>
   </g>
   <g id="patch_159">
    <path d="M 346.40702 182.306 
L 350.465947 182.306 
L 350.465947 182.30134 
L 346.40702 182.30134 
z
" clip-path="url(#p37de62ed19)" style="fill: #ff7f0e; opacity: 0.4"/>
   </g>
   <g id="patch_160">
    <path d="M 350.465947 182.306 
L 354.524873 182.306 
L 354.524873 182.282701 
L 350.465947 182.282701 
z
" clip-path="url(#p37de62ed19)" style="fill: #ff7f0e; opacity: 0.4"/>
   </g>
   <g id="patch_161">
    <path d="M 354.524873 182.306 
L 358.583799 182.306 
L 358.583799 182.268721 
L 354.524873 182.268721 
z
" clip-path="url(#p37de62ed19)" style="fill: #ff7f0e; opacity: 0.4"/>
   </g>
   <g id="patch_162">
    <path d="M 358.583799 182.306 
L 362.642725 182.306 
L 362.642725 182.259401 
L 358.583799 182.259401 
z
" clip-path="url(#p37de62ed19)" style="fill: #ff7f0e; opacity: 0.4"/>
   </g>
   <g id="patch_163">
    <path d="M 362.642725 182.306 
L 366.701652 182.306 
L 366.701652 182.170864 
L 362.642725 182.170864 
z
" clip-path="url(#p37de62ed19)" style="fill: #ff7f0e; opacity: 0.4"/>
   </g>
   <g id="patch_164">
    <path d="M 366.701652 182.306 
L 370.760578 182.306 
L 370.760578 182.026408 
L 366.701652 182.026408 
z
" clip-path="url(#p37de62ed19)" style="fill: #ff7f0e; opacity: 0.4"/>
   </g>
   <g id="patch_165">
    <path d="M 370.760578 182.306 
L 374.819504 182.306 
L 374.819504 181.863312 
L 370.760578 181.863312 
z
" clip-path="url(#p37de62ed19)" style="fill: #ff7f0e; opacity: 0.4"/>
   </g>
   <g id="patch_166">
    <path d="M 374.819504 182.306 
L 378.87843 182.306 
L 378.87843 181.262189 
L 374.819504 181.262189 
z
" clip-path="url(#p37de62ed19)" style="fill: #ff7f0e; opacity: 0.4"/>
   </g>
   <g id="patch_167">
    <path d="M 378.87843 182.306 
L 382.937357 182.306 
L 382.937357 180.614468 
L 378.87843 180.614468 
z
" clip-path="url(#p37de62ed19)" style="fill: #ff7f0e; opacity: 0.4"/>
   </g>
   <g id="patch_168">
    <path d="M 382.937357 182.306 
L 386.996283 182.306 
L 386.996283 179.46814 
L 382.937357 179.46814 
z
" clip-path="url(#p37de62ed19)" style="fill: #ff7f0e; opacity: 0.4"/>
   </g>
   <g id="patch_169">
    <path d="M 386.996283 182.306 
L 391.055209 182.306 
L 391.055209 177.981642 
L 386.996283 177.981642 
z
" clip-path="url(#p37de62ed19)" style="fill: #ff7f0e; opacity: 0.4"/>
   </g>
   <g id="patch_170">
    <path d="M 391.055209 182.306 
L 395.114135 182.306 
L 395.114135 174.887489 
L 391.055209 174.887489 
z
" clip-path="url(#p37de62ed19)" style="fill: #ff7f0e; opacity: 0.4"/>
   </g>
   <g id="patch_171">
    <path d="M 395.114135 182.306 
L 399.173061 182.306 
L 399.173061 171.583643 
L 395.114135 171.583643 
z
" clip-path="url(#p37de62ed19)" style="fill: #ff7f0e; opacity: 0.4"/>
   </g>
   <g id="patch_172">
    <path d="M 399.173061 182.306 
L 403.231988 182.306 
L 403.231988 166.933094 
L 399.173061 166.933094 
z
" clip-path="url(#p37de62ed19)" style="fill: #ff7f0e; opacity: 0.4"/>
   </g>
   <g id="patch_173">
    <path d="M 403.231988 182.306 
L 407.290914 182.306 
L 407.290914 160.455877 
L 403.231988 160.455877 
z
" clip-path="url(#p37de62ed19)" style="fill: #ff7f0e; opacity: 0.4"/>
   </g>
   <g id="patch_174">
    <path d="M 407.290914 182.306 
L 411.34984 182.306 
L 411.34984 153.205121 
L 407.290914 153.205121 
z
" clip-path="url(#p37de62ed19)" style="fill: #ff7f0e; opacity: 0.4"/>
   </g>
   <g id="patch_175">
    <path d="M 411.34984 182.306 
L 415.408766 182.306 
L 415.408766 144.705521 
L 411.34984 144.705521 
z
" clip-path="url(#p37de62ed19)" style="fill: #ff7f0e; opacity: 0.4"/>
   </g>
   <g id="patch_176">
    <path d="M 415.408766 182.306 
L 419.467693 182.306 
L 419.467693 135.367145 
L 415.408766 135.367145 
z
" clip-path="url(#p37de62ed19)" style="fill: #ff7f0e; opacity: 0.4"/>
   </g>
   <g id="patch_177">
    <path d="M 419.467693 182.306 
L 423.526619 182.306 
L 423.526619 127.203055 
L 419.467693 127.203055 
z
" clip-path="url(#p37de62ed19)" style="fill: #ff7f0e; opacity: 0.4"/>
   </g>
   <g id="patch_178">
    <path d="M 423.526619 182.306 
L 427.585545 182.306 
L 427.585545 119.085564 
L 423.526619 119.085564 
z
" clip-path="url(#p37de62ed19)" style="fill: #ff7f0e; opacity: 0.4"/>
   </g>
   <g id="patch_179">
    <path d="M 427.585545 182.306 
L 431.644471 182.306 
L 431.644471 112.594367 
L 427.585545 112.594367 
z
" clip-path="url(#p37de62ed19)" style="fill: #ff7f0e; opacity: 0.4"/>
   </g>
   <g id="patch_180">
    <path d="M 431.644471 182.306 
L 435.703398 182.306 
L 435.703398 109.132085 
L 431.644471 109.132085 
z
" clip-path="url(#p37de62ed19)" style="fill: #ff7f0e; opacity: 0.4"/>
   </g>
   <g id="patch_181">
    <path d="M 435.703398 182.306 
L 439.762324 182.306 
L 439.762324 107.90188 
L 435.703398 107.90188 
z
" clip-path="url(#p37de62ed19)" style="fill: #ff7f0e; opacity: 0.4"/>
   </g>
   <g id="patch_182">
    <path d="M 439.762324 182.306 
L 443.82125 182.306 
L 443.82125 109.453616 
L 439.762324 109.453616 
z
" clip-path="url(#p37de62ed19)" style="fill: #ff7f0e; opacity: 0.4"/>
   </g>
   <g id="patch_183">
    <path d="M 443.82125 182.306 
L 447.880176 182.306 
L 447.880176 113.880491 
L 443.82125 113.880491 
z
" clip-path="url(#p37de62ed19)" style="fill: #ff7f0e; opacity: 0.4"/>
   </g>
   <g id="patch_184">
    <path d="M 447.880176 182.306 
L 451.939102 182.306 
L 451.939102 121.792948 
L 447.880176 121.792948 
z
" clip-path="url(#p37de62ed19)" style="fill: #ff7f0e; opacity: 0.4"/>
   </g>
   <g id="patch_185">
    <path d="M 451.939102 182.306 
L 455.998029 182.306 
L 455.998029 129.747343 
L 451.939102 129.747343 
z
" clip-path="url(#p37de62ed19)" style="fill: #ff7f0e; opacity: 0.4"/>
   </g>
   <g id="patch_186">
    <path d="M 455.998029 182.306 
L 460.056955 182.306 
L 460.056955 138.834087 
L 455.998029 138.834087 
z
" clip-path="url(#p37de62ed19)" style="fill: #ff7f0e; opacity: 0.4"/>
   </g>
   <g id="patch_187">
    <path d="M 460.056955 182.306 
L 464.115881 182.306 
L 464.115881 148.014028 
L 460.056955 148.014028 
z
" clip-path="url(#p37de62ed19)" style="fill: #ff7f0e; opacity: 0.4"/>
   </g>
   <g id="patch_188">
    <path d="M 464.115881 182.306 
L 468.174807 182.306 
L 468.174807 155.660872 
L 464.115881 155.660872 
z
" clip-path="url(#p37de62ed19)" style="fill: #ff7f0e; opacity: 0.4"/>
   </g>
   <g id="patch_189">
    <path d="M 468.174807 182.306 
L 472.233734 182.306 
L 472.233734 162.82775 
L 468.174807 162.82775 
z
" clip-path="url(#p37de62ed19)" style="fill: #ff7f0e; opacity: 0.4"/>
   </g>
   <g id="patch_190">
    <path d="M 472.233734 182.306 
L 476.29266 182.306 
L 476.29266 168.508129 
L 472.233734 168.508129 
z
" clip-path="url(#p37de62ed19)" style="fill: #ff7f0e; opacity: 0.4"/>
   </g>
   <g id="patch_191">
    <path d="M 476.29266 182.306 
L 480.351586 182.306 
L 480.351586 172.883746 
L 476.29266 172.883746 
z
" clip-path="url(#p37de62ed19)" style="fill: #ff7f0e; opacity: 0.4"/>
   </g>
   <g id="patch_192">
    <path d="M 480.351586 182.306 
L 484.410512 182.306 
L 484.410512 176.154974 
L 480.351586 176.154974 
z
" clip-path="url(#p37de62ed19)" style="fill: #ff7f0e; opacity: 0.4"/>
   </g>
   <g id="patch_193">
    <path d="M 484.410512 182.306 
L 488.469439 182.306 
L 488.469439 178.606064 
L 484.410512 178.606064 
z
" clip-path="url(#p37de62ed19)" style="fill: #ff7f0e; opacity: 0.4"/>
   </g>
   <g id="patch_194">
    <path d="M 488.469439 182.306 
L 492.528365 182.306 
L 492.528365 180.022664 
L 488.469439 180.022664 
z
" clip-path="url(#p37de62ed19)" style="fill: #ff7f0e; opacity: 0.4"/>
   </g>
   <g id="patch_195">
    <path d="M 492.528365 182.306 
L 496.587291 182.306 
L 496.587291 181.024536 
L 492.528365 181.024536 
z
" clip-path="url(#p37de62ed19)" style="fill: #ff7f0e; opacity: 0.4"/>
   </g>
   <g id="patch_196">
    <path d="M 496.587291 182.306 
L 500.646217 182.306 
L 500.646217 181.574401 
L 496.587291 181.574401 
z
" clip-path="url(#p37de62ed19)" style="fill: #ff7f0e; opacity: 0.4"/>
   </g>
   <g id="patch_197">
    <path d="M 500.646217 182.306 
L 504.705143 182.306 
L 504.705143 181.844673 
L 500.646217 181.844673 
z
" clip-path="url(#p37de62ed19)" style="fill: #ff7f0e; opacity: 0.4"/>
   </g>
   <g id="patch_198">
    <path d="M 504.705143 182.306 
L 508.76407 182.306 
L 508.76407 182.100966 
L 504.705143 182.100966 
z
" clip-path="url(#p37de62ed19)" style="fill: #ff7f0e; opacity: 0.4"/>
   </g>
   <g id="patch_199">
    <path d="M 508.76407 182.306 
L 512.822996 182.306 
L 512.822996 182.217462 
L 508.76407 182.217462 
z
" clip-path="url(#p37de62ed19)" style="fill: #ff7f0e; opacity: 0.4"/>
   </g>
   <g id="patch_200">
    <path d="M 512.822996 182.306 
L 516.881922 182.306 
L 516.881922 182.236102 
L 512.822996 182.236102 
z
" clip-path="url(#p37de62ed19)" style="fill: #ff7f0e; opacity: 0.4"/>
   </g>
   <g id="patch_201">
    <path d="M 516.881922 182.306 
L 520.940848 182.306 
L 520.940848 182.273381 
L 516.881922 182.273381 
z
" clip-path="url(#p37de62ed19)" style="fill: #ff7f0e; opacity: 0.4"/>
   </g>
   <g id="patch_202">
    <path d="M 520.940848 182.306 
L 524.999775 182.306 
L 524.999775 182.30134 
L 520.940848 182.30134 
z
" clip-path="url(#p37de62ed19)" style="fill: #ff7f0e; opacity: 0.4"/>
   </g>
   <g id="patch_203">
    <path d="M 524.999775 182.306 
L 529.058701 182.306 
L 529.058701 182.30134 
L 524.999775 182.30134 
z
" clip-path="url(#p37de62ed19)" style="fill: #ff7f0e; opacity: 0.4"/>
   </g>
   <g id="patch_204">
    <path d="M 529.058701 182.306 
L 533.117627 182.306 
L 533.117627 182.30134 
L 529.058701 182.30134 
z
" clip-path="url(#p37de62ed19)" style="fill: #ff7f0e; opacity: 0.4"/>
   </g>
   <g id="patch_205">
    <path d="M 533.117627 182.306 
L 537.176553 182.306 
L 537.176553 182.306 
L 533.117627 182.306 
z
" clip-path="url(#p37de62ed19)" style="fill: #ff7f0e; opacity: 0.4"/>
   </g>
   <g id="patch_206">
    <path d="M 537.176553 182.306 
L 541.23548 182.306 
L 541.23548 182.306 
L 537.176553 182.306 
z
" clip-path="url(#p37de62ed19)" style="fill: #ff7f0e; opacity: 0.4"/>
   </g>
   <g id="patch_207">
    <path d="M 541.23548 182.306 
L 545.294406 182.306 
L 545.294406 182.29668 
L 541.23548 182.29668 
z
" clip-path="url(#p37de62ed19)" style="fill: #ff7f0e; opacity: 0.4"/>
   </g>
   <g id="matplotlib.axis_3">
    <g id="xtick_6">
     <g id="line2d_13">
      <g>
       <use xlink:href="#m5f7c8700c1" x="360.185858" y="182.306" style="stroke: #000000; stroke-width: 0.8"/>
      </g>
     </g>
     <g id="text_13">
      <!-- −4 -->
      <g transform="translate(352.814765 196.904437) scale(0.1 -0.1)">
       <use xlink:href="#DejaVuSans-2212"/>
       <use xlink:href="#DejaVuSans-34" x="83.789062"/>
      </g>
     </g>
    </g>
    <g id="xtick_7">
     <g id="line2d_14">
      <g>
       <use xlink:href="#m5f7c8700c1" x="398.593458" y="182.306" style="stroke: #000000; stroke-width: 0.8"/>
      </g>
     </g>
     <g id="text_14">
      <!-- −2 -->
      <g transform="translate(391.222364 196.904437) scale(0.1 -0.1)">
       <use xlink:href="#DejaVuSans-2212"/>
       <use xlink:href="#DejaVuSans-32" x="83.789062"/>
      </g>
     </g>
    </g>
    <g id="xtick_8">
     <g id="line2d_15">
      <g>
       <use xlink:href="#m5f7c8700c1" x="437.001057" y="182.306" style="stroke: #000000; stroke-width: 0.8"/>
      </g>
     </g>
     <g id="text_15">
      <!-- 0 -->
      <g transform="translate(433.819807 196.904437) scale(0.1 -0.1)">
       <use xlink:href="#DejaVuSans-30"/>
      </g>
     </g>
    </g>
    <g id="xtick_9">
     <g id="line2d_16">
      <g>
       <use xlink:href="#m5f7c8700c1" x="475.408657" y="182.306" style="stroke: #000000; stroke-width: 0.8"/>
      </g>
     </g>
     <g id="text_16">
      <!-- 2 -->
      <g transform="translate(472.227407 196.904437) scale(0.1 -0.1)">
       <use xlink:href="#DejaVuSans-32"/>
      </g>
     </g>
    </g>
    <g id="xtick_10">
     <g id="line2d_17">
      <g>
       <use xlink:href="#m5f7c8700c1" x="513.816257" y="182.306" style="stroke: #000000; stroke-width: 0.8"/>
      </g>
     </g>
     <g id="text_17">
      <!-- 4 -->
      <g transform="translate(510.635007 196.904437) scale(0.1 -0.1)">
       <use xlink:href="#DejaVuSans-34"/>
      </g>
     </g>
    </g>
    <g id="xtick_11">
     <g id="line2d_18">
      <g>
       <use xlink:href="#m5f7c8700c1" x="552.223856" y="182.306" style="stroke: #000000; stroke-width: 0.8"/>
      </g>
     </g>
     <g id="text_18">
      <!-- 6 -->
      <g transform="translate(549.042606 196.904437) scale(0.1 -0.1)">
       <use xlink:href="#DejaVuSans-36"/>
      </g>
     </g>
    </g>
   </g>
   <g id="matplotlib.axis_4">
    <g id="ytick_6">
     <g id="line2d_19">
      <g>
       <use xlink:href="#m07815c30d0" x="326.38125" y="182.306" style="stroke: #000000; stroke-width: 0.8"/>
      </g>
     </g>
     <g id="text_19">
      <!-- 0.0 -->
      <g transform="translate(303.478125 186.105219) scale(0.1 -0.1)">
       <use xlink:href="#DejaVuSans-30"/>
       <use xlink:href="#DejaVuSans-2e" x="63.623047"/>
       <use xlink:href="#DejaVuSans-30" x="95.410156"/>
      </g>
     </g>
    </g>
    <g id="ytick_7">
     <g id="line2d_20">
      <g>
       <use xlink:href="#m07815c30d0" x="326.38125" y="142.9095" style="stroke: #000000; stroke-width: 0.8"/>
      </g>
     </g>
     <g id="text_20">
      <!-- 0.2 -->
      <g transform="translate(303.478125 146.708719) scale(0.1 -0.1)">
       <use xlink:href="#DejaVuSans-30"/>
       <use xlink:href="#DejaVuSans-2e" x="63.623047"/>
       <use xlink:href="#DejaVuSans-32" x="95.410156"/>
      </g>
     </g>
    </g>
    <g id="ytick_8">
     <g id="line2d_21">
      <g>
       <use xlink:href="#m07815c30d0" x="326.38125" y="103.513" style="stroke: #000000; stroke-width: 0.8"/>
      </g>
     </g>
     <g id="text_21">
      <!-- 0.4 -->
      <g transform="translate(303.478125 107.312219) scale(0.1 -0.1)">
       <use xlink:href="#DejaVuSans-30"/>
       <use xlink:href="#DejaVuSans-2e" x="63.623047"/>
       <use xlink:href="#DejaVuSans-34" x="95.410156"/>
      </g>
     </g>
    </g>
    <g id="ytick_9">
     <g id="line2d_22">
      <g>
       <use xlink:href="#m07815c30d0" x="326.38125" y="64.1165" style="stroke: #000000; stroke-width: 0.8"/>
      </g>
     </g>
     <g id="text_22">
      <!-- 0.6 -->
      <g transform="translate(303.478125 67.915719) scale(0.1 -0.1)">
       <use xlink:href="#DejaVuSans-30"/>
       <use xlink:href="#DejaVuSans-2e" x="63.623047"/>
       <use xlink:href="#DejaVuSans-36" x="95.410156"/>
      </g>
     </g>
    </g>
    <g id="ytick_10">
     <g id="line2d_23">
      <g>
       <use xlink:href="#m07815c30d0" x="326.38125" y="24.72" style="stroke: #000000; stroke-width: 0.8"/>
      </g>
     </g>
     <g id="text_23">
      <!-- 0.8 -->
      <g transform="translate(303.478125 28.519219) scale(0.1 -0.1)">
       <use xlink:href="#DejaVuSans-30"/>
       <use xlink:href="#DejaVuSans-2e" x="63.623047"/>
       <use xlink:href="#DejaVuSans-38" x="95.410156"/>
      </g>
     </g>
    </g>
    <g id="text_24">
     <!-- Density -->
     <g transform="translate(297.398438 122.521594) rotate(-90) scale(0.1 -0.1)">
      <use xlink:href="#DejaVuSans-44"/>
      <use xlink:href="#DejaVuSans-65" x="77.001953"/>
      <use xlink:href="#DejaVuSans-6e" x="138.525391"/>
      <use xlink:href="#DejaVuSans-73" x="201.904297"/>
      <use xlink:href="#DejaVuSans-69" x="254.003906"/>
      <use xlink:href="#DejaVuSans-74" x="281.787109"/>
      <use xlink:href="#DejaVuSans-79" x="320.996094"/>
     </g>
    </g>
   </g>
   <g id="line2d_24">
    <path d="M 354.1113 182.30581 
L 367.295874 182.209569 
L 376.085591 181.807958 
L 378.722506 181.534487 
L 384.875307 180.407606 
L 386.63325 179.922534 
L 388.391194 179.251883 
L 390.149137 178.347257 
L 391.90708 177.187496 
L 394.543995 175.154261 
L 397.18091 172.878564 
L 399.817825 170.288932 
L 401.575768 168.154943 
L 403.333711 165.504674 
L 405.091655 162.355461 
L 410.365485 151.760982 
L 412.123428 147.889657 
L 416.518286 137.397505 
L 420.034173 128.688137 
L 424.429031 119.348482 
L 426.186974 115.369757 
L 427.944917 111.951942 
L 429.702861 109.209965 
L 430.581832 108.091012 
L 431.460804 107.159466 
L 432.339776 106.43111 
L 433.218747 105.896194 
L 434.097719 105.519065 
L 435.855662 105.123797 
L 437.613605 105.160481 
L 440.25052 105.430133 
L 441.129492 105.707871 
L 442.008464 106.283339 
L 442.887435 107.178491 
L 444.645379 109.652037 
L 446.403322 112.807311 
L 449.919208 120.237515 
L 452.556123 126.070721 
L 456.07201 134.107834 
L 458.708925 140.175739 
L 463.103783 151.195031 
L 465.740698 156.569894 
L 468.377613 161.629391 
L 470.135556 164.534466 
L 472.772471 168.22876 
L 474.530414 170.517172 
L 476.288358 172.432519 
L 478.925273 174.789765 
L 481.562188 177.0221 
L 483.320131 178.191129 
L 485.078074 178.940547 
L 490.351904 180.600278 
L 492.988819 181.054284 
L 500.020592 181.891265 
L 505.294422 182.155586 
L 519.357968 182.301978 
L 529.026656 182.305901 
L 529.026656 182.305901 
" clip-path="url(#p37de62ed19)" style="fill: none; stroke: #1f77b4; stroke-width: 1.5; stroke-linecap: square"/>
   </g>
   <g id="line2d_25">
    <path d="M 337.057614 182.305952 
L 362.809647 182.217988 
L 372.466659 181.859611 
L 374.612662 181.636071 
L 381.05067 180.532641 
L 386.415677 179.076077 
L 387.488678 178.654215 
L 389.634681 177.428349 
L 394.999688 173.570595 
L 396.072689 172.62482 
L 398.218692 170.309673 
L 401.437696 166.506072 
L 403.583699 163.25531 
L 407.875704 156.011471 
L 410.021707 151.712728 
L 422.897723 124.310961 
L 427.189729 116.433304 
L 429.335731 113.183712 
L 430.408733 111.77392 
L 431.481734 110.609078 
L 432.554736 109.73789 
L 434.700738 108.407018 
L 435.77374 107.935925 
L 436.846741 107.859983 
L 437.919742 108.188544 
L 440.065745 108.979282 
L 441.138747 109.316723 
L 442.211748 109.88644 
L 443.284749 110.766584 
L 444.357751 111.914118 
L 445.430752 113.34472 
L 446.503753 115.103921 
L 448.649756 119.292191 
L 456.160766 134.586218 
L 461.525773 146.796606 
L 465.817778 154.927234 
L 470.109784 162.655151 
L 472.255786 165.944287 
L 474.401789 168.680076 
L 476.547792 171.042074 
L 478.693795 173.108819 
L 481.912799 175.745938 
L 484.058801 177.235362 
L 486.204804 178.427692 
L 488.350807 179.296172 
L 491.569811 180.300971 
L 494.788815 181.050894 
L 496.934818 181.369052 
L 502.299825 181.843256 
L 508.737833 182.159189 
L 517.321844 182.266614 
L 544.146878 182.299787 
L 550.584886 182.305952 
L 550.584886 182.305952 
" clip-path="url(#p37de62ed19)" style="fill: none; stroke: #ff7f0e; stroke-width: 1.5; stroke-linecap: square"/>
   </g>
   <g id="patch_208">
    <path d="M 326.38125 182.306 
L 326.38125 24.72 
" style="fill: none; stroke: #000000; stroke-width: 0.8; stroke-linejoin: miter; stroke-linecap: square"/>
   </g>
   <g id="patch_209">
    <path d="M 561.26125 182.306 
L 561.26125 24.72 
" style="fill: none; stroke: #000000; stroke-width: 0.8; stroke-linejoin: miter; stroke-linecap: square"/>
   </g>
   <g id="patch_210">
    <path d="M 326.38125 182.306 
L 561.26125 182.306 
" style="fill: none; stroke: #000000; stroke-width: 0.8; stroke-linejoin: miter; stroke-linecap: square"/>
   </g>
   <g id="patch_211">
    <path d="M 326.38125 24.72 
L 561.26125 24.72 
" style="fill: none; stroke: #000000; stroke-width: 0.8; stroke-linejoin: miter; stroke-linecap: square"/>
   </g>
   <g id="text_25">
    <!-- $w \sim N(0, \sigma^2),$ $\sigma = \frac{5}{3} {n}^{-0.5}$ -->
    <g transform="translate(374.52125 18.72) scale(0.12 -0.12)">
     <defs>
      <path id="DejaVuSans-33" d="M 2597 2516 
Q 3050 2419 3304 2112 
Q 3559 1806 3559 1356 
Q 3559 666 3084 287 
Q 2609 -91 1734 -91 
Q 1441 -91 1130 -33 
Q 819 25 488 141 
L 488 750 
Q 750 597 1062 519 
Q 1375 441 1716 441 
Q 2309 441 2620 675 
Q 2931 909 2931 1356 
Q 2931 1769 2642 2001 
Q 2353 2234 1838 2234 
L 1294 2234 
L 1294 2753 
L 1863 2753 
Q 2328 2753 2575 2939 
Q 2822 3125 2822 3475 
Q 2822 3834 2567 4026 
Q 2313 4219 1838 4219 
Q 1578 4219 1281 4162 
Q 984 4106 628 3988 
L 628 4550 
Q 988 4650 1302 4700 
Q 1616 4750 1894 4750 
Q 2613 4750 3031 4423 
Q 3450 4097 3450 3541 
Q 3450 3153 3228 2886 
Q 3006 2619 2597 2516 
z
" transform="scale(0.015625)"/>
     </defs>
     <use xlink:href="#DejaVuSans-Oblique-77" transform="translate(0 0.173438)"/>
     <use xlink:href="#DejaVuSans-223c" transform="translate(101.269531 0.173438)"/>
     <use xlink:href="#DejaVuSans-Oblique-4e" transform="translate(204.541016 0.173438)"/>
     <use xlink:href="#DejaVuSans-28" transform="translate(279.345703 0.173438)"/>
     <use xlink:href="#DejaVuSans-30" transform="translate(318.359375 0.173438)"/>
     <use xlink:href="#DejaVuSans-2c" transform="translate(381.982422 0.173438)"/>
     <use xlink:href="#DejaVuSans-Oblique-3c3" transform="translate(433.251953 0.173438)"/>
     <use xlink:href="#DejaVuSans-32" transform="translate(501.103568 38.454688) scale(0.7)"/>
     <use xlink:href="#DejaVuSans-29" transform="translate(548.374076 0.173438)"/>
     <use xlink:href="#DejaVuSans-2c" transform="translate(587.387747 0.173438)"/>
     <use xlink:href="#DejaVuSans-20" transform="translate(638.657279 0.173438)"/>
     <use xlink:href="#DejaVuSans-Oblique-3c3" transform="translate(670.444388 0.173438)"/>
     <use xlink:href="#DejaVuSans-3d" transform="translate(753.305716 0.173438)"/>
     <use xlink:href="#DejaVuSans-35" transform="translate(856.577201 44.965625) scale(0.7)"/>
     <use xlink:href="#DejaVuSans-33" transform="translate(856.577201 -39.232812) scale(0.7)"/>
     <use xlink:href="#DejaVuSans-Oblique-6e" transform="translate(913.613333 0.173438)"/>
     <use xlink:href="#DejaVuSans-2212" transform="translate(981.642135 38.454688) scale(0.7)"/>
     <use xlink:href="#DejaVuSans-30" transform="translate(1040.294479 38.454688) scale(0.7)"/>
     <use xlink:href="#DejaVuSans-2e" transform="translate(1084.830612 38.454688) scale(0.7)"/>
     <use xlink:href="#DejaVuSans-35" transform="translate(1107.081589 38.454688) scale(0.7)"/>
     <path d="M 856.577201 18.970313 
L 856.577201 25.220313 
L 901.113333 25.220313 
L 901.113333 18.970313 
L 856.577201 18.970313 
z
"/>
    </g>
   </g>
   <g id="legend_1">
    <g id="patch_212">
     <path d="M 471.76125 62.22 
L 554.26125 62.22 
Q 556.26125 62.22 556.26125 60.22 
L 556.26125 31.72 
Q 556.26125 29.72 554.26125 29.72 
L 471.76125 29.72 
Q 469.76125 29.72 469.76125 31.72 
L 469.76125 60.22 
Q 469.76125 62.22 471.76125 62.22 
z
" style="fill: #ffffff; opacity: 0.8; stroke: #cccccc; stroke-linejoin: miter"/>
    </g>
    <g id="patch_213">
     <path d="M 473.76125 41.32 
L 493.76125 41.32 
L 493.76125 34.32 
L 473.76125 34.32 
z
" style="fill: #1f77b4; opacity: 0.4"/>
    </g>
    <g id="text_26">
     <!-- $\mathbf{x}$ (input) -->
     <g transform="translate(501.76125 41.32) scale(0.1 -0.1)">
      <defs>
       <path id="DejaVuSans-Bold-78" d="M 1422 1791 
L 159 3500 
L 1344 3500 
L 2059 2463 
L 2784 3500 
L 3969 3500 
L 2706 1797 
L 4031 0 
L 2847 0 
L 2059 1106 
L 1281 0 
L 97 0 
L 1422 1791 
z
" transform="scale(0.015625)"/>
       <path id="DejaVuSans-70" d="M 1159 525 
L 1159 -1331 
L 581 -1331 
L 581 3500 
L 1159 3500 
L 1159 2969 
Q 1341 3281 1617 3432 
Q 1894 3584 2278 3584 
Q 2916 3584 3314 3078 
Q 3713 2572 3713 1747 
Q 3713 922 3314 415 
Q 2916 -91 2278 -91 
Q 1894 -91 1617 61 
Q 1341 213 1159 525 
z
M 3116 1747 
Q 3116 2381 2855 2742 
Q 2594 3103 2138 3103 
Q 1681 3103 1420 2742 
Q 1159 2381 1159 1747 
Q 1159 1113 1420 752 
Q 1681 391 2138 391 
Q 2594 391 2855 752 
Q 3116 1113 3116 1747 
z
" transform="scale(0.015625)"/>
       <path id="DejaVuSans-75" d="M 544 1381 
L 544 3500 
L 1119 3500 
L 1119 1403 
Q 1119 906 1312 657 
Q 1506 409 1894 409 
Q 2359 409 2629 706 
Q 2900 1003 2900 1516 
L 2900 3500 
L 3475 3500 
L 3475 0 
L 2900 0 
L 2900 538 
Q 2691 219 2414 64 
Q 2138 -91 1772 -91 
Q 1169 -91 856 284 
Q 544 659 544 1381 
z
M 1991 3584 
L 1991 3584 
z
" transform="scale(0.015625)"/>
      </defs>
      <use xlink:href="#DejaVuSans-Bold-78" transform="translate(0 0.015625)"/>
      <use xlink:href="#DejaVuSans-20" transform="translate(64.501953 0.015625)"/>
      <use xlink:href="#DejaVuSans-28" transform="translate(96.289062 0.015625)"/>
      <use xlink:href="#DejaVuSans-69" transform="translate(135.302734 0.015625)"/>
      <use xlink:href="#DejaVuSans-6e" transform="translate(163.085938 0.015625)"/>
      <use xlink:href="#DejaVuSans-70" transform="translate(226.464844 0.015625)"/>
      <use xlink:href="#DejaVuSans-75" transform="translate(289.941406 0.015625)"/>
      <use xlink:href="#DejaVuSans-74" transform="translate(353.320312 0.015625)"/>
      <use xlink:href="#DejaVuSans-29" transform="translate(392.529297 0.015625)"/>
     </g>
    </g>
    <g id="patch_214">
     <path d="M 473.76125 56.02 
L 493.76125 56.02 
L 493.76125 49.02 
L 473.76125 49.02 
z
" style="fill: #ff7f0e; opacity: 0.4"/>
    </g>
    <g id="text_27">
     <!-- $\mathbf{y}$ (output) -->
     <g transform="translate(501.76125 56.02) scale(0.1 -0.1)">
      <defs>
       <path id="DejaVuSans-Bold-79" d="M 78 3500 
L 1197 3500 
L 2138 1125 
L 2938 3500 
L 4056 3500 
L 2584 -331 
Q 2363 -916 2067 -1148 
Q 1772 -1381 1288 -1381 
L 641 -1381 
L 641 -647 
L 991 -647 
Q 1275 -647 1404 -556 
Q 1534 -466 1606 -231 
L 1638 -134 
L 78 3500 
z
" transform="scale(0.015625)"/>
       <path id="DejaVuSans-6f" d="M 1959 3097 
Q 1497 3097 1228 2736 
Q 959 2375 959 1747 
Q 959 1119 1226 758 
Q 1494 397 1959 397 
Q 2419 397 2687 759 
Q 2956 1122 2956 1747 
Q 2956 2369 2687 2733 
Q 2419 3097 1959 3097 
z
M 1959 3584 
Q 2709 3584 3137 3096 
Q 3566 2609 3566 1747 
Q 3566 888 3137 398 
Q 2709 -91 1959 -91 
Q 1206 -91 779 398 
Q 353 888 353 1747 
Q 353 2609 779 3096 
Q 1206 3584 1959 3584 
z
" transform="scale(0.015625)"/>
      </defs>
      <use xlink:href="#DejaVuSans-Bold-79" transform="translate(0 0.125)"/>
      <use xlink:href="#DejaVuSans-20" transform="translate(65.185547 0.125)"/>
      <use xlink:href="#DejaVuSans-28" transform="translate(96.972656 0.125)"/>
      <use xlink:href="#DejaVuSans-6f" transform="translate(135.986328 0.125)"/>
      <use xlink:href="#DejaVuSans-75" transform="translate(197.167969 0.125)"/>
      <use xlink:href="#DejaVuSans-74" transform="translate(260.546875 0.125)"/>
      <use xlink:href="#DejaVuSans-70" transform="translate(299.755859 0.125)"/>
      <use xlink:href="#DejaVuSans-75" transform="translate(363.232422 0.125)"/>
      <use xlink:href="#DejaVuSans-74" transform="translate(426.611328 0.125)"/>
      <use xlink:href="#DejaVuSans-29" transform="translate(465.820312 0.125)"/>
     </g>
    </g>
   </g>
  </g>
 </g>
 <defs>
  <clipPath id="p7e29318d26">
   <rect x="43.78125" y="24.72" width="234.88" height="157.586"/>
  </clipPath>
  <clipPath id="p37de62ed19">
   <rect x="326.38125" y="24.72" width="234.88" height="157.586"/>
  </clipPath>
 </defs>
</svg>