<?xml version="1.0" encoding="utf-8" standalone="no"?>
<!DOCTYPE svg PUBLIC "-//W3C//DTD SVG 1.1//EN"
  "http://www.w3.org/Graphics/SVG/1.1/DTD/svg11.dtd">
<svg xmlns:xlink="http://www.w3.org/1999/xlink" width="330.278322pt" height="211.07625pt" viewBox="0 0 330.278322 211.07625" xmlns="http://www.w3.org/2000/svg" version="1.1">
 <metadata>
  <rdf:RDF xmlns:dc="http://purl.org/dc/elements/1.1/" xmlns:cc="http://creativecommons.org/ns#" xmlns:rdf="http://www.w3.org/1999/02/22-rdf-syntax-ns#">
   <cc:Work>
    <dc:type rdf:resource="http://purl.org/dc/dcmitype/StillImage"/>
    <dc:date>2024-05-25T02:59:29.666298</dc:date>
    <dc:format>image/svg+xml</dc:format>
    <dc:creator>
     <cc:Agent>
      <dc:title>Matplotlib v3.7.1, https://matplotlib.org/</dc:title>
     </cc:Agent>
    </dc:creator>
   </cc:Work>
  </rdf:RDF>
 </metadata>
 <defs>
  <style type="text/css">*{stroke-linejoin: round; stroke-linecap: butt}</style>
 </defs>
 <g id="figure_1">
  <g id="patch_1">
   <path d="M 0 211.07625 
L 330.278322 211.07625 
L 330.278322 0 
L 0 0 
z
" style="fill: #ffffff"/>
  </g>
  <g id="axes_1">
   <g id="patch_2">
    <path d="M 43.78125 173.52 
L 322.78125 173.52 
L 322.78125 7.2 
L 43.78125 7.2 
z
" style="fill: #ffffff"/>
   </g>
   <g id="matplotlib.axis_1">
    <g id="xtick_1">
     <g id="line2d_1">
      <path d="M 56.463068 173.52 
L 56.463068 7.2 
" clip-path="url(#p72a22446cb)" style="fill: none; stroke-dasharray: 0.8,1.32; stroke-dashoffset: 0; stroke: #b0b0b0; stroke-opacity: 0.6; stroke-width: 0.8"/>
     </g>
     <g id="line2d_2">
      <defs>
       <path id="m96e1453ef6" d="M 0 0 
L 0 3.5 
" style="stroke: #000000; stroke-width: 0.8"/>
      </defs>
      <g>
       <use xlink:href="#m96e1453ef6" x="56.463068" y="173.52" style="stroke: #000000; stroke-width: 0.8"/>
      </g>
     </g>
     <g id="text_1">
      <!-- 0 -->
      <g transform="translate(53.281818 188.118438) scale(0.1 -0.1)">
       <defs>
        <path id="DejaVuSans-30" d="M 2034 4250 
Q 1547 4250 1301 3770 
Q 1056 3291 1056 2328 
Q 1056 1369 1301 889 
Q 1547 409 2034 409 
Q 2525 409 2770 889 
Q 3016 1369 3016 2328 
Q 3016 3291 2770 3770 
Q 2525 4250 2034 4250 
z
M 2034 4750 
Q 2819 4750 3233 4129 
Q 3647 3509 3647 2328 
Q 3647 1150 3233 529 
Q 2819 -91 2034 -91 
Q 1250 -91 836 529 
Q 422 1150 422 2328 
Q 422 3509 836 4129 
Q 1250 4750 2034 4750 
z
" transform="scale(0.015625)"/>
       </defs>
       <use xlink:href="#DejaVuSans-30"/>
      </g>
     </g>
    </g>
    <g id="xtick_2">
     <g id="line2d_3">
      <path d="M 107.241119 173.52 
L 107.241119 7.2 
" clip-path="url(#p72a22446cb)" style="fill: none; stroke-dasharray: 0.8,1.32; stroke-dashoffset: 0; stroke: #b0b0b0; stroke-opacity: 0.6; stroke-width: 0.8"/>
     </g>
     <g id="line2d_4">
      <g>
       <use xlink:href="#m96e1453ef6" x="107.241119" y="173.52" style="stroke: #000000; stroke-width: 0.8"/>
      </g>
     </g>
     <g id="text_2">
      <!-- 200 -->
      <g transform="translate(97.697369 188.118438) scale(0.1 -0.1)">
       <defs>
        <path id="DejaVuSans-32" d="M 1228 531 
L 3431 531 
L 3431 0 
L 469 0 
L 469 531 
Q 828 903 1448 1529 
Q 2069 2156 2228 2338 
Q 2531 2678 2651 2914 
Q 2772 3150 2772 3378 
Q 2772 3750 2511 3984 
Q 2250 4219 1831 4219 
Q 1534 4219 1204 4116 
Q 875 4013 500 3803 
L 500 4441 
Q 881 4594 1212 4672 
Q 1544 4750 1819 4750 
Q 2544 4750 2975 4387 
Q 3406 4025 3406 3419 
Q 3406 3131 3298 2873 
Q 3191 2616 2906 2266 
Q 2828 2175 2409 1742 
Q 1991 1309 1228 531 
z
" transform="scale(0.015625)"/>
       </defs>
       <use xlink:href="#DejaVuSans-32"/>
       <use xlink:href="#DejaVuSans-30" x="63.623047"/>
       <use xlink:href="#DejaVuSans-30" x="127.246094"/>
      </g>
     </g>
    </g>
    <g id="xtick_3">
     <g id="line2d_5">
      <path d="M 158.01917 173.52 
L 158.01917 7.2 
" clip-path="url(#p72a22446cb)" style="fill: none; stroke-dasharray: 0.8,1.32; stroke-dashoffset: 0; stroke: #b0b0b0; stroke-opacity: 0.6; stroke-width: 0.8"/>
     </g>
     <g id="line2d_6">
      <g>
       <use xlink:href="#m96e1453ef6" x="158.01917" y="173.52" style="stroke: #000000; stroke-width: 0.8"/>
      </g>
     </g>
     <g id="text_3">
      <!-- 400 -->
      <g transform="translate(148.47542 188.118438) scale(0.1 -0.1)">
       <defs>
        <path id="DejaVuSans-34" d="M 2419 4116 
L 825 1625 
L 2419 1625 
L 2419 4116 
z
M 2253 4666 
L 3047 4666 
L 3047 1625 
L 3713 1625 
L 3713 1100 
L 3047 1100 
L 3047 0 
L 2419 0 
L 2419 1100 
L 313 1100 
L 313 1709 
L 2253 4666 
z
" transform="scale(0.015625)"/>
       </defs>
       <use xlink:href="#DejaVuSans-34"/>
       <use xlink:href="#DejaVuSans-30" x="63.623047"/>
       <use xlink:href="#DejaVuSans-30" x="127.246094"/>
      </g>
     </g>
    </g>
    <g id="xtick_4">
     <g id="line2d_7">
      <path d="M 208.797221 173.52 
L 208.797221 7.2 
" clip-path="url(#p72a22446cb)" style="fill: none; stroke-dasharray: 0.8,1.32; stroke-dashoffset: 0; stroke: #b0b0b0; stroke-opacity: 0.6; stroke-width: 0.8"/>
     </g>
     <g id="line2d_8">
      <g>
       <use xlink:href="#m96e1453ef6" x="208.797221" y="173.52" style="stroke: #000000; stroke-width: 0.8"/>
      </g>
     </g>
     <g id="text_4">
      <!-- 600 -->
      <g transform="translate(199.253471 188.118438) scale(0.1 -0.1)">
       <defs>
        <path id="DejaVuSans-36" d="M 2113 2584 
Q 1688 2584 1439 2293 
Q 1191 2003 1191 1497 
Q 1191 994 1439 701 
Q 1688 409 2113 409 
Q 2538 409 2786 701 
Q 3034 994 3034 1497 
Q 3034 2003 2786 2293 
Q 2538 2584 2113 2584 
z
M 3366 4563 
L 3366 3988 
Q 3128 4100 2886 4159 
Q 2644 4219 2406 4219 
Q 1781 4219 1451 3797 
Q 1122 3375 1075 2522 
Q 1259 2794 1537 2939 
Q 1816 3084 2150 3084 
Q 2853 3084 3261 2657 
Q 3669 2231 3669 1497 
Q 3669 778 3244 343 
Q 2819 -91 2113 -91 
Q 1303 -91 875 529 
Q 447 1150 447 2328 
Q 447 3434 972 4092 
Q 1497 4750 2381 4750 
Q 2619 4750 2861 4703 
Q 3103 4656 3366 4563 
z
" transform="scale(0.015625)"/>
       </defs>
       <use xlink:href="#DejaVuSans-36"/>
       <use xlink:href="#DejaVuSans-30" x="63.623047"/>
       <use xlink:href="#DejaVuSans-30" x="127.246094"/>
      </g>
     </g>
    </g>
    <g id="xtick_5">
     <g id="line2d_9">
      <path d="M 259.575271 173.52 
L 259.575271 7.2 
" clip-path="url(#p72a22446cb)" style="fill: none; stroke-dasharray: 0.8,1.32; stroke-dashoffset: 0; stroke: #b0b0b0; stroke-opacity: 0.6; stroke-width: 0.8"/>
     </g>
     <g id="line2d_10">
      <g>
       <use xlink:href="#m96e1453ef6" x="259.575271" y="173.52" style="stroke: #000000; stroke-width: 0.8"/>
      </g>
     </g>
     <g id="text_5">
      <!-- 800 -->
      <g transform="translate(250.031521 188.118438) scale(0.1 -0.1)">
       <defs>
        <path id="DejaVuSans-38" d="M 2034 2216 
Q 1584 2216 1326 1975 
Q 1069 1734 1069 1313 
Q 1069 891 1326 650 
Q 1584 409 2034 409 
Q 2484 409 2743 651 
Q 3003 894 3003 1313 
Q 3003 1734 2745 1975 
Q 2488 2216 2034 2216 
z
M 1403 2484 
Q 997 2584 770 2862 
Q 544 3141 544 3541 
Q 544 4100 942 4425 
Q 1341 4750 2034 4750 
Q 2731 4750 3128 4425 
Q 3525 4100 3525 3541 
Q 3525 3141 3298 2862 
Q 3072 2584 2669 2484 
Q 3125 2378 3379 2068 
Q 3634 1759 3634 1313 
Q 3634 634 3220 271 
Q 2806 -91 2034 -91 
Q 1263 -91 848 271 
Q 434 634 434 1313 
Q 434 1759 690 2068 
Q 947 2378 1403 2484 
z
M 1172 3481 
Q 1172 3119 1398 2916 
Q 1625 2713 2034 2713 
Q 2441 2713 2670 2916 
Q 2900 3119 2900 3481 
Q 2900 3844 2670 4047 
Q 2441 4250 2034 4250 
Q 1625 4250 1398 4047 
Q 1172 3844 1172 3481 
z
" transform="scale(0.015625)"/>
       </defs>
       <use xlink:href="#DejaVuSans-38"/>
       <use xlink:href="#DejaVuSans-30" x="63.623047"/>
       <use xlink:href="#DejaVuSans-30" x="127.246094"/>
      </g>
     </g>
    </g>
    <g id="xtick_6">
     <g id="line2d_11">
      <path d="M 310.353322 173.52 
L 310.353322 7.2 
" clip-path="url(#p72a22446cb)" style="fill: none; stroke-dasharray: 0.8,1.32; stroke-dashoffset: 0; stroke: #b0b0b0; stroke-opacity: 0.6; stroke-width: 0.8"/>
     </g>
     <g id="line2d_12">
      <g>
       <use xlink:href="#m96e1453ef6" x="310.353322" y="173.52" style="stroke: #000000; stroke-width: 0.8"/>
      </g>
     </g>
     <g id="text_6">
      <!-- 1000 -->
      <g transform="translate(297.628322 188.118438) scale(0.1 -0.1)">
       <defs>
        <path id="DejaVuSans-31" d="M 794 531 
L 1825 531 
L 1825 4091 
L 703 3866 
L 703 4441 
L 1819 4666 
L 2450 4666 
L 2450 531 
L 3481 531 
L 3481 0 
L 794 0 
L 794 531 
z
" transform="scale(0.015625)"/>
       </defs>
       <use xlink:href="#DejaVuSans-31"/>
       <use xlink:href="#DejaVuSans-30" x="63.623047"/>
       <use xlink:href="#DejaVuSans-30" x="127.246094"/>
       <use xlink:href="#DejaVuSans-30" x="190.869141"/>
      </g>
     </g>
    </g>
    <g id="text_7">
     <!-- steps -->
     <g transform="translate(169.860938 201.796563) scale(0.1 -0.1)">
      <defs>
       <path id="DejaVuSans-73" d="M 2834 3397 
L 2834 2853 
Q 2591 2978 2328 3040 
Q 2066 3103 1784 3103 
Q 1356 3103 1142 2972 
Q 928 2841 928 2578 
Q 928 2378 1081 2264 
Q 1234 2150 1697 2047 
L 1894 2003 
Q 2506 1872 2764 1633 
Q 3022 1394 3022 966 
Q 3022 478 2636 193 
Q 2250 -91 1575 -91 
Q 1294 -91 989 -36 
Q 684 19 347 128 
L 347 722 
Q 666 556 975 473 
Q 1284 391 1588 391 
Q 1994 391 2212 530 
Q 2431 669 2431 922 
Q 2431 1156 2273 1281 
Q 2116 1406 1581 1522 
L 1381 1569 
Q 847 1681 609 1914 
Q 372 2147 372 2553 
Q 372 3047 722 3315 
Q 1072 3584 1716 3584 
Q 2034 3584 2315 3537 
Q 2597 3491 2834 3397 
z
" transform="scale(0.015625)"/>
       <path id="DejaVuSans-74" d="M 1172 4494 
L 1172 3500 
L 2356 3500 
L 2356 3053 
L 1172 3053 
L 1172 1153 
Q 1172 725 1289 603 
Q 1406 481 1766 481 
L 2356 481 
L 2356 0 
L 1766 0 
Q 1100 0 847 248 
Q 594 497 594 1153 
L 594 3053 
L 172 3053 
L 172 3500 
L 594 3500 
L 594 4494 
L 1172 4494 
z
" transform="scale(0.015625)"/>
       <path id="DejaVuSans-65" d="M 3597 1894 
L 3597 1613 
L 953 1613 
Q 991 1019 1311 708 
Q 1631 397 2203 397 
Q 2534 397 2845 478 
Q 3156 559 3463 722 
L 3463 178 
Q 3153 47 2828 -22 
Q 2503 -91 2169 -91 
Q 1331 -91 842 396 
Q 353 884 353 1716 
Q 353 2575 817 3079 
Q 1281 3584 2069 3584 
Q 2775 3584 3186 3129 
Q 3597 2675 3597 1894 
z
M 3022 2063 
Q 3016 2534 2758 2815 
Q 2500 3097 2075 3097 
Q 1594 3097 1305 2825 
Q 1016 2553 972 2059 
L 3022 2063 
z
" transform="scale(0.015625)"/>
       <path id="DejaVuSans-70" d="M 1159 525 
L 1159 -1331 
L 581 -1331 
L 581 3500 
L 1159 3500 
L 1159 2969 
Q 1341 3281 1617 3432 
Q 1894 3584 2278 3584 
Q 2916 3584 3314 3078 
Q 3713 2572 3713 1747 
Q 3713 922 3314 415 
Q 2916 -91 2278 -91 
Q 1894 -91 1617 61 
Q 1341 213 1159 525 
z
M 3116 1747 
Q 3116 2381 2855 2742 
Q 2594 3103 2138 3103 
Q 1681 3103 1420 2742 
Q 1159 2381 1159 1747 
Q 1159 1113 1420 752 
Q 1681 391 2138 391 
Q 2594 391 2855 752 
Q 3116 1113 3116 1747 
z
" transform="scale(0.015625)"/>
      </defs>
      <use xlink:href="#DejaVuSans-73"/>
      <use xlink:href="#DejaVuSans-74" x="52.099609"/>
      <use xlink:href="#DejaVuSans-65" x="91.308594"/>
      <use xlink:href="#DejaVuSans-70" x="152.832031"/>
      <use xlink:href="#DejaVuSans-73" x="216.308594"/>
     </g>
    </g>
   </g>
   <g id="matplotlib.axis_2">
    <g id="ytick_1">
     <g id="line2d_13">
      <path d="M 43.78125 164.632489 
L 322.78125 164.632489 
" clip-path="url(#p72a22446cb)" style="fill: none; stroke-dasharray: 0.8,1.32; stroke-dashoffset: 0; stroke: #b0b0b0; stroke-opacity: 0.6; stroke-width: 0.8"/>
     </g>
     <g id="line2d_14">
      <defs>
       <path id="m5509c3c42b" d="M 0 0 
L -3.5 0 
" style="stroke: #000000; stroke-width: 0.8"/>
      </defs>
      <g>
       <use xlink:href="#m5509c3c42b" x="43.78125" y="164.632489" style="stroke: #000000; stroke-width: 0.8"/>
      </g>
     </g>
     <g id="text_8">
      <!-- 2.0 -->
      <g transform="translate(20.878125 168.431708) scale(0.1 -0.1)">
       <defs>
        <path id="DejaVuSans-2e" d="M 684 794 
L 1344 794 
L 1344 0 
L 684 0 
L 684 794 
z
" transform="scale(0.015625)"/>
       </defs>
       <use xlink:href="#DejaVuSans-32"/>
       <use xlink:href="#DejaVuSans-2e" x="63.623047"/>
       <use xlink:href="#DejaVuSans-30" x="95.410156"/>
      </g>
     </g>
    </g>
    <g id="ytick_2">
     <g id="line2d_15">
      <path d="M 43.78125 137.66493 
L 322.78125 137.66493 
" clip-path="url(#p72a22446cb)" style="fill: none; stroke-dasharray: 0.8,1.32; stroke-dashoffset: 0; stroke: #b0b0b0; stroke-opacity: 0.6; stroke-width: 0.8"/>
     </g>
     <g id="line2d_16">
      <g>
       <use xlink:href="#m5509c3c42b" x="43.78125" y="137.66493" style="stroke: #000000; stroke-width: 0.8"/>
      </g>
     </g>
     <g id="text_9">
      <!-- 2.5 -->
      <g transform="translate(20.878125 141.464148) scale(0.1 -0.1)">
       <defs>
        <path id="DejaVuSans-35" d="M 691 4666 
L 3169 4666 
L 3169 4134 
L 1269 4134 
L 1269 2991 
Q 1406 3038 1543 3061 
Q 1681 3084 1819 3084 
Q 2600 3084 3056 2656 
Q 3513 2228 3513 1497 
Q 3513 744 3044 326 
Q 2575 -91 1722 -91 
Q 1428 -91 1123 -41 
Q 819 9 494 109 
L 494 744 
Q 775 591 1075 516 
Q 1375 441 1709 441 
Q 2250 441 2565 725 
Q 2881 1009 2881 1497 
Q 2881 1984 2565 2268 
Q 2250 2553 1709 2553 
Q 1456 2553 1204 2497 
Q 953 2441 691 2322 
L 691 4666 
z
" transform="scale(0.015625)"/>
       </defs>
       <use xlink:href="#DejaVuSans-32"/>
       <use xlink:href="#DejaVuSans-2e" x="63.623047"/>
       <use xlink:href="#DejaVuSans-35" x="95.410156"/>
      </g>
     </g>
    </g>
    <g id="ytick_3">
     <g id="line2d_17">
      <path d="M 43.78125 110.69737 
L 322.78125 110.69737 
" clip-path="url(#p72a22446cb)" style="fill: none; stroke-dasharray: 0.8,1.32; stroke-dashoffset: 0; stroke: #b0b0b0; stroke-opacity: 0.6; stroke-width: 0.8"/>
     </g>
     <g id="line2d_18">
      <g>
       <use xlink:href="#m5509c3c42b" x="43.78125" y="110.69737" style="stroke: #000000; stroke-width: 0.8"/>
      </g>
     </g>
     <g id="text_10">
      <!-- 3.0 -->
      <g transform="translate(20.878125 114.496589) scale(0.1 -0.1)">
       <defs>
        <path id="DejaVuSans-33" d="M 2597 2516 
Q 3050 2419 3304 2112 
Q 3559 1806 3559 1356 
Q 3559 666 3084 287 
Q 2609 -91 1734 -91 
Q 1441 -91 1130 -33 
Q 819 25 488 141 
L 488 750 
Q 750 597 1062 519 
Q 1375 441 1716 441 
Q 2309 441 2620 675 
Q 2931 909 2931 1356 
Q 2931 1769 2642 2001 
Q 2353 2234 1838 2234 
L 1294 2234 
L 1294 2753 
L 1863 2753 
Q 2328 2753 2575 2939 
Q 2822 3125 2822 3475 
Q 2822 3834 2567 4026 
Q 2313 4219 1838 4219 
Q 1578 4219 1281 4162 
Q 984 4106 628 3988 
L 628 4550 
Q 988 4650 1302 4700 
Q 1616 4750 1894 4750 
Q 2613 4750 3031 4423 
Q 3450 4097 3450 3541 
Q 3450 3153 3228 2886 
Q 3006 2619 2597 2516 
z
" transform="scale(0.015625)"/>
       </defs>
       <use xlink:href="#DejaVuSans-33"/>
       <use xlink:href="#DejaVuSans-2e" x="63.623047"/>
       <use xlink:href="#DejaVuSans-30" x="95.410156"/>
      </g>
     </g>
    </g>
    <g id="ytick_4">
     <g id="line2d_19">
      <path d="M 43.78125 83.729811 
L 322.78125 83.729811 
" clip-path="url(#p72a22446cb)" style="fill: none; stroke-dasharray: 0.8,1.32; stroke-dashoffset: 0; stroke: #b0b0b0; stroke-opacity: 0.6; stroke-width: 0.8"/>
     </g>
     <g id="line2d_20">
      <g>
       <use xlink:href="#m5509c3c42b" x="43.78125" y="83.729811" style="stroke: #000000; stroke-width: 0.8"/>
      </g>
     </g>
     <g id="text_11">
      <!-- 3.5 -->
      <g transform="translate(20.878125 87.52903) scale(0.1 -0.1)">
       <use xlink:href="#DejaVuSans-33"/>
       <use xlink:href="#DejaVuSans-2e" x="63.623047"/>
       <use xlink:href="#DejaVuSans-35" x="95.410156"/>
      </g>
     </g>
    </g>
    <g id="ytick_5">
     <g id="line2d_21">
      <path d="M 43.78125 56.762252 
L 322.78125 56.762252 
" clip-path="url(#p72a22446cb)" style="fill: none; stroke-dasharray: 0.8,1.32; stroke-dashoffset: 0; stroke: #b0b0b0; stroke-opacity: 0.6; stroke-width: 0.8"/>
     </g>
     <g id="line2d_22">
      <g>
       <use xlink:href="#m5509c3c42b" x="43.78125" y="56.762252" style="stroke: #000000; stroke-width: 0.8"/>
      </g>
     </g>
     <g id="text_12">
      <!-- 4.0 -->
      <g transform="translate(20.878125 60.56147) scale(0.1 -0.1)">
       <use xlink:href="#DejaVuSans-34"/>
       <use xlink:href="#DejaVuSans-2e" x="63.623047"/>
       <use xlink:href="#DejaVuSans-30" x="95.410156"/>
      </g>
     </g>
    </g>
    <g id="ytick_6">
     <g id="line2d_23">
      <path d="M 43.78125 29.794692 
L 322.78125 29.794692 
" clip-path="url(#p72a22446cb)" style="fill: none; stroke-dasharray: 0.8,1.32; stroke-dashoffset: 0; stroke: #b0b0b0; stroke-opacity: 0.6; stroke-width: 0.8"/>
     </g>
     <g id="line2d_24">
      <g>
       <use xlink:href="#m5509c3c42b" x="43.78125" y="29.794692" style="stroke: #000000; stroke-width: 0.8"/>
      </g>
     </g>
     <g id="text_13">
      <!-- 4.5 -->
      <g transform="translate(20.878125 33.593911) scale(0.1 -0.1)">
       <use xlink:href="#DejaVuSans-34"/>
       <use xlink:href="#DejaVuSans-2e" x="63.623047"/>
       <use xlink:href="#DejaVuSans-35" x="95.410156"/>
      </g>
     </g>
    </g>
    <g id="text_14">
     <!-- loss -->
     <g transform="translate(14.798438 100.017813) rotate(-90) scale(0.1 -0.1)">
      <defs>
       <path id="DejaVuSans-6c" d="M 603 4863 
L 1178 4863 
L 1178 0 
L 603 0 
L 603 4863 
z
" transform="scale(0.015625)"/>
       <path id="DejaVuSans-6f" d="M 1959 3097 
Q 1497 3097 1228 2736 
Q 959 2375 959 1747 
Q 959 1119 1226 758 
Q 1494 397 1959 397 
Q 2419 397 2687 759 
Q 2956 1122 2956 1747 
Q 2956 2369 2687 2733 
Q 2419 3097 1959 3097 
z
M 1959 3584 
Q 2709 3584 3137 3096 
Q 3566 2609 3566 1747 
Q 3566 888 3137 398 
Q 2709 -91 1959 -91 
Q 1206 -91 779 398 
Q 353 888 353 1747 
Q 353 2609 779 3096 
Q 1206 3584 1959 3584 
z
" transform="scale(0.015625)"/>
      </defs>
      <use xlink:href="#DejaVuSans-6c"/>
      <use xlink:href="#DejaVuSans-6f" x="27.783203"/>
      <use xlink:href="#DejaVuSans-73" x="88.964844"/>
      <use xlink:href="#DejaVuSans-73" x="141.064453"/>
     </g>
    </g>
   </g>
   <g id="line2d_25">
    <path d="M 56.463068 17.987024 
L 56.716958 70.691575 
L 56.970849 68.606723 
L 57.224739 76.731973 
L 57.478629 79.216834 
L 57.732519 96.761515 
L 57.98641 81.28943 
L 58.49419 107.068806 
L 58.74808 85.761631 
L 59.255861 102.553308 
L 59.509751 96.538769 
L 59.763641 96.450054 
L 60.017532 100.210708 
L 60.271422 96.987219 
L 60.525312 90.206507 
L 60.779202 100.678999 
L 61.033093 91.019191 
L 61.286983 111.509013 
L 61.540873 113.143255 
L 61.794764 97.836719 
L 62.048654 102.322885 
L 62.302544 113.695426 
L 62.556434 108.911571 
L 62.810325 95.67479 
L 63.064215 101.342479 
L 63.318105 109.78108 
L 63.571995 109.453995 
L 64.079776 92.849201 
L 64.587556 109.12556 
L 64.841447 104.255677 
L 65.095337 111.676632 
L 65.349227 94.393068 
L 65.603117 107.396148 
L 66.110898 114.946826 
L 66.364788 108.178755 
L 66.618678 106.935161 
L 66.872569 103.33702 
L 67.126459 112.764875 
L 67.380349 114.345057 
L 67.634239 114.620654 
L 67.88813 114.022781 
L 68.14202 112.97192 
L 68.39591 110.809271 
L 68.6498 122.126402 
L 68.903691 110.235702 
L 69.411471 114.464119 
L 69.665361 85.609212 
L 69.919252 113.511283 
L 70.173142 114.558223 
L 70.427032 114.45733 
L 70.680922 118.535026 
L 70.934813 120.689754 
L 71.188703 107.679679 
L 71.442593 108.017488 
L 71.696483 106.727447 
L 71.950374 128.573316 
L 72.204264 94.460707 
L 72.712044 122.754982 
L 72.965935 109.801114 
L 73.219825 116.657219 
L 73.473715 103.369233 
L 73.727605 124.493897 
L 73.981496 111.137153 
L 74.235386 107.95642 
L 74.489276 129.15995 
L 74.743166 108.676069 
L 74.997057 114.483987 
L 75.250947 100.68566 
L 75.504837 122.60246 
L 75.758727 119.550756 
L 76.012618 122.327223 
L 76.520398 102.679944 
L 76.774288 115.695562 
L 77.028179 119.823537 
L 77.282069 128.940676 
L 77.535959 107.552026 
L 77.78985 121.61511 
L 78.29763 105.33434 
L 78.55152 121.877938 
L 78.805411 112.417254 
L 79.059301 111.258826 
L 79.567081 113.834228 
L 79.820972 124.293115 
L 80.074862 107.148211 
L 80.328752 114.167138 
L 80.582642 125.768379 
L 80.836533 104.182933 
L 81.090423 126.642003 
L 81.598203 140.49084 
L 81.852094 105.308724 
L 82.105984 101.372132 
L 82.359874 117.076813 
L 82.613764 112.068141 
L 82.867655 121.426775 
L 83.121545 103.33387 
L 83.375435 119.977306 
L 83.629325 102.751403 
L 83.883216 114.4688 
L 84.137106 111.0668 
L 84.644886 121.268659 
L 84.898777 107.284633 
L 85.152667 110.304524 
L 85.406557 123.406503 
L 85.660447 106.67241 
L 85.914338 123.03697 
L 86.168228 127.200462 
L 86.422118 111.169828 
L 86.676008 139.143422 
L 87.183789 124.466186 
L 87.437679 131.167235 
L 87.691569 108.005208 
L 87.94546 125.465675 
L 88.19935 114.302686 
L 88.45324 114.834501 
L 88.70713 122.331364 
L 88.961021 115.810869 
L 89.214911 134.077771 
L 89.468801 134.565518 
L 89.722691 102.992846 
L 89.976582 114.625566 
L 90.230472 134.82553 
L 90.484362 113.298195 
L 90.738252 121.728695 
L 90.992143 121.233862 
L 91.246033 129.51022 
L 91.499923 121.774743 
L 92.007704 126.992105 
L 92.261594 105.707255 
L 92.515484 119.758997 
L 92.769374 106.051005 
L 93.023265 132.253472 
L 93.784936 115.939216 
L 94.038826 127.750344 
L 94.292716 128.377163 
L 94.546606 114.611948 
L 94.800497 120.758061 
L 95.054387 117.244792 
L 95.308277 121.498786 
L 95.562167 128.812804 
L 95.816058 116.110204 
L 96.069948 129.708109 
L 96.323838 110.677799 
L 96.577728 131.463033 
L 96.831619 136.023616 
L 97.085509 121.911886 
L 97.339399 130.507073 
L 97.84718 112.618216 
L 98.10107 121.220064 
L 98.35496 139.50538 
L 98.60885 137.598204 
L 98.862741 122.284826 
L 99.116631 119.72816 
L 99.370521 103.214666 
L 99.624411 121.379389 
L 99.878302 114.713265 
L 100.132192 113.385945 
L 100.386082 117.250925 
L 100.639972 138.435706 
L 100.893863 123.309789 
L 101.147753 98.841403 
L 101.401643 128.72904 
L 101.655533 124.777197 
L 101.909424 130.432618 
L 102.163314 123.516011 
L 102.417204 98.161926 
L 102.671094 118.765217 
L 102.924985 109.930503 
L 103.178875 124.965814 
L 103.432765 117.423598 
L 103.686655 122.147362 
L 103.940546 121.675188 
L 104.194436 128.607547 
L 104.448326 124.547751 
L 104.702216 139.43778 
L 104.956107 110.484166 
L 105.209997 128.876509 
L 105.463887 114.583632 
L 105.717777 123.810035 
L 105.971668 108.963226 
L 106.225558 127.967136 
L 106.479448 124.700518 
L 106.733338 136.433436 
L 106.987229 126.466064 
L 107.241119 138.713901 
L 107.495009 118.935215 
L 107.748899 114.830926 
L 108.00279 144.350124 
L 108.25668 103.485762 
L 108.51057 142.819218 
L 108.76446 112.765916 
L 109.018351 130.415657 
L 109.272241 119.120103 
L 109.526131 126.055536 
L 110.033912 132.056958 
L 110.287802 103.941001 
L 110.541692 132.608988 
L 111.049473 129.30945 
L 111.303363 119.937404 
L 111.557253 124.508158 
L 111.811144 110.512173 
L 112.065034 136.433063 
L 112.318924 130.83408 
L 112.572814 110.092592 
L 112.826705 117.386718 
L 113.080595 132.480024 
L 113.334485 109.311246 
L 113.588375 110.14219 
L 113.842266 130.074671 
L 114.096156 112.516732 
L 114.350046 116.869138 
L 114.603936 129.297285 
L 114.857827 126.849253 
L 115.111717 130.958042 
L 115.365607 125.729544 
L 115.619497 107.370018 
L 116.888949 141.395082 
L 117.396729 128.604847 
L 117.650619 121.387117 
L 117.90451 118.859012 
L 118.1584 128.976167 
L 118.41229 116.008926 
L 118.66618 122.955636 
L 118.920071 116.816569 
L 119.173961 120.278094 
L 119.427851 126.252409 
L 119.681741 135.82237 
L 119.935632 139.347162 
L 120.189522 124.168368 
L 120.443412 155.127904 
L 120.697302 125.867394 
L 120.951193 123.059268 
L 121.205083 116.876313 
L 121.458973 119.046575 
L 121.966754 139.598609 
L 122.220644 112.475287 
L 122.474534 129.464737 
L 122.982315 112.601037 
L 123.236205 131.083985 
L 123.490095 121.724052 
L 123.743985 130.88045 
L 123.997876 101.299684 
L 124.251766 124.681846 
L 124.505656 122.038844 
L 124.759546 137.064961 
L 125.013437 105.526172 
L 125.267327 126.622148 
L 125.521217 117.700635 
L 125.775107 118.994714 
L 126.028998 122.138297 
L 126.282888 142.452038 
L 126.790669 114.056665 
L 127.044559 127.415158 
L 127.298449 118.956175 
L 127.552339 136.166892 
L 127.80623 128.968593 
L 128.06012 126.930253 
L 128.31401 110.976722 
L 128.5679 125.043689 
L 128.821791 120.056274 
L 129.075681 124.038645 
L 129.329571 122.221161 
L 129.583461 125.20358 
L 129.837352 137.765745 
L 130.091242 110.824714 
L 130.599022 140.302055 
L 130.852913 135.51622 
L 131.106803 117.637651 
L 131.360693 133.544387 
L 131.614583 106.674827 
L 131.868474 145.879988 
L 132.122364 127.928713 
L 132.376254 132.701587 
L 132.630144 141.341961 
L 132.884035 132.017558 
L 133.137925 142.455266 
L 133.391815 135.804946 
L 133.645705 136.595474 
L 133.899596 136.712145 
L 134.153486 111.154963 
L 134.407376 138.210196 
L 134.661266 122.57282 
L 134.915157 140.727718 
L 135.422937 113.310424 
L 135.676827 120.178667 
L 135.930718 115.047307 
L 136.184608 137.727039 
L 136.438498 130.477844 
L 136.692388 127.877148 
L 136.946279 146.019535 
L 137.200169 102.42941 
L 137.454059 131.73251 
L 137.707949 125.330757 
L 137.96184 139.277722 
L 138.21573 117.706242 
L 138.46962 140.297529 
L 138.72351 133.346472 
L 138.977401 138.534542 
L 139.231291 118.82797 
L 139.739071 123.618267 
L 139.992962 116.960978 
L 140.246852 115.648677 
L 140.500742 138.192977 
L 140.754632 128.538673 
L 141.008523 139.068851 
L 141.262413 136.960403 
L 141.516303 145.833823 
L 141.770193 143.235095 
L 142.024084 130.72092 
L 142.277974 148.735333 
L 142.531864 119.812864 
L 142.785755 122.592353 
L 143.039645 140.724311 
L 143.293535 114.234404 
L 143.547425 125.957691 
L 143.801316 123.017758 
L 144.055206 112.222734 
L 144.309096 125.733325 
L 144.562986 104.866447 
L 144.816877 121.962461 
L 145.070767 119.98587 
L 145.578547 135.561342 
L 146.086328 117.140594 
L 146.340218 145.576306 
L 146.594108 140.021559 
L 146.847999 114.756716 
L 147.101889 138.422346 
L 147.355779 111.813466 
L 147.609669 125.51135 
L 147.86356 132.31463 
L 148.37134 111.545713 
L 148.62523 132.383117 
L 148.879121 112.174666 
L 149.133011 114.672052 
L 149.386901 125.584455 
L 149.640791 115.640859 
L 149.894682 137.662062 
L 150.148572 138.36997 
L 150.402462 124.615634 
L 150.656352 128.657762 
L 150.910243 119.58833 
L 151.164133 120.166143 
L 151.418023 136.410598 
L 151.671913 137.461395 
L 151.925804 109.511424 
L 152.941365 144.393832 
L 153.195255 143.263797 
L 153.449145 122.080713 
L 153.703035 118.097352 
L 153.956926 141.579559 
L 154.210816 137.846796 
L 154.464706 123.387381 
L 154.718596 141.230948 
L 154.972487 118.59176 
L 155.226377 133.57323 
L 155.480267 138.340703 
L 155.734157 110.736681 
L 155.988048 130.236066 
L 156.241938 136.886039 
L 156.495828 137.641166 
L 156.749718 116.833415 
L 157.511389 135.170811 
L 157.765279 155.910948 
L 158.01917 136.991947 
L 158.27306 144.334191 
L 159.034731 125.950515 
L 159.288621 107.659143 
L 159.542511 129.712584 
L 159.796402 104.604198 
L 160.050292 137.08686 
L 160.304182 125.883365 
L 160.558072 140.144377 
L 160.811963 141.209923 
L 161.065853 120.266752 
L 161.319743 128.514935 
L 161.827524 113.636223 
L 162.081414 136.075528 
L 162.335304 121.589777 
L 162.589194 122.071185 
L 162.843085 122.86179 
L 163.096975 115.433492 
L 163.350865 122.822814 
L 163.604755 135.317135 
L 163.858646 124.185844 
L 164.112536 137.30661 
L 164.620316 122.504216 
L 164.874207 139.055079 
L 165.128097 138.202596 
L 165.635877 113.426825 
L 165.889768 109.101256 
L 166.143658 124.071282 
L 166.397548 110.194012 
L 166.651438 127.071935 
L 166.905329 123.333656 
L 167.159219 106.928564 
L 167.413109 128.932844 
L 167.92089 124.450793 
L 168.17478 132.402213 
L 168.68256 134.055808 
L 169.190341 127.907303 
L 169.444231 127.838172 
L 169.698121 141.55357 
L 169.952012 123.801754 
L 170.205902 133.487048 
L 170.459792 131.993614 
L 170.713682 125.195839 
L 170.967573 128.588798 
L 171.221463 137.31691 
L 171.475353 135.076952 
L 171.729243 142.271149 
L 171.983134 135.480973 
L 172.237024 152.175588 
L 172.490914 120.802361 
L 172.744804 125.35897 
L 172.998695 136.407319 
L 173.252585 127.779959 
L 173.506475 128.337081 
L 173.760365 110.048884 
L 174.014256 146.931813 
L 174.268146 118.787052 
L 174.522036 127.993086 
L 174.775926 132.884881 
L 175.029817 132.06614 
L 175.283707 129.323839 
L 175.537597 135.456849 
L 175.791488 121.326769 
L 176.045378 128.159149 
L 176.299268 126.880745 
L 176.553158 115.956113 
L 176.807049 133.983102 
L 177.060939 131.157462 
L 177.314829 141.288878 
L 177.568719 128.161785 
L 178.0765 134.369841 
L 178.33039 111.365762 
L 178.838171 132.978264 
L 179.092061 124.990633 
L 179.345951 107.599579 
L 180.615402 142.910518 
L 180.869293 139.071873 
L 181.123183 128.603432 
L 181.377073 122.962156 
L 181.630963 131.092549 
L 181.884854 128.151356 
L 182.138744 134.576924 
L 182.392634 151.474045 
L 182.646524 97.776486 
L 182.900415 141.982924 
L 183.154305 139.718443 
L 183.408195 125.473699 
L 183.662085 136.485991 
L 183.915976 128.70871 
L 184.169866 132.800615 
L 184.423756 141.673688 
L 184.677646 138.447768 
L 184.931537 118.275233 
L 185.185427 122.192099 
L 185.439317 123.216419 
L 185.693207 143.559621 
L 185.947098 129.519645 
L 186.200988 133.658705 
L 186.454878 158.730789 
L 187.216549 118.902707 
L 187.470439 127.264693 
L 187.724329 127.669422 
L 187.97822 135.833943 
L 188.23211 109.313728 
L 188.486 136.422917 
L 188.73989 140.603808 
L 188.993781 124.783382 
L 189.247671 135.188826 
L 189.501561 128.095766 
L 189.755451 136.825871 
L 190.009342 117.666211 
L 190.263232 139.477283 
L 190.517122 129.552205 
L 190.771012 128.872651 
L 191.278793 138.117751 
L 191.532683 123.205682 
L 191.786574 126.92817 
L 192.040464 121.192481 
L 192.294354 120.25082 
L 192.802135 145.662218 
L 193.056025 144.378298 
L 193.309915 114.688151 
L 193.817696 143.867469 
L 194.071586 123.407583 
L 194.579366 139.075422 
L 194.833257 151.243545 
L 195.087147 140.742211 
L 195.594927 132.421721 
L 195.848818 140.026407 
L 196.102708 115.756025 
L 196.610488 136.918766 
L 196.864379 140.789429 
L 197.118269 140.398062 
L 197.372159 122.518001 
L 197.626049 144.783875 
L 197.87994 128.324659 
L 198.13383 134.887742 
L 198.38772 156.854153 
L 198.64161 143.867366 
L 198.895501 92.841742 
L 199.149391 131.480599 
L 199.403281 125.813 
L 199.657171 116.481795 
L 200.418842 138.365855 
L 200.672732 107.70829 
L 200.926623 126.765515 
L 201.180513 108.504476 
L 201.434403 132.732397 
L 201.688293 120.359544 
L 202.196074 132.32493 
L 202.449964 123.9144 
L 202.703854 128.427571 
L 202.957745 146.994669 
L 203.211635 138.052208 
L 203.465525 118.646784 
L 203.719415 147.787563 
L 204.227196 129.609325 
L 204.481086 133.820486 
L 204.734976 147.032398 
L 204.988867 129.329459 
L 205.242757 125.368074 
L 205.496647 125.568188 
L 205.750537 135.688044 
L 206.004428 133.858304 
L 206.258318 121.5454 
L 206.512208 133.448342 
L 206.766098 134.297084 
L 207.019989 111.861765 
L 207.273879 128.281426 
L 207.527769 122.918975 
L 207.78166 132.460015 
L 208.03555 135.229332 
L 208.28944 129.336377 
L 208.54333 128.84845 
L 208.797221 119.608455 
L 209.051111 147.137405 
L 209.305001 145.348082 
L 209.558891 145.924172 
L 209.812782 144.651709 
L 210.066672 122.054635 
L 210.574452 149.236479 
L 211.082233 125.56199 
L 211.336123 142.341295 
L 211.590013 133.015864 
L 211.843904 132.411639 
L 212.097794 128.353528 
L 212.351684 143.539329 
L 212.605574 121.955311 
L 212.859465 151.352347 
L 213.113355 128.075205 
L 213.367245 150.46877 
L 213.621135 120.744289 
L 213.875026 130.371332 
L 214.128916 148.52083 
L 214.382806 115.250636 
L 214.636696 129.568253 
L 214.890587 119.232827 
L 215.144477 139.601052 
L 215.398367 119.332742 
L 215.906148 138.532175 
L 216.160038 137.939485 
L 216.413928 134.655532 
L 216.921709 116.076346 
L 217.175599 142.600214 
L 217.429489 153.021321 
L 217.683379 128.877254 
L 217.93727 123.118986 
L 218.19116 136.776183 
L 218.44505 129.257628 
L 218.69894 126.703469 
L 218.952831 136.602624 
L 219.206721 126.801893 
L 219.460611 126.003289 
L 219.714501 116.290798 
L 219.968392 147.108575 
L 220.222282 136.022137 
L 220.476172 107.78938 
L 220.730062 132.641817 
L 220.983953 119.382713 
L 221.237843 135.026004 
L 221.491733 133.838874 
L 221.745623 113.223187 
L 221.999514 129.393857 
L 222.507294 115.131869 
L 222.761184 146.563682 
L 223.015075 131.847869 
L 223.268965 133.004484 
L 223.522855 121.446758 
L 223.776745 136.654793 
L 224.030636 117.136942 
L 224.284526 121.94757 
L 224.538416 129.333239 
L 224.792307 140.524711 
L 225.046197 132.667767 
L 225.300087 142.10623 
L 225.553977 126.379715 
L 225.807868 147.347511 
L 226.061758 115.904034 
L 226.315648 137.238791 
L 226.569538 129.905934 
L 226.823429 146.092266 
L 227.077319 137.31628 
L 227.331209 114.29915 
L 227.585099 135.923867 
L 227.83899 125.937836 
L 228.09288 125.297734 
L 228.34677 112.886085 
L 228.60066 127.781862 
L 229.108441 141.455944 
L 229.362331 122.432976 
L 229.616221 139.17944 
L 229.870112 140.406369 
L 230.124002 120.907189 
L 230.377892 135.611326 
L 230.631782 137.947805 
L 230.885673 127.193569 
L 231.139563 143.882977 
L 231.393453 123.652691 
L 231.647343 126.374841 
L 231.901234 149.567139 
L 232.155124 136.246631 
L 232.409014 136.4232 
L 232.662904 121.387992 
L 232.916795 128.81247 
L 233.170685 153.788715 
L 233.424575 129.080879 
L 233.678465 128.171147 
L 233.932356 131.372389 
L 234.186246 138.852239 
L 234.440136 129.075928 
L 234.694026 151.632521 
L 234.947917 131.705222 
L 235.201807 137.390156 
L 235.455697 135.612818 
L 235.709587 154.023883 
L 236.217368 133.971516 
L 236.471258 117.433062 
L 236.725148 136.191864 
L 236.979039 126.604943 
L 237.232929 142.052312 
L 237.486819 133.425415 
L 237.740709 120.528873 
L 237.9946 146.832412 
L 238.50238 135.598981 
L 238.75627 144.799499 
L 239.010161 129.928823 
L 239.264051 155.238789 
L 239.517941 139.724114 
L 239.771831 148.675898 
L 240.025722 123.544109 
L 240.279612 133.01571 
L 240.533502 133.093495 
L 240.787393 145.776986 
L 241.041283 147.349015 
L 241.295173 131.544805 
L 241.549063 139.032859 
L 241.802954 130.470295 
L 242.056844 147.096076 
L 242.310734 130.781024 
L 242.564624 134.866731 
L 242.818515 137.146115 
L 243.072405 127.83659 
L 243.326295 130.252462 
L 243.580185 116.604072 
L 243.834076 136.614493 
L 244.087966 140.116254 
L 244.341856 123.321774 
L 244.595746 129.91851 
L 244.849637 162.130899 
L 245.103527 130.043038 
L 245.357417 144.595926 
L 245.611307 123.877674 
L 245.865198 123.141103 
L 246.119088 157.779728 
L 246.372978 118.922664 
L 246.626868 117.124327 
L 246.880759 140.334049 
L 247.134649 127.077207 
L 247.388539 147.015243 
L 247.642429 136.790791 
L 247.89632 143.478519 
L 248.15021 138.449105 
L 248.4041 127.26315 
L 248.65799 123.086092 
L 248.911881 144.543229 
L 249.419661 117.367763 
L 249.673551 113.811158 
L 249.927442 130.742279 
L 250.181332 127.356225 
L 250.435222 137.287386 
L 250.689112 141.185516 
L 250.943003 141.053672 
L 251.196893 117.948096 
L 251.450783 113.31387 
L 251.958564 143.543663 
L 252.466344 107.763919 
L 252.720234 134.411337 
L 252.974125 130.867758 
L 253.228015 125.308716 
L 253.481905 147.236241 
L 253.735795 132.689898 
L 253.989686 132.507131 
L 254.243576 147.850007 
L 255.005247 117.507632 
L 255.259137 124.493241 
L 255.513027 139.275973 
L 255.766917 126.007713 
L 256.020808 133.199261 
L 256.274698 123.058573 
L 256.528588 129.268674 
L 256.782479 116.073903 
L 257.036369 141.624772 
L 257.544149 125.11979 
L 257.79804 135.227506 
L 258.05193 138.662348 
L 258.30582 131.476458 
L 258.55971 140.896816 
L 258.813601 133.710232 
L 259.067491 144.758285 
L 259.321381 129.310762 
L 259.575271 142.965671 
L 259.829162 133.661804 
L 260.083052 117.047314 
L 260.336942 145.70945 
L 260.590832 125.791088 
L 260.844723 137.931551 
L 261.098613 117.356769 
L 261.352503 138.975224 
L 261.606393 142.657617 
L 261.860284 121.146587 
L 262.114174 116.045664 
L 262.368064 141.536352 
L 262.621954 118.502505 
L 262.875845 135.674567 
L 263.129735 123.600869 
L 263.383625 135.704555 
L 263.637515 141.147363 
L 263.891406 134.503331 
L 264.145296 140.995085 
L 264.399186 127.251346 
L 264.653076 128.193663 
L 264.906967 150.527896 
L 265.414747 124.899333 
L 265.668637 131.644077 
L 265.922528 133.605661 
L 266.176418 117.221208 
L 266.430308 144.709614 
L 266.684198 139.254126 
L 267.191979 162.732976 
L 267.445869 112.544058 
L 267.699759 146.354258 
L 267.95365 146.892889 
L 268.20754 139.643385 
L 268.46143 128.100293 
L 268.71532 132.28117 
L 268.969211 155.143078 
L 269.223101 126.169931 
L 269.476991 133.374531 
L 269.730881 110.735806 
L 269.984772 152.609931 
L 270.238662 145.675759 
L 270.492552 149.081025 
L 270.746442 136.407461 
L 271.000333 147.573536 
L 271.254223 126.968727 
L 271.508113 125.431675 
L 271.762003 128.791034 
L 272.015894 127.701467 
L 272.269784 140.731242 
L 272.523674 127.274363 
L 272.777564 98.543277 
L 273.031455 130.799772 
L 273.285345 120.517351 
L 273.539235 133.856183 
L 273.793126 133.944988 
L 274.047016 110.163858 
L 274.300906 126.914488 
L 274.554796 116.6476 
L 274.808687 125.084376 
L 275.062577 139.204747 
L 275.316467 141.88108 
L 275.570357 150.001816 
L 275.824248 135.573301 
L 276.078138 139.51181 
L 276.332028 125.155075 
L 276.585918 121.862468 
L 277.093699 149.480571 
L 277.347589 135.223237 
L 277.601479 127.310922 
L 277.85537 123.71138 
L 278.10926 131.786814 
L 278.61704 139.434604 
L 278.870931 136.171598 
L 279.124821 121.943095 
L 279.378711 147.987407 
L 279.632601 125.841804 
L 279.886492 130.722952 
L 280.140382 125.865594 
L 280.394272 110.132366 
L 280.648162 130.709887 
L 280.902053 140.432588 
L 281.155943 132.400619 
L 281.409833 143.580826 
L 281.663723 132.617655 
L 281.917614 131.550797 
L 282.171504 125.200571 
L 282.425394 136.758386 
L 282.679284 142.855301 
L 282.933175 116.607814 
L 283.187065 137.520393 
L 283.440955 125.98665 
L 283.694845 128.556136 
L 284.202626 114.196714 
L 284.456516 113.967937 
L 284.710406 141.196742 
L 284.964297 144.039923 
L 285.218187 154.188429 
L 285.472077 124.821715 
L 285.725967 148.877722 
L 285.979858 122.404493 
L 286.233748 131.683452 
L 286.487638 147.532927 
L 286.995419 113.132916 
L 287.249309 144.939753 
L 287.503199 130.934587 
L 287.757089 137.92201 
L 288.01098 140.254811 
L 288.26487 122.333395 
L 288.51876 135.882654 
L 288.77265 136.823994 
L 289.026541 123.377094 
L 289.534321 135.582316 
L 289.788212 117.783834 
L 290.042102 125.470973 
L 290.549882 147.568894 
L 290.803773 119.047964 
L 291.057663 135.111646 
L 291.311553 133.925751 
L 291.565443 120.526507 
L 291.819334 124.808329 
L 292.073224 126.244938 
L 292.327114 117.847345 
L 292.581004 144.928965 
L 292.834895 145.720959 
L 293.088785 144.324598 
L 293.342675 127.062663 
L 293.596565 149.433635 
L 293.850456 145.292917 
L 294.104346 136.37575 
L 294.358236 141.107024 
L 294.612126 140.852915 
L 294.866017 117.408784 
L 295.119907 133.774656 
L 295.373797 133.951443 
L 295.627687 130.599697 
L 295.881578 144.949166 
L 296.135468 142.658106 
L 296.389358 132.7137 
L 296.643248 148.129462 
L 296.897139 141.626147 
L 297.404919 115.643083 
L 297.658809 112.751386 
L 298.16659 152.61937 
L 298.42048 127.063036 
L 298.67437 140.972903 
L 298.928261 127.093075 
L 299.182151 132.437974 
L 299.436041 147.226339 
L 299.689931 128.909145 
L 299.943822 123.896114 
L 300.197712 114.401521 
L 300.451602 130.36939 
L 300.705492 136.005176 
L 300.959383 123.523122 
L 301.213273 123.465308 
L 301.467163 148.381372 
L 301.721053 148.778951 
L 301.974944 115.035322 
L 302.228834 136.597429 
L 302.736614 140.90268 
L 302.990505 148.920607 
L 303.244395 144.553799 
L 303.498285 130.741958 
L 303.752175 127.136359 
L 304.259956 143.650265 
L 304.513846 135.482889 
L 304.767736 140.575723 
L 305.275517 127.698741 
L 305.529407 127.854362 
L 305.783298 108.986668 
L 306.037188 141.781846 
L 306.544968 145.881415 
L 307.052749 160.599813 
L 307.306639 121.878195 
L 307.560529 141.653396 
L 307.81442 122.876642 
L 308.06831 124.388671 
L 308.3222 146.355647 
L 308.57609 122.298328 
L 308.829981 134.399224 
L 309.337761 147.037657 
L 309.591651 146.451293 
L 309.845542 135.798041 
L 310.099432 132.617231 
L 310.099432 132.617231 
" clip-path="url(#p72a22446cb)" style="fill: none; stroke: #1f77b4; stroke-opacity: 0.5; stroke-width: 1.5; stroke-linecap: square"/>
   </g>
   <g id="line2d_26">
    <path d="M 68.903691 99.881031 
L 69.157581 101.773579 
L 69.411471 102.64903 
L 69.665361 102.98908 
L 70.173142 104.431494 
L 70.427032 104.78541 
L 70.934813 106.017803 
L 71.188703 106.030021 
L 71.950374 107.21898 
L 72.204264 107.177419 
L 72.458154 107.41979 
L 73.219825 108.655967 
L 73.473715 108.709772 
L 73.727605 109.379266 
L 74.235386 109.268092 
L 74.489276 109.894557 
L 74.997057 110.037392 
L 75.250947 109.872874 
L 75.758727 110.775592 
L 76.012618 111.026515 
L 76.520398 111.116371 
L 77.282069 112.319829 
L 77.535959 112.385756 
L 77.78985 112.584525 
L 78.04374 112.963305 
L 78.29763 112.922069 
L 78.55152 113.145558 
L 79.059301 113.156568 
L 79.567081 113.485304 
L 79.820972 113.715869 
L 80.074862 113.571932 
L 80.328752 113.562861 
L 80.582642 113.797773 
L 80.836533 113.621994 
L 81.344313 114.158679 
L 81.598203 114.763782 
L 82.105984 114.355828 
L 82.359874 114.98518 
L 82.613764 114.956317 
L 82.867655 115.093688 
L 83.121545 114.871219 
L 83.375435 114.900065 
L 83.629325 114.541298 
L 84.390996 114.943971 
L 84.644886 114.797878 
L 84.898777 115.054356 
L 85.406557 115.102105 
L 85.660447 115.039531 
L 85.914338 115.167126 
L 86.168228 115.643751 
L 86.422118 115.377269 
L 86.929899 116.378861 
L 87.183789 116.284985 
L 87.437679 116.734809 
L 87.691569 116.605233 
L 87.94546 117.100833 
L 88.45324 116.840513 
L 88.961021 116.896622 
L 89.468801 117.901977 
L 89.976582 117.279061 
L 90.230472 117.824531 
L 90.484362 117.658193 
L 90.738252 117.826126 
L 91.246033 118.296762 
L 91.753813 118.743256 
L 92.007704 119.025604 
L 92.515484 118.772382 
L 92.769374 118.750438 
L 93.023265 119.112165 
L 93.277155 119.117408 
L 93.531045 119.408623 
L 94.292716 118.844741 
L 94.546606 119.030806 
L 94.800497 119.418525 
L 95.054387 119.421884 
L 96.323838 120.366888 
L 97.085509 121.303693 
L 97.84718 121.850342 
L 98.10107 121.806613 
L 98.35496 122.463272 
L 98.60885 122.754497 
L 98.862741 122.656184 
L 99.116631 122.827351 
L 99.370521 122.108776 
L 99.878302 121.740711 
L 100.132192 121.385085 
L 100.893863 122.009542 
L 101.147753 121.68968 
L 101.655533 121.99696 
L 101.909424 121.924057 
L 102.417204 121.606449 
L 102.671094 121.689242 
L 102.924985 121.191341 
L 103.178875 121.424694 
L 103.940546 121.200161 
L 104.194436 121.336817 
L 104.448326 121.343251 
L 104.956107 121.687703 
L 105.463887 122.040705 
L 105.717777 121.871837 
L 105.971668 121.53049 
L 106.733338 122.063847 
L 106.987229 122.025625 
L 107.241119 122.507664 
L 107.748899 122.42293 
L 108.00279 122.879957 
L 108.25668 122.373416 
L 108.51057 122.907596 
L 108.76446 122.568752 
L 109.018351 122.96351 
L 109.526131 122.517289 
L 110.033912 122.683204 
L 110.287802 122.300725 
L 110.795583 122.898391 
L 111.049473 122.694473 
L 111.303363 122.341257 
L 111.557253 122.385723 
L 111.811144 122.201404 
L 112.065034 122.865772 
L 112.318924 123.054866 
L 112.572814 122.962452 
L 112.826705 123.042468 
L 113.080595 123.347049 
L 113.334485 122.76456 
L 113.588375 122.501208 
L 113.842266 123.125874 
L 114.350046 122.643466 
L 114.857827 122.687424 
L 115.111717 123.343347 
L 115.365607 123.482633 
L 115.619497 123.431424 
L 115.873388 123.22453 
L 116.381168 123.44265 
L 117.142839 124.181884 
L 117.396729 123.965225 
L 117.650619 124.183284 
L 117.90451 123.982934 
L 118.1584 124.270785 
L 118.41229 124.114763 
L 118.66618 124.394611 
L 119.173961 124.083151 
L 119.427851 123.879531 
L 119.681741 124.066657 
L 120.189522 124.183985 
L 120.443412 124.989925 
L 120.697302 124.62027 
L 120.951193 125.01174 
L 121.205083 124.492882 
L 121.458973 124.618495 
L 121.712863 124.563717 
L 121.966754 124.973287 
L 122.220644 124.701682 
L 122.474534 124.717823 
L 122.728424 124.512044 
L 122.982315 124.685244 
L 123.236205 124.654744 
L 123.490095 124.466973 
L 123.743985 124.498393 
L 123.997876 124.125639 
L 124.251766 124.129112 
L 124.505656 124.359646 
L 124.759546 124.372284 
L 125.013437 123.866126 
L 125.267327 124.196717 
L 125.521217 124.202995 
L 125.775107 123.933289 
L 126.028998 124.18983 
L 126.282888 124.836027 
L 126.536778 124.749089 
L 126.790669 124.779888 
L 127.044559 124.990808 
L 127.298449 124.783986 
L 127.552339 124.970339 
L 128.06012 124.954564 
L 128.31401 125.026698 
L 128.5679 125.23515 
L 129.075681 125.107508 
L 129.583461 124.533969 
L 129.837352 124.575475 
L 130.091242 124.219872 
L 130.345132 124.280704 
L 130.599022 124.709565 
L 131.360693 125.084716 
L 131.614583 124.881881 
L 131.868474 125.393919 
L 132.884035 125.561909 
L 133.137925 125.308456 
L 133.645705 125.777931 
L 133.899596 126.174648 
L 134.153486 126.016816 
L 134.407376 126.227484 
L 134.661266 125.886968 
L 134.915157 126.452017 
L 135.422937 126.181961 
L 135.676827 126.333513 
L 135.930718 126.01278 
L 136.184608 126.33284 
L 136.438498 126.324788 
L 136.946279 127.283091 
L 137.200169 126.890902 
L 137.454059 126.784253 
L 137.96184 127.433456 
L 138.21573 127.433568 
L 138.72351 128.083788 
L 139.231291 127.867442 
L 139.485181 128.004168 
L 139.992962 127.888326 
L 140.246852 127.477962 
L 140.500742 127.66245 
L 140.754632 127.694618 
L 141.008523 128.256461 
L 141.262413 128.494795 
L 141.770193 129.394275 
L 142.024084 129.56427 
L 142.277974 130.034905 
L 142.531864 129.675848 
L 143.039645 130.237112 
L 143.293535 129.715759 
L 143.547425 129.524589 
L 143.801316 129.632191 
L 144.055206 129.205758 
L 144.309096 129.586928 
L 144.562986 128.766657 
L 144.816877 128.647332 
L 145.324657 128.115883 
L 145.578547 128.186759 
L 146.086328 127.460906 
L 146.594108 127.706711 
L 147.101889 127.782989 
L 147.609669 127.263475 
L 148.11745 127.56546 
L 148.37134 127.392801 
L 148.62523 127.739517 
L 149.133011 126.912354 
L 149.386901 126.8665 
L 149.640791 126.258926 
L 149.894682 126.963579 
L 150.148572 127.096329 
L 150.402462 127.082026 
L 150.656352 126.869627 
L 150.910243 126.907269 
L 151.164133 126.504641 
L 151.671913 126.544461 
L 152.179694 126.303837 
L 152.433584 126.306175 
L 152.687474 126.682179 
L 152.941365 127.257082 
L 153.195255 127.358498 
L 153.449145 127.229339 
L 153.703035 126.809909 
L 153.956926 126.902292 
L 154.210816 126.742552 
L 154.464706 126.345597 
L 154.718596 126.555798 
L 154.972487 125.952927 
L 155.480267 126.543101 
L 155.734157 125.943348 
L 156.495828 126.774417 
L 156.749718 126.86663 
L 157.003609 126.808508 
L 157.257499 127.332887 
L 157.511389 127.597054 
L 157.765279 128.315555 
L 158.78084 129.212079 
L 159.034731 128.819563 
L 159.288621 128.172315 
L 159.542511 128.471432 
L 159.796402 127.795069 
L 160.050292 128.300537 
L 160.304182 128.307977 
L 160.558072 128.464572 
L 160.811963 128.87848 
L 161.065853 129.052901 
L 161.319743 128.975537 
L 161.573633 129.143619 
L 161.827524 129.122903 
L 162.335304 129.451702 
L 163.096975 128.646078 
L 163.350865 128.529379 
L 163.604755 128.843955 
L 164.112536 128.94227 
L 164.366426 128.776364 
L 164.874207 129.453754 
L 165.128097 129.743102 
L 165.381987 129.490699 
L 165.889768 128.188108 
L 166.143658 128.227919 
L 166.397548 128.069852 
L 167.413109 126.914299 
L 167.666999 127.063808 
L 168.17478 126.762589 
L 168.42867 127.214578 
L 168.68256 127.290973 
L 169.190341 126.988644 
L 169.444231 127.208739 
L 169.698121 127.583266 
L 170.205902 127.403918 
L 170.459792 126.925572 
L 170.967573 126.374742 
L 171.475353 126.452334 
L 171.729243 126.778747 
L 172.237024 127.784444 
L 172.490914 128.108407 
L 172.744804 127.873849 
L 172.998695 128.084328 
L 173.760365 127.375226 
L 174.014256 127.743563 
L 174.268146 127.707729 
L 174.522036 127.994866 
L 174.775926 127.931053 
L 175.791488 128.6554 
L 176.045378 128.762127 
L 176.807049 128.362335 
L 177.060939 128.402162 
L 177.314829 128.777855 
L 177.82261 128.412329 
L 178.0765 128.636907 
L 178.33039 128.595685 
L 179.092061 129.381835 
L 179.345951 128.992388 
L 179.599841 128.829206 
L 179.853732 129.173285 
L 180.107622 129.240298 
L 180.361512 129.455366 
L 180.615402 129.82456 
L 180.869293 129.957954 
L 181.123183 129.8633 
L 181.377073 129.641427 
L 181.884854 129.63809 
L 182.392634 129.971274 
L 182.646524 129.450769 
L 183.154305 129.775183 
L 183.408195 129.78074 
L 183.662085 129.938684 
L 184.169866 129.720993 
L 184.677646 129.76838 
L 184.931537 129.090373 
L 185.947098 129.253157 
L 186.200988 129.359589 
L 186.454878 130.333227 
L 186.708768 130.286925 
L 186.962659 130.527947 
L 187.470439 130.233736 
L 187.724329 130.145801 
L 187.97822 130.276003 
L 188.23211 129.753141 
L 188.73989 130.303957 
L 188.993781 130.26201 
L 189.247671 130.646664 
L 189.501561 130.528917 
L 189.755451 130.642286 
L 190.009342 130.169832 
L 190.263232 130.396142 
L 190.771012 130.260851 
L 191.278793 130.991677 
L 191.532683 130.796226 
L 191.786574 130.834976 
L 192.040464 131.106834 
L 192.548244 131.340229 
L 193.056025 131.758957 
L 193.309915 131.19451 
L 193.563805 131.013889 
L 193.817696 131.31917 
L 194.325476 131.320482 
L 194.833257 131.872296 
L 195.087147 131.657659 
L 195.341037 132.412719 
L 195.594927 132.221495 
L 195.848818 132.227654 
L 196.356598 131.839054 
L 196.864379 132.163031 
L 197.118269 132.137518 
L 197.372159 131.818923 
L 197.626049 132.349096 
L 198.13383 132.705174 
L 198.64161 133.258019 
L 199.149391 131.896676 
L 199.657171 131.233474 
L 200.418842 131.586037 
L 200.672732 131.023524 
L 200.926623 131.37256 
L 201.180513 130.814191 
L 201.942184 130.395152 
L 202.196074 130.479736 
L 202.449964 130.221506 
L 203.211635 130.757081 
L 203.465525 130.552564 
L 203.719415 130.818425 
L 203.973306 130.831272 
L 204.481086 131.097191 
L 204.734976 131.61399 
L 204.988867 131.795562 
L 205.242757 131.688404 
L 205.496647 131.286524 
L 205.750537 131.112719 
L 206.004428 131.496122 
L 206.512208 131.11783 
L 206.766098 131.33562 
L 207.78166 130.010586 
L 208.28944 129.942876 
L 208.54333 129.719317 
L 208.797221 129.796366 
L 209.051111 130.203641 
L 209.558891 130.474922 
L 210.066672 130.550728 
L 210.320562 130.40866 
L 210.574452 130.826897 
L 210.828343 130.823216 
L 211.082233 130.197373 
L 211.336123 130.166852 
L 211.590013 130.970334 
L 212.097794 131.039766 
L 212.351684 131.580916 
L 212.605574 131.536889 
L 212.859465 131.985087 
L 213.113355 131.779274 
L 213.367245 132.634484 
L 213.621135 132.514059 
L 214.128916 133.267165 
L 214.382806 133.164987 
L 214.636696 133.225709 
L 214.890587 132.963867 
L 215.144477 133.2776 
L 215.398367 133.095704 
L 215.652257 132.70952 
L 215.906148 132.719119 
L 216.160038 133.104973 
L 216.921709 132.264353 
L 217.429489 132.559726 
L 217.93727 132.5057 
L 218.19116 132.72986 
L 218.69894 132.458155 
L 218.952831 132.759299 
L 219.460611 132.460494 
L 219.714501 132.549075 
L 220.222282 133.187681 
L 220.476172 132.694268 
L 220.730062 132.642518 
L 220.983953 132.443445 
L 221.237843 132.566996 
L 221.491733 132.851604 
L 221.745623 132.17332 
L 222.253404 131.376403 
L 222.507294 130.786006 
L 222.761184 131.276187 
L 223.015075 131.159534 
L 223.522855 130.569755 
L 223.776745 130.791611 
L 224.030636 130.287524 
L 224.284526 130.066158 
L 224.538416 130.00459 
L 224.792307 130.248013 
L 225.046197 130.030582 
L 225.300087 130.433601 
L 225.553977 129.934148 
L 225.807868 130.319594 
L 226.061758 129.628299 
L 226.315648 129.958189 
L 226.823429 129.90031 
L 227.077319 130.341623 
L 227.331209 130.036241 
L 227.585099 130.370062 
L 227.83899 130.096798 
L 228.09288 130.216097 
L 228.60066 129.705103 
L 228.854551 129.635809 
L 229.108441 129.771817 
L 229.362331 129.752595 
L 229.616221 130.214657 
L 229.870112 130.17078 
L 230.124002 129.528498 
L 230.377892 129.663179 
L 230.631782 129.959755 
L 230.885673 129.768103 
L 231.139563 130.06061 
L 231.393453 129.999595 
L 231.647343 129.795039 
L 231.901234 130.250344 
L 232.155124 130.455211 
L 232.409014 130.857859 
L 232.662904 130.343447 
L 232.916795 130.199254 
L 233.170685 131.11924 
L 233.424575 131.048022 
L 233.678465 131.22379 
L 233.932356 131.150718 
L 234.186246 131.250985 
L 235.201807 132.651433 
L 235.455697 132.432415 
L 235.963478 133.117701 
L 236.217368 133.368197 
L 236.471258 132.983762 
L 236.725148 133.36486 
L 236.979039 133.458008 
L 237.232929 133.712389 
L 237.740709 133.327625 
L 237.9946 133.422149 
L 238.24849 133.705235 
L 238.50238 133.470264 
L 238.75627 134.048174 
L 239.010161 133.901974 
L 239.264051 134.408631 
L 239.517941 134.281268 
L 240.025722 134.69336 
L 240.279612 134.635197 
L 240.533502 134.77831 
L 240.787393 135.187895 
L 241.041283 135.877154 
L 241.549063 136.043574 
L 241.802954 135.823861 
L 242.056844 136.317123 
L 242.564624 136.038362 
L 242.818515 136.363141 
L 243.834076 135.696579 
L 244.087966 136.025851 
L 244.341856 135.964789 
L 244.595746 135.571817 
L 244.849637 136.089502 
L 245.103527 135.961899 
L 245.357417 136.426058 
L 245.611307 136.327362 
L 245.865198 135.714409 
L 246.119088 136.288386 
L 246.880759 135.848092 
L 247.642429 135.817483 
L 248.15021 135.995976 
L 248.65799 135.020628 
L 249.165771 135.505673 
L 249.673551 134.873316 
L 250.181332 134.525731 
L 250.435222 134.860901 
L 250.689112 134.747963 
L 250.943003 134.758357 
L 251.196893 134.405339 
L 251.450783 133.775626 
L 251.704673 133.749948 
L 252.212454 133.138851 
L 252.466344 132.320611 
L 252.720234 132.537956 
L 252.974125 132.494997 
L 253.228015 132.339301 
L 253.481905 132.368486 
L 253.735795 132.075304 
L 253.989686 132.09455 
L 254.497466 132.404996 
L 255.005247 131.654996 
L 255.259137 131.447527 
L 256.274698 131.641572 
L 256.528588 131.494656 
L 256.782479 131.013809 
L 257.036369 131.379869 
L 257.290259 131.442404 
L 257.544149 130.702182 
L 257.79804 130.805872 
L 258.05193 130.6872 
L 258.30582 130.839176 
L 258.55971 131.19429 
L 258.813601 130.7129 
L 259.067491 131.229612 
L 259.321381 131.473341 
L 259.829162 131.657665 
L 260.083052 131.058307 
L 260.336942 131.23668 
L 260.590832 130.882931 
L 260.844723 130.87258 
L 261.098613 130.674453 
L 261.352503 130.992235 
L 261.606393 130.954523 
L 261.860284 130.755183 
L 262.114174 130.728741 
L 262.368064 131.283245 
L 262.621954 131.038449 
L 262.875845 131.204816 
L 263.129735 130.931086 
L 263.637515 130.82334 
L 263.891406 131.154445 
L 264.145296 131.708069 
L 264.399186 131.680198 
L 264.653076 131.373198 
L 265.160857 132.504732 
L 265.414747 132.314492 
L 265.668637 132.330018 
L 265.922528 132.495957 
L 266.176418 131.895657 
L 266.684198 132.270991 
L 266.938089 132.389692 
L 267.191979 132.900842 
L 267.445869 132.694334 
L 267.95365 133.719259 
L 268.71532 133.750097 
L 268.969211 134.391787 
L 269.223101 134.329813 
L 269.476991 134.675825 
L 269.730881 134.058046 
L 270.492552 135.137529 
L 270.746442 135.092431 
L 271.000333 135.414372 
L 271.762003 134.650894 
L 272.523674 134.446271 
L 273.031455 133.777997 
L 273.539235 133.591015 
L 273.793126 133.922779 
L 274.300906 133.031689 
L 274.554796 132.941709 
L 274.808687 133.122484 
L 275.062577 133.075852 
L 275.570357 133.829968 
L 275.824248 134.069417 
L 276.078138 134.145562 
L 276.585918 133.572899 
L 276.839809 133.529297 
L 277.093699 133.973882 
L 277.347589 134.114473 
L 277.601479 133.650134 
L 277.85537 133.430819 
L 278.61704 133.764251 
L 278.870931 134.143259 
L 279.124821 133.687929 
L 279.378711 133.862594 
L 279.886492 132.663529 
L 280.140382 132.92996 
L 280.394272 132.205522 
L 280.648162 131.881862 
L 281.155943 131.983653 
L 281.409833 132.209646 
L 281.663723 131.759137 
L 281.917614 131.866754 
L 282.171504 131.703275 
L 282.425394 132.223727 
L 282.679284 132.028634 
L 282.933175 131.447275 
L 284.456516 129.955821 
L 284.710406 130.225726 
L 284.964297 130.2919 
L 285.725967 131.717309 
L 286.233748 131.711597 
L 286.741528 132.300119 
L 286.995419 132.024488 
L 287.249309 132.590331 
L 287.503199 132.707335 
L 288.01098 132.649155 
L 288.26487 132.095787 
L 289.534321 132.080159 
L 289.788212 131.446224 
L 290.042102 131.251179 
L 290.295992 131.488192 
L 290.549882 131.965343 
L 290.803773 131.710566 
L 291.311553 131.590636 
L 291.565443 131.277734 
L 291.819334 131.335039 
L 292.073224 130.90019 
L 292.327114 130.740301 
L 292.834895 131.421528 
L 293.088785 132.105373 
L 293.342675 132.032428 
L 293.850456 132.470295 
L 294.104346 132.326194 
L 294.612126 132.682023 
L 295.373797 132.288436 
L 296.135468 133.050278 
L 296.389358 133.133429 
L 296.897139 134.255549 
L 297.151029 134.569768 
L 297.9127 133.071932 
L 298.16659 133.627885 
L 298.42048 133.191592 
L 298.67437 133.56296 
L 298.928261 133.471152 
L 299.182151 133.169253 
L 299.689931 133.909264 
L 300.197712 133.15773 
L 300.705492 132.921685 
L 300.959383 132.945479 
L 301.213273 132.697132 
L 301.467163 132.92828 
L 301.721053 133.436317 
L 301.974944 133.16762 
L 302.228834 133.187922 
L 302.736614 133.910224 
L 302.990505 134.105405 
L 303.244395 134.045103 
L 303.498285 134.278983 
L 303.752175 134.119477 
L 304.006066 134.172354 
L 304.259956 134.634829 
L 304.767736 135.134936 
L 305.021627 135.467639 
L 305.529407 134.765702 
L 305.783298 134.058944 
L 306.037188 134.353327 
L 306.291078 134.240516 
L 306.544968 134.252286 
L 307.052749 134.957131 
L 307.306639 134.577637 
L 307.560529 135.062529 
L 308.06831 134.653313 
L 308.3222 134.968432 
L 308.57609 134.515416 
L 308.829981 134.350238 
L 309.083871 134.492146 
L 309.337761 134.47031 
L 309.845542 134.689197 
L 310.099432 135.02868 
L 310.099432 135.02868 
" clip-path="url(#p72a22446cb)" style="fill: none; stroke: #1f77b4; stroke-width: 1.5; stroke-linecap: square"/>
   </g>
   <g id="patch_3">
    <path d="M 43.78125 173.52 
L 43.78125 7.2 
" style="fill: none; stroke: #000000; stroke-width: 0.8; stroke-linejoin: miter; stroke-linecap: square"/>
   </g>
   <g id="patch_4">
    <path d="M 322.78125 173.52 
L 322.78125 7.2 
" style="fill: none; stroke: #000000; stroke-width: 0.8; stroke-linejoin: miter; stroke-linecap: square"/>
   </g>
   <g id="patch_5">
    <path d="M 43.78125 173.52 
L 322.78125 173.52 
" style="fill: none; stroke: #000000; stroke-width: 0.8; stroke-linejoin: miter; stroke-linecap: square"/>
   </g>
   <g id="patch_6">
    <path d="M 43.78125 7.2 
L 322.78125 7.2 
" style="fill: none; stroke: #000000; stroke-width: 0.8; stroke-linejoin: miter; stroke-linecap: square"/>
   </g>
   <g id="legend_1">
    <g id="patch_7">
     <path d="M 234.05625 44.55625 
L 315.78125 44.55625 
Q 317.78125 44.55625 317.78125 42.55625 
L 317.78125 14.2 
Q 317.78125 12.2 315.78125 12.2 
L 234.05625 12.2 
Q 232.05625 12.2 232.05625 14.2 
L 232.05625 42.55625 
Q 232.05625 44.55625 234.05625 44.55625 
z
" style="fill: #ffffff; opacity: 0.8; stroke: #cccccc; stroke-linejoin: miter"/>
    </g>
    <g id="line2d_27">
     <path d="M 236.05625 20.298438 
L 246.05625 20.298438 
L 256.05625 20.298438 
" style="fill: none; stroke: #1f77b4; stroke-opacity: 0.5; stroke-width: 1.5; stroke-linecap: square"/>
    </g>
    <g id="text_15">
     <!-- train -->
     <g transform="translate(264.05625 23.798438) scale(0.1 -0.1)">
      <defs>
       <path id="DejaVuSans-72" d="M 2631 2963 
Q 2534 3019 2420 3045 
Q 2306 3072 2169 3072 
Q 1681 3072 1420 2755 
Q 1159 2438 1159 1844 
L 1159 0 
L 581 0 
L 581 3500 
L 1159 3500 
L 1159 2956 
Q 1341 3275 1631 3429 
Q 1922 3584 2338 3584 
Q 2397 3584 2469 3576 
Q 2541 3569 2628 3553 
L 2631 2963 
z
" transform="scale(0.015625)"/>
       <path id="DejaVuSans-61" d="M 2194 1759 
Q 1497 1759 1228 1600 
Q 959 1441 959 1056 
Q 959 750 1161 570 
Q 1363 391 1709 391 
Q 2188 391 2477 730 
Q 2766 1069 2766 1631 
L 2766 1759 
L 2194 1759 
z
M 3341 1997 
L 3341 0 
L 2766 0 
L 2766 531 
Q 2569 213 2275 61 
Q 1981 -91 1556 -91 
Q 1019 -91 701 211 
Q 384 513 384 1019 
Q 384 1609 779 1909 
Q 1175 2209 1959 2209 
L 2766 2209 
L 2766 2266 
Q 2766 2663 2505 2880 
Q 2244 3097 1772 3097 
Q 1472 3097 1187 3025 
Q 903 2953 641 2809 
L 641 3341 
Q 956 3463 1253 3523 
Q 1550 3584 1831 3584 
Q 2591 3584 2966 3190 
Q 3341 2797 3341 1997 
z
" transform="scale(0.015625)"/>
       <path id="DejaVuSans-69" d="M 603 3500 
L 1178 3500 
L 1178 0 
L 603 0 
L 603 3500 
z
M 603 4863 
L 1178 4863 
L 1178 4134 
L 603 4134 
L 603 4863 
z
" transform="scale(0.015625)"/>
       <path id="DejaVuSans-6e" d="M 3513 2113 
L 3513 0 
L 2938 0 
L 2938 2094 
Q 2938 2591 2744 2837 
Q 2550 3084 2163 3084 
Q 1697 3084 1428 2787 
Q 1159 2491 1159 1978 
L 1159 0 
L 581 0 
L 581 3500 
L 1159 3500 
L 1159 2956 
Q 1366 3272 1645 3428 
Q 1925 3584 2291 3584 
Q 2894 3584 3203 3211 
Q 3513 2838 3513 2113 
z
" transform="scale(0.015625)"/>
      </defs>
      <use xlink:href="#DejaVuSans-74"/>
      <use xlink:href="#DejaVuSans-72" x="39.208984"/>
      <use xlink:href="#DejaVuSans-61" x="80.322266"/>
      <use xlink:href="#DejaVuSans-69" x="141.601562"/>
      <use xlink:href="#DejaVuSans-6e" x="169.384766"/>
     </g>
    </g>
    <g id="line2d_28">
     <path d="M 236.05625 34.976562 
L 246.05625 34.976562 
L 256.05625 34.976562 
" style="fill: none; stroke: #1f77b4; stroke-width: 1.5; stroke-linecap: square"/>
    </g>
    <g id="text_16">
     <!-- train (MA) -->
     <g transform="translate(264.05625 38.476562) scale(0.1 -0.1)">
      <defs>
       <path id="DejaVuSans-20" transform="scale(0.015625)"/>
       <path id="DejaVuSans-28" d="M 1984 4856 
Q 1566 4138 1362 3434 
Q 1159 2731 1159 2009 
Q 1159 1288 1364 580 
Q 1569 -128 1984 -844 
L 1484 -844 
Q 1016 -109 783 600 
Q 550 1309 550 2009 
Q 550 2706 781 3412 
Q 1013 4119 1484 4856 
L 1984 4856 
z
" transform="scale(0.015625)"/>
       <path id="DejaVuSans-4d" d="M 628 4666 
L 1569 4666 
L 2759 1491 
L 3956 4666 
L 4897 4666 
L 4897 0 
L 4281 0 
L 4281 4097 
L 3078 897 
L 2444 897 
L 1241 4097 
L 1241 0 
L 628 0 
L 628 4666 
z
" transform="scale(0.015625)"/>
       <path id="DejaVuSans-41" d="M 2188 4044 
L 1331 1722 
L 3047 1722 
L 2188 4044 
z
M 1831 4666 
L 2547 4666 
L 4325 0 
L 3669 0 
L 3244 1197 
L 1141 1197 
L 716 0 
L 50 0 
L 1831 4666 
z
" transform="scale(0.015625)"/>
       <path id="DejaVuSans-29" d="M 513 4856 
L 1013 4856 
Q 1481 4119 1714 3412 
Q 1947 2706 1947 2009 
Q 1947 1309 1714 600 
Q 1481 -109 1013 -844 
L 513 -844 
Q 928 -128 1133 580 
Q 1338 1288 1338 2009 
Q 1338 2731 1133 3434 
Q 928 4138 513 4856 
z
" transform="scale(0.015625)"/>
      </defs>
      <use xlink:href="#DejaVuSans-74"/>
      <use xlink:href="#DejaVuSans-72" x="39.208984"/>
      <use xlink:href="#DejaVuSans-61" x="80.322266"/>
      <use xlink:href="#DejaVuSans-69" x="141.601562"/>
      <use xlink:href="#DejaVuSans-6e" x="169.384766"/>
      <use xlink:href="#DejaVuSans-20" x="232.763672"/>
      <use xlink:href="#DejaVuSans-28" x="264.550781"/>
      <use xlink:href="#DejaVuSans-4d" x="303.564453"/>
      <use xlink:href="#DejaVuSans-41" x="389.84375"/>
      <use xlink:href="#DejaVuSans-29" x="458.251953"/>
     </g>
    </g>
   </g>
  </g>
 </g>
 <defs>
  <clipPath id="p72a22446cb">
   <rect x="43.78125" y="7.2" width="279" height="166.32"/>
  </clipPath>
 </defs>
</svg>