<?xml version="1.0" encoding="utf-8" standalone="no"?>
<!DOCTYPE svg PUBLIC "-//W3C//DTD SVG 1.1//EN"
  "http://www.w3.org/Graphics/SVG/1.1/DTD/svg11.dtd">
<svg xmlns:xlink="http://www.w3.org/1999/xlink" width="385.78125pt" height="224.674688pt" viewBox="0 0 385.78125 224.674688" xmlns="http://www.w3.org/2000/svg" version="1.1">
 <metadata>
  <rdf:RDF xmlns:dc="http://purl.org/dc/elements/1.1/" xmlns:cc="http://creativecommons.org/ns#" xmlns:rdf="http://www.w3.org/1999/02/22-rdf-syntax-ns#">
   <cc:Work>
    <dc:type rdf:resource="http://purl.org/dc/dcmitype/StillImage"/>
    <dc:date>2024-05-25T02:59:36.252347</dc:date>
    <dc:format>image/svg+xml</dc:format>
    <dc:creator>
     <cc:Agent>
      <dc:title>Matplotlib v3.7.1, https://matplotlib.org/</dc:title>
     </cc:Agent>
    </dc:creator>
   </cc:Work>
  </rdf:RDF>
 </metadata>
 <defs>
  <style type="text/css">*{stroke-linejoin: round; stroke-linecap: butt}</style>
 </defs>
 <g id="figure_1">
  <g id="patch_1">
   <path d="M 0 224.674688 
L 385.78125 224.674688 
L 385.78125 0 
L 0 0 
z
" style="fill: #ffffff"/>
  </g>
  <g id="axes_1">
   <g id="patch_2">
    <path d="M 43.78125 187.118437 
L 378.58125 187.118437 
L 378.58125 20.798437 
L 43.78125 20.798437 
z
" style="fill: #ffffff"/>
   </g>
   <g id="matplotlib.axis_1">
    <g id="xtick_1">
     <g id="line2d_1">
      <path d="M 107.377231 187.118437 
L 107.377231 20.798437 
" clip-path="url(#p69d2c148fa)" style="fill: none; stroke-dasharray: 2.96,1.28; stroke-dashoffset: 0; stroke: #b0b0b0; stroke-opacity: 0.6; stroke-width: 0.8"/>
     </g>
     <g id="line2d_2">
      <defs>
       <path id="mcd00d74bc1" d="M 0 0 
L 0 3.5 
" style="stroke: #000000; stroke-width: 0.8"/>
      </defs>
      <g>
       <use xlink:href="#mcd00d74bc1" x="107.377231" y="187.118437" style="stroke: #000000; stroke-width: 0.8"/>
      </g>
     </g>
     <g id="text_1">
      <!-- 200 -->
      <g transform="translate(97.833481 201.716875) scale(0.1 -0.1)">
       <defs>
        <path id="DejaVuSans-32" d="M 1228 531 
L 3431 531 
L 3431 0 
L 469 0 
L 469 531 
Q 828 903 1448 1529 
Q 2069 2156 2228 2338 
Q 2531 2678 2651 2914 
Q 2772 3150 2772 3378 
Q 2772 3750 2511 3984 
Q 2250 4219 1831 4219 
Q 1534 4219 1204 4116 
Q 875 4013 500 3803 
L 500 4441 
Q 881 4594 1212 4672 
Q 1544 4750 1819 4750 
Q 2544 4750 2975 4387 
Q 3406 4025 3406 3419 
Q 3406 3131 3298 2873 
Q 3191 2616 2906 2266 
Q 2828 2175 2409 1742 
Q 1991 1309 1228 531 
z
" transform="scale(0.015625)"/>
        <path id="DejaVuSans-30" d="M 2034 4250 
Q 1547 4250 1301 3770 
Q 1056 3291 1056 2328 
Q 1056 1369 1301 889 
Q 1547 409 2034 409 
Q 2525 409 2770 889 
Q 3016 1369 3016 2328 
Q 3016 3291 2770 3770 
Q 2525 4250 2034 4250 
z
M 2034 4750 
Q 2819 4750 3233 4129 
Q 3647 3509 3647 2328 
Q 3647 1150 3233 529 
Q 2819 -91 2034 -91 
Q 1250 -91 836 529 
Q 422 1150 422 2328 
Q 422 3509 836 4129 
Q 1250 4750 2034 4750 
z
" transform="scale(0.015625)"/>
       </defs>
       <use xlink:href="#DejaVuSans-32"/>
       <use xlink:href="#DejaVuSans-30" x="63.623047"/>
       <use xlink:href="#DejaVuSans-30" x="127.246094"/>
      </g>
     </g>
    </g>
    <g id="xtick_2">
     <g id="line2d_3">
      <path d="M 171.453786 187.118437 
L 171.453786 20.798437 
" clip-path="url(#p69d2c148fa)" style="fill: none; stroke-dasharray: 2.96,1.28; stroke-dashoffset: 0; stroke: #b0b0b0; stroke-opacity: 0.6; stroke-width: 0.8"/>
     </g>
     <g id="line2d_4">
      <g>
       <use xlink:href="#mcd00d74bc1" x="171.453786" y="187.118437" style="stroke: #000000; stroke-width: 0.8"/>
      </g>
     </g>
     <g id="text_2">
      <!-- 400 -->
      <g transform="translate(161.910036 201.716875) scale(0.1 -0.1)">
       <defs>
        <path id="DejaVuSans-34" d="M 2419 4116 
L 825 1625 
L 2419 1625 
L 2419 4116 
z
M 2253 4666 
L 3047 4666 
L 3047 1625 
L 3713 1625 
L 3713 1100 
L 3047 1100 
L 3047 0 
L 2419 0 
L 2419 1100 
L 313 1100 
L 313 1709 
L 2253 4666 
z
" transform="scale(0.015625)"/>
       </defs>
       <use xlink:href="#DejaVuSans-34"/>
       <use xlink:href="#DejaVuSans-30" x="63.623047"/>
       <use xlink:href="#DejaVuSans-30" x="127.246094"/>
      </g>
     </g>
    </g>
    <g id="xtick_3">
     <g id="line2d_5">
      <path d="M 235.530341 187.118437 
L 235.530341 20.798437 
" clip-path="url(#p69d2c148fa)" style="fill: none; stroke-dasharray: 2.96,1.28; stroke-dashoffset: 0; stroke: #b0b0b0; stroke-opacity: 0.6; stroke-width: 0.8"/>
     </g>
     <g id="line2d_6">
      <g>
       <use xlink:href="#mcd00d74bc1" x="235.530341" y="187.118437" style="stroke: #000000; stroke-width: 0.8"/>
      </g>
     </g>
     <g id="text_3">
      <!-- 600 -->
      <g transform="translate(225.986591 201.716875) scale(0.1 -0.1)">
       <defs>
        <path id="DejaVuSans-36" d="M 2113 2584 
Q 1688 2584 1439 2293 
Q 1191 2003 1191 1497 
Q 1191 994 1439 701 
Q 1688 409 2113 409 
Q 2538 409 2786 701 
Q 3034 994 3034 1497 
Q 3034 2003 2786 2293 
Q 2538 2584 2113 2584 
z
M 3366 4563 
L 3366 3988 
Q 3128 4100 2886 4159 
Q 2644 4219 2406 4219 
Q 1781 4219 1451 3797 
Q 1122 3375 1075 2522 
Q 1259 2794 1537 2939 
Q 1816 3084 2150 3084 
Q 2853 3084 3261 2657 
Q 3669 2231 3669 1497 
Q 3669 778 3244 343 
Q 2819 -91 2113 -91 
Q 1303 -91 875 529 
Q 447 1150 447 2328 
Q 447 3434 972 4092 
Q 1497 4750 2381 4750 
Q 2619 4750 2861 4703 
Q 3103 4656 3366 4563 
z
" transform="scale(0.015625)"/>
       </defs>
       <use xlink:href="#DejaVuSans-36"/>
       <use xlink:href="#DejaVuSans-30" x="63.623047"/>
       <use xlink:href="#DejaVuSans-30" x="127.246094"/>
      </g>
     </g>
    </g>
    <g id="xtick_4">
     <g id="line2d_7">
      <path d="M 299.606896 187.118437 
L 299.606896 20.798437 
" clip-path="url(#p69d2c148fa)" style="fill: none; stroke-dasharray: 2.96,1.28; stroke-dashoffset: 0; stroke: #b0b0b0; stroke-opacity: 0.6; stroke-width: 0.8"/>
     </g>
     <g id="line2d_8">
      <g>
       <use xlink:href="#mcd00d74bc1" x="299.606896" y="187.118437" style="stroke: #000000; stroke-width: 0.8"/>
      </g>
     </g>
     <g id="text_4">
      <!-- 800 -->
      <g transform="translate(290.063146 201.716875) scale(0.1 -0.1)">
       <defs>
        <path id="DejaVuSans-38" d="M 2034 2216 
Q 1584 2216 1326 1975 
Q 1069 1734 1069 1313 
Q 1069 891 1326 650 
Q 1584 409 2034 409 
Q 2484 409 2743 651 
Q 3003 894 3003 1313 
Q 3003 1734 2745 1975 
Q 2488 2216 2034 2216 
z
M 1403 2484 
Q 997 2584 770 2862 
Q 544 3141 544 3541 
Q 544 4100 942 4425 
Q 1341 4750 2034 4750 
Q 2731 4750 3128 4425 
Q 3525 4100 3525 3541 
Q 3525 3141 3298 2862 
Q 3072 2584 2669 2484 
Q 3125 2378 3379 2068 
Q 3634 1759 3634 1313 
Q 3634 634 3220 271 
Q 2806 -91 2034 -91 
Q 1263 -91 848 271 
Q 434 634 434 1313 
Q 434 1759 690 2068 
Q 947 2378 1403 2484 
z
M 1172 3481 
Q 1172 3119 1398 2916 
Q 1625 2713 2034 2713 
Q 2441 2713 2670 2916 
Q 2900 3119 2900 3481 
Q 2900 3844 2670 4047 
Q 2441 4250 2034 4250 
Q 1625 4250 1398 4047 
Q 1172 3844 1172 3481 
z
" transform="scale(0.015625)"/>
       </defs>
       <use xlink:href="#DejaVuSans-38"/>
       <use xlink:href="#DejaVuSans-30" x="63.623047"/>
       <use xlink:href="#DejaVuSans-30" x="127.246094"/>
      </g>
     </g>
    </g>
    <g id="xtick_5">
     <g id="line2d_9">
      <path d="M 363.683451 187.118437 
L 363.683451 20.798437 
" clip-path="url(#p69d2c148fa)" style="fill: none; stroke-dasharray: 2.96,1.28; stroke-dashoffset: 0; stroke: #b0b0b0; stroke-opacity: 0.6; stroke-width: 0.8"/>
     </g>
     <g id="line2d_10">
      <g>
       <use xlink:href="#mcd00d74bc1" x="363.683451" y="187.118437" style="stroke: #000000; stroke-width: 0.8"/>
      </g>
     </g>
     <g id="text_5">
      <!-- 1000 -->
      <g transform="translate(350.958451 201.716875) scale(0.1 -0.1)">
       <defs>
        <path id="DejaVuSans-31" d="M 794 531 
L 1825 531 
L 1825 4091 
L 703 3866 
L 703 4441 
L 1819 4666 
L 2450 4666 
L 2450 531 
L 3481 531 
L 3481 0 
L 794 0 
L 794 531 
z
" transform="scale(0.015625)"/>
       </defs>
       <use xlink:href="#DejaVuSans-31"/>
       <use xlink:href="#DejaVuSans-30" x="63.623047"/>
       <use xlink:href="#DejaVuSans-30" x="127.246094"/>
       <use xlink:href="#DejaVuSans-30" x="190.869141"/>
      </g>
     </g>
    </g>
    <g id="text_6">
     <!-- step -->
     <g transform="translate(200.365625 215.395) scale(0.1 -0.1)">
      <defs>
       <path id="DejaVuSans-73" d="M 2834 3397 
L 2834 2853 
Q 2591 2978 2328 3040 
Q 2066 3103 1784 3103 
Q 1356 3103 1142 2972 
Q 928 2841 928 2578 
Q 928 2378 1081 2264 
Q 1234 2150 1697 2047 
L 1894 2003 
Q 2506 1872 2764 1633 
Q 3022 1394 3022 966 
Q 3022 478 2636 193 
Q 2250 -91 1575 -91 
Q 1294 -91 989 -36 
Q 684 19 347 128 
L 347 722 
Q 666 556 975 473 
Q 1284 391 1588 391 
Q 1994 391 2212 530 
Q 2431 669 2431 922 
Q 2431 1156 2273 1281 
Q 2116 1406 1581 1522 
L 1381 1569 
Q 847 1681 609 1914 
Q 372 2147 372 2553 
Q 372 3047 722 3315 
Q 1072 3584 1716 3584 
Q 2034 3584 2315 3537 
Q 2597 3491 2834 3397 
z
" transform="scale(0.015625)"/>
       <path id="DejaVuSans-74" d="M 1172 4494 
L 1172 3500 
L 2356 3500 
L 2356 3053 
L 1172 3053 
L 1172 1153 
Q 1172 725 1289 603 
Q 1406 481 1766 481 
L 2356 481 
L 2356 0 
L 1766 0 
Q 1100 0 847 248 
Q 594 497 594 1153 
L 594 3053 
L 172 3053 
L 172 3500 
L 594 3500 
L 594 4494 
L 1172 4494 
z
" transform="scale(0.015625)"/>
       <path id="DejaVuSans-65" d="M 3597 1894 
L 3597 1613 
L 953 1613 
Q 991 1019 1311 708 
Q 1631 397 2203 397 
Q 2534 397 2845 478 
Q 3156 559 3463 722 
L 3463 178 
Q 3153 47 2828 -22 
Q 2503 -91 2169 -91 
Q 1331 -91 842 396 
Q 353 884 353 1716 
Q 353 2575 817 3079 
Q 1281 3584 2069 3584 
Q 2775 3584 3186 3129 
Q 3597 2675 3597 1894 
z
M 3022 2063 
Q 3016 2534 2758 2815 
Q 2500 3097 2075 3097 
Q 1594 3097 1305 2825 
Q 1016 2553 972 2059 
L 3022 2063 
z
" transform="scale(0.015625)"/>
       <path id="DejaVuSans-70" d="M 1159 525 
L 1159 -1331 
L 581 -1331 
L 581 3500 
L 1159 3500 
L 1159 2969 
Q 1341 3281 1617 3432 
Q 1894 3584 2278 3584 
Q 2916 3584 3314 3078 
Q 3713 2572 3713 1747 
Q 3713 922 3314 415 
Q 2916 -91 2278 -91 
Q 1894 -91 1617 61 
Q 1341 213 1159 525 
z
M 3116 1747 
Q 3116 2381 2855 2742 
Q 2594 3103 2138 3103 
Q 1681 3103 1420 2742 
Q 1159 2381 1159 1747 
Q 1159 1113 1420 752 
Q 1681 391 2138 391 
Q 2594 391 2855 752 
Q 3116 1113 3116 1747 
z
" transform="scale(0.015625)"/>
      </defs>
      <use xlink:href="#DejaVuSans-73"/>
      <use xlink:href="#DejaVuSans-74" x="52.099609"/>
      <use xlink:href="#DejaVuSans-65" x="91.308594"/>
      <use xlink:href="#DejaVuSans-70" x="152.832031"/>
     </g>
    </g>
   </g>
   <g id="matplotlib.axis_2">
    <g id="ytick_1">
     <g id="line2d_11">
      <path d="M 43.78125 173.258438 
L 378.58125 173.258438 
" clip-path="url(#p69d2c148fa)" style="fill: none; stroke-dasharray: 2.96,1.28; stroke-dashoffset: 0; stroke: #b0b0b0; stroke-opacity: 0.6; stroke-width: 0.8"/>
     </g>
     <g id="line2d_12">
      <defs>
       <path id="m5e012ff84b" d="M 0 0 
L -3.5 0 
" style="stroke: #000000; stroke-width: 0.8"/>
      </defs>
      <g>
       <use xlink:href="#m5e012ff84b" x="43.78125" y="173.258438" style="stroke: #000000; stroke-width: 0.8"/>
      </g>
     </g>
     <g id="text_7">
      <!-- 0.0 -->
      <g transform="translate(20.878125 177.057656) scale(0.1 -0.1)">
       <defs>
        <path id="DejaVuSans-2e" d="M 684 794 
L 1344 794 
L 1344 0 
L 684 0 
L 684 794 
z
" transform="scale(0.015625)"/>
       </defs>
       <use xlink:href="#DejaVuSans-30"/>
       <use xlink:href="#DejaVuSans-2e" x="63.623047"/>
       <use xlink:href="#DejaVuSans-30" x="95.410156"/>
      </g>
     </g>
    </g>
    <g id="ytick_2">
     <g id="line2d_13">
      <path d="M 43.78125 145.538438 
L 378.58125 145.538438 
" clip-path="url(#p69d2c148fa)" style="fill: none; stroke-dasharray: 2.96,1.28; stroke-dashoffset: 0; stroke: #b0b0b0; stroke-opacity: 0.6; stroke-width: 0.8"/>
     </g>
     <g id="line2d_14">
      <g>
       <use xlink:href="#m5e012ff84b" x="43.78125" y="145.538438" style="stroke: #000000; stroke-width: 0.8"/>
      </g>
     </g>
     <g id="text_8">
      <!-- 0.2 -->
      <g transform="translate(20.878125 149.337656) scale(0.1 -0.1)">
       <use xlink:href="#DejaVuSans-30"/>
       <use xlink:href="#DejaVuSans-2e" x="63.623047"/>
       <use xlink:href="#DejaVuSans-32" x="95.410156"/>
      </g>
     </g>
    </g>
    <g id="ytick_3">
     <g id="line2d_15">
      <path d="M 43.78125 117.818438 
L 378.58125 117.818438 
" clip-path="url(#p69d2c148fa)" style="fill: none; stroke-dasharray: 2.96,1.28; stroke-dashoffset: 0; stroke: #b0b0b0; stroke-opacity: 0.6; stroke-width: 0.8"/>
     </g>
     <g id="line2d_16">
      <g>
       <use xlink:href="#m5e012ff84b" x="43.78125" y="117.818438" style="stroke: #000000; stroke-width: 0.8"/>
      </g>
     </g>
     <g id="text_9">
      <!-- 0.4 -->
      <g transform="translate(20.878125 121.617656) scale(0.1 -0.1)">
       <use xlink:href="#DejaVuSans-30"/>
       <use xlink:href="#DejaVuSans-2e" x="63.623047"/>
       <use xlink:href="#DejaVuSans-34" x="95.410156"/>
      </g>
     </g>
    </g>
    <g id="ytick_4">
     <g id="line2d_17">
      <path d="M 43.78125 90.098438 
L 378.58125 90.098438 
" clip-path="url(#p69d2c148fa)" style="fill: none; stroke-dasharray: 2.96,1.28; stroke-dashoffset: 0; stroke: #b0b0b0; stroke-opacity: 0.6; stroke-width: 0.8"/>
     </g>
     <g id="line2d_18">
      <g>
       <use xlink:href="#m5e012ff84b" x="43.78125" y="90.098438" style="stroke: #000000; stroke-width: 0.8"/>
      </g>
     </g>
     <g id="text_10">
      <!-- 0.6 -->
      <g transform="translate(20.878125 93.897656) scale(0.1 -0.1)">
       <use xlink:href="#DejaVuSans-30"/>
       <use xlink:href="#DejaVuSans-2e" x="63.623047"/>
       <use xlink:href="#DejaVuSans-36" x="95.410156"/>
      </g>
     </g>
    </g>
    <g id="ytick_5">
     <g id="line2d_19">
      <path d="M 43.78125 62.378438 
L 378.58125 62.378438 
" clip-path="url(#p69d2c148fa)" style="fill: none; stroke-dasharray: 2.96,1.28; stroke-dashoffset: 0; stroke: #b0b0b0; stroke-opacity: 0.6; stroke-width: 0.8"/>
     </g>
     <g id="line2d_20">
      <g>
       <use xlink:href="#m5e012ff84b" x="43.78125" y="62.378438" style="stroke: #000000; stroke-width: 0.8"/>
      </g>
     </g>
     <g id="text_11">
      <!-- 0.8 -->
      <g transform="translate(20.878125 66.177656) scale(0.1 -0.1)">
       <use xlink:href="#DejaVuSans-30"/>
       <use xlink:href="#DejaVuSans-2e" x="63.623047"/>
       <use xlink:href="#DejaVuSans-38" x="95.410156"/>
      </g>
     </g>
    </g>
    <g id="ytick_6">
     <g id="line2d_21">
      <path d="M 43.78125 34.658437 
L 378.58125 34.658437 
" clip-path="url(#p69d2c148fa)" style="fill: none; stroke-dasharray: 2.96,1.28; stroke-dashoffset: 0; stroke: #b0b0b0; stroke-opacity: 0.6; stroke-width: 0.8"/>
     </g>
     <g id="line2d_22">
      <g>
       <use xlink:href="#m5e012ff84b" x="43.78125" y="34.658437" style="stroke: #000000; stroke-width: 0.8"/>
      </g>
     </g>
     <g id="text_12">
      <!-- 1.0 -->
      <g transform="translate(20.878125 38.457656) scale(0.1 -0.1)">
       <use xlink:href="#DejaVuSans-31"/>
       <use xlink:href="#DejaVuSans-2e" x="63.623047"/>
       <use xlink:href="#DejaVuSans-30" x="95.410156"/>
      </g>
     </g>
    </g>
    <g id="text_13">
     <!-- frac dead relu (MA) -->
     <g transform="translate(14.798438 152.056875) rotate(-90) scale(0.1 -0.1)">
      <defs>
       <path id="DejaVuSans-66" d="M 2375 4863 
L 2375 4384 
L 1825 4384 
Q 1516 4384 1395 4259 
Q 1275 4134 1275 3809 
L 1275 3500 
L 2222 3500 
L 2222 3053 
L 1275 3053 
L 1275 0 
L 697 0 
L 697 3053 
L 147 3053 
L 147 3500 
L 697 3500 
L 697 3744 
Q 697 4328 969 4595 
Q 1241 4863 1831 4863 
L 2375 4863 
z
" transform="scale(0.015625)"/>
       <path id="DejaVuSans-72" d="M 2631 2963 
Q 2534 3019 2420 3045 
Q 2306 3072 2169 3072 
Q 1681 3072 1420 2755 
Q 1159 2438 1159 1844 
L 1159 0 
L 581 0 
L 581 3500 
L 1159 3500 
L 1159 2956 
Q 1341 3275 1631 3429 
Q 1922 3584 2338 3584 
Q 2397 3584 2469 3576 
Q 2541 3569 2628 3553 
L 2631 2963 
z
" transform="scale(0.015625)"/>
       <path id="DejaVuSans-61" d="M 2194 1759 
Q 1497 1759 1228 1600 
Q 959 1441 959 1056 
Q 959 750 1161 570 
Q 1363 391 1709 391 
Q 2188 391 2477 730 
Q 2766 1069 2766 1631 
L 2766 1759 
L 2194 1759 
z
M 3341 1997 
L 3341 0 
L 2766 0 
L 2766 531 
Q 2569 213 2275 61 
Q 1981 -91 1556 -91 
Q 1019 -91 701 211 
Q 384 513 384 1019 
Q 384 1609 779 1909 
Q 1175 2209 1959 2209 
L 2766 2209 
L 2766 2266 
Q 2766 2663 2505 2880 
Q 2244 3097 1772 3097 
Q 1472 3097 1187 3025 
Q 903 2953 641 2809 
L 641 3341 
Q 956 3463 1253 3523 
Q 1550 3584 1831 3584 
Q 2591 3584 2966 3190 
Q 3341 2797 3341 1997 
z
" transform="scale(0.015625)"/>
       <path id="DejaVuSans-63" d="M 3122 3366 
L 3122 2828 
Q 2878 2963 2633 3030 
Q 2388 3097 2138 3097 
Q 1578 3097 1268 2742 
Q 959 2388 959 1747 
Q 959 1106 1268 751 
Q 1578 397 2138 397 
Q 2388 397 2633 464 
Q 2878 531 3122 666 
L 3122 134 
Q 2881 22 2623 -34 
Q 2366 -91 2075 -91 
Q 1284 -91 818 406 
Q 353 903 353 1747 
Q 353 2603 823 3093 
Q 1294 3584 2113 3584 
Q 2378 3584 2631 3529 
Q 2884 3475 3122 3366 
z
" transform="scale(0.015625)"/>
       <path id="DejaVuSans-20" transform="scale(0.015625)"/>
       <path id="DejaVuSans-64" d="M 2906 2969 
L 2906 4863 
L 3481 4863 
L 3481 0 
L 2906 0 
L 2906 525 
Q 2725 213 2448 61 
Q 2172 -91 1784 -91 
Q 1150 -91 751 415 
Q 353 922 353 1747 
Q 353 2572 751 3078 
Q 1150 3584 1784 3584 
Q 2172 3584 2448 3432 
Q 2725 3281 2906 2969 
z
M 947 1747 
Q 947 1113 1208 752 
Q 1469 391 1925 391 
Q 2381 391 2643 752 
Q 2906 1113 2906 1747 
Q 2906 2381 2643 2742 
Q 2381 3103 1925 3103 
Q 1469 3103 1208 2742 
Q 947 2381 947 1747 
z
" transform="scale(0.015625)"/>
       <path id="DejaVuSans-6c" d="M 603 4863 
L 1178 4863 
L 1178 0 
L 603 0 
L 603 4863 
z
" transform="scale(0.015625)"/>
       <path id="DejaVuSans-75" d="M 544 1381 
L 544 3500 
L 1119 3500 
L 1119 1403 
Q 1119 906 1312 657 
Q 1506 409 1894 409 
Q 2359 409 2629 706 
Q 2900 1003 2900 1516 
L 2900 3500 
L 3475 3500 
L 3475 0 
L 2900 0 
L 2900 538 
Q 2691 219 2414 64 
Q 2138 -91 1772 -91 
Q 1169 -91 856 284 
Q 544 659 544 1381 
z
M 1991 3584 
L 1991 3584 
z
" transform="scale(0.015625)"/>
       <path id="DejaVuSans-28" d="M 1984 4856 
Q 1566 4138 1362 3434 
Q 1159 2731 1159 2009 
Q 1159 1288 1364 580 
Q 1569 -128 1984 -844 
L 1484 -844 
Q 1016 -109 783 600 
Q 550 1309 550 2009 
Q 550 2706 781 3412 
Q 1013 4119 1484 4856 
L 1984 4856 
z
" transform="scale(0.015625)"/>
       <path id="DejaVuSans-4d" d="M 628 4666 
L 1569 4666 
L 2759 1491 
L 3956 4666 
L 4897 4666 
L 4897 0 
L 4281 0 
L 4281 4097 
L 3078 897 
L 2444 897 
L 1241 4097 
L 1241 0 
L 628 0 
L 628 4666 
z
" transform="scale(0.015625)"/>
       <path id="DejaVuSans-41" d="M 2188 4044 
L 1331 1722 
L 3047 1722 
L 2188 4044 
z
M 1831 4666 
L 2547 4666 
L 4325 0 
L 3669 0 
L 3244 1197 
L 1141 1197 
L 716 0 
L 50 0 
L 1831 4666 
z
" transform="scale(0.015625)"/>
       <path id="DejaVuSans-29" d="M 513 4856 
L 1013 4856 
Q 1481 4119 1714 3412 
Q 1947 2706 1947 2009 
Q 1947 1309 1714 600 
Q 1481 -109 1013 -844 
L 513 -844 
Q 928 -128 1133 580 
Q 1338 1288 1338 2009 
Q 1338 2731 1133 3434 
Q 928 4138 513 4856 
z
" transform="scale(0.015625)"/>
      </defs>
      <use xlink:href="#DejaVuSans-66"/>
      <use xlink:href="#DejaVuSans-72" x="35.205078"/>
      <use xlink:href="#DejaVuSans-61" x="76.318359"/>
      <use xlink:href="#DejaVuSans-63" x="137.597656"/>
      <use xlink:href="#DejaVuSans-20" x="192.578125"/>
      <use xlink:href="#DejaVuSans-64" x="224.365234"/>
      <use xlink:href="#DejaVuSans-65" x="287.841797"/>
      <use xlink:href="#DejaVuSans-61" x="349.365234"/>
      <use xlink:href="#DejaVuSans-64" x="410.644531"/>
      <use xlink:href="#DejaVuSans-20" x="474.121094"/>
      <use xlink:href="#DejaVuSans-72" x="505.908203"/>
      <use xlink:href="#DejaVuSans-65" x="544.771484"/>
      <use xlink:href="#DejaVuSans-6c" x="606.294922"/>
      <use xlink:href="#DejaVuSans-75" x="634.078125"/>
      <use xlink:href="#DejaVuSans-20" x="697.457031"/>
      <use xlink:href="#DejaVuSans-28" x="729.244141"/>
      <use xlink:href="#DejaVuSans-4d" x="768.257812"/>
      <use xlink:href="#DejaVuSans-41" x="854.537109"/>
      <use xlink:href="#DejaVuSans-29" x="922.945312"/>
     </g>
    </g>
   </g>
   <g id="line2d_23">
    <path d="M 58.999432 173.166037 
L 258.597901 173.073637 
L 259.238666 172.981237 
L 260.199815 172.888837 
L 261.160963 172.704037 
L 274.617039 172.796437 
L 275.257805 172.888837 
L 276.218953 172.981237 
L 277.180102 173.166037 
L 312.101824 173.073637 
L 312.74259 172.981237 
L 322.994839 173.073637 
L 323.635604 173.166037 
L 324.27637 173.073637 
L 326.519049 172.981237 
L 327.159815 172.888837 
L 344.140102 172.981237 
L 344.780867 173.073637 
L 363.363068 172.981237 
L 363.363068 172.981237 
" clip-path="url(#p69d2c148fa)" style="fill: none; stroke: #1f77b4; stroke-width: 1.5; stroke-linecap: square"/>
   </g>
   <g id="line2d_24">
    <path d="M 58.999432 163.279237 
L 59.319815 163.186837 
L 60.921728 163.556437 
L 63.805173 163.556437 
L 64.125556 163.741237 
L 69.251681 163.833637 
L 70.533212 164.110837 
L 70.853594 164.110837 
L 71.173977 164.480437 
L 73.416657 165.034837 
L 74.057422 165.127237 
L 74.377805 165.404437 
L 74.698188 165.312037 
L 75.338953 165.681637 
L 75.659336 165.589237 
L 75.979719 165.774037 
L 77.902016 165.774037 
L 78.863164 166.236037 
L 80.465078 166.143637 
L 82.066992 165.681637 
L 82.707757 165.774037 
L 83.02814 165.681637 
L 83.668906 165.774037 
L 84.309671 165.774037 
L 84.950437 166.236037 
L 85.911585 166.051237 
L 87.833882 165.958837 
L 88.474647 165.866437 
L 89.756178 166.143637 
L 90.396944 165.958837 
L 91.037709 166.051237 
L 92.31924 165.774037 
L 92.960006 165.866437 
L 93.280389 165.958837 
L 94.241537 165.681637 
L 94.882303 165.774037 
L 97.124982 165.866437 
L 97.765748 166.143637 
L 98.726896 166.328437 
L 100.32881 166.236037 
L 100.969575 166.051237 
L 101.610341 166.143637 
L 103.532638 166.143637 
L 103.85302 165.958837 
L 104.173403 166.051237 
L 105.134551 165.681637 
L 105.454934 165.496837 
L 106.0957 165.681637 
L 106.416083 165.958837 
L 107.377231 166.143637 
L 107.697614 166.051237 
L 108.017996 166.143637 
L 108.658762 166.051237 
L 109.61991 166.051237 
L 109.940293 166.236037 
L 111.86259 166.236037 
L 112.182972 166.420837 
L 115.3868 166.328437 
L 115.707183 166.236037 
L 117.309097 166.605637 
L 119.551776 166.698037 
L 119.872159 166.882837 
L 120.192542 166.790437 
L 120.512925 166.975237 
L 120.833307 166.975237 
L 121.474073 167.344837 
L 122.755604 167.252437 
L 123.39637 167.160037 
L 124.998283 167.529637 
L 126.600197 167.437237 
L 127.881728 166.975237 
L 128.202111 166.698037 
L 128.842877 166.605637 
L 131.085556 166.698037 
L 131.726322 166.790437 
L 132.68747 166.605637 
L 134.289384 166.605637 
L 134.609767 166.420837 
L 136.532063 166.513237 
L 136.852446 166.605637 
L 138.133977 166.328437 
L 141.337805 166.420837 
L 142.298953 166.605637 
L 142.939719 166.605637 
L 143.260102 166.790437 
L 143.580484 166.790437 
L 144.541633 167.252437 
L 145.502781 167.437237 
L 148.065843 167.344837 
L 148.386226 167.252437 
L 149.347374 167.437237 
L 150.308523 167.437237 
L 150.628906 167.622037 
L 154.153116 167.529637 
L 155.114264 167.344837 
L 155.75503 167.252437 
L 156.395795 167.160037 
L 162.162685 167.067637 
L 162.803451 166.975237 
L 163.444217 167.067637 
L 169.211106 167.067637 
L 169.531489 166.882837 
L 169.851872 167.067637 
L 171.774169 166.975237 
L 172.094551 166.790437 
L 172.414934 166.790437 
L 172.735317 166.605637 
L 174.977996 166.513237 
L 175.618762 166.420837 
L 175.939145 166.513237 
L 176.57991 166.420837 
L 176.900293 166.420837 
L 177.541059 166.143637 
L 178.181824 166.328437 
L 179.463355 166.051237 
L 180.104121 166.143637 
L 182.026417 166.051237 
L 182.667183 165.958837 
L 182.987566 166.236037 
L 185.230245 166.236037 
L 185.550628 166.420837 
L 186.191394 166.513237 
L 187.472925 166.790437 
L 187.793307 166.790437 
L 188.11369 167.067637 
L 188.434073 167.067637 
L 188.754456 167.252437 
L 189.715604 167.067637 
L 191.317518 166.975237 
L 192.278666 166.790437 
L 192.919432 166.790437 
L 193.560197 167.067637 
L 194.200963 166.698037 
L 195.162111 167.160037 
L 196.12326 167.344837 
L 196.443642 167.252437 
L 198.365939 167.714437 
L 199.967853 167.714437 
L 200.608618 167.437237 
L 201.569767 167.252437 
L 202.210532 167.160037 
L 202.530915 166.975237 
L 204.773594 167.067637 
L 206.055126 167.344837 
L 207.336657 167.437237 
L 207.977422 167.714437 
L 208.618188 167.806837 
L 209.579336 167.622037 
L 209.899719 167.806837 
L 210.220102 167.806837 
L 210.540484 167.622037 
L 213.103547 167.529637 
L 214.064695 167.344837 
L 214.385078 167.437237 
L 215.025843 167.344837 
L 216.627757 167.252437 
L 216.94814 167.160037 
L 217.268523 167.252437 
L 217.588906 167.160037 
L 218.550054 167.437237 
L 219.190819 167.344837 
L 223.355795 167.252437 
L 223.996561 167.067637 
L 224.316944 167.160037 
L 224.637327 167.067637 
L 224.957709 167.160037 
L 226.23924 166.882837 
L 226.880006 166.975237 
L 229.443068 166.882837 
L 230.083834 166.790437 
L 232.646896 166.882837 
L 233.287661 167.160037 
L 234.24881 166.882837 
L 236.491489 167.437237 
L 237.132255 167.437237 
L 237.77302 167.067637 
L 238.093403 167.067637 
L 238.413786 166.790437 
L 240.0157 167.160037 
L 240.656465 167.067637 
L 240.976848 167.067637 
L 241.617614 167.344837 
L 242.899145 167.252437 
L 243.53991 166.975237 
L 244.180676 166.882837 
L 245.462207 166.975237 
L 246.102972 167.067637 
L 247.384504 167.160037 
L 248.345652 167.344837 
L 249.947566 166.975237 
L 250.588331 166.882837 
L 251.54948 166.698037 
L 252.190245 166.698037 
L 252.510628 166.513237 
L 253.471776 166.513237 
L 254.432925 166.975237 
L 259.238666 167.067637 
L 260.520197 167.344837 
L 261.801728 167.067637 
L 265.005556 167.160037 
L 265.325939 167.252437 
L 265.646322 167.529637 
L 270.452063 167.437237 
L 271.733594 167.160037 
L 273.655891 167.067637 
L 273.976274 166.975237 
L 275.257805 167.344837 
L 275.898571 167.252437 
L 279.743164 167.160037 
L 280.063547 166.975237 
L 281.024695 167.160037 
L 281.345078 167.160037 
L 281.665461 166.882837 
L 281.985843 166.790437 
L 282.306226 166.882837 
L 284.869288 166.236037 
L 285.510054 166.420837 
L 285.830437 166.143637 
L 287.111968 166.420837 
L 287.43235 166.420837 
L 287.752733 166.605637 
L 288.073116 166.420837 
L 295.121537 166.328437 
L 295.44192 166.236037 
L 296.403068 166.420837 
L 296.723451 166.420837 
L 297.043834 166.143637 
L 298.645748 166.513237 
L 298.96613 166.420837 
L 299.286513 166.513237 
L 299.606896 166.790437 
L 300.568044 166.882837 
L 300.888427 166.975237 
L 301.529193 166.882837 
L 301.849575 167.160037 
L 302.169958 167.067637 
L 302.490341 167.160037 
L 303.451489 166.975237 
L 303.771872 166.975237 
L 304.092255 167.160037 
L 304.73302 167.067637 
L 305.053403 167.067637 
L 305.373786 166.882837 
L 306.014551 166.975237 
L 306.9757 166.882837 
L 307.616465 166.790437 
L 308.897996 166.790437 
L 309.218379 166.975237 
L 311.140676 167.067637 
L 311.781441 167.160037 
L 312.422207 167.067637 
L 313.383355 167.252437 
L 314.664886 167.252437 
L 314.985269 167.067637 
L 315.305652 167.252437 
L 315.946417 167.160037 
L 316.2668 167.252437 
L 317.227949 167.067637 
L 318.829862 166.975237 
L 319.470628 166.882837 
L 320.111394 166.882837 
L 320.431776 167.067637 
L 321.072542 167.160037 
L 321.392925 167.437237 
L 323.635604 167.529637 
L 324.917135 167.806837 
L 325.557901 167.714437 
L 326.519049 167.529637 
L 326.839432 167.622037 
L 327.80058 167.437237 
L 328.120963 167.622037 
L 330.684025 167.622037 
L 331.004408 167.899237 
L 331.965556 167.529637 
L 332.285939 167.344837 
L 333.56747 167.622037 
L 334.849001 167.714437 
L 335.489767 167.899237 
L 336.130532 167.437237 
L 336.450915 167.252437 
L 336.771298 167.252437 
L 337.091681 167.067637 
L 337.732446 167.160037 
L 338.693594 167.437237 
L 339.013977 167.252437 
L 339.654743 167.344837 
L 340.615891 167.160037 
L 341.897422 167.252437 
L 342.538188 167.437237 
L 343.178953 167.344837 
L 347.023547 167.252437 
L 347.343929 167.067637 
L 348.305078 167.529637 
L 348.625461 167.529637 
L 349.266226 167.252437 
L 350.86814 167.622037 
L 351.508906 167.622037 
L 352.149671 167.899237 
L 353.110819 168.084037 
L 353.751585 167.991637 
L 356.314647 167.991637 
L 356.63503 167.806837 
L 360.800006 167.714437 
L 361.120389 167.622037 
L 361.761154 167.714437 
L 363.042685 167.806837 
L 363.363068 167.899237 
L 363.363068 167.899237 
" clip-path="url(#p69d2c148fa)" style="fill: none; stroke: #ff7f0e; stroke-width: 1.5; stroke-linecap: square"/>
   </g>
   <g id="line2d_25">
    <path d="M 58.999432 151.729236 
L 59.640197 150.897636 
L 60.280963 150.620436 
L 60.601346 150.158436 
L 61.242111 149.696436 
L 61.562494 149.234436 
L 61.882877 149.326836 
L 62.20326 149.049636 
L 62.523642 149.142036 
L 63.484791 148.864836 
L 63.805173 148.587636 
L 65.086705 148.218036 
L 65.407087 148.310436 
L 65.72747 147.848436 
L 66.368236 147.571236 
L 66.688618 147.571236 
L 67.009001 147.386436 
L 67.329384 147.016836 
L 67.97015 146.739636 
L 68.290532 146.647236 
L 68.610915 146.092836 
L 69.572063 145.815636 
L 69.892446 145.908036 
L 70.533212 145.538436 
L 70.853594 145.538436 
L 71.173977 145.261236 
L 71.814743 145.261236 
L 72.135126 144.706836 
L 72.455508 144.706836 
L 72.775891 144.337236 
L 73.737039 144.244836 
L 74.057422 144.152436 
L 74.377805 144.337236 
L 74.698188 143.967636 
L 75.018571 143.967636 
L 75.338953 144.152436 
L 75.659336 143.967636 
L 75.979719 144.152436 
L 76.620484 143.690436 
L 76.940867 143.413236 
L 77.581633 143.320836 
L 77.902016 142.766436 
L 78.863164 142.304436 
L 79.503929 141.380436 
L 79.824312 141.195636 
L 80.144695 141.472836 
L 80.465078 141.380436 
L 81.105843 140.918436 
L 82.066992 140.456436 
L 82.707757 140.179236 
L 83.02814 139.994436 
L 83.348523 139.994436 
L 84.309671 138.793236 
L 84.630054 139.070436 
L 85.591202 138.608436 
L 85.911585 138.885636 
L 86.231968 138.978036 
L 86.872733 138.793236 
L 87.193116 138.885636 
L 88.154264 137.869236 
L 88.474647 138.054036 
L 88.79503 138.423636 
L 89.115413 138.238836 
L 89.435795 137.869236 
L 89.756178 137.776836 
L 91.037709 136.575636 
L 91.358092 136.206036 
L 91.678475 136.113636 
L 92.31924 135.651636 
L 92.639623 136.113636 
L 93.600772 136.113636 
L 93.921154 136.390836 
L 94.241537 136.298436 
L 94.882303 136.390836 
L 95.202685 136.390836 
L 95.523068 136.852836 
L 95.843451 136.945236 
L 96.804599 136.668036 
L 98.08613 137.130035 
L 98.726896 137.499635 
L 99.047279 137.869235 
L 99.367661 138.054035 
L 99.688044 138.700835 
L 100.008427 138.978035 
L 100.649193 139.162835 
L 101.289958 139.994436 
L 101.610341 140.086836 
L 101.930724 140.364036 
L 102.251106 140.456436 
L 102.571489 140.918436 
L 102.891872 140.641236 
L 103.212255 140.641236 
L 104.173403 141.934836 
L 104.493786 141.565236 
L 104.814169 141.472836 
L 105.134551 141.657636 
L 105.454934 142.027236 
L 105.775317 142.027236 
L 106.736465 143.228436 
L 107.377231 144.060036 
L 108.017996 144.337236 
L 108.338379 144.522036 
L 108.658762 144.337236 
L 109.299528 144.429636 
L 109.61991 144.060036 
L 109.940293 144.152436 
L 110.260676 144.614436 
L 110.901441 144.706836 
L 111.542207 144.984036 
L 111.86259 145.076436 
L 112.823738 144.614436 
L 113.144121 144.614436 
L 114.105269 145.076436 
L 114.425652 145.076436 
L 115.3868 144.337236 
L 116.027566 144.152436 
L 116.347949 144.429636 
L 116.668331 144.429636 
L 116.988714 144.152436 
L 117.309097 144.152436 
L 117.949862 143.690436 
L 118.270245 143.875236 
L 118.590628 143.136036 
L 118.911011 143.505636 
L 119.231394 143.598036 
L 119.872159 142.858836 
L 120.192542 142.581636 
L 120.512925 142.674036 
L 121.474073 142.119636 
L 121.794456 142.119636 
L 122.114839 141.934836 
L 122.435221 142.027236 
L 123.39637 141.380436 
L 123.716752 141.472836 
L 124.037135 141.288036 
L 124.998283 141.380436 
L 125.318666 141.472836 
L 125.639049 141.842436 
L 125.959432 141.472836 
L 126.279815 140.826036 
L 126.600197 140.826036 
L 126.92058 140.548836 
L 127.561346 140.456436 
L 127.881728 139.994436 
L 128.202111 140.086836 
L 128.522494 139.902036 
L 128.842877 140.086836 
L 129.16326 140.086836 
L 129.483642 139.624836 
L 130.444791 139.162836 
L 131.085556 139.717236 
L 133.007853 139.624836 
L 133.328236 139.255236 
L 133.648618 139.624836 
L 133.969001 139.624836 
L 134.289384 139.347636 
L 134.609767 139.809636 
L 135.250532 139.624836 
L 135.570915 139.717236 
L 135.891298 139.994436 
L 137.172829 140.456436 
L 137.493212 140.271636 
L 138.133977 140.179236 
L 138.45436 139.902036 
L 139.095126 140.456436 
L 139.415508 140.548836 
L 139.735891 140.364036 
L 140.056274 139.994436 
L 140.697039 139.532436 
L 141.337805 139.717236 
L 141.658188 139.624836 
L 141.978571 139.717236 
L 143.580484 139.347636 
L 143.900867 139.717236 
L 144.862016 139.902036 
L 145.502781 139.624836 
L 145.823164 139.532436 
L 146.143547 139.717236 
L 146.463929 139.440036 
L 147.745461 139.162836 
L 148.065843 139.347636 
L 148.706609 139.347636 
L 149.026992 139.162836 
L 149.347374 139.347636 
L 149.667757 139.162836 
L 150.308523 139.255236 
L 151.269671 139.070436 
L 151.590054 139.347636 
L 151.910437 139.070435 
L 152.230819 138.978035 
L 152.551202 139.162835 
L 153.191968 139.070435 
L 153.51235 139.255235 
L 153.832733 138.978035 
L 156.395795 138.238836 
L 156.716178 138.516036 
L 157.997709 138.146436 
L 158.318092 138.423636 
L 158.638475 138.238836 
L 158.958858 138.423636 
L 159.27924 138.423636 
L 159.920006 137.592036 
L 160.240389 137.314836 
L 160.560772 137.407236 
L 160.881154 137.222436 
L 161.201537 137.499636 
L 161.842303 137.499636 
L 162.162685 137.222436 
L 162.803451 137.222436 
L 163.123834 136.945236 
L 166.007279 136.021236 
L 166.648044 135.744036 
L 166.968427 135.282036 
L 167.929575 135.559236 
L 169.531489 135.097236 
L 169.851872 135.282036 
L 170.172255 135.282036 
L 170.492638 135.097236 
L 171.133403 135.097236 
L 171.453786 134.912436 
L 171.774169 134.912436 
L 172.094551 135.189636 
L 172.414934 135.651636 
L 172.735317 135.374436 
L 173.0557 135.282036 
L 173.376083 135.374436 
L 174.016848 135.282036 
L 174.657614 135.559236 
L 174.977996 135.466836 
L 175.298379 135.559236 
L 175.939145 136.113636 
L 176.259528 136.206036 
L 176.57991 136.113636 
L 176.900293 136.575636 
L 177.220676 136.298436 
L 177.541059 136.483236 
L 178.502207 136.575636 
L 178.82259 136.298436 
L 179.783738 136.206036 
L 180.424504 135.466836 
L 181.385652 134.635236 
L 181.706035 134.727636 
L 182.3468 134.450436 
L 182.667183 134.542836 
L 182.987566 134.912436 
L 183.307949 134.820036 
L 183.628331 134.450436 
L 183.948714 134.358036 
L 184.58948 135.097236 
L 184.909862 135.189636 
L 185.230245 135.004836 
L 185.550628 135.189636 
L 186.191394 135.189636 
L 186.511776 135.559236 
L 187.152542 135.836436 
L 187.472925 135.651636 
L 188.11369 135.744036 
L 188.434073 135.466836 
L 188.754456 135.559236 
L 189.395221 135.466836 
L 190.035987 135.466836 
L 190.35637 135.097236 
L 190.676752 134.912436 
L 190.997135 135.097236 
L 191.317518 134.635236 
L 191.958283 134.912436 
L 192.278666 135.004836 
L 192.919432 134.727636 
L 193.560197 135.004835 
L 193.88058 134.727636 
L 194.200963 134.727636 
L 194.521346 134.450436 
L 194.841728 134.820035 
L 195.482494 134.912435 
L 195.802877 134.727636 
L 196.12326 135.097235 
L 196.443642 135.189635 
L 196.764025 135.466835 
L 197.084408 135.466835 
L 197.404791 135.836435 
L 197.725173 135.928835 
L 198.045556 135.744035 
L 198.365939 135.928835 
L 199.006705 135.836435 
L 199.327087 135.836435 
L 199.64747 136.298435 
L 199.967853 136.298435 
L 200.929001 135.559235 
L 201.249384 135.836435 
L 201.89015 135.744035 
L 202.210532 135.744035 
L 202.851298 135.282035 
L 203.492063 135.559235 
L 204.132829 135.189636 
L 204.453212 135.374436 
L 205.093977 135.282036 
L 206.055126 135.097236 
L 206.375508 135.282036 
L 206.695891 135.651636 
L 207.016274 135.374436 
L 207.336657 135.836436 
L 208.297805 135.374436 
L 208.618188 135.559236 
L 209.579336 134.820036 
L 210.220102 135.097236 
L 210.540484 135.189636 
L 211.18125 134.542836 
L 211.822016 134.912436 
L 212.142398 134.542836 
L 212.783164 134.450436 
L 213.103547 134.727636 
L 213.744312 134.450436 
L 215.025843 134.727636 
L 215.346226 134.450436 
L 215.666609 133.803636 
L 215.986992 133.618836 
L 216.307374 133.618836 
L 217.268523 133.064436 
L 217.588906 133.156836 
L 218.229671 132.510036 
L 218.550054 132.325236 
L 218.870437 132.417636 
L 219.190819 132.232836 
L 220.47235 132.510036 
L 220.792733 132.510036 
L 221.113116 132.879636 
L 221.433499 132.602436 
L 221.753882 132.787236 
L 222.394647 132.325236 
L 222.71503 131.770836 
L 223.035413 131.863236 
L 223.355795 131.678436 
L 223.676178 131.955636 
L 224.316944 132.232836 
L 224.637327 132.048036 
L 224.957709 132.048036 
L 225.278092 132.325236 
L 225.598475 132.417636 
L 226.23924 132.325236 
L 226.559623 132.510036 
L 226.880006 132.417636 
L 227.200389 132.602436 
L 228.161537 132.325236 
L 228.48192 132.417636 
L 228.802303 132.048036 
L 229.443068 131.863236 
L 229.763451 131.401235 
L 230.404217 131.401235 
L 231.044982 131.031636 
L 231.365365 131.031636 
L 231.685748 131.401236 
L 232.00613 131.586036 
L 232.326513 131.401236 
L 232.646896 131.493636 
L 232.967279 131.308835 
L 233.287661 131.401235 
L 233.608044 131.031636 
L 233.928427 131.308836 
L 234.24881 131.308836 
L 234.889575 131.586036 
L 235.209958 131.678436 
L 235.850724 131.493636 
L 236.491489 130.939236 
L 236.811872 130.939236 
L 237.132255 130.662036 
L 237.452638 130.939236 
L 237.77302 130.754436 
L 238.093403 131.124036 
L 238.413786 131.216436 
L 238.734169 131.678436 
L 239.374934 131.955636 
L 239.695317 131.586036 
L 240.976848 131.493636 
L 241.297231 131.401236 
L 241.617614 131.124036 
L 242.258379 131.308836 
L 242.578762 130.939235 
L 242.899145 131.216435 
L 243.219528 130.939235 
L 243.860293 130.846835 
L 244.180676 131.308835 
L 244.501059 131.124035 
L 245.78259 132.140436 
L 246.102972 132.140436 
L 246.423355 131.863236 
L 246.743738 132.048036 
L 247.704886 131.678436 
L 248.025269 131.493636 
L 249.3068 131.586036 
L 249.627183 131.678436 
L 249.947566 131.955636 
L 250.588331 132.787236 
L 250.908714 132.879636 
L 251.229097 132.417636 
L 252.831011 132.787236 
L 253.151394 132.694836 
L 253.471776 132.787236 
L 253.792159 133.064436 
L 254.432925 132.972036 
L 254.753307 132.602436 
L 255.07369 132.694836 
L 255.714456 132.417636 
L 256.034839 132.140436 
L 256.355221 132.417636 
L 256.675604 132.232836 
L 257.957135 132.879636 
L 258.277518 132.879636 
L 259.559049 133.526436 
L 260.84058 133.526436 
L 261.160963 133.156836 
L 261.801728 132.879636 
L 262.442494 132.972036 
L 262.762877 132.787236 
L 264.685173 132.879636 
L 265.325939 133.156836 
L 265.646322 133.249236 
L 266.927853 132.232836 
L 267.248236 132.417636 
L 267.568618 132.417636 
L 267.889001 132.694836 
L 268.209384 132.510036 
L 268.529767 132.694836 
L 269.170532 132.787236 
L 269.490915 132.879636 
L 269.811298 132.510036 
L 270.131681 132.602436 
L 270.452063 132.972036 
L 270.772446 133.156836 
L 271.092829 133.064436 
L 271.413212 133.156836 
L 272.053977 132.879636 
L 272.37436 132.417636 
L 272.694743 132.602436 
L 273.335508 132.325236 
L 273.655891 132.510036 
L 273.976274 132.417636 
L 274.296657 132.602436 
L 274.617039 132.602436 
L 274.937422 132.325236 
L 275.257805 132.232836 
L 275.578188 131.955636 
L 275.898571 132.140436 
L 276.859719 131.863236 
L 277.500484 132.325236 
L 278.14125 132.510036 
L 278.461633 132.879636 
L 278.782016 132.694836 
L 279.422781 133.434036 
L 279.743164 133.249236 
L 280.063547 133.341636 
L 280.383929 133.156836 
L 281.345078 133.064436 
L 281.665461 132.972036 
L 281.985843 133.156836 
L 282.306226 132.972036 
L 282.626609 132.602436 
L 282.946992 132.417636 
L 283.587757 132.510036 
L 283.90814 132.325236 
L 284.228523 132.417636 
L 284.548906 132.325236 
L 284.869288 132.510036 
L 285.189671 132.510036 
L 285.510054 132.325236 
L 285.830437 132.417636 
L 287.111968 131.308836 
L 287.43235 131.308836 
L 287.752733 131.955636 
L 288.713882 131.955636 
L 289.034264 132.325236 
L 289.354647 132.140436 
L 289.67503 131.678436 
L 289.995413 131.863236 
L 290.315795 131.678436 
L 290.636178 132.048036 
L 291.597327 132.417636 
L 291.917709 132.232836 
L 292.238092 132.325236 
L 292.558475 132.694836 
L 292.878858 132.787236 
L 293.19924 132.694836 
L 293.840006 132.787236 
L 294.480772 132.694836 
L 294.801154 132.972036 
L 295.121537 132.879636 
L 295.44192 132.602436 
L 295.762303 132.879636 
L 296.082685 132.879636 
L 296.403068 133.249236 
L 297.043834 133.434036 
L 297.364217 133.249236 
L 298.325365 133.341636 
L 298.96613 133.618836 
L 299.927279 133.803636 
L 300.247661 133.526436 
L 300.568044 133.618836 
L 300.888427 133.526436 
L 301.529193 134.173236 
L 301.849575 134.635236 
L 303.451489 135.466836 
L 303.771872 135.189636 
L 304.092255 135.374436 
L 304.73302 136.021236 
L 305.373786 136.206036 
L 305.694169 136.575636 
L 306.014551 136.668036 
L 306.655317 136.390836 
L 308.257231 136.298436 
L 308.897996 136.021236 
L 309.218379 136.206036 
L 309.538762 135.928836 
L 310.820293 135.651636 
L 311.140676 135.189636 
L 312.101824 135.374436 
L 312.422207 135.097236 
L 312.74259 135.097236 
L 313.062972 134.820036 
L 313.383355 134.820036 
L 313.703738 134.635236 
L 314.024121 134.727636 
L 314.344504 134.542836 
L 314.985269 134.635236 
L 315.305652 134.727636 
L 315.946417 134.173236 
L 316.2668 134.450436 
L 316.587183 134.358036 
L 316.907566 134.450436 
L 317.548331 133.711236 
L 317.868714 133.618836 
L 318.189097 133.711236 
L 318.829862 133.249236 
L 319.150245 133.341636 
L 319.791011 132.694836 
L 320.111394 132.787236 
L 321.072542 132.140436 
L 321.392925 132.232836 
L 321.713307 131.770836 
L 322.03369 131.586036 
L 322.354073 131.586036 
L 322.674456 131.401236 
L 322.994839 131.493636 
L 323.315221 131.863236 
L 323.955987 131.955636 
L 324.596752 132.417636 
L 324.917135 132.417636 
L 325.237518 132.140436 
L 326.198666 132.510036 
L 326.519049 132.325236 
L 327.159815 133.156836 
L 327.480197 133.249236 
L 327.80058 132.972036 
L 328.120963 133.064436 
L 329.722877 134.358036 
L 330.04326 134.080836 
L 330.363642 134.635236 
L 330.684025 134.542836 
L 331.004408 134.727636 
L 331.324791 134.542836 
L 331.645173 134.727636 
L 331.965556 135.282036 
L 332.606322 135.374436 
L 332.926705 135.097236 
L 333.56747 134.912436 
L 333.887853 134.542836 
L 334.208236 134.358036 
L 334.528618 134.450436 
L 334.849001 134.727636 
L 335.169384 134.635236 
L 335.81015 135.097236 
L 336.450915 134.635236 
L 337.412063 134.727636 
L 337.732446 134.912436 
L 338.052829 134.912436 
L 338.373212 135.282036 
L 339.654743 135.374436 
L 339.975126 135.559236 
L 340.615891 135.374436 
L 341.256657 135.651636 
L 341.577039 135.836436 
L 341.897422 136.206036 
L 342.538188 136.483236 
L 342.858571 136.113636 
L 343.178953 136.113636 
L 344.140102 136.852836 
L 344.780867 137.037636 
L 345.10125 136.945236 
L 346.062398 137.314836 
L 346.382781 137.037636 
L 346.703164 137.130036 
L 347.343929 136.852836 
L 347.664312 136.945236 
L 348.305078 136.852836 
L 348.625461 136.852836 
L 348.945843 137.130036 
L 349.266226 137.222436 
L 349.906992 137.776836 
L 350.86814 138.146436 
L 351.188523 138.516036 
L 351.508906 138.700836 
L 352.149671 138.793236 
L 352.470054 139.070435 
L 353.110819 139.070435 
L 353.751585 139.717235 
L 354.071968 139.994435 
L 354.39235 139.717235 
L 354.712733 139.994435 
L 355.033116 139.994435 
L 355.673882 139.717235 
L 355.994264 139.809635 
L 356.63503 139.255236 
L 356.955413 139.162836 
L 357.275795 138.885636 
L 357.596178 138.885636 
L 358.236944 138.516036 
L 359.198092 138.423636 
L 359.518475 138.238835 
L 359.838858 138.423636 
L 360.479623 138.146436 
L 360.800006 138.054036 
L 361.120389 138.146436 
L 361.440772 137.592035 
L 362.081537 137.130036 
L 362.40192 137.222436 
L 362.722303 137.130036 
L 363.363068 137.592035 
L 363.363068 137.592035 
" clip-path="url(#p69d2c148fa)" style="fill: none; stroke: #2ca02c; stroke-width: 1.5; stroke-linecap: square"/>
   </g>
   <g id="patch_3">
    <path d="M 43.78125 187.118438 
L 43.78125 20.798438 
" style="fill: none; stroke: #000000; stroke-width: 0.8; stroke-linejoin: miter; stroke-linecap: square"/>
   </g>
   <g id="patch_4">
    <path d="M 378.58125 187.118438 
L 378.58125 20.798438 
" style="fill: none; stroke: #000000; stroke-width: 0.8; stroke-linejoin: miter; stroke-linecap: square"/>
   </g>
   <g id="patch_5">
    <path d="M 43.78125 187.118437 
L 378.58125 187.118437 
" style="fill: none; stroke: #000000; stroke-width: 0.8; stroke-linejoin: miter; stroke-linecap: square"/>
   </g>
   <g id="patch_6">
    <path d="M 43.78125 20.798437 
L 378.58125 20.798437 
" style="fill: none; stroke: #000000; stroke-width: 0.8; stroke-linejoin: miter; stroke-linecap: square"/>
   </g>
   <g id="text_14">
    <!-- sat_threshold=1.0e-08, frac_treshold=0.95 -->
    <g transform="translate(103.117969 14.798437) scale(0.1 -0.1)">
     <defs>
      <path id="DejaVuSans-5f" d="M 3263 -1063 
L 3263 -1509 
L -63 -1509 
L -63 -1063 
L 3263 -1063 
z
" transform="scale(0.015625)"/>
      <path id="DejaVuSans-68" d="M 3513 2113 
L 3513 0 
L 2938 0 
L 2938 2094 
Q 2938 2591 2744 2837 
Q 2550 3084 2163 3084 
Q 1697 3084 1428 2787 
Q 1159 2491 1159 1978 
L 1159 0 
L 581 0 
L 581 4863 
L 1159 4863 
L 1159 2956 
Q 1366 3272 1645 3428 
Q 1925 3584 2291 3584 
Q 2894 3584 3203 3211 
Q 3513 2838 3513 2113 
z
" transform="scale(0.015625)"/>
      <path id="DejaVuSans-6f" d="M 1959 3097 
Q 1497 3097 1228 2736 
Q 959 2375 959 1747 
Q 959 1119 1226 758 
Q 1494 397 1959 397 
Q 2419 397 2687 759 
Q 2956 1122 2956 1747 
Q 2956 2369 2687 2733 
Q 2419 3097 1959 3097 
z
M 1959 3584 
Q 2709 3584 3137 3096 
Q 3566 2609 3566 1747 
Q 3566 888 3137 398 
Q 2709 -91 1959 -91 
Q 1206 -91 779 398 
Q 353 888 353 1747 
Q 353 2609 779 3096 
Q 1206 3584 1959 3584 
z
" transform="scale(0.015625)"/>
      <path id="DejaVuSans-3d" d="M 678 2906 
L 4684 2906 
L 4684 2381 
L 678 2381 
L 678 2906 
z
M 678 1631 
L 4684 1631 
L 4684 1100 
L 678 1100 
L 678 1631 
z
" transform="scale(0.015625)"/>
      <path id="DejaVuSans-2d" d="M 313 2009 
L 1997 2009 
L 1997 1497 
L 313 1497 
L 313 2009 
z
" transform="scale(0.015625)"/>
      <path id="DejaVuSans-2c" d="M 750 794 
L 1409 794 
L 1409 256 
L 897 -744 
L 494 -744 
L 750 256 
L 750 794 
z
" transform="scale(0.015625)"/>
      <path id="DejaVuSans-39" d="M 703 97 
L 703 672 
Q 941 559 1184 500 
Q 1428 441 1663 441 
Q 2288 441 2617 861 
Q 2947 1281 2994 2138 
Q 2813 1869 2534 1725 
Q 2256 1581 1919 1581 
Q 1219 1581 811 2004 
Q 403 2428 403 3163 
Q 403 3881 828 4315 
Q 1253 4750 1959 4750 
Q 2769 4750 3195 4129 
Q 3622 3509 3622 2328 
Q 3622 1225 3098 567 
Q 2575 -91 1691 -91 
Q 1453 -91 1209 -44 
Q 966 3 703 97 
z
M 1959 2075 
Q 2384 2075 2632 2365 
Q 2881 2656 2881 3163 
Q 2881 3666 2632 3958 
Q 2384 4250 1959 4250 
Q 1534 4250 1286 3958 
Q 1038 3666 1038 3163 
Q 1038 2656 1286 2365 
Q 1534 2075 1959 2075 
z
" transform="scale(0.015625)"/>
      <path id="DejaVuSans-35" d="M 691 4666 
L 3169 4666 
L 3169 4134 
L 1269 4134 
L 1269 2991 
Q 1406 3038 1543 3061 
Q 1681 3084 1819 3084 
Q 2600 3084 3056 2656 
Q 3513 2228 3513 1497 
Q 3513 744 3044 326 
Q 2575 -91 1722 -91 
Q 1428 -91 1123 -41 
Q 819 9 494 109 
L 494 744 
Q 775 591 1075 516 
Q 1375 441 1709 441 
Q 2250 441 2565 725 
Q 2881 1009 2881 1497 
Q 2881 1984 2565 2268 
Q 2250 2553 1709 2553 
Q 1456 2553 1204 2497 
Q 953 2441 691 2322 
L 691 4666 
z
" transform="scale(0.015625)"/>
     </defs>
     <use xlink:href="#DejaVuSans-73"/>
     <use xlink:href="#DejaVuSans-61" x="52.099609"/>
     <use xlink:href="#DejaVuSans-74" x="113.378906"/>
     <use xlink:href="#DejaVuSans-5f" x="152.587891"/>
     <use xlink:href="#DejaVuSans-74" x="202.587891"/>
     <use xlink:href="#DejaVuSans-68" x="241.796875"/>
     <use xlink:href="#DejaVuSans-72" x="305.175781"/>
     <use xlink:href="#DejaVuSans-65" x="344.039062"/>
     <use xlink:href="#DejaVuSans-73" x="405.5625"/>
     <use xlink:href="#DejaVuSans-68" x="457.662109"/>
     <use xlink:href="#DejaVuSans-6f" x="521.041016"/>
     <use xlink:href="#DejaVuSans-6c" x="582.222656"/>
     <use xlink:href="#DejaVuSans-64" x="610.005859"/>
     <use xlink:href="#DejaVuSans-3d" x="673.482422"/>
     <use xlink:href="#DejaVuSans-31" x="757.271484"/>
     <use xlink:href="#DejaVuSans-2e" x="820.894531"/>
     <use xlink:href="#DejaVuSans-30" x="852.681641"/>
     <use xlink:href="#DejaVuSans-65" x="916.304688"/>
     <use xlink:href="#DejaVuSans-2d" x="977.828125"/>
     <use xlink:href="#DejaVuSans-30" x="1013.912109"/>
     <use xlink:href="#DejaVuSans-38" x="1077.535156"/>
     <use xlink:href="#DejaVuSans-2c" x="1141.158203"/>
     <use xlink:href="#DejaVuSans-20" x="1172.945312"/>
     <use xlink:href="#DejaVuSans-66" x="1204.732422"/>
     <use xlink:href="#DejaVuSans-72" x="1239.9375"/>
     <use xlink:href="#DejaVuSans-61" x="1281.050781"/>
     <use xlink:href="#DejaVuSans-63" x="1342.330078"/>
     <use xlink:href="#DejaVuSans-5f" x="1397.310547"/>
     <use xlink:href="#DejaVuSans-74" x="1447.310547"/>
     <use xlink:href="#DejaVuSans-72" x="1486.519531"/>
     <use xlink:href="#DejaVuSans-65" x="1525.382812"/>
     <use xlink:href="#DejaVuSans-73" x="1586.90625"/>
     <use xlink:href="#DejaVuSans-68" x="1639.005859"/>
     <use xlink:href="#DejaVuSans-6f" x="1702.384766"/>
     <use xlink:href="#DejaVuSans-6c" x="1763.566406"/>
     <use xlink:href="#DejaVuSans-64" x="1791.349609"/>
     <use xlink:href="#DejaVuSans-3d" x="1854.826172"/>
     <use xlink:href="#DejaVuSans-30" x="1938.615234"/>
     <use xlink:href="#DejaVuSans-2e" x="2002.238281"/>
     <use xlink:href="#DejaVuSans-39" x="2034.025391"/>
     <use xlink:href="#DejaVuSans-35" x="2097.648438"/>
    </g>
   </g>
   <g id="legend_1">
    <g id="patch_7">
     <path d="M 304.998438 72.832812 
L 371.58125 72.832812 
Q 373.58125 72.832812 373.58125 70.832812 
L 373.58125 27.798437 
Q 373.58125 25.798437 371.58125 25.798437 
L 304.998438 25.798437 
Q 302.998438 25.798437 302.998438 27.798437 
L 302.998438 70.832812 
Q 302.998438 72.832812 304.998438 72.832812 
z
" style="fill: #ffffff; opacity: 0.8; stroke: #cccccc; stroke-linejoin: miter"/>
    </g>
    <g id="line2d_26">
     <path d="M 306.998438 33.896875 
L 316.998438 33.896875 
L 326.998438 33.896875 
" style="fill: none; stroke: #1f77b4; stroke-width: 1.5; stroke-linecap: square"/>
    </g>
    <g id="text_15">
     <!-- ReLU.0 -->
     <g transform="translate(334.998438 37.396875) scale(0.1 -0.1)">
      <defs>
       <path id="DejaVuSans-52" d="M 2841 2188 
Q 3044 2119 3236 1894 
Q 3428 1669 3622 1275 
L 4263 0 
L 3584 0 
L 2988 1197 
Q 2756 1666 2539 1819 
Q 2322 1972 1947 1972 
L 1259 1972 
L 1259 0 
L 628 0 
L 628 4666 
L 2053 4666 
Q 2853 4666 3247 4331 
Q 3641 3997 3641 3322 
Q 3641 2881 3436 2590 
Q 3231 2300 2841 2188 
z
M 1259 4147 
L 1259 2491 
L 2053 2491 
Q 2509 2491 2742 2702 
Q 2975 2913 2975 3322 
Q 2975 3731 2742 3939 
Q 2509 4147 2053 4147 
L 1259 4147 
z
" transform="scale(0.015625)"/>
       <path id="DejaVuSans-4c" d="M 628 4666 
L 1259 4666 
L 1259 531 
L 3531 531 
L 3531 0 
L 628 0 
L 628 4666 
z
" transform="scale(0.015625)"/>
       <path id="DejaVuSans-55" d="M 556 4666 
L 1191 4666 
L 1191 1831 
Q 1191 1081 1462 751 
Q 1734 422 2344 422 
Q 2950 422 3222 751 
Q 3494 1081 3494 1831 
L 3494 4666 
L 4128 4666 
L 4128 1753 
Q 4128 841 3676 375 
Q 3225 -91 2344 -91 
Q 1459 -91 1007 375 
Q 556 841 556 1753 
L 556 4666 
z
" transform="scale(0.015625)"/>
      </defs>
      <use xlink:href="#DejaVuSans-52"/>
      <use xlink:href="#DejaVuSans-65" x="64.982422"/>
      <use xlink:href="#DejaVuSans-4c" x="126.505859"/>
      <use xlink:href="#DejaVuSans-55" x="177.21875"/>
      <use xlink:href="#DejaVuSans-2e" x="250.412109"/>
      <use xlink:href="#DejaVuSans-30" x="282.199219"/>
     </g>
    </g>
    <g id="line2d_27">
     <path d="M 306.998438 48.575 
L 316.998438 48.575 
L 326.998438 48.575 
" style="fill: none; stroke: #ff7f0e; stroke-width: 1.5; stroke-linecap: square"/>
    </g>
    <g id="text_16">
     <!-- ReLU.1 -->
     <g transform="translate(334.998438 52.075) scale(0.1 -0.1)">
      <use xlink:href="#DejaVuSans-52"/>
      <use xlink:href="#DejaVuSans-65" x="64.982422"/>
      <use xlink:href="#DejaVuSans-4c" x="126.505859"/>
      <use xlink:href="#DejaVuSans-55" x="177.21875"/>
      <use xlink:href="#DejaVuSans-2e" x="250.412109"/>
      <use xlink:href="#DejaVuSans-31" x="282.199219"/>
     </g>
    </g>
    <g id="line2d_28">
     <path d="M 306.998438 63.253125 
L 316.998438 63.253125 
L 326.998438 63.253125 
" style="fill: none; stroke: #2ca02c; stroke-width: 1.5; stroke-linecap: square"/>
    </g>
    <g id="text_17">
     <!-- ReLU.2 -->
     <g transform="translate(334.998438 66.753125) scale(0.1 -0.1)">
      <use xlink:href="#DejaVuSans-52"/>
      <use xlink:href="#DejaVuSans-65" x="64.982422"/>
      <use xlink:href="#DejaVuSans-4c" x="126.505859"/>
      <use xlink:href="#DejaVuSans-55" x="177.21875"/>
      <use xlink:href="#DejaVuSans-2e" x="250.412109"/>
      <use xlink:href="#DejaVuSans-32" x="282.199219"/>
     </g>
    </g>
   </g>
  </g>
 </g>
 <defs>
  <clipPath id="p69d2c148fa">
   <rect x="43.78125" y="20.798437" width="334.8" height="166.32"/>
  </clipPath>
 </defs>
</svg>