<?xml version="1.0" encoding="utf-8" standalone="no"?>
<!DOCTYPE svg PUBLIC "-//W3C//DTD SVG 1.1//EN"
  "http://www.w3.org/Graphics/SVG/1.1/DTD/svg11.dtd">
<svg xmlns:xlink="http://www.w3.org/1999/xlink" width="330.278322pt" height="214.875469pt" viewBox="0 0 330.278322 214.875469" xmlns="http://www.w3.org/2000/svg" version="1.1">
 <metadata>
  <rdf:RDF xmlns:dc="http://purl.org/dc/elements/1.1/" xmlns:cc="http://creativecommons.org/ns#" xmlns:rdf="http://www.w3.org/1999/02/22-rdf-syntax-ns#">
   <cc:Work>
    <dc:type rdf:resource="http://purl.org/dc/dcmitype/StillImage"/>
    <dc:date>2024-05-25T02:59:46.609348</dc:date>
    <dc:format>image/svg+xml</dc:format>
    <dc:creator>
     <cc:Agent>
      <dc:title>Matplotlib v3.7.1, https://matplotlib.org/</dc:title>
     </cc:Agent>
    </dc:creator>
   </cc:Work>
  </rdf:RDF>
 </metadata>
 <defs>
  <style type="text/css">*{stroke-linejoin: round; stroke-linecap: butt}</style>
 </defs>
 <g id="figure_1">
  <g id="patch_1">
   <path d="M 0 214.875469 
L 330.278322 214.875469 
L 330.278322 0 
L 0 0 
z
" style="fill: #ffffff"/>
  </g>
  <g id="axes_1">
   <g id="patch_2">
    <path d="M 43.78125 177.319219 
L 322.78125 177.319219 
L 322.78125 10.999219 
L 43.78125 10.999219 
z
" style="fill: #ffffff"/>
   </g>
   <g id="matplotlib.axis_1">
    <g id="xtick_1">
     <g id="line2d_1">
      <path d="M 56.463068 177.319219 
L 56.463068 10.999219 
" clip-path="url(#p207c9cf926)" style="fill: none; stroke-dasharray: 0.8,1.32; stroke-dashoffset: 0; stroke: #b0b0b0; stroke-opacity: 0.6; stroke-width: 0.8"/>
     </g>
     <g id="line2d_2">
      <defs>
       <path id="me2189b98a6" d="M 0 0 
L 0 3.5 
" style="stroke: #000000; stroke-width: 0.8"/>
      </defs>
      <g>
       <use xlink:href="#me2189b98a6" x="56.463068" y="177.319219" style="stroke: #000000; stroke-width: 0.8"/>
      </g>
     </g>
     <g id="text_1">
      <!-- 0 -->
      <g transform="translate(53.281818 191.917656) scale(0.1 -0.1)">
       <defs>
        <path id="DejaVuSans-30" d="M 2034 4250 
Q 1547 4250 1301 3770 
Q 1056 3291 1056 2328 
Q 1056 1369 1301 889 
Q 1547 409 2034 409 
Q 2525 409 2770 889 
Q 3016 1369 3016 2328 
Q 3016 3291 2770 3770 
Q 2525 4250 2034 4250 
z
M 2034 4750 
Q 2819 4750 3233 4129 
Q 3647 3509 3647 2328 
Q 3647 1150 3233 529 
Q 2819 -91 2034 -91 
Q 1250 -91 836 529 
Q 422 1150 422 2328 
Q 422 3509 836 4129 
Q 1250 4750 2034 4750 
z
" transform="scale(0.015625)"/>
       </defs>
       <use xlink:href="#DejaVuSans-30"/>
      </g>
     </g>
    </g>
    <g id="xtick_2">
     <g id="line2d_3">
      <path d="M 107.241119 177.319219 
L 107.241119 10.999219 
" clip-path="url(#p207c9cf926)" style="fill: none; stroke-dasharray: 0.8,1.32; stroke-dashoffset: 0; stroke: #b0b0b0; stroke-opacity: 0.6; stroke-width: 0.8"/>
     </g>
     <g id="line2d_4">
      <g>
       <use xlink:href="#me2189b98a6" x="107.241119" y="177.319219" style="stroke: #000000; stroke-width: 0.8"/>
      </g>
     </g>
     <g id="text_2">
      <!-- 200 -->
      <g transform="translate(97.697369 191.917656) scale(0.1 -0.1)">
       <defs>
        <path id="DejaVuSans-32" d="M 1228 531 
L 3431 531 
L 3431 0 
L 469 0 
L 469 531 
Q 828 903 1448 1529 
Q 2069 2156 2228 2338 
Q 2531 2678 2651 2914 
Q 2772 3150 2772 3378 
Q 2772 3750 2511 3984 
Q 2250 4219 1831 4219 
Q 1534 4219 1204 4116 
Q 875 4013 500 3803 
L 500 4441 
Q 881 4594 1212 4672 
Q 1544 4750 1819 4750 
Q 2544 4750 2975 4387 
Q 3406 4025 3406 3419 
Q 3406 3131 3298 2873 
Q 3191 2616 2906 2266 
Q 2828 2175 2409 1742 
Q 1991 1309 1228 531 
z
" transform="scale(0.015625)"/>
       </defs>
       <use xlink:href="#DejaVuSans-32"/>
       <use xlink:href="#DejaVuSans-30" x="63.623047"/>
       <use xlink:href="#DejaVuSans-30" x="127.246094"/>
      </g>
     </g>
    </g>
    <g id="xtick_3">
     <g id="line2d_5">
      <path d="M 158.01917 177.319219 
L 158.01917 10.999219 
" clip-path="url(#p207c9cf926)" style="fill: none; stroke-dasharray: 0.8,1.32; stroke-dashoffset: 0; stroke: #b0b0b0; stroke-opacity: 0.6; stroke-width: 0.8"/>
     </g>
     <g id="line2d_6">
      <g>
       <use xlink:href="#me2189b98a6" x="158.01917" y="177.319219" style="stroke: #000000; stroke-width: 0.8"/>
      </g>
     </g>
     <g id="text_3">
      <!-- 400 -->
      <g transform="translate(148.47542 191.917656) scale(0.1 -0.1)">
       <defs>
        <path id="DejaVuSans-34" d="M 2419 4116 
L 825 1625 
L 2419 1625 
L 2419 4116 
z
M 2253 4666 
L 3047 4666 
L 3047 1625 
L 3713 1625 
L 3713 1100 
L 3047 1100 
L 3047 0 
L 2419 0 
L 2419 1100 
L 313 1100 
L 313 1709 
L 2253 4666 
z
" transform="scale(0.015625)"/>
       </defs>
       <use xlink:href="#DejaVuSans-34"/>
       <use xlink:href="#DejaVuSans-30" x="63.623047"/>
       <use xlink:href="#DejaVuSans-30" x="127.246094"/>
      </g>
     </g>
    </g>
    <g id="xtick_4">
     <g id="line2d_7">
      <path d="M 208.797221 177.319219 
L 208.797221 10.999219 
" clip-path="url(#p207c9cf926)" style="fill: none; stroke-dasharray: 0.8,1.32; stroke-dashoffset: 0; stroke: #b0b0b0; stroke-opacity: 0.6; stroke-width: 0.8"/>
     </g>
     <g id="line2d_8">
      <g>
       <use xlink:href="#me2189b98a6" x="208.797221" y="177.319219" style="stroke: #000000; stroke-width: 0.8"/>
      </g>
     </g>
     <g id="text_4">
      <!-- 600 -->
      <g transform="translate(199.253471 191.917656) scale(0.1 -0.1)">
       <defs>
        <path id="DejaVuSans-36" d="M 2113 2584 
Q 1688 2584 1439 2293 
Q 1191 2003 1191 1497 
Q 1191 994 1439 701 
Q 1688 409 2113 409 
Q 2538 409 2786 701 
Q 3034 994 3034 1497 
Q 3034 2003 2786 2293 
Q 2538 2584 2113 2584 
z
M 3366 4563 
L 3366 3988 
Q 3128 4100 2886 4159 
Q 2644 4219 2406 4219 
Q 1781 4219 1451 3797 
Q 1122 3375 1075 2522 
Q 1259 2794 1537 2939 
Q 1816 3084 2150 3084 
Q 2853 3084 3261 2657 
Q 3669 2231 3669 1497 
Q 3669 778 3244 343 
Q 2819 -91 2113 -91 
Q 1303 -91 875 529 
Q 447 1150 447 2328 
Q 447 3434 972 4092 
Q 1497 4750 2381 4750 
Q 2619 4750 2861 4703 
Q 3103 4656 3366 4563 
z
" transform="scale(0.015625)"/>
       </defs>
       <use xlink:href="#DejaVuSans-36"/>
       <use xlink:href="#DejaVuSans-30" x="63.623047"/>
       <use xlink:href="#DejaVuSans-30" x="127.246094"/>
      </g>
     </g>
    </g>
    <g id="xtick_5">
     <g id="line2d_9">
      <path d="M 259.575271 177.319219 
L 259.575271 10.999219 
" clip-path="url(#p207c9cf926)" style="fill: none; stroke-dasharray: 0.8,1.32; stroke-dashoffset: 0; stroke: #b0b0b0; stroke-opacity: 0.6; stroke-width: 0.8"/>
     </g>
     <g id="line2d_10">
      <g>
       <use xlink:href="#me2189b98a6" x="259.575271" y="177.319219" style="stroke: #000000; stroke-width: 0.8"/>
      </g>
     </g>
     <g id="text_5">
      <!-- 800 -->
      <g transform="translate(250.031521 191.917656) scale(0.1 -0.1)">
       <defs>
        <path id="DejaVuSans-38" d="M 2034 2216 
Q 1584 2216 1326 1975 
Q 1069 1734 1069 1313 
Q 1069 891 1326 650 
Q 1584 409 2034 409 
Q 2484 409 2743 651 
Q 3003 894 3003 1313 
Q 3003 1734 2745 1975 
Q 2488 2216 2034 2216 
z
M 1403 2484 
Q 997 2584 770 2862 
Q 544 3141 544 3541 
Q 544 4100 942 4425 
Q 1341 4750 2034 4750 
Q 2731 4750 3128 4425 
Q 3525 4100 3525 3541 
Q 3525 3141 3298 2862 
Q 3072 2584 2669 2484 
Q 3125 2378 3379 2068 
Q 3634 1759 3634 1313 
Q 3634 634 3220 271 
Q 2806 -91 2034 -91 
Q 1263 -91 848 271 
Q 434 634 434 1313 
Q 434 1759 690 2068 
Q 947 2378 1403 2484 
z
M 1172 3481 
Q 1172 3119 1398 2916 
Q 1625 2713 2034 2713 
Q 2441 2713 2670 2916 
Q 2900 3119 2900 3481 
Q 2900 3844 2670 4047 
Q 2441 4250 2034 4250 
Q 1625 4250 1398 4047 
Q 1172 3844 1172 3481 
z
" transform="scale(0.015625)"/>
       </defs>
       <use xlink:href="#DejaVuSans-38"/>
       <use xlink:href="#DejaVuSans-30" x="63.623047"/>
       <use xlink:href="#DejaVuSans-30" x="127.246094"/>
      </g>
     </g>
    </g>
    <g id="xtick_6">
     <g id="line2d_11">
      <path d="M 310.353322 177.319219 
L 310.353322 10.999219 
" clip-path="url(#p207c9cf926)" style="fill: none; stroke-dasharray: 0.8,1.32; stroke-dashoffset: 0; stroke: #b0b0b0; stroke-opacity: 0.6; stroke-width: 0.8"/>
     </g>
     <g id="line2d_12">
      <g>
       <use xlink:href="#me2189b98a6" x="310.353322" y="177.319219" style="stroke: #000000; stroke-width: 0.8"/>
      </g>
     </g>
     <g id="text_6">
      <!-- 1000 -->
      <g transform="translate(297.628322 191.917656) scale(0.1 -0.1)">
       <defs>
        <path id="DejaVuSans-31" d="M 794 531 
L 1825 531 
L 1825 4091 
L 703 3866 
L 703 4441 
L 1819 4666 
L 2450 4666 
L 2450 531 
L 3481 531 
L 3481 0 
L 794 0 
L 794 531 
z
" transform="scale(0.015625)"/>
       </defs>
       <use xlink:href="#DejaVuSans-31"/>
       <use xlink:href="#DejaVuSans-30" x="63.623047"/>
       <use xlink:href="#DejaVuSans-30" x="127.246094"/>
       <use xlink:href="#DejaVuSans-30" x="190.869141"/>
      </g>
     </g>
    </g>
    <g id="text_7">
     <!-- steps -->
     <g transform="translate(169.860938 205.595781) scale(0.1 -0.1)">
      <defs>
       <path id="DejaVuSans-73" d="M 2834 3397 
L 2834 2853 
Q 2591 2978 2328 3040 
Q 2066 3103 1784 3103 
Q 1356 3103 1142 2972 
Q 928 2841 928 2578 
Q 928 2378 1081 2264 
Q 1234 2150 1697 2047 
L 1894 2003 
Q 2506 1872 2764 1633 
Q 3022 1394 3022 966 
Q 3022 478 2636 193 
Q 2250 -91 1575 -91 
Q 1294 -91 989 -36 
Q 684 19 347 128 
L 347 722 
Q 666 556 975 473 
Q 1284 391 1588 391 
Q 1994 391 2212 530 
Q 2431 669 2431 922 
Q 2431 1156 2273 1281 
Q 2116 1406 1581 1522 
L 1381 1569 
Q 847 1681 609 1914 
Q 372 2147 372 2553 
Q 372 3047 722 3315 
Q 1072 3584 1716 3584 
Q 2034 3584 2315 3537 
Q 2597 3491 2834 3397 
z
" transform="scale(0.015625)"/>
       <path id="DejaVuSans-74" d="M 1172 4494 
L 1172 3500 
L 2356 3500 
L 2356 3053 
L 1172 3053 
L 1172 1153 
Q 1172 725 1289 603 
Q 1406 481 1766 481 
L 2356 481 
L 2356 0 
L 1766 0 
Q 1100 0 847 248 
Q 594 497 594 1153 
L 594 3053 
L 172 3053 
L 172 3500 
L 594 3500 
L 594 4494 
L 1172 4494 
z
" transform="scale(0.015625)"/>
       <path id="DejaVuSans-65" d="M 3597 1894 
L 3597 1613 
L 953 1613 
Q 991 1019 1311 708 
Q 1631 397 2203 397 
Q 2534 397 2845 478 
Q 3156 559 3463 722 
L 3463 178 
Q 3153 47 2828 -22 
Q 2503 -91 2169 -91 
Q 1331 -91 842 396 
Q 353 884 353 1716 
Q 353 2575 817 3079 
Q 1281 3584 2069 3584 
Q 2775 3584 3186 3129 
Q 3597 2675 3597 1894 
z
M 3022 2063 
Q 3016 2534 2758 2815 
Q 2500 3097 2075 3097 
Q 1594 3097 1305 2825 
Q 1016 2553 972 2059 
L 3022 2063 
z
" transform="scale(0.015625)"/>
       <path id="DejaVuSans-70" d="M 1159 525 
L 1159 -1331 
L 581 -1331 
L 581 3500 
L 1159 3500 
L 1159 2969 
Q 1341 3281 1617 3432 
Q 1894 3584 2278 3584 
Q 2916 3584 3314 3078 
Q 3713 2572 3713 1747 
Q 3713 922 3314 415 
Q 2916 -91 2278 -91 
Q 1894 -91 1617 61 
Q 1341 213 1159 525 
z
M 3116 1747 
Q 3116 2381 2855 2742 
Q 2594 3103 2138 3103 
Q 1681 3103 1420 2742 
Q 1159 2381 1159 1747 
Q 1159 1113 1420 752 
Q 1681 391 2138 391 
Q 2594 391 2855 752 
Q 3116 1113 3116 1747 
z
" transform="scale(0.015625)"/>
      </defs>
      <use xlink:href="#DejaVuSans-73"/>
      <use xlink:href="#DejaVuSans-74" x="52.099609"/>
      <use xlink:href="#DejaVuSans-65" x="91.308594"/>
      <use xlink:href="#DejaVuSans-70" x="152.832031"/>
      <use xlink:href="#DejaVuSans-73" x="216.308594"/>
     </g>
    </g>
   </g>
   <g id="matplotlib.axis_2">
    <g id="ytick_1">
     <g id="line2d_13">
      <path d="M 43.78125 155.619012 
L 322.78125 155.619012 
" clip-path="url(#p207c9cf926)" style="fill: none; stroke-dasharray: 0.8,1.32; stroke-dashoffset: 0; stroke: #b0b0b0; stroke-opacity: 0.6; stroke-width: 0.8"/>
     </g>
     <g id="line2d_14">
      <defs>
       <path id="mc7a957e7a7" d="M 0 0 
L -3.5 0 
" style="stroke: #000000; stroke-width: 0.8"/>
      </defs>
      <g>
       <use xlink:href="#mc7a957e7a7" x="43.78125" y="155.619012" style="stroke: #000000; stroke-width: 0.8"/>
      </g>
     </g>
     <g id="text_8">
      <!-- 2.5 -->
      <g transform="translate(20.878125 159.41823) scale(0.1 -0.1)">
       <defs>
        <path id="DejaVuSans-2e" d="M 684 794 
L 1344 794 
L 1344 0 
L 684 0 
L 684 794 
z
" transform="scale(0.015625)"/>
        <path id="DejaVuSans-35" d="M 691 4666 
L 3169 4666 
L 3169 4134 
L 1269 4134 
L 1269 2991 
Q 1406 3038 1543 3061 
Q 1681 3084 1819 3084 
Q 2600 3084 3056 2656 
Q 3513 2228 3513 1497 
Q 3513 744 3044 326 
Q 2575 -91 1722 -91 
Q 1428 -91 1123 -41 
Q 819 9 494 109 
L 494 744 
Q 775 591 1075 516 
Q 1375 441 1709 441 
Q 2250 441 2565 725 
Q 2881 1009 2881 1497 
Q 2881 1984 2565 2268 
Q 2250 2553 1709 2553 
Q 1456 2553 1204 2497 
Q 953 2441 691 2322 
L 691 4666 
z
" transform="scale(0.015625)"/>
       </defs>
       <use xlink:href="#DejaVuSans-32"/>
       <use xlink:href="#DejaVuSans-2e" x="63.623047"/>
       <use xlink:href="#DejaVuSans-35" x="95.410156"/>
      </g>
     </g>
    </g>
    <g id="ytick_2">
     <g id="line2d_15">
      <path d="M 43.78125 126.695053 
L 322.78125 126.695053 
" clip-path="url(#p207c9cf926)" style="fill: none; stroke-dasharray: 0.8,1.32; stroke-dashoffset: 0; stroke: #b0b0b0; stroke-opacity: 0.6; stroke-width: 0.8"/>
     </g>
     <g id="line2d_16">
      <g>
       <use xlink:href="#mc7a957e7a7" x="43.78125" y="126.695053" style="stroke: #000000; stroke-width: 0.8"/>
      </g>
     </g>
     <g id="text_9">
      <!-- 3.0 -->
      <g transform="translate(20.878125 130.494272) scale(0.1 -0.1)">
       <defs>
        <path id="DejaVuSans-33" d="M 2597 2516 
Q 3050 2419 3304 2112 
Q 3559 1806 3559 1356 
Q 3559 666 3084 287 
Q 2609 -91 1734 -91 
Q 1441 -91 1130 -33 
Q 819 25 488 141 
L 488 750 
Q 750 597 1062 519 
Q 1375 441 1716 441 
Q 2309 441 2620 675 
Q 2931 909 2931 1356 
Q 2931 1769 2642 2001 
Q 2353 2234 1838 2234 
L 1294 2234 
L 1294 2753 
L 1863 2753 
Q 2328 2753 2575 2939 
Q 2822 3125 2822 3475 
Q 2822 3834 2567 4026 
Q 2313 4219 1838 4219 
Q 1578 4219 1281 4162 
Q 984 4106 628 3988 
L 628 4550 
Q 988 4650 1302 4700 
Q 1616 4750 1894 4750 
Q 2613 4750 3031 4423 
Q 3450 4097 3450 3541 
Q 3450 3153 3228 2886 
Q 3006 2619 2597 2516 
z
" transform="scale(0.015625)"/>
       </defs>
       <use xlink:href="#DejaVuSans-33"/>
       <use xlink:href="#DejaVuSans-2e" x="63.623047"/>
       <use xlink:href="#DejaVuSans-30" x="95.410156"/>
      </g>
     </g>
    </g>
    <g id="ytick_3">
     <g id="line2d_17">
      <path d="M 43.78125 97.771095 
L 322.78125 97.771095 
" clip-path="url(#p207c9cf926)" style="fill: none; stroke-dasharray: 0.8,1.32; stroke-dashoffset: 0; stroke: #b0b0b0; stroke-opacity: 0.6; stroke-width: 0.8"/>
     </g>
     <g id="line2d_18">
      <g>
       <use xlink:href="#mc7a957e7a7" x="43.78125" y="97.771095" style="stroke: #000000; stroke-width: 0.8"/>
      </g>
     </g>
     <g id="text_10">
      <!-- 3.5 -->
      <g transform="translate(20.878125 101.570313) scale(0.1 -0.1)">
       <use xlink:href="#DejaVuSans-33"/>
       <use xlink:href="#DejaVuSans-2e" x="63.623047"/>
       <use xlink:href="#DejaVuSans-35" x="95.410156"/>
      </g>
     </g>
    </g>
    <g id="ytick_4">
     <g id="line2d_19">
      <path d="M 43.78125 68.847136 
L 322.78125 68.847136 
" clip-path="url(#p207c9cf926)" style="fill: none; stroke-dasharray: 0.8,1.32; stroke-dashoffset: 0; stroke: #b0b0b0; stroke-opacity: 0.6; stroke-width: 0.8"/>
     </g>
     <g id="line2d_20">
      <g>
       <use xlink:href="#mc7a957e7a7" x="43.78125" y="68.847136" style="stroke: #000000; stroke-width: 0.8"/>
      </g>
     </g>
     <g id="text_11">
      <!-- 4.0 -->
      <g transform="translate(20.878125 72.646355) scale(0.1 -0.1)">
       <use xlink:href="#DejaVuSans-34"/>
       <use xlink:href="#DejaVuSans-2e" x="63.623047"/>
       <use xlink:href="#DejaVuSans-30" x="95.410156"/>
      </g>
     </g>
    </g>
    <g id="ytick_5">
     <g id="line2d_21">
      <path d="M 43.78125 39.923177 
L 322.78125 39.923177 
" clip-path="url(#p207c9cf926)" style="fill: none; stroke-dasharray: 0.8,1.32; stroke-dashoffset: 0; stroke: #b0b0b0; stroke-opacity: 0.6; stroke-width: 0.8"/>
     </g>
     <g id="line2d_22">
      <g>
       <use xlink:href="#mc7a957e7a7" x="43.78125" y="39.923177" style="stroke: #000000; stroke-width: 0.8"/>
      </g>
     </g>
     <g id="text_12">
      <!-- 4.5 -->
      <g transform="translate(20.878125 43.722396) scale(0.1 -0.1)">
       <use xlink:href="#DejaVuSans-34"/>
       <use xlink:href="#DejaVuSans-2e" x="63.623047"/>
       <use xlink:href="#DejaVuSans-35" x="95.410156"/>
      </g>
     </g>
    </g>
    <g id="ytick_6">
     <g id="line2d_23">
      <path d="M 43.78125 10.999219 
L 322.78125 10.999219 
" clip-path="url(#p207c9cf926)" style="fill: none; stroke-dasharray: 0.8,1.32; stroke-dashoffset: 0; stroke: #b0b0b0; stroke-opacity: 0.6; stroke-width: 0.8"/>
     </g>
     <g id="line2d_24">
      <g>
       <use xlink:href="#mc7a957e7a7" x="43.78125" y="10.999219" style="stroke: #000000; stroke-width: 0.8"/>
      </g>
     </g>
     <g id="text_13">
      <!-- 5.0 -->
      <g transform="translate(20.878125 14.798438) scale(0.1 -0.1)">
       <use xlink:href="#DejaVuSans-35"/>
       <use xlink:href="#DejaVuSans-2e" x="63.623047"/>
       <use xlink:href="#DejaVuSans-30" x="95.410156"/>
      </g>
     </g>
    </g>
    <g id="text_14">
     <!-- loss -->
     <g transform="translate(14.798438 103.817031) rotate(-90) scale(0.1 -0.1)">
      <defs>
       <path id="DejaVuSans-6c" d="M 603 4863 
L 1178 4863 
L 1178 0 
L 603 0 
L 603 4863 
z
" transform="scale(0.015625)"/>
       <path id="DejaVuSans-6f" d="M 1959 3097 
Q 1497 3097 1228 2736 
Q 959 2375 959 1747 
Q 959 1119 1226 758 
Q 1494 397 1959 397 
Q 2419 397 2687 759 
Q 2956 1122 2956 1747 
Q 2956 2369 2687 2733 
Q 2419 3097 1959 3097 
z
M 1959 3584 
Q 2709 3584 3137 3096 
Q 3566 2609 3566 1747 
Q 3566 888 3137 398 
Q 2709 -91 1959 -91 
Q 1206 -91 779 398 
Q 353 888 353 1747 
Q 353 2609 779 3096 
Q 1206 3584 1959 3584 
z
" transform="scale(0.015625)"/>
      </defs>
      <use xlink:href="#DejaVuSans-6c"/>
      <use xlink:href="#DejaVuSans-6f" x="27.783203"/>
      <use xlink:href="#DejaVuSans-73" x="88.964844"/>
      <use xlink:href="#DejaVuSans-73" x="141.064453"/>
     </g>
    </g>
   </g>
   <g id="line2d_25">
    <path d="M 56.463068 27.258905 
L 56.489578 -1 
M 56.896738 -1 
L 56.970849 98.915791 
L 57.224739 111.316732 
L 57.478629 104.59813 
L 57.732519 115.558095 
L 57.98641 94.113148 
L 58.49419 116.41782 
L 58.74808 124.300979 
L 59.001971 107.461311 
L 59.255861 123.049202 
L 59.509751 121.286334 
L 59.763641 126.496421 
L 60.017532 109.64245 
L 60.271422 122.369959 
L 60.779202 126.569491 
L 61.033093 119.172445 
L 61.286983 131.946695 
L 61.540873 130.652066 
L 61.794764 127.8527 
L 62.048654 119.31031 
L 62.302544 138.426861 
L 62.556434 129.812877 
L 62.810325 109.112547 
L 63.318105 124.580488 
L 63.571995 123.077227 
L 63.825886 127.620829 
L 64.079776 111.947772 
L 64.333666 121.943455 
L 64.587556 118.178868 
L 65.095337 126.312794 
L 65.349227 118.827424 
L 65.857008 138.044836 
L 66.110898 133.980714 
L 66.364788 119.893878 
L 66.618678 130.387094 
L 66.872569 112.887629 
L 67.126459 126.764634 
L 67.380349 122.311067 
L 67.88813 138.53677 
L 68.14202 128.331531 
L 68.39591 135.129658 
L 68.6498 134.114304 
L 69.157581 120.325651 
L 69.411471 142.830818 
L 69.665361 110.22799 
L 69.919252 129.512997 
L 70.173142 134.132951 
L 70.427032 128.273274 
L 70.680922 137.768678 
L 70.934813 126.649512 
L 71.188703 123.933284 
L 71.442593 131.448638 
L 71.696483 122.67519 
L 71.950374 139.956134 
L 72.204264 112.544691 
L 72.712044 138.333875 
L 72.965935 122.849921 
L 73.219825 131.361941 
L 73.473715 117.335072 
L 73.727605 134.574212 
L 73.981496 128.044547 
L 74.235386 118.50778 
L 74.489276 146.27856 
L 74.743166 128.685655 
L 74.997057 128.661188 
L 75.250947 123.222057 
L 75.504837 137.972442 
L 75.758727 141.611121 
L 76.012618 141.413812 
L 76.266508 121.256488 
L 76.774288 127.444236 
L 77.028179 135.134637 
L 77.282069 137.111558 
L 77.535959 134.542891 
L 77.78985 140.618647 
L 78.29763 123.732086 
L 78.55152 137.478425 
L 78.805411 129.129179 
L 79.059301 125.505974 
L 79.313191 131.887541 
L 79.567081 130.998577 
L 79.820972 138.828995 
L 80.074862 133.90552 
L 80.328752 133.891949 
L 80.582642 140.512697 
L 80.836533 121.644733 
L 81.090423 140.448343 
L 81.344313 138.745112 
L 81.598203 146.346831 
L 81.852094 116.480009 
L 82.105984 112.257155 
L 82.359874 129.712319 
L 82.613764 121.852979 
L 82.867655 133.31747 
L 83.121545 127.281021 
L 83.375435 134.392944 
L 83.629325 124.463987 
L 83.883216 130.033149 
L 84.137106 123.909976 
L 84.390996 131.883997 
L 84.644886 134.88696 
L 84.898777 116.335248 
L 85.152667 118.286749 
L 85.406557 136.260576 
L 85.660447 124.008989 
L 85.914338 125.578644 
L 86.168228 140.235602 
L 86.422118 130.519401 
L 86.676008 143.764496 
L 86.929899 143.523743 
L 87.183789 142.166057 
L 87.437679 139.499797 
L 87.691569 113.358834 
L 87.94546 137.563246 
L 88.19935 121.929663 
L 88.45324 123.719287 
L 88.70713 132.550372 
L 88.961021 132.343822 
L 89.214911 148.844924 
L 89.468801 142.754645 
L 89.722691 115.748839 
L 89.976582 123.299127 
L 90.230472 140.986701 
L 90.484362 129.976257 
L 90.738252 127.737316 
L 90.992143 130.320671 
L 91.246033 141.561166 
L 91.499923 129.507163 
L 91.753813 129.163797 
L 92.007704 134.545511 
L 92.261594 123.126217 
L 92.515484 132.322472 
L 92.769374 126.133428 
L 93.023265 142.54211 
L 93.277155 136.102975 
L 93.531045 140.756443 
L 93.784936 130.189371 
L 94.038826 139.219626 
L 94.292716 142.946781 
L 94.546606 123.268123 
L 94.800497 133.15871 
L 95.054387 118.347641 
L 95.308277 128.87924 
L 95.562167 131.017527 
L 96.069948 147.622924 
L 96.323838 121.098514 
L 96.577728 136.384691 
L 96.831619 142.057348 
L 97.085509 130.008903 
L 97.339399 129.121455 
L 97.593289 133.113914 
L 97.84718 126.563974 
L 98.10107 125.052838 
L 98.35496 142.34516 
L 98.60885 143.439225 
L 98.862741 133.030155 
L 99.116631 135.882385 
L 99.370521 117.802429 
L 99.624411 134.916351 
L 99.878302 124.003513 
L 100.132192 120.47688 
L 100.386082 126.996298 
L 100.639972 141.162866 
L 100.893863 134.869748 
L 101.147753 113.511815 
L 101.401643 134.220199 
L 101.655533 121.601813 
L 101.909424 131.729347 
L 102.163314 135.057816 
L 102.417204 116.722845 
L 102.671094 132.764148 
L 102.924985 121.405166 
L 103.432765 139.256354 
L 103.686655 135.644708 
L 104.194436 136.82518 
L 104.448326 125.196826 
L 104.702216 153.241295 
L 104.956107 106.149153 
L 105.209997 128.741733 
L 105.463887 122.637786 
L 105.717777 133.91363 
L 105.971668 118.533488 
L 106.225558 133.161827 
L 106.479448 131.37394 
L 106.733338 142.740287 
L 106.987229 132.73775 
L 107.495009 135.832376 
L 107.748899 129.635746 
L 108.00279 144.977118 
L 108.25668 121.358659 
L 108.51057 148.227773 
L 108.76446 124.884603 
L 109.018351 136.429294 
L 109.272241 126.05178 
L 109.526131 130.083256 
L 109.780021 142.712662 
L 110.033912 142.666776 
L 110.287802 122.124958 
L 110.541692 139.345272 
L 110.795583 126.632465 
L 111.049473 130.456192 
L 111.303363 124.649531 
L 111.811144 132.802131 
L 112.065034 141.795755 
L 112.318924 137.068747 
L 112.572814 114.437935 
L 112.826705 122.100049 
L 113.080595 141.01274 
L 113.334485 120.54522 
L 113.588375 121.507103 
L 114.096156 128.477423 
L 114.350046 128.968171 
L 114.857827 144.628497 
L 115.111717 139.278477 
L 115.619497 112.348003 
L 116.127278 139.237914 
L 116.381168 137.871512 
L 116.635058 131.223538 
L 116.888949 146.196112 
L 117.142839 141.881334 
L 117.396729 129.814753 
L 117.650619 133.423655 
L 117.90451 128.592766 
L 118.1584 130.149333 
L 118.41229 124.361085 
L 118.66618 132.927749 
L 118.920071 127.910268 
L 119.173961 127.438029 
L 119.681741 140.51769 
L 119.935632 141.473256 
L 120.189522 129.577199 
L 120.443412 157.266661 
L 120.697302 133.779489 
L 120.951193 135.108212 
L 121.205083 131.523942 
L 121.458973 112.011436 
L 121.712863 138.822982 
L 121.966754 139.110931 
L 122.220644 121.242296 
L 122.474534 140.849167 
L 122.728424 130.506229 
L 122.982315 131.775784 
L 123.236205 138.479919 
L 123.490095 127.101863 
L 123.743985 145.348151 
L 123.997876 112.07521 
L 124.251766 135.569072 
L 124.505656 132.826447 
L 124.759546 144.65593 
L 125.013437 110.063231 
L 125.267327 129.41215 
L 125.521217 139.592576 
L 125.775107 112.931833 
L 126.028998 131.246061 
L 126.282888 140.747368 
L 126.536778 141.379056 
L 126.790669 125.18582 
L 127.044559 142.833797 
L 127.298449 128.05616 
L 127.552339 144.41239 
L 128.31401 120.44349 
L 128.5679 132.271359 
L 128.821791 128.542039 
L 129.075681 133.730127 
L 129.329571 134.002051 
L 129.583461 129.709271 
L 129.837352 142.88371 
L 130.091242 125.559032 
L 130.599022 140.898791 
L 131.106803 123.014874 
L 131.360693 136.781073 
L 131.614583 123.760594 
L 131.868474 145.030135 
L 132.122364 136.359686 
L 132.630144 145.293535 
L 132.884035 112.39833 
L 133.137925 140.746996 
L 133.391815 142.763913 
L 133.645705 136.063226 
L 133.899596 132.855948 
L 134.153486 125.271538 
L 134.407376 139.362291 
L 134.661266 130.738101 
L 134.915157 142.192523 
L 135.169047 128.512289 
L 135.422937 135.925582 
L 135.676827 126.616783 
L 135.930718 131.196078 
L 136.184608 144.732061 
L 136.438498 139.618229 
L 136.692388 120.60756 
L 136.946279 145.361915 
L 137.200169 105.010732 
L 137.454059 120.808675 
L 137.707949 127.290868 
L 137.96184 129.691066 
L 138.21573 115.902523 
L 138.46962 150.249807 
L 138.72351 139.505962 
L 138.977401 140.944056 
L 139.231291 119.423143 
L 139.485181 124.484468 
L 139.739071 121.479395 
L 139.992962 130.609862 
L 140.246852 123.039134 
L 140.500742 146.944922 
L 140.754632 127.754763 
L 141.008523 143.970715 
L 141.262413 137.195786 
L 141.516303 144.769328 
L 142.024084 138.573001 
L 142.277974 154.571729 
L 142.785755 124.404475 
L 143.039645 147.362889 
L 143.293535 122.192952 
L 143.547425 134.947604 
L 143.801316 128.547307 
L 144.055206 111.112059 
L 144.309096 129.558193 
L 144.562986 121.026892 
L 144.816877 127.80029 
L 145.070767 128.721928 
L 145.324657 133.497387 
L 145.578547 141.936861 
L 145.832438 136.301332 
L 146.086328 126.417158 
L 146.340218 150.926774 
L 146.594108 159.761086 
L 146.847999 108.102089 
L 147.101889 143.667069 
L 147.355779 120.619476 
L 147.609669 135.204011 
L 147.86356 132.904909 
L 148.11745 127.397439 
L 148.37134 132.430795 
L 148.62523 131.457768 
L 148.879121 118.948573 
L 149.133011 128.297603 
L 149.386901 129.156832 
L 149.640791 133.109859 
L 149.894682 139.10056 
L 150.148572 142.172235 
L 150.402462 126.818243 
L 150.656352 127.022434 
L 150.910243 126.640354 
L 151.164133 138.138291 
L 151.671913 140.779352 
L 151.925804 118.192564 
L 152.179694 132.393391 
L 152.433584 135.322347 
L 152.941365 145.867476 
L 153.195255 138.664787 
L 153.449145 122.670142 
L 153.956926 146.635305 
L 154.210816 141.468042 
L 154.464706 130.896998 
L 154.718596 133.978866 
L 154.972487 129.407295 
L 155.226377 137.553316 
L 155.480267 139.211075 
L 155.734157 128.939704 
L 155.988048 132.972725 
L 156.241938 143.701274 
L 156.749718 116.882198 
L 157.257499 138.776061 
L 157.511389 138.934283 
L 157.765279 138.179667 
L 158.01917 133.629294 
L 158.27306 147.892227 
L 158.78084 134.530244 
L 159.288621 110.100111 
L 159.542511 127.4081 
L 159.796402 115.63493 
L 160.050292 141.167128 
L 160.304182 128.525006 
L 160.558072 145.632873 
L 160.811963 148.966046 
L 161.065853 125.203308 
L 161.319743 137.298205 
L 161.827524 118.465246 
L 162.081414 141.436114 
L 162.335304 122.695423 
L 162.589194 126.727768 
L 162.843085 133.57214 
L 163.096975 120.537331 
L 163.604755 139.270602 
L 163.858646 127.766638 
L 164.112536 133.071669 
L 164.366426 130.343345 
L 164.620316 122.700057 
L 164.874207 136.619003 
L 165.128097 136.390773 
L 165.381987 124.773742 
L 165.635877 120.103572 
L 165.889768 123.043547 
L 166.143658 121.358549 
L 166.397548 118.663961 
L 166.905329 128.000068 
L 167.159219 119.12969 
L 167.413109 131.996277 
L 167.666999 122.073831 
L 167.92089 134.307323 
L 168.17478 136.462754 
L 168.42867 130.832714 
L 168.68256 143.145014 
L 168.936451 131.519984 
L 169.190341 135.311644 
L 169.444231 126.56465 
L 169.952012 143.591117 
L 170.205902 137.918142 
L 170.713682 147.097613 
L 170.967573 131.234779 
L 171.221463 133.190749 
L 171.475353 131.812995 
L 171.729243 151.681101 
L 171.983134 128.781482 
L 172.237024 143.995457 
L 172.490914 123.016529 
L 172.744804 133.490863 
L 172.998695 136.388332 
L 173.252585 133.282618 
L 173.506475 137.197192 
L 173.760365 123.028624 
L 174.014256 134.487392 
L 174.268146 117.920544 
L 174.522036 133.752084 
L 174.775926 139.529064 
L 175.029817 132.944948 
L 175.283707 130.555467 
L 175.537597 138.207099 
L 175.791488 122.774589 
L 176.045378 121.50622 
L 176.299268 125.289798 
L 176.553158 125.53 
L 176.807049 133.033672 
L 177.060939 133.236469 
L 177.314829 142.421981 
L 177.568719 138.669807 
L 177.82261 126.767985 
L 178.0765 132.354511 
L 178.33039 115.544082 
L 178.58428 118.928961 
L 178.838171 133.46812 
L 179.092061 137.821171 
L 179.599841 118.865435 
L 179.853732 124.240405 
L 180.107622 134.420928 
L 180.361512 137.90995 
L 180.615402 134.138164 
L 180.869293 139.391847 
L 181.123183 135.575899 
L 181.377073 123.855456 
L 181.630963 133.093074 
L 181.884854 137.032985 
L 182.138744 132.05979 
L 182.392634 146.964548 
L 182.646524 105.351381 
L 182.900415 132.650805 
L 183.154305 144.769107 
L 183.408195 121.978735 
L 183.662085 139.25172 
L 183.915976 138.725362 
L 184.169866 129.016057 
L 184.423756 131.42093 
L 184.677646 135.868318 
L 184.931537 123.302217 
L 185.185427 125.684926 
L 185.693207 147.446551 
L 185.947098 136.405461 
L 186.200988 131.317972 
L 186.708768 157.553701 
L 186.962659 130.928361 
L 187.216549 123.395313 
L 187.470439 124.983864 
L 187.724329 121.331696 
L 187.97822 131.932779 
L 188.23211 114.397014 
L 188.486 131.241357 
L 188.73989 130.039231 
L 188.993781 140.296521 
L 189.247671 132.464241 
L 189.501561 130.908197 
L 189.755451 143.141718 
L 190.009342 120.275296 
L 190.263232 138.731789 
L 190.517122 125.084532 
L 190.771012 131.690426 
L 191.024903 133.633073 
L 191.278793 133.067131 
L 191.532683 133.853814 
L 191.786574 129.671578 
L 192.040464 135.715419 
L 192.294354 127.628704 
L 192.548244 133.797722 
L 192.802135 143.847441 
L 193.056025 146.814325 
L 193.309915 127.251616 
L 193.563805 135.084545 
L 193.817696 147.175428 
L 194.071586 132.290254 
L 194.325476 126.772882 
L 194.579366 141.284636 
L 194.833257 142.135783 
L 195.341037 135.330015 
L 195.594927 133.840243 
L 195.848818 135.832127 
L 196.102708 133.248896 
L 196.610488 135.58656 
L 196.864379 143.335054 
L 197.372159 130.660203 
L 197.626049 135.39972 
L 197.87994 134.83633 
L 198.13383 142.801041 
L 198.38772 146.001824 
L 198.64161 153.525907 
L 198.895501 105.901034 
L 199.149391 137.136742 
L 199.403281 135.14425 
L 199.657171 129.396689 
L 199.911062 130.246636 
L 200.164952 133.304657 
L 200.418842 147.628578 
L 200.672732 106.313098 
L 200.926623 132.132625 
L 201.180513 123.384652 
L 201.434403 141.282967 
L 201.688293 130.264483 
L 202.196074 143.570994 
L 202.449964 131.319475 
L 202.703854 133.384582 
L 202.957745 141.983188 
L 203.211635 142.187213 
L 203.465525 119.431928 
L 203.719415 147.966055 
L 203.973306 147.229824 
L 204.227196 132.548179 
L 204.481086 127.310205 
L 204.734976 144.067948 
L 204.988867 150.577753 
L 205.242757 141.27363 
L 205.496647 137.176422 
L 205.750537 130.613765 
L 206.004428 138.327214 
L 206.258318 128.280101 
L 206.512208 132.31719 
L 206.766098 141.263562 
L 207.019989 122.843756 
L 207.273879 133.710832 
L 207.527769 131.470733 
L 207.78166 144.801104 
L 208.03555 136.781032 
L 208.28944 136.625844 
L 208.54333 135.691918 
L 208.797221 129.372594 
L 209.051111 146.26132 
L 209.305001 152.337353 
L 209.558891 154.487197 
L 209.812782 129.68348 
L 210.066672 139.260754 
L 210.320562 142.610601 
L 210.828343 150.680904 
L 211.082233 125.434904 
L 211.336123 148.134883 
L 211.590013 135.467259 
L 211.843904 136.298697 
L 212.097794 128.886991 
L 212.351684 140.676601 
L 212.605574 121.282293 
L 212.859465 147.205508 
L 213.113355 136.434797 
L 213.367245 145.218409 
L 213.621135 106.336462 
L 214.128916 145.5164 
L 214.382806 114.339391 
L 214.636696 129.251955 
L 214.890587 133.185522 
L 215.144477 154.880973 
L 215.398367 130.538061 
L 215.652257 139.359381 
L 215.906148 129.571158 
L 216.160038 135.819811 
L 216.413928 134.736269 
L 216.667818 125.773539 
L 216.921709 128.046919 
L 217.429489 153.950067 
L 217.93727 121.054173 
L 218.19116 139.97918 
L 218.44505 139.88927 
L 218.69894 134.513997 
L 218.952831 150.929381 
L 219.206721 149.077209 
L 219.460611 137.28451 
L 219.714501 136.906443 
L 219.968392 154.682961 
L 220.222282 137.16805 
L 220.476172 111.399788 
L 220.730062 128.534302 
L 220.983953 132.822971 
L 221.237843 142.886855 
L 221.491733 141.587123 
L 221.745623 124.423122 
L 221.999514 133.551176 
L 222.253404 121.758628 
L 222.507294 130.167318 
L 222.761184 148.079605 
L 223.015075 128.905776 
L 223.268965 151.598556 
L 223.522855 132.652488 
L 223.776745 135.42176 
L 224.030636 121.62919 
L 224.538416 143.150476 
L 224.792307 144.914847 
L 225.046197 136.913063 
L 225.300087 139.566633 
L 225.553977 135.665437 
L 225.807868 149.032523 
L 226.061758 116.08764 
L 226.315648 138.481077 
L 226.569538 142.313659 
L 226.823429 155.714163 
L 227.077319 133.825789 
L 227.331209 125.517766 
L 227.585099 142.426146 
L 227.83899 139.285345 
L 228.09288 139.847149 
L 228.34677 118.181171 
L 228.854551 139.900524 
L 229.108441 151.601852 
L 229.362331 129.48602 
L 229.616221 138.244351 
L 229.870112 136.947708 
L 230.124002 129.833454 
L 230.377892 153.077088 
L 230.631782 142.487755 
L 230.885673 124.055978 
L 231.139563 153.47347 
L 231.393453 123.781131 
L 231.647343 120.194489 
L 231.901234 144.514617 
L 232.155124 143.507689 
L 232.409014 135.650735 
L 232.662904 124.028656 
L 232.916795 123.515965 
L 233.170685 135.901336 
L 233.424575 129.302158 
L 233.678465 127.244127 
L 233.932356 140.872586 
L 234.186246 132.945472 
L 234.694026 148.202299 
L 235.201807 139.237597 
L 235.455697 119.105719 
L 235.709587 150.224388 
L 235.963478 135.716302 
L 236.471258 139.018304 
L 236.725148 143.128767 
L 236.979039 122.977401 
L 237.232929 145.406698 
L 237.740709 126.577573 
L 237.9946 143.770123 
L 238.24849 139.8202 
L 238.50238 141.069177 
L 238.75627 148.924145 
L 239.010161 140.409864 
L 239.264051 155.103466 
L 239.517941 145.111121 
L 239.771831 147.177938 
L 240.025722 129.490833 
L 240.279612 135.910052 
L 240.533502 145.54037 
L 240.787393 133.855179 
L 241.041283 146.674378 
L 241.295173 132.808751 
L 241.549063 137.549123 
L 241.802954 139.816641 
L 242.056844 137.831239 
L 242.310734 129.115332 
L 242.564624 146.669219 
L 242.818515 143.647126 
L 243.072405 136.599763 
L 243.326295 137.034543 
L 243.580185 138.181611 
L 243.834076 130.383273 
L 244.087966 138.816982 
L 244.341856 133.216168 
L 244.595746 130.274716 
L 244.849637 152.774215 
L 245.103527 128.468955 
L 245.357417 145.903335 
L 245.611307 126.909119 
L 245.865198 124.755371 
L 246.119088 153.532073 
L 246.372978 120.541386 
L 246.880759 149.086919 
L 247.134649 130.031425 
L 247.388539 149.61918 
L 247.642429 138.823561 
L 247.89632 149.966905 
L 248.15021 142.522773 
L 248.4041 129.204235 
L 248.65799 124.522093 
L 248.911881 143.403614 
L 249.165771 123.274426 
L 249.419661 142.658018 
L 249.673551 118.207942 
L 249.927442 145.679187 
L 250.181332 128.954103 
L 250.689112 151.384104 
L 250.943003 145.967219 
L 251.196893 128.181212 
L 251.450783 135.443358 
L 251.958564 154.136342 
L 252.212454 122.329714 
L 252.466344 120.659142 
L 252.720234 132.437125 
L 252.974125 125.615979 
L 253.228015 125.605291 
L 253.481905 155.933194 
L 253.735795 131.304056 
L 253.989686 132.295992 
L 254.243576 152.62955 
L 254.751356 125.754962 
L 255.005247 126.235393 
L 255.259137 140.965627 
L 255.513027 143.718955 
L 256.020808 135.781773 
L 256.274698 132.425775 
L 256.528588 132.741888 
L 256.782479 123.698916 
L 257.036369 135.799109 
L 257.290259 130.233699 
L 257.544149 138.85822 
L 257.79804 129.393241 
L 258.05193 143.743946 
L 258.30582 127.044074 
L 258.55971 135.751099 
L 258.813601 139.327301 
L 259.067491 149.797994 
L 259.321381 132.264215 
L 259.575271 141.267824 
L 259.829162 143.634134 
L 260.083052 127.515402 
L 260.336942 144.181843 
L 260.590832 118.316954 
L 260.844723 139.532195 
L 261.098613 135.578602 
L 261.606393 143.458507 
L 261.860284 128.322953 
L 262.114174 134.484399 
L 262.368064 155.134912 
L 262.621954 130.89264 
L 262.875845 141.038504 
L 263.129735 136.988298 
L 263.383625 147.2716 
L 263.637515 151.456277 
L 263.891406 137.250333 
L 264.145296 137.495224 
L 264.399186 132.064355 
L 264.653076 137.163319 
L 264.906967 147.129032 
L 265.160857 151.571965 
L 265.414747 128.451136 
L 265.668637 126.800369 
L 265.922528 141.89405 
L 266.176418 115.283648 
L 266.430308 136.323068 
L 266.684198 143.337757 
L 267.191979 165.749635 
L 267.445869 113.392238 
L 267.699759 149.225032 
L 267.95365 142.612504 
L 268.20754 148.051704 
L 268.46143 136.135483 
L 268.71532 136.129773 
L 268.969211 150.984535 
L 269.223101 132.145038 
L 269.476991 130.241933 
L 269.730881 119.222855 
L 269.984772 151.462953 
L 270.238662 154.590624 
L 270.492552 155.318125 
L 270.746442 142.576176 
L 271.000333 139.908124 
L 271.254223 131.937317 
L 271.508113 135.553446 
L 272.015894 133.067655 
L 272.269784 135.776021 
L 272.523674 134.552462 
L 272.777564 111.547031 
L 273.031455 126.356032 
L 273.285345 131.835476 
L 273.539235 144.45898 
L 274.047016 116.996961 
L 274.300906 134.719539 
L 274.554796 129.319481 
L 274.808687 142.032233 
L 275.062577 137.874008 
L 275.570357 149.137411 
L 275.824248 133.776455 
L 276.078138 142.463316 
L 276.332028 126.860461 
L 276.585918 123.752774 
L 277.093699 158.390711 
L 277.347589 141.627106 
L 277.601479 143.403297 
L 277.85537 124.440279 
L 278.10926 143.988423 
L 278.36315 145.609137 
L 278.61704 133.514517 
L 278.870931 139.876388 
L 279.124821 127.250196 
L 279.378711 146.296297 
L 279.632601 126.074081 
L 279.886492 128.53026 
L 280.140382 141.470442 
L 280.394272 121.90714 
L 280.902053 143.784067 
L 281.155943 135.601608 
L 281.409833 151.14775 
L 281.663723 138.712866 
L 281.917614 119.62303 
L 282.425394 143.086136 
L 282.679284 143.210829 
L 282.933175 124.677998 
L 283.187065 141.011016 
L 283.440955 139.886705 
L 283.694845 145.656982 
L 283.948736 122.46642 
L 284.202626 129.771335 
L 284.456516 122.884001 
L 284.710406 141.37314 
L 284.964297 142.406065 
L 285.218187 149.913212 
L 285.472077 139.734386 
L 285.725967 149.326983 
L 285.979858 129.094864 
L 286.233748 136.761461 
L 286.487638 150.893177 
L 286.995419 122.495921 
L 287.249309 137.941616 
L 287.503199 137.900103 
L 287.757089 141.054516 
L 288.01098 137.169925 
L 288.26487 129.135371 
L 288.51876 146.947087 
L 289.026541 125.747652 
L 289.280431 142.920135 
L 289.534321 140.180227 
L 289.788212 121.334454 
L 290.295992 143.847979 
L 290.549882 145.603317 
L 290.803773 136.48118 
L 291.057663 143.799997 
L 291.311553 131.77344 
L 291.565443 126.352625 
L 291.819334 131.290581 
L 292.073224 125.336126 
L 292.327114 126.293512 
L 292.581004 152.561611 
L 292.834895 148.24013 
L 293.088785 145.867476 
L 293.342675 128.781468 
L 293.596565 148.707707 
L 293.850456 155.321504 
L 294.104346 132.667935 
L 294.358236 139.237956 
L 294.612126 132.235969 
L 294.866017 134.043813 
L 295.119907 132.624352 
L 295.373797 142.578879 
L 295.627687 112.427169 
L 295.881578 137.654632 
L 296.135468 139.444395 
L 296.389358 132.624987 
L 296.643248 143.996381 
L 296.897139 143.772344 
L 297.404919 120.048942 
L 297.658809 130.368502 
L 297.9127 135.434779 
L 298.16659 155.214975 
L 298.42048 134.331818 
L 298.67437 141.461684 
L 298.928261 126.242509 
L 299.182151 130.002779 
L 299.436041 136.23022 
L 299.689931 135.796792 
L 299.943822 140.20039 
L 300.197712 125.196771 
L 300.451602 129.950894 
L 300.705492 139.657757 
L 300.959383 126.37032 
L 301.213273 134.011608 
L 301.467163 152.704758 
L 301.974944 127.458248 
L 302.482724 144.700836 
L 302.736614 140.252345 
L 302.990505 144.144191 
L 303.244395 142.644998 
L 303.498285 147.196902 
L 303.752175 117.556269 
L 304.006066 125.94885 
L 304.259956 142.848844 
L 304.513846 139.778065 
L 304.767736 141.165156 
L 305.021627 136.190444 
L 305.275517 136.18272 
L 305.529407 142.10442 
L 305.783298 106.868641 
L 306.037188 138.348205 
L 306.291078 144.027869 
L 306.544968 147.124618 
L 306.798859 129.777983 
L 307.052749 149.113206 
L 307.306639 115.368993 
L 307.560529 127.890738 
L 307.81442 124.231413 
L 308.06831 127.239397 
L 308.3222 144.545869 
L 308.57609 123.26404 
L 308.829981 139.730234 
L 309.083871 136.933199 
L 309.337761 149.021186 
L 309.591651 152.682167 
L 309.845542 135.953001 
L 310.099432 129.596866 
L 310.099432 129.596866 
" clip-path="url(#p207c9cf926)" style="fill: none; stroke: #1f77b4; stroke-opacity: 0.5; stroke-width: 1.5; stroke-linecap: square"/>
   </g>
   <g id="line2d_26">
    <path d="M 68.903691 112.795772 
L 69.157581 114.657107 
L 69.411471 122.38131 
L 69.919252 122.97148 
L 70.173142 123.562176 
L 70.427032 123.81648 
L 70.680922 124.68959 
L 70.934813 125.078826 
L 71.442593 125.372088 
L 71.950374 126.014504 
L 72.458154 125.793125 
L 72.712044 126.366954 
L 72.965935 126.376553 
L 73.219825 126.521565 
L 73.473715 126.336877 
L 73.727605 126.644912 
L 73.981496 126.566869 
L 74.235386 126.323984 
L 74.743166 126.880008 
L 75.250947 126.552878 
L 75.758727 127.62524 
L 76.012618 127.961907 
L 76.520398 127.861927 
L 78.04374 129.648099 
L 78.805411 129.473319 
L 79.313191 129.61557 
L 79.820972 130.219076 
L 80.074862 130.450965 
L 80.582642 130.549516 
L 80.836533 130.41578 
L 81.344313 130.61477 
L 81.598203 131.006959 
L 81.852094 130.930047 
L 82.105984 130.318573 
L 82.359874 130.70826 
L 82.613764 130.555059 
L 84.137106 130.378904 
L 84.390996 130.56308 
L 84.644886 130.461696 
L 84.898777 130.537507 
L 85.406557 130.378394 
L 85.660447 130.401576 
L 85.914338 130.28591 
L 86.168228 130.74392 
L 86.422118 130.662824 
L 86.676008 130.977223 
L 86.929899 131.477542 
L 87.183789 131.395292 
L 87.437679 131.611575 
L 87.691569 131.305528 
L 87.94546 131.592352 
L 88.70713 130.736391 
L 88.961021 130.958137 
L 89.468801 131.752393 
L 89.976582 131.088428 
L 90.230472 131.217304 
L 90.738252 130.890405 
L 91.246033 131.103832 
L 91.753813 131.184548 
L 92.007704 131.237707 
L 92.769374 130.794688 
L 93.023265 130.967691 
L 93.277155 130.879497 
L 93.531045 131.261731 
L 93.784936 131.056551 
L 94.546606 131.133803 
L 94.800497 131.551834 
L 95.054387 131.32454 
L 95.308277 131.465066 
L 95.562167 131.419067 
L 96.069948 131.924386 
L 96.323838 131.857076 
L 96.577728 131.984107 
L 96.831619 132.347054 
L 97.339399 132.194243 
L 97.84718 132.69536 
L 98.10107 132.471206 
L 98.60885 133.195141 
L 98.862741 133.051032 
L 99.116631 133.158291 
L 99.370521 132.63905 
L 99.624411 132.466902 
L 100.132192 131.723193 
L 100.386082 131.995942 
L 100.639972 132.067935 
L 100.893863 132.326736 
L 101.147753 132.122587 
L 101.401643 132.155983 
L 102.163314 131.444895 
L 102.417204 131.464375 
L 102.671094 131.653676 
L 102.924985 131.262045 
L 103.178875 131.292726 
L 103.686655 131.629587 
L 103.940546 131.52459 
L 104.194436 131.67095 
L 104.448326 131.591611 
L 104.702216 131.965527 
L 104.956107 131.625985 
L 105.717777 131.311888 
L 105.971668 130.960498 
L 106.225558 130.808606 
L 106.733338 130.902711 
L 106.987229 130.69853 
L 107.241119 130.918731 
L 107.495009 130.972204 
L 108.00279 131.519924 
L 108.25668 131.326747 
L 108.51057 131.504962 
L 108.76446 131.050196 
L 109.018351 131.356812 
L 109.526131 130.910672 
L 110.033912 131.435653 
L 110.287802 131.215874 
L 110.541692 131.4715 
L 110.795583 131.503092 
L 111.557253 130.81118 
L 111.811144 130.749575 
L 112.065034 131.229441 
L 112.318924 131.272489 
L 112.572814 131.081178 
L 112.826705 131.113641 
L 113.080595 131.39397 
L 113.588375 130.714364 
L 113.842266 130.958708 
L 114.096156 130.843853 
L 114.857827 131.287638 
L 115.111717 131.738751 
L 115.619497 131.461846 
L 115.873388 131.332415 
L 116.635058 131.274827 
L 116.888949 131.462245 
L 117.142839 131.795936 
L 117.396729 131.327405 
L 117.650619 131.872895 
L 117.90451 131.869915 
L 118.1584 132.020146 
L 118.41229 131.829096 
L 118.66618 132.116981 
L 119.427851 131.764973 
L 119.935632 132.064474 
L 120.189522 131.93937 
L 120.443412 132.491989 
L 120.697302 132.268036 
L 120.951193 132.543027 
L 121.458973 131.951487 
L 121.712863 131.999361 
L 121.966754 132.260544 
L 122.220644 132.083725 
L 122.474534 132.046455 
L 122.728424 131.803244 
L 122.982315 131.996261 
L 123.490095 131.988341 
L 123.743985 132.286181 
L 123.997876 132.034694 
L 124.251766 132.163812 
L 124.759546 132.221502 
L 125.013437 131.681392 
L 125.521217 132.330726 
L 125.775107 131.769108 
L 126.028998 131.983125 
L 126.536778 132.680931 
L 126.790669 132.615099 
L 127.044559 132.892411 
L 127.298449 132.713903 
L 128.06012 132.727055 
L 128.5679 133.033616 
L 129.075681 132.736871 
L 129.329571 132.792442 
L 129.583461 132.462705 
L 130.091242 132.397638 
L 130.345132 132.380744 
L 130.599022 132.626864 
L 131.360693 132.716396 
L 131.614583 132.633402 
L 131.868474 132.985245 
L 132.630144 133.098424 
L 133.137925 132.424454 
L 133.391815 132.604142 
L 133.899596 132.649883 
L 134.153486 132.915085 
L 134.407376 132.925871 
L 134.661266 132.758414 
L 134.915157 133.177419 
L 135.169047 132.930681 
L 135.422937 133.039068 
L 135.930718 132.790211 
L 136.184608 133.142815 
L 136.438498 133.028217 
L 136.946279 133.394721 
L 137.454059 132.361461 
L 137.707949 132.706014 
L 137.96184 132.711592 
L 138.21573 132.237791 
L 138.46962 132.984151 
L 138.72351 133.149349 
L 138.977401 133.153283 
L 139.231291 132.714164 
L 139.485181 132.700137 
L 139.739071 132.273049 
L 139.992962 132.324123 
L 140.246852 131.896658 
L 140.500742 132.09453 
L 140.754632 132.028087 
L 141.008523 132.498632 
L 141.262413 132.59712 
L 141.516303 132.921666 
L 142.024084 133.156531 
L 142.277974 133.65378 
L 142.785755 133.481371 
L 143.039645 133.77705 
L 143.293535 133.402933 
L 143.801316 133.570158 
L 144.055206 133.056778 
L 144.309096 133.17273 
L 144.562986 132.692665 
L 145.324657 132.05351 
L 145.578547 132.644281 
L 145.832438 132.555368 
L 146.086328 132.228433 
L 146.340218 132.525704 
L 146.594108 133.063806 
L 146.847999 132.720417 
L 147.101889 132.806513 
L 147.609669 132.46437 
L 147.86356 132.552223 
L 148.11745 132.38166 
L 148.62523 132.503174 
L 148.879121 131.987504 
L 149.133011 131.761091 
L 149.386901 131.932077 
L 149.640791 131.687036 
L 150.148572 132.796104 
L 150.656352 132.733278 
L 150.910243 132.948035 
L 151.164133 132.705805 
L 151.925804 132.681036 
L 152.433584 133.116074 
L 152.687474 133.33472 
L 152.941365 133.791287 
L 153.703035 133.336692 
L 153.956926 133.525482 
L 154.210816 133.459456 
L 154.718596 133.167466 
L 154.972487 132.664177 
L 155.226377 132.706886 
L 155.480267 133.003018 
L 155.734157 132.634555 
L 156.241938 133.025223 
L 157.003609 133.151825 
L 157.511389 133.729488 
L 157.765279 133.918643 
L 158.01917 133.921281 
L 158.78084 134.320377 
L 159.034731 133.698059 
L 159.288621 132.70484 
L 159.542511 133.09096 
L 159.796402 132.530317 
L 160.050292 132.94127 
L 160.304182 132.80769 
L 160.558072 133.062249 
L 160.811963 133.493621 
L 161.065853 133.349072 
L 161.573633 133.618766 
L 161.827524 133.422119 
L 162.081414 133.667705 
L 163.096975 132.91434 
L 163.350865 133.004207 
L 163.604755 133.256812 
L 164.366426 132.708836 
L 165.128097 132.904866 
L 166.905329 130.668184 
L 167.159219 130.432838 
L 167.666999 130.246517 
L 168.42867 130.164491 
L 168.68256 130.367936 
L 168.936451 130.12431 
L 169.952012 130.624068 
L 170.459792 130.689701 
L 170.713682 130.959068 
L 171.221463 130.44598 
L 171.475353 130.391635 
L 171.983134 131.402667 
L 172.237024 131.734414 
L 172.490914 131.882046 
L 172.744804 131.728521 
L 172.998695 131.885787 
L 173.506475 131.403405 
L 174.014256 131.303695 
L 174.268146 131.130249 
L 174.522036 131.435986 
L 174.775926 131.397845 
L 175.283707 131.679389 
L 175.791488 131.816834 
L 176.553158 131.292293 
L 177.060939 131.349396 
L 177.314829 131.743834 
L 177.568719 131.78485 
L 177.82261 131.592394 
L 178.0765 131.74401 
L 178.58428 131.570528 
L 179.345951 132.293027 
L 179.599841 132.110334 
L 180.107622 132.261041 
L 180.361512 132.577764 
L 180.869293 132.632962 
L 181.123183 132.727826 
L 181.377073 132.342035 
L 182.138744 132.517826 
L 182.392634 132.780234 
L 182.646524 132.015439 
L 182.900415 131.910092 
L 183.154305 131.955926 
L 183.408195 131.453548 
L 183.915976 131.724579 
L 184.169866 131.66864 
L 184.423756 131.263437 
L 184.677646 131.405174 
L 184.931537 130.991309 
L 185.439317 131.088503 
L 185.693207 131.309667 
L 185.947098 131.372124 
L 186.200988 131.25454 
L 186.708768 132.207157 
L 186.962659 132.467313 
L 188.23211 131.288354 
L 189.755451 132.222764 
L 190.009342 131.77983 
L 190.771012 131.734119 
L 191.278793 132.378662 
L 191.532683 132.386376 
L 191.786574 132.223384 
L 192.802135 132.92195 
L 193.056025 133.100038 
L 193.563805 132.876161 
L 194.071586 133.276848 
L 194.325476 133.150444 
L 194.833257 133.436997 
L 195.087147 133.266308 
L 195.341037 133.865881 
L 195.594927 133.88967 
L 195.848818 133.71093 
L 196.102708 133.936333 
L 196.610488 133.777703 
L 196.864379 134.064083 
L 197.118269 134.142769 
L 197.372159 134.038606 
L 197.87994 134.463585 
L 198.13383 134.605962 
L 198.38772 134.577067 
L 198.64161 134.919476 
L 198.895501 134.411138 
L 199.149391 134.202009 
L 199.403281 133.75382 
L 199.657171 133.723186 
L 200.164952 134.026629 
L 200.418842 134.552566 
L 200.672732 134.040173 
L 200.926623 134.394885 
L 201.180513 134.237751 
L 201.434403 134.462625 
L 201.688293 134.261985 
L 201.942184 134.359987 
L 202.196074 134.613243 
L 202.449964 134.376798 
L 202.703854 134.638983 
L 202.957745 134.704011 
L 203.211635 135.046065 
L 203.465525 134.800895 
L 203.973306 135.370809 
L 204.481086 135.297468 
L 204.734976 135.464519 
L 204.988867 135.9235 
L 205.242757 136.073018 
L 205.496647 135.939598 
L 205.750537 135.615587 
L 206.004428 135.837098 
L 206.258318 135.70101 
L 206.512208 135.403845 
L 206.766098 135.583311 
L 207.273879 135.353252 
L 207.527769 135.139951 
L 208.03555 135.296391 
L 208.54333 135.349299 
L 208.797221 135.271773 
L 209.558891 136.065878 
L 209.812782 135.952443 
L 210.828343 136.678949 
L 211.082233 136.267611 
L 211.336123 136.15979 
L 211.590013 136.751115 
L 212.097794 136.609209 
L 212.351684 136.834807 
L 212.605574 136.65552 
L 212.859465 136.933537 
L 213.113355 136.709661 
L 213.367245 137.487768 
L 213.621135 136.971844 
L 214.128916 137.078242 
L 214.636696 136.597492 
L 214.890587 136.389783 
L 215.144477 136.861013 
L 215.652257 136.751606 
L 215.906148 136.499285 
L 216.160038 136.827043 
L 216.413928 136.562447 
L 216.667818 136.133321 
L 216.921709 136.043296 
L 217.429489 136.567851 
L 217.93727 135.879105 
L 218.19116 135.935161 
L 218.44505 136.120671 
L 218.69894 136.044406 
L 219.206721 136.832592 
L 219.460611 136.753011 
L 220.222282 137.567654 
L 220.476172 136.899628 
L 220.983953 136.658636 
L 221.491733 137.046825 
L 222.253404 135.579766 
L 222.507294 135.589443 
L 222.761184 135.76582 
L 223.015075 135.491723 
L 223.268965 135.574288 
L 223.522855 135.21372 
L 223.776745 135.413457 
L 224.030636 134.883343 
L 224.284526 134.824656 
L 224.538416 134.961692 
L 224.792307 135.282249 
L 225.046197 135.206978 
L 225.300087 135.572665 
L 225.553977 135.341863 
L 225.807868 135.593818 
L 226.061758 135.011202 
L 226.569538 136.010946 
L 226.823429 136.214901 
L 227.077319 136.604629 
L 227.331209 136.529945 
L 227.585099 136.714758 
L 227.83899 136.402845 
L 228.09288 136.589027 
L 228.34677 136.165463 
L 228.854551 136.282422 
L 229.108441 136.619734 
L 229.362331 136.693983 
L 229.616221 136.897932 
L 229.870112 136.76377 
L 230.124002 136.281438 
L 230.631782 137.044452 
L 230.885673 136.725988 
L 231.139563 136.997672 
L 231.393453 136.783015 
L 231.647343 136.168317 
L 231.901234 136.077065 
L 232.155124 136.201529 
L 232.409014 136.176414 
L 232.662904 135.563328 
L 232.916795 135.290287 
L 233.170685 135.780318 
L 233.424575 135.795675 
L 234.186246 135.470979 
L 235.201807 136.691162 
L 235.455697 136.111684 
L 235.709587 136.538057 
L 235.963478 136.220412 
L 236.471258 136.384331 
L 236.725148 136.814323 
L 236.979039 136.623212 
L 237.232929 136.668337 
L 237.740709 136.306712 
L 238.24849 136.473877 
L 238.50238 136.31461 
L 238.75627 136.97134 
L 239.010161 137.009916 
L 239.264051 137.265712 
L 239.517941 137.053651 
L 239.771831 137.320694 
L 240.025722 137.400155 
L 240.279612 137.269833 
L 240.533502 137.394934 
L 240.787393 137.275095 
L 241.041283 137.844959 
L 241.549063 137.827338 
L 241.802954 137.591634 
L 242.056844 137.758538 
L 242.310734 137.575958 
L 242.818515 138.046661 
L 243.072405 137.717115 
L 243.326295 137.60805 
L 243.580185 137.890563 
L 243.834076 137.428759 
L 244.341856 137.98991 
L 244.595746 137.705112 
L 244.849637 137.890442 
L 245.103527 137.746807 
L 245.357417 138.1843 
L 245.611307 138.252163 
L 245.865198 138.029244 
L 246.119088 138.513842 
L 246.626868 138.231465 
L 246.880759 138.554294 
L 247.134649 138.352419 
L 247.388539 138.380757 
L 247.642429 138.290342 
L 247.89632 138.504928 
L 248.15021 138.973269 
L 248.65799 138.328982 
L 248.911881 138.452016 
L 249.165771 138.137138 
L 249.927442 138.037784 
L 250.181332 137.873484 
L 250.689112 138.325237 
L 250.943003 138.448177 
L 251.450783 137.920802 
L 251.704673 138.051547 
L 251.958564 138.032205 
L 252.466344 137.046201 
L 252.720234 137.105126 
L 252.974125 136.899245 
L 253.228015 136.500543 
L 253.481905 136.942104 
L 253.735795 136.634697 
L 253.989686 136.624442 
L 254.243576 136.926051 
L 254.497466 136.840584 
L 254.751356 136.599058 
L 255.766917 136.471558 
L 256.528588 136.378558 
L 256.782479 136.076197 
L 257.290259 136.127035 
L 257.544149 135.848715 
L 258.30582 135.826712 
L 258.55971 136.046627 
L 258.813601 135.762531 
L 259.067491 136.347664 
L 259.321381 136.323819 
L 259.575271 136.167437 
L 259.829162 136.439491 
L 260.083052 135.997416 
L 260.336942 136.104581 
L 260.590832 135.471582 
L 260.844723 135.411771 
L 261.098613 135.539258 
L 261.352503 135.839224 
L 262.114174 135.77782 
L 262.368064 136.516359 
L 262.621954 136.220628 
L 262.875845 136.462316 
L 263.383625 136.288808 
L 264.145296 136.621009 
L 264.653076 135.983893 
L 265.160857 137.098136 
L 265.668637 137.042104 
L 265.922528 137.367879 
L 266.176418 136.554888 
L 266.430308 136.655268 
L 266.684198 136.876103 
L 266.938089 136.898868 
L 267.191979 137.502994 
L 267.445869 137.25574 
L 267.699759 137.715532 
L 268.71532 137.790066 
L 268.969211 138.161241 
L 269.223101 138.149304 
L 269.476991 138.280164 
L 269.730881 137.948639 
L 270.492552 139.20637 
L 270.746442 139.183015 
L 271.000333 139.440296 
L 271.508113 139.288543 
L 271.762003 138.981798 
L 272.015894 138.997867 
L 272.523674 138.706398 
L 273.031455 138.030514 
L 273.285345 138.300884 
L 273.539235 138.39942 
L 273.793126 138.266201 
L 274.047016 137.815732 
L 274.300906 137.640953 
L 274.554796 137.660883 
L 274.808687 137.81184 
L 275.062577 137.466622 
L 275.570357 137.906591 
L 276.078138 137.746189 
L 276.585918 136.984321 
L 276.839809 137.062239 
L 277.093699 137.588766 
L 277.347589 137.678042 
L 277.601479 137.603527 
L 277.85537 137.060893 
L 278.36315 137.747814 
L 278.61704 137.580224 
L 278.870931 138.072078 
L 279.124821 137.890621 
L 279.378711 137.949792 
L 279.886492 136.651531 
L 280.140382 137.213095 
L 280.394272 136.666737 
L 280.902053 136.375007 
L 281.155943 136.36433 
L 281.409833 136.664689 
L 281.917614 136.168816 
L 282.171504 136.224442 
L 282.425394 136.701708 
L 282.679284 136.536666 
L 282.933175 135.938413 
L 283.187065 135.652271 
L 283.440955 135.598481 
L 283.694845 135.713459 
L 284.456516 135.176863 
L 285.218187 135.782789 
L 285.725967 136.805955 
L 286.233748 136.597192 
L 286.741528 137.418559 
L 286.995419 137.174087 
L 287.249309 137.346529 
L 287.503199 137.263887 
L 287.757089 137.327497 
L 288.01098 137.175051 
L 288.26487 136.775011 
L 288.51876 137.038423 
L 288.77265 136.866366 
L 289.026541 136.84411 
L 289.280431 137.227457 
L 289.534321 137.203239 
L 289.788212 136.462114 
L 290.042102 136.33561 
L 290.295992 136.344504 
L 290.549882 136.767765 
L 291.057663 136.581437 
L 291.311553 136.546616 
L 291.565443 136.27614 
L 291.819334 136.356948 
L 292.073224 135.937745 
L 292.327114 135.942133 
L 292.581004 136.42276 
L 292.834895 136.558154 
L 293.088785 137.037361 
L 293.342675 136.967117 
L 293.596565 137.06559 
L 293.850456 137.459988 
L 294.104346 137.090392 
L 294.358236 137.100893 
L 294.612126 137.353152 
L 294.866017 137.373563 
L 295.119907 137.164327 
L 295.373797 137.151688 
L 295.627687 136.906672 
L 296.135468 136.830698 
L 296.389358 136.570058 
L 296.897139 137.280677 
L 297.151029 137.479629 
L 297.658809 136.812394 
L 297.9127 136.522825 
L 298.16659 136.832437 
L 298.42048 136.532534 
L 298.67437 136.77987 
L 298.928261 136.569491 
L 299.182151 136.151683 
L 299.436041 136.154493 
L 299.689931 136.42051 
L 299.943822 136.465686 
L 300.451602 135.989547 
L 300.959383 135.984002 
L 301.213273 135.725293 
L 301.721053 136.380437 
L 301.974944 136.071199 
L 302.228834 135.964709 
L 302.482724 136.432037 
L 302.990505 136.53697 
L 303.244395 136.477803 
L 303.498285 136.692118 
L 303.752175 136.167243 
L 304.006066 136.050751 
L 304.767736 136.867006 
L 305.021627 137.064945 
L 305.275517 136.737367 
L 305.529407 136.614653 
L 305.783298 135.834676 
L 306.037188 136.026011 
L 306.798859 135.710677 
L 307.052749 135.908182 
L 307.306639 135.570843 
L 307.81442 135.279922 
L 308.06831 134.973133 
L 308.3222 135.615507 
L 308.57609 135.327695 
L 309.083871 135.419576 
L 309.845542 135.760697 
L 310.099432 135.951655 
L 310.099432 135.951655 
" clip-path="url(#p207c9cf926)" style="fill: none; stroke: #1f77b4; stroke-width: 1.5; stroke-linecap: square"/>
   </g>
   <g id="patch_3">
    <path d="M 43.78125 177.319219 
L 43.78125 10.999219 
" style="fill: none; stroke: #000000; stroke-width: 0.8; stroke-linejoin: miter; stroke-linecap: square"/>
   </g>
   <g id="patch_4">
    <path d="M 322.78125 177.319219 
L 322.78125 10.999219 
" style="fill: none; stroke: #000000; stroke-width: 0.8; stroke-linejoin: miter; stroke-linecap: square"/>
   </g>
   <g id="patch_5">
    <path d="M 43.78125 177.319219 
L 322.78125 177.319219 
" style="fill: none; stroke: #000000; stroke-width: 0.8; stroke-linejoin: miter; stroke-linecap: square"/>
   </g>
   <g id="patch_6">
    <path d="M 43.78125 10.999219 
L 322.78125 10.999219 
" style="fill: none; stroke: #000000; stroke-width: 0.8; stroke-linejoin: miter; stroke-linecap: square"/>
   </g>
   <g id="legend_1">
    <g id="patch_7">
     <path d="M 234.05625 48.355469 
L 315.78125 48.355469 
Q 317.78125 48.355469 317.78125 46.355469 
L 317.78125 17.999219 
Q 317.78125 15.999219 315.78125 15.999219 
L 234.05625 15.999219 
Q 232.05625 15.999219 232.05625 17.999219 
L 232.05625 46.355469 
Q 232.05625 48.355469 234.05625 48.355469 
z
" style="fill: #ffffff; opacity: 0.8; stroke: #cccccc; stroke-linejoin: miter"/>
    </g>
    <g id="line2d_27">
     <path d="M 236.05625 24.097656 
L 246.05625 24.097656 
L 256.05625 24.097656 
" style="fill: none; stroke: #1f77b4; stroke-opacity: 0.5; stroke-width: 1.5; stroke-linecap: square"/>
    </g>
    <g id="text_15">
     <!-- train -->
     <g transform="translate(264.05625 27.597656) scale(0.1 -0.1)">
      <defs>
       <path id="DejaVuSans-72" d="M 2631 2963 
Q 2534 3019 2420 3045 
Q 2306 3072 2169 3072 
Q 1681 3072 1420 2755 
Q 1159 2438 1159 1844 
L 1159 0 
L 581 0 
L 581 3500 
L 1159 3500 
L 1159 2956 
Q 1341 3275 1631 3429 
Q 1922 3584 2338 3584 
Q 2397 3584 2469 3576 
Q 2541 3569 2628 3553 
L 2631 2963 
z
" transform="scale(0.015625)"/>
       <path id="DejaVuSans-61" d="M 2194 1759 
Q 1497 1759 1228 1600 
Q 959 1441 959 1056 
Q 959 750 1161 570 
Q 1363 391 1709 391 
Q 2188 391 2477 730 
Q 2766 1069 2766 1631 
L 2766 1759 
L 2194 1759 
z
M 3341 1997 
L 3341 0 
L 2766 0 
L 2766 531 
Q 2569 213 2275 61 
Q 1981 -91 1556 -91 
Q 1019 -91 701 211 
Q 384 513 384 1019 
Q 384 1609 779 1909 
Q 1175 2209 1959 2209 
L 2766 2209 
L 2766 2266 
Q 2766 2663 2505 2880 
Q 2244 3097 1772 3097 
Q 1472 3097 1187 3025 
Q 903 2953 641 2809 
L 641 3341 
Q 956 3463 1253 3523 
Q 1550 3584 1831 3584 
Q 2591 3584 2966 3190 
Q 3341 2797 3341 1997 
z
" transform="scale(0.015625)"/>
       <path id="DejaVuSans-69" d="M 603 3500 
L 1178 3500 
L 1178 0 
L 603 0 
L 603 3500 
z
M 603 4863 
L 1178 4863 
L 1178 4134 
L 603 4134 
L 603 4863 
z
" transform="scale(0.015625)"/>
       <path id="DejaVuSans-6e" d="M 3513 2113 
L 3513 0 
L 2938 0 
L 2938 2094 
Q 2938 2591 2744 2837 
Q 2550 3084 2163 3084 
Q 1697 3084 1428 2787 
Q 1159 2491 1159 1978 
L 1159 0 
L 581 0 
L 581 3500 
L 1159 3500 
L 1159 2956 
Q 1366 3272 1645 3428 
Q 1925 3584 2291 3584 
Q 2894 3584 3203 3211 
Q 3513 2838 3513 2113 
z
" transform="scale(0.015625)"/>
      </defs>
      <use xlink:href="#DejaVuSans-74"/>
      <use xlink:href="#DejaVuSans-72" x="39.208984"/>
      <use xlink:href="#DejaVuSans-61" x="80.322266"/>
      <use xlink:href="#DejaVuSans-69" x="141.601562"/>
      <use xlink:href="#DejaVuSans-6e" x="169.384766"/>
     </g>
    </g>
    <g id="line2d_28">
     <path d="M 236.05625 38.775781 
L 246.05625 38.775781 
L 256.05625 38.775781 
" style="fill: none; stroke: #1f77b4; stroke-width: 1.5; stroke-linecap: square"/>
    </g>
    <g id="text_16">
     <!-- train (MA) -->
     <g transform="translate(264.05625 42.275781) scale(0.1 -0.1)">
      <defs>
       <path id="DejaVuSans-20" transform="scale(0.015625)"/>
       <path id="DejaVuSans-28" d="M 1984 4856 
Q 1566 4138 1362 3434 
Q 1159 2731 1159 2009 
Q 1159 1288 1364 580 
Q 1569 -128 1984 -844 
L 1484 -844 
Q 1016 -109 783 600 
Q 550 1309 550 2009 
Q 550 2706 781 3412 
Q 1013 4119 1484 4856 
L 1984 4856 
z
" transform="scale(0.015625)"/>
       <path id="DejaVuSans-4d" d="M 628 4666 
L 1569 4666 
L 2759 1491 
L 3956 4666 
L 4897 4666 
L 4897 0 
L 4281 0 
L 4281 4097 
L 3078 897 
L 2444 897 
L 1241 4097 
L 1241 0 
L 628 0 
L 628 4666 
z
" transform="scale(0.015625)"/>
       <path id="DejaVuSans-41" d="M 2188 4044 
L 1331 1722 
L 3047 1722 
L 2188 4044 
z
M 1831 4666 
L 2547 4666 
L 4325 0 
L 3669 0 
L 3244 1197 
L 1141 1197 
L 716 0 
L 50 0 
L 1831 4666 
z
" transform="scale(0.015625)"/>
       <path id="DejaVuSans-29" d="M 513 4856 
L 1013 4856 
Q 1481 4119 1714 3412 
Q 1947 2706 1947 2009 
Q 1947 1309 1714 600 
Q 1481 -109 1013 -844 
L 513 -844 
Q 928 -128 1133 580 
Q 1338 1288 1338 2009 
Q 1338 2731 1133 3434 
Q 928 4138 513 4856 
z
" transform="scale(0.015625)"/>
      </defs>
      <use xlink:href="#DejaVuSans-74"/>
      <use xlink:href="#DejaVuSans-72" x="39.208984"/>
      <use xlink:href="#DejaVuSans-61" x="80.322266"/>
      <use xlink:href="#DejaVuSans-69" x="141.601562"/>
      <use xlink:href="#DejaVuSans-6e" x="169.384766"/>
      <use xlink:href="#DejaVuSans-20" x="232.763672"/>
      <use xlink:href="#DejaVuSans-28" x="264.550781"/>
      <use xlink:href="#DejaVuSans-4d" x="303.564453"/>
      <use xlink:href="#DejaVuSans-41" x="389.84375"/>
      <use xlink:href="#DejaVuSans-29" x="458.251953"/>
     </g>
    </g>
   </g>
  </g>
 </g>
 <defs>
  <clipPath id="p207c9cf926">
   <rect x="43.78125" y="10.999219" width="279" height="166.32"/>
  </clipPath>
 </defs>
</svg>