<?xml version="1.0" encoding="utf-8" standalone="no"?>
<!DOCTYPE svg PUBLIC "-//W3C//DTD SVG 1.1//EN"
  "http://www.w3.org/Graphics/SVG/1.1/DTD/svg11.dtd">
<svg xmlns:xlink="http://www.w3.org/1999/xlink" width="329.98125pt" height="211.07625pt" viewBox="0 0 329.98125 211.07625" xmlns="http://www.w3.org/2000/svg" version="1.1">
 <metadata>
  <rdf:RDF xmlns:dc="http://purl.org/dc/elements/1.1/" xmlns:cc="http://creativecommons.org/ns#" xmlns:rdf="http://www.w3.org/1999/02/22-rdf-syntax-ns#">
   <cc:Work>
    <dc:type rdf:resource="http://purl.org/dc/dcmitype/StillImage"/>
    <dc:date>2024-06-14T22:02:19.678574</dc:date>
    <dc:format>image/svg+xml</dc:format>
    <dc:creator>
     <cc:Agent>
      <dc:title>Matplotlib v3.9.0, https://matplotlib.org/</dc:title>
     </cc:Agent>
    </dc:creator>
   </cc:Work>
  </rdf:RDF>
 </metadata>
 <defs>
  <style type="text/css">*{stroke-linejoin: round; stroke-linecap: butt}</style>
 </defs>
 <g id="figure_1">
  <g id="patch_1">
   <path d="M 0 211.07625 
L 329.98125 211.07625 
L 329.98125 0 
L 0 0 
z
" style="fill: #ffffff"/>
  </g>
  <g id="axes_1">
   <g id="patch_2">
    <path d="M 43.78125 173.52 
L 322.78125 173.52 
L 322.78125 7.2 
L 43.78125 7.2 
z
" style="fill: #ffffff"/>
   </g>
   <g id="matplotlib.axis_1">
    <g id="xtick_1">
     <g id="line2d_1">
      <defs>
       <path id="mccffff625c" d="M 0 0 
L 0 3.5 
" style="stroke: #000000; stroke-width: 0.8"/>
      </defs>
      <g>
       <use xlink:href="#mccffff625c" x="56.463068" y="173.52" style="stroke: #000000; stroke-width: 0.8"/>
      </g>
     </g>
     <g id="text_1">
      <!-- 0 -->
      <g transform="translate(53.281818 188.118438) scale(0.1 -0.1)">
       <defs>
        <path id="DejaVuSans-30" d="M 2034 4250 
Q 1547 4250 1301 3770 
Q 1056 3291 1056 2328 
Q 1056 1369 1301 889 
Q 1547 409 2034 409 
Q 2525 409 2770 889 
Q 3016 1369 3016 2328 
Q 3016 3291 2770 3770 
Q 2525 4250 2034 4250 
z
M 2034 4750 
Q 2819 4750 3233 4129 
Q 3647 3509 3647 2328 
Q 3647 1150 3233 529 
Q 2819 -91 2034 -91 
Q 1250 -91 836 529 
Q 422 1150 422 2328 
Q 422 3509 836 4129 
Q 1250 4750 2034 4750 
z
" transform="scale(0.015625)"/>
       </defs>
       <use xlink:href="#DejaVuSans-30"/>
      </g>
     </g>
    </g>
    <g id="xtick_2">
     <g id="line2d_2">
      <g>
       <use xlink:href="#mccffff625c" x="107.291999" y="173.52" style="stroke: #000000; stroke-width: 0.8"/>
      </g>
     </g>
     <g id="text_2">
      <!-- 100 -->
      <g transform="translate(97.748249 188.118438) scale(0.1 -0.1)">
       <defs>
        <path id="DejaVuSans-31" d="M 794 531 
L 1825 531 
L 1825 4091 
L 703 3866 
L 703 4441 
L 1819 4666 
L 2450 4666 
L 2450 531 
L 3481 531 
L 3481 0 
L 794 0 
L 794 531 
z
" transform="scale(0.015625)"/>
       </defs>
       <use xlink:href="#DejaVuSans-31"/>
       <use xlink:href="#DejaVuSans-30" x="63.623047"/>
       <use xlink:href="#DejaVuSans-30" x="127.246094"/>
      </g>
     </g>
    </g>
    <g id="xtick_3">
     <g id="line2d_3">
      <g>
       <use xlink:href="#mccffff625c" x="158.120929" y="173.52" style="stroke: #000000; stroke-width: 0.8"/>
      </g>
     </g>
     <g id="text_3">
      <!-- 200 -->
      <g transform="translate(148.577179 188.118438) scale(0.1 -0.1)">
       <defs>
        <path id="DejaVuSans-32" d="M 1228 531 
L 3431 531 
L 3431 0 
L 469 0 
L 469 531 
Q 828 903 1448 1529 
Q 2069 2156 2228 2338 
Q 2531 2678 2651 2914 
Q 2772 3150 2772 3378 
Q 2772 3750 2511 3984 
Q 2250 4219 1831 4219 
Q 1534 4219 1204 4116 
Q 875 4013 500 3803 
L 500 4441 
Q 881 4594 1212 4672 
Q 1544 4750 1819 4750 
Q 2544 4750 2975 4387 
Q 3406 4025 3406 3419 
Q 3406 3131 3298 2873 
Q 3191 2616 2906 2266 
Q 2828 2175 2409 1742 
Q 1991 1309 1228 531 
z
" transform="scale(0.015625)"/>
       </defs>
       <use xlink:href="#DejaVuSans-32"/>
       <use xlink:href="#DejaVuSans-30" x="63.623047"/>
       <use xlink:href="#DejaVuSans-30" x="127.246094"/>
      </g>
     </g>
    </g>
    <g id="xtick_4">
     <g id="line2d_4">
      <g>
       <use xlink:href="#mccffff625c" x="208.94986" y="173.52" style="stroke: #000000; stroke-width: 0.8"/>
      </g>
     </g>
     <g id="text_4">
      <!-- 300 -->
      <g transform="translate(199.40611 188.118438) scale(0.1 -0.1)">
       <defs>
        <path id="DejaVuSans-33" d="M 2597 2516 
Q 3050 2419 3304 2112 
Q 3559 1806 3559 1356 
Q 3559 666 3084 287 
Q 2609 -91 1734 -91 
Q 1441 -91 1130 -33 
Q 819 25 488 141 
L 488 750 
Q 750 597 1062 519 
Q 1375 441 1716 441 
Q 2309 441 2620 675 
Q 2931 909 2931 1356 
Q 2931 1769 2642 2001 
Q 2353 2234 1838 2234 
L 1294 2234 
L 1294 2753 
L 1863 2753 
Q 2328 2753 2575 2939 
Q 2822 3125 2822 3475 
Q 2822 3834 2567 4026 
Q 2313 4219 1838 4219 
Q 1578 4219 1281 4162 
Q 984 4106 628 3988 
L 628 4550 
Q 988 4650 1302 4700 
Q 1616 4750 1894 4750 
Q 2613 4750 3031 4423 
Q 3450 4097 3450 3541 
Q 3450 3153 3228 2886 
Q 3006 2619 2597 2516 
z
" transform="scale(0.015625)"/>
       </defs>
       <use xlink:href="#DejaVuSans-33"/>
       <use xlink:href="#DejaVuSans-30" x="63.623047"/>
       <use xlink:href="#DejaVuSans-30" x="127.246094"/>
      </g>
     </g>
    </g>
    <g id="xtick_5">
     <g id="line2d_5">
      <g>
       <use xlink:href="#mccffff625c" x="259.778791" y="173.52" style="stroke: #000000; stroke-width: 0.8"/>
      </g>
     </g>
     <g id="text_5">
      <!-- 400 -->
      <g transform="translate(250.235041 188.118438) scale(0.1 -0.1)">
       <defs>
        <path id="DejaVuSans-34" d="M 2419 4116 
L 825 1625 
L 2419 1625 
L 2419 4116 
z
M 2253 4666 
L 3047 4666 
L 3047 1625 
L 3713 1625 
L 3713 1100 
L 3047 1100 
L 3047 0 
L 2419 0 
L 2419 1100 
L 313 1100 
L 313 1709 
L 2253 4666 
z
" transform="scale(0.015625)"/>
       </defs>
       <use xlink:href="#DejaVuSans-34"/>
       <use xlink:href="#DejaVuSans-30" x="63.623047"/>
       <use xlink:href="#DejaVuSans-30" x="127.246094"/>
      </g>
     </g>
    </g>
    <g id="xtick_6">
     <g id="line2d_6">
      <g>
       <use xlink:href="#mccffff625c" x="310.607721" y="173.52" style="stroke: #000000; stroke-width: 0.8"/>
      </g>
     </g>
     <g id="text_6">
      <!-- 500 -->
      <g transform="translate(301.063971 188.118438) scale(0.1 -0.1)">
       <defs>
        <path id="DejaVuSans-35" d="M 691 4666 
L 3169 4666 
L 3169 4134 
L 1269 4134 
L 1269 2991 
Q 1406 3038 1543 3061 
Q 1681 3084 1819 3084 
Q 2600 3084 3056 2656 
Q 3513 2228 3513 1497 
Q 3513 744 3044 326 
Q 2575 -91 1722 -91 
Q 1428 -91 1123 -41 
Q 819 9 494 109 
L 494 744 
Q 775 591 1075 516 
Q 1375 441 1709 441 
Q 2250 441 2565 725 
Q 2881 1009 2881 1497 
Q 2881 1984 2565 2268 
Q 2250 2553 1709 2553 
Q 1456 2553 1204 2497 
Q 953 2441 691 2322 
L 691 4666 
z
" transform="scale(0.015625)"/>
       </defs>
       <use xlink:href="#DejaVuSans-35"/>
       <use xlink:href="#DejaVuSans-30" x="63.623047"/>
       <use xlink:href="#DejaVuSans-30" x="127.246094"/>
      </g>
     </g>
    </g>
    <g id="text_7">
     <!-- step -->
     <g transform="translate(172.465625 201.796563) scale(0.1 -0.1)">
      <defs>
       <path id="DejaVuSans-73" d="M 2834 3397 
L 2834 2853 
Q 2591 2978 2328 3040 
Q 2066 3103 1784 3103 
Q 1356 3103 1142 2972 
Q 928 2841 928 2578 
Q 928 2378 1081 2264 
Q 1234 2150 1697 2047 
L 1894 2003 
Q 2506 1872 2764 1633 
Q 3022 1394 3022 966 
Q 3022 478 2636 193 
Q 2250 -91 1575 -91 
Q 1294 -91 989 -36 
Q 684 19 347 128 
L 347 722 
Q 666 556 975 473 
Q 1284 391 1588 391 
Q 1994 391 2212 530 
Q 2431 669 2431 922 
Q 2431 1156 2273 1281 
Q 2116 1406 1581 1522 
L 1381 1569 
Q 847 1681 609 1914 
Q 372 2147 372 2553 
Q 372 3047 722 3315 
Q 1072 3584 1716 3584 
Q 2034 3584 2315 3537 
Q 2597 3491 2834 3397 
z
" transform="scale(0.015625)"/>
       <path id="DejaVuSans-74" d="M 1172 4494 
L 1172 3500 
L 2356 3500 
L 2356 3053 
L 1172 3053 
L 1172 1153 
Q 1172 725 1289 603 
Q 1406 481 1766 481 
L 2356 481 
L 2356 0 
L 1766 0 
Q 1100 0 847 248 
Q 594 497 594 1153 
L 594 3053 
L 172 3053 
L 172 3500 
L 594 3500 
L 594 4494 
L 1172 4494 
z
" transform="scale(0.015625)"/>
       <path id="DejaVuSans-65" d="M 3597 1894 
L 3597 1613 
L 953 1613 
Q 991 1019 1311 708 
Q 1631 397 2203 397 
Q 2534 397 2845 478 
Q 3156 559 3463 722 
L 3463 178 
Q 3153 47 2828 -22 
Q 2503 -91 2169 -91 
Q 1331 -91 842 396 
Q 353 884 353 1716 
Q 353 2575 817 3079 
Q 1281 3584 2069 3584 
Q 2775 3584 3186 3129 
Q 3597 2675 3597 1894 
z
M 3022 2063 
Q 3016 2534 2758 2815 
Q 2500 3097 2075 3097 
Q 1594 3097 1305 2825 
Q 1016 2553 972 2059 
L 3022 2063 
z
" transform="scale(0.015625)"/>
       <path id="DejaVuSans-70" d="M 1159 525 
L 1159 -1331 
L 581 -1331 
L 581 3500 
L 1159 3500 
L 1159 2969 
Q 1341 3281 1617 3432 
Q 1894 3584 2278 3584 
Q 2916 3584 3314 3078 
Q 3713 2572 3713 1747 
Q 3713 922 3314 415 
Q 2916 -91 2278 -91 
Q 1894 -91 1617 61 
Q 1341 213 1159 525 
z
M 3116 1747 
Q 3116 2381 2855 2742 
Q 2594 3103 2138 3103 
Q 1681 3103 1420 2742 
Q 1159 2381 1159 1747 
Q 1159 1113 1420 752 
Q 1681 391 2138 391 
Q 2594 391 2855 752 
Q 3116 1113 3116 1747 
z
" transform="scale(0.015625)"/>
      </defs>
      <use xlink:href="#DejaVuSans-73"/>
      <use xlink:href="#DejaVuSans-74" x="52.099609"/>
      <use xlink:href="#DejaVuSans-65" x="91.308594"/>
      <use xlink:href="#DejaVuSans-70" x="152.832031"/>
     </g>
    </g>
   </g>
   <g id="matplotlib.axis_2">
    <g id="ytick_1">
     <g id="line2d_7">
      <defs>
       <path id="me317d31c7d" d="M 0 0 
L -3.5 0 
" style="stroke: #000000; stroke-width: 0.8"/>
      </defs>
      <g>
       <use xlink:href="#me317d31c7d" x="43.78125" y="160.356735" style="stroke: #000000; stroke-width: 0.8"/>
      </g>
     </g>
     <g id="text_8">
      <!-- 2.4 -->
      <g transform="translate(20.878125 164.155953) scale(0.1 -0.1)">
       <defs>
        <path id="DejaVuSans-2e" d="M 684 794 
L 1344 794 
L 1344 0 
L 684 0 
L 684 794 
z
" transform="scale(0.015625)"/>
       </defs>
       <use xlink:href="#DejaVuSans-32"/>
       <use xlink:href="#DejaVuSans-2e" x="63.623047"/>
       <use xlink:href="#DejaVuSans-34" x="95.410156"/>
      </g>
     </g>
    </g>
    <g id="ytick_2">
     <g id="line2d_8">
      <g>
       <use xlink:href="#me317d31c7d" x="43.78125" y="139.406899" style="stroke: #000000; stroke-width: 0.8"/>
      </g>
     </g>
     <g id="text_9">
      <!-- 2.6 -->
      <g transform="translate(20.878125 143.206118) scale(0.1 -0.1)">
       <defs>
        <path id="DejaVuSans-36" d="M 2113 2584 
Q 1688 2584 1439 2293 
Q 1191 2003 1191 1497 
Q 1191 994 1439 701 
Q 1688 409 2113 409 
Q 2538 409 2786 701 
Q 3034 994 3034 1497 
Q 3034 2003 2786 2293 
Q 2538 2584 2113 2584 
z
M 3366 4563 
L 3366 3988 
Q 3128 4100 2886 4159 
Q 2644 4219 2406 4219 
Q 1781 4219 1451 3797 
Q 1122 3375 1075 2522 
Q 1259 2794 1537 2939 
Q 1816 3084 2150 3084 
Q 2853 3084 3261 2657 
Q 3669 2231 3669 1497 
Q 3669 778 3244 343 
Q 2819 -91 2113 -91 
Q 1303 -91 875 529 
Q 447 1150 447 2328 
Q 447 3434 972 4092 
Q 1497 4750 2381 4750 
Q 2619 4750 2861 4703 
Q 3103 4656 3366 4563 
z
" transform="scale(0.015625)"/>
       </defs>
       <use xlink:href="#DejaVuSans-32"/>
       <use xlink:href="#DejaVuSans-2e" x="63.623047"/>
       <use xlink:href="#DejaVuSans-36" x="95.410156"/>
      </g>
     </g>
    </g>
    <g id="ytick_3">
     <g id="line2d_9">
      <g>
       <use xlink:href="#me317d31c7d" x="43.78125" y="118.457063" style="stroke: #000000; stroke-width: 0.8"/>
      </g>
     </g>
     <g id="text_10">
      <!-- 2.8 -->
      <g transform="translate(20.878125 122.256282) scale(0.1 -0.1)">
       <defs>
        <path id="DejaVuSans-38" d="M 2034 2216 
Q 1584 2216 1326 1975 
Q 1069 1734 1069 1313 
Q 1069 891 1326 650 
Q 1584 409 2034 409 
Q 2484 409 2743 651 
Q 3003 894 3003 1313 
Q 3003 1734 2745 1975 
Q 2488 2216 2034 2216 
z
M 1403 2484 
Q 997 2584 770 2862 
Q 544 3141 544 3541 
Q 544 4100 942 4425 
Q 1341 4750 2034 4750 
Q 2731 4750 3128 4425 
Q 3525 4100 3525 3541 
Q 3525 3141 3298 2862 
Q 3072 2584 2669 2484 
Q 3125 2378 3379 2068 
Q 3634 1759 3634 1313 
Q 3634 634 3220 271 
Q 2806 -91 2034 -91 
Q 1263 -91 848 271 
Q 434 634 434 1313 
Q 434 1759 690 2068 
Q 947 2378 1403 2484 
z
M 1172 3481 
Q 1172 3119 1398 2916 
Q 1625 2713 2034 2713 
Q 2441 2713 2670 2916 
Q 2900 3119 2900 3481 
Q 2900 3844 2670 4047 
Q 2441 4250 2034 4250 
Q 1625 4250 1398 4047 
Q 1172 3844 1172 3481 
z
" transform="scale(0.015625)"/>
       </defs>
       <use xlink:href="#DejaVuSans-32"/>
       <use xlink:href="#DejaVuSans-2e" x="63.623047"/>
       <use xlink:href="#DejaVuSans-38" x="95.410156"/>
      </g>
     </g>
    </g>
    <g id="ytick_4">
     <g id="line2d_10">
      <g>
       <use xlink:href="#me317d31c7d" x="43.78125" y="97.507227" style="stroke: #000000; stroke-width: 0.8"/>
      </g>
     </g>
     <g id="text_11">
      <!-- 3.0 -->
      <g transform="translate(20.878125 101.306446) scale(0.1 -0.1)">
       <use xlink:href="#DejaVuSans-33"/>
       <use xlink:href="#DejaVuSans-2e" x="63.623047"/>
       <use xlink:href="#DejaVuSans-30" x="95.410156"/>
      </g>
     </g>
    </g>
    <g id="ytick_5">
     <g id="line2d_11">
      <g>
       <use xlink:href="#me317d31c7d" x="43.78125" y="76.557391" style="stroke: #000000; stroke-width: 0.8"/>
      </g>
     </g>
     <g id="text_12">
      <!-- 3.2 -->
      <g transform="translate(20.878125 80.35661) scale(0.1 -0.1)">
       <use xlink:href="#DejaVuSans-33"/>
       <use xlink:href="#DejaVuSans-2e" x="63.623047"/>
       <use xlink:href="#DejaVuSans-32" x="95.410156"/>
      </g>
     </g>
    </g>
    <g id="ytick_6">
     <g id="line2d_12">
      <g>
       <use xlink:href="#me317d31c7d" x="43.78125" y="55.607556" style="stroke: #000000; stroke-width: 0.8"/>
      </g>
     </g>
     <g id="text_13">
      <!-- 3.4 -->
      <g transform="translate(20.878125 59.406774) scale(0.1 -0.1)">
       <use xlink:href="#DejaVuSans-33"/>
       <use xlink:href="#DejaVuSans-2e" x="63.623047"/>
       <use xlink:href="#DejaVuSans-34" x="95.410156"/>
      </g>
     </g>
    </g>
    <g id="ytick_7">
     <g id="line2d_13">
      <g>
       <use xlink:href="#me317d31c7d" x="43.78125" y="34.65772" style="stroke: #000000; stroke-width: 0.8"/>
      </g>
     </g>
     <g id="text_14">
      <!-- 3.6 -->
      <g transform="translate(20.878125 38.456939) scale(0.1 -0.1)">
       <use xlink:href="#DejaVuSans-33"/>
       <use xlink:href="#DejaVuSans-2e" x="63.623047"/>
       <use xlink:href="#DejaVuSans-36" x="95.410156"/>
      </g>
     </g>
    </g>
    <g id="ytick_8">
     <g id="line2d_14">
      <g>
       <use xlink:href="#me317d31c7d" x="43.78125" y="13.707884" style="stroke: #000000; stroke-width: 0.8"/>
      </g>
     </g>
     <g id="text_15">
      <!-- 3.8 -->
      <g transform="translate(20.878125 17.507103) scale(0.1 -0.1)">
       <use xlink:href="#DejaVuSans-33"/>
       <use xlink:href="#DejaVuSans-2e" x="63.623047"/>
       <use xlink:href="#DejaVuSans-38" x="95.410156"/>
      </g>
     </g>
    </g>
    <g id="text_16">
     <!-- loss -->
     <g transform="translate(14.798438 100.017813) rotate(-90) scale(0.1 -0.1)">
      <defs>
       <path id="DejaVuSans-6c" d="M 603 4863 
L 1178 4863 
L 1178 0 
L 603 0 
L 603 4863 
z
" transform="scale(0.015625)"/>
       <path id="DejaVuSans-6f" d="M 1959 3097 
Q 1497 3097 1228 2736 
Q 959 2375 959 1747 
Q 959 1119 1226 758 
Q 1494 397 1959 397 
Q 2419 397 2687 759 
Q 2956 1122 2956 1747 
Q 2956 2369 2687 2733 
Q 2419 3097 1959 3097 
z
M 1959 3584 
Q 2709 3584 3137 3096 
Q 3566 2609 3566 1747 
Q 3566 888 3137 398 
Q 2709 -91 1959 -91 
Q 1206 -91 779 398 
Q 353 888 353 1747 
Q 353 2609 779 3096 
Q 1206 3584 1959 3584 
z
" transform="scale(0.015625)"/>
      </defs>
      <use xlink:href="#DejaVuSans-6c"/>
      <use xlink:href="#DejaVuSans-6f" x="27.783203"/>
      <use xlink:href="#DejaVuSans-73" x="88.964844"/>
      <use xlink:href="#DejaVuSans-73" x="141.064453"/>
     </g>
    </g>
   </g>
   <g id="line2d_15">
    <path d="M 56.463068 21.087326 
L 56.971357 14.76 
L 57.479647 18.913051 
L 57.987936 30.497935 
L 58.496225 35.362725 
L 59.004515 50.691784 
L 59.512804 53.509467 
L 60.021093 50.787759 
L 60.529383 61.747416 
L 61.037672 62.566193 
L 61.545961 71.038749 
L 62.054251 75.902489 
L 62.56254 68.074841 
L 63.070829 71.948657 
L 63.579118 79.979594 
L 64.087408 82.395594 
L 65.103986 95.605895 
L 65.612276 86.961742 
L 66.628854 99.533755 
L 67.137144 101.997879 
L 67.645433 103.38864 
L 68.153722 94.573489 
L 68.662012 90.947467 
L 69.170301 112.117854 
L 69.67859 99.118884 
L 70.186879 105.178162 
L 70.695169 104.664594 
L 71.203458 107.826846 
L 71.711747 109.578308 
L 72.220037 107.191204 
L 72.728326 110.503725 
L 73.236615 101.594297 
L 73.744905 123.632361 
L 74.253194 114.772557 
L 74.761483 113.786103 
L 75.269772 106.065019 
L 75.778062 118.0155 
L 76.286351 117.311354 
L 76.79464 115.034635 
L 77.30293 118.181578 
L 77.811219 111.453217 
L 78.319508 113.59108 
L 78.827798 114.046209 
L 79.336087 123.147388 
L 79.844376 111.632382 
L 80.352666 113.212422 
L 80.860955 128.758805 
L 81.369244 120.282953 
L 81.877533 129.105097 
L 82.385823 125.988548 
L 82.894112 120.656142 
L 83.402401 131.041093 
L 83.910691 123.98657 
L 84.41898 128.393009 
L 84.927269 118.22773 
L 85.435559 132.824597 
L 85.943848 131.881273 
L 86.452137 126.520697 
L 86.960427 122.443692 
L 87.468716 129.783644 
L 87.977005 132.20826 
L 88.485294 131.394377 
L 88.993584 126.325374 
L 89.501873 118.633111 
L 90.518452 134.629054 
L 91.026741 126.642296 
L 91.53503 135.456073 
L 92.04332 132.22709 
L 92.551609 143.842967 
L 93.059898 126.973828 
L 93.568188 123.767971 
L 94.076477 133.620099 
L 94.584766 129.629679 
L 95.601345 134.698732 
L 96.109634 131.134621 
L 96.617923 138.52702 
L 97.126213 128.862648 
L 97.634502 135.000994 
L 98.142791 126.578462 
L 98.651081 137.271569 
L 99.15937 140.688183 
L 99.667659 133.051137 
L 100.175948 135.55532 
L 100.684238 123.919214 
L 101.192527 132.328685 
L 101.700816 143.360517 
L 102.209106 144.842683 
L 102.717395 139.350367 
L 103.225684 131.458236 
L 103.733974 133.168641 
L 104.242263 134.386905 
L 104.750552 131.215263 
L 105.258842 145.026742 
L 105.767131 140.859231 
L 106.27542 137.860484 
L 106.783709 131.905124 
L 107.291999 136.505012 
L 107.800288 134.124277 
L 108.308577 136.422623 
L 108.816867 128.722792 
L 109.325156 134.931241 
L 109.833445 136.28047 
L 110.341735 135.3331 
L 110.850024 145.302482 
L 111.358313 140.469909 
L 111.866603 129.360308 
L 112.374892 145.906132 
L 112.883181 133.549072 
L 113.39147 141.905023 
L 113.89976 128.728262 
L 114.408049 143.288466 
L 114.916338 136.322976 
L 115.424628 138.198185 
L 115.932917 142.896897 
L 116.441206 150.259576 
L 116.949496 147.740583 
L 117.457785 137.322766 
L 117.966074 137.486122 
L 118.474363 141.546719 
L 118.982653 134.661945 
L 119.490942 139.764064 
L 119.999231 148.308495 
L 120.507521 141.007827 
L 121.01581 138.585659 
L 121.524099 142.744979 
L 122.032389 140.923814 
L 122.540678 140.608091 
L 123.048967 134.436803 
L 123.557257 131.661301 
L 124.573835 152.992697 
L 125.082124 127.109537 
L 125.590414 135.640233 
L 126.098703 120.623501 
L 126.606992 146.578111 
L 127.115282 131.940537 
L 127.623571 134.704626 
L 128.13186 134.186912 
L 128.64015 139.323196 
L 129.148439 134.463051 
L 129.656728 136.54637 
L 130.165018 135.416764 
L 130.673307 130.168421 
L 131.181596 147.00954 
L 131.689885 136.57956 
L 132.198175 136.848981 
L 132.706464 146.263562 
L 133.214753 136.017792 
L 133.723043 137.931086 
L 134.231332 142.085087 
L 134.739621 137.216851 
L 135.247911 150.80591 
L 135.7562 132.634893 
L 136.264489 129.800452 
L 136.772779 139.511451 
L 137.281068 137.289026 
L 137.789357 142.380306 
L 138.297646 150.691354 
L 138.805936 146.104052 
L 139.314225 139.209014 
L 139.822514 127.046128 
L 140.330804 149.371845 
L 140.839093 146.001333 
L 141.347382 139.986184 
L 141.855672 142.53642 
L 142.363961 148.556539 
L 142.87225 141.818438 
L 143.380539 144.008221 
L 143.888829 130.355652 
L 144.397118 133.746318 
L 144.905407 150.108232 
L 145.413697 140.728916 
L 146.430275 136.885094 
L 146.938565 136.793189 
L 147.446854 138.689701 
L 147.955143 133.12636 
L 148.463433 143.498374 
L 148.971722 132.537619 
L 149.480011 148.701089 
L 149.9883 146.696189 
L 150.49659 148.960296 
L 151.004879 149.276993 
L 151.513168 124.918605 
L 152.021458 152.62715 
L 152.529747 149.771481 
L 153.038036 137.305509 
L 153.546326 139.133916 
L 154.054615 136.719615 
L 154.562904 146.206271 
L 155.071194 133.886073 
L 155.579483 132.833613 
L 156.087772 129.767087 
L 156.596061 147.688937 
L 157.104351 147.51669 
L 157.61264 140.737532 
L 158.120929 140.866148 
L 158.629219 144.571313 
L 159.137508 140.739255 
L 159.645797 138.583161 
L 160.154087 132.006619 
L 160.662376 153.661704 
L 161.170665 136.192361 
L 161.678954 132.593062 
L 162.187244 154.203219 
L 162.695533 137.375811 
L 163.203822 153.742621 
L 163.712112 141.375596 
L 164.220401 147.580249 
L 164.72869 136.684951 
L 165.23698 139.602282 
L 165.745269 140.597626 
L 166.253558 130.572278 
L 167.270137 136.893535 
L 167.778426 142.291273 
L 168.286715 153.405894 
L 168.795005 143.524946 
L 169.303294 148.329523 
L 169.811583 146.150254 
L 170.319873 134.064289 
L 170.828162 143.778434 
L 171.336451 143.946885 
L 172.35303 138.629713 
L 172.861319 149.897201 
L 173.369609 128.569127 
L 173.877898 151.889963 
L 174.386187 137.997767 
L 174.894476 150.556843 
L 175.402766 157.581272 
L 175.911055 150.125714 
L 176.419344 138.143542 
L 176.927634 144.539396 
L 177.435923 146.534431 
L 177.944212 137.007717 
L 178.452502 142.229437 
L 178.960791 150.312571 
L 179.46908 156.592945 
L 179.97737 147.942599 
L 180.485659 141.394926 
L 180.993948 145.861078 
L 181.502237 146.125105 
L 182.010527 134.74938 
L 182.518816 156.796185 
L 183.535395 131.623865 
L 184.043684 139.714416 
L 184.551973 142.378034 
L 185.060263 151.012222 
L 185.568552 131.798184 
L 186.076841 147.483974 
L 186.58513 151.005254 
L 187.09342 158.48199 
L 187.601709 138.034879 
L 188.109998 140.784608 
L 188.618288 145.22636 
L 189.126577 145.480622 
L 189.634866 148.793443 
L 190.143156 145.131608 
L 190.651445 144.999745 
L 191.159734 140.343589 
L 191.668024 140.343614 
L 192.176313 149.86943 
L 192.684602 149.576608 
L 193.192891 148.351126 
L 193.701181 144.936111 
L 194.20947 142.302437 
L 194.717759 142.282807 
L 195.226049 139.22677 
L 195.734338 141.884969 
L 196.242627 161.940585 
L 196.750917 137.553977 
L 197.259206 142.456552 
L 197.767495 135.422308 
L 198.275785 144.311632 
L 198.784074 148.499647 
L 199.292363 141.577188 
L 199.800652 139.010819 
L 200.308942 157.224991 
L 200.817231 148.962818 
L 201.32552 150.312146 
L 201.83381 136.991709 
L 202.342099 151.655281 
L 202.850388 139.694811 
L 203.358678 153.722042 
L 203.866967 162.484273 
L 204.375256 151.488429 
L 204.883546 143.96564 
L 205.391835 147.938603 
L 205.900124 147.747651 
L 206.408413 149.669012 
L 206.916703 137.779393 
L 207.424992 149.072105 
L 207.933281 155.97983 
L 208.441571 144.333235 
L 208.94986 147.819202 
L 209.458149 141.136843 
L 209.966439 132.185458 
L 210.474728 151.006403 
L 210.983017 147.281408 
L 211.491306 146.803953 
L 211.999596 150.086555 
L 212.507885 132.768355 
L 213.016174 135.702218 
L 213.524464 140.390691 
L 214.032753 146.926151 
L 214.541042 145.105111 
L 215.049332 141.781126 
L 215.557621 154.984086 
L 216.06591 149.707522 
L 216.5742 141.911816 
L 217.590778 150.884679 
L 218.099067 143.899808 
L 218.607357 153.668622 
L 219.115646 145.092849 
L 219.623935 140.849116 
L 220.132225 145.258252 
L 220.640514 151.259416 
L 221.148803 146.167162 
L 221.657093 139.861289 
L 222.165382 137.145549 
L 222.673671 137.449335 
L 223.181961 148.366086 
L 223.69025 141.822384 
L 224.198539 138.234747 
L 224.706828 141.413182 
L 225.215118 149.335607 
L 226.231696 141.558457 
L 226.739986 133.047916 
L 227.248275 141.386135 
L 228.264854 151.214387 
L 228.773143 148.493654 
L 229.281432 148.790596 
L 229.789721 150.498703 
L 230.8063 140.234827 
L 231.314589 154.548187 
L 231.822879 147.25611 
L 232.331168 143.090521 
L 232.839457 146.365431 
L 233.347747 146.118837 
L 233.856036 150.598974 
L 234.364325 137.744679 
L 234.872615 149.267103 
L 235.380904 133.893116 
L 235.889193 144.164035 
L 236.397482 150.61336 
L 236.905772 149.146852 
L 237.414061 140.427702 
L 237.92235 144.333185 
L 238.43064 142.517264 
L 238.938929 142.93231 
L 239.447218 149.094632 
L 239.955508 147.390046 
L 240.463797 144.631976 
L 240.972086 148.525471 
L 241.480376 157.893299 
L 241.988665 140.811455 
L 242.496954 139.375092 
L 243.513533 151.456312 
L 244.021822 135.604794 
L 244.530111 149.305913 
L 245.038401 152.725698 
L 245.54669 144.332411 
L 246.054979 153.345032 
L 246.563269 160.001567 
L 247.071558 154.144055 
L 247.579847 159.549086 
L 248.088137 142.808088 
L 248.596426 138.100911 
L 249.613004 153.490706 
L 250.629583 148.178055 
L 251.137872 149.399041 
L 251.646162 149.808193 
L 252.154451 148.633159 
L 252.66274 143.693172 
L 253.17103 136.397674 
L 253.679319 148.928429 
L 254.187608 151.817039 
L 254.695897 141.306418 
L 255.204187 154.329663 
L 255.712476 138.969387 
L 256.220765 145.048694 
L 256.729055 144.026253 
L 257.237344 144.497814 
L 257.745633 144.813113 
L 258.253923 137.614689 
L 258.762212 146.478464 
L 259.270501 147.430304 
L 260.28708 136.901202 
L 260.795369 141.649837 
L 261.303658 149.119381 
L 261.811948 142.78199 
L 262.320237 154.823552 
L 262.828526 152.874195 
L 263.336816 155.367938 
L 263.845105 137.149146 
L 264.353394 146.45404 
L 264.861684 135.866748 
L 265.369973 140.229108 
L 265.878262 143.10171 
L 266.386552 146.988886 
L 266.894841 148.276703 
L 267.40313 143.002587 
L 267.911419 151.142112 
L 268.419709 141.830925 
L 268.927998 147.593485 
L 269.436287 150.162501 
L 269.944577 147.996044 
L 270.452866 147.097823 
L 270.961155 155.195042 
L 271.469445 142.343644 
L 271.977734 144.824451 
L 272.486023 137.630348 
L 272.994312 136.185768 
L 274.010891 149.396769 
L 274.51918 143.174085 
L 275.02747 154.564595 
L 275.535759 143.118717 
L 276.044048 140.864775 
L 276.552338 151.595968 
L 277.060627 137.597731 
L 277.568916 144.897226 
L 278.077206 144.590668 
L 278.585495 150.113951 
L 279.093784 131.242035 
L 279.602073 144.424116 
L 280.110363 134.659573 
L 280.618652 145.77217 
L 281.126941 148.24621 
L 281.635231 144.010169 
L 282.14352 153.625167 
L 283.160099 138.201581 
L 283.668388 139.69586 
L 284.176677 158.988016 
L 284.684967 150.519707 
L 285.193256 160.233502 
L 285.701545 139.805421 
L 286.209834 155.401903 
L 286.718124 139.67673 
L 287.226413 139.295624 
L 287.734702 157.718855 
L 288.242992 141.981144 
L 288.751281 140.737532 
L 289.25957 138.916117 
L 289.76786 140.251909 
L 290.784438 147.323715 
L 291.292728 160.795895 
L 291.801017 145.855359 
L 292.309306 143.203729 
L 292.817595 142.587941 
L 293.325885 147.731967 
L 293.834174 133.132703 
L 294.342463 144.040613 
L 294.850753 145.945366 
L 295.359042 151.776705 
L 295.867331 147.350387 
L 296.375621 144.855319 
L 296.88391 150.379552 
L 297.392199 142.29472 
L 297.900488 148.364762 
L 298.408778 152.71421 
L 298.917067 144.402388 
L 299.425356 159.085441 
L 299.933646 140.359273 
L 300.441935 151.524117 
L 300.950224 142.216301 
L 301.458514 145.61763 
L 301.966803 145.570529 
L 302.475092 145.095671 
L 302.983382 146.994156 
L 303.491671 145.244417 
L 303.99996 145.798793 
L 304.508249 153.051586 
L 305.016539 165.96 
L 305.524828 152.218548 
L 306.033117 148.664377 
L 307.049696 138.079308 
L 307.557985 139.04853 
L 308.066275 163.932174 
L 308.574564 149.761991 
L 309.082853 139.73864 
L 309.591143 149.933613 
L 310.099432 139.348095 
L 310.099432 139.348095 
" clip-path="url(#pd83cd4296a)" style="fill: none; stroke: #1f77b4; stroke-width: 1.5; stroke-linecap: square"/>
   </g>
   <g id="patch_3">
    <path d="M 43.78125 173.52 
L 43.78125 7.2 
" style="fill: none; stroke: #000000; stroke-width: 0.8; stroke-linejoin: miter; stroke-linecap: square"/>
   </g>
   <g id="patch_4">
    <path d="M 322.78125 173.52 
L 322.78125 7.2 
" style="fill: none; stroke: #000000; stroke-width: 0.8; stroke-linejoin: miter; stroke-linecap: square"/>
   </g>
   <g id="patch_5">
    <path d="M 43.78125 173.52 
L 322.78125 173.52 
" style="fill: none; stroke: #000000; stroke-width: 0.8; stroke-linejoin: miter; stroke-linecap: square"/>
   </g>
   <g id="patch_6">
    <path d="M 43.78125 7.2 
L 322.78125 7.2 
" style="fill: none; stroke: #000000; stroke-width: 0.8; stroke-linejoin: miter; stroke-linecap: square"/>
   </g>
  </g>
 </g>
 <defs>
  <clipPath id="pd83cd4296a">
   <rect x="43.78125" y="7.2" width="279" height="166.32"/>
  </clipPath>
 </defs>
</svg>