<?xml version="1.0" encoding="utf-8" standalone="no"?>
<!DOCTYPE svg PUBLIC "-//W3C//DTD SVG 1.1//EN"
  "http://www.w3.org/Graphics/SVG/1.1/DTD/svg11.dtd">
<svg xmlns:xlink="http://www.w3.org/1999/xlink" width="385.78125pt" height="224.674688pt" viewBox="0 0 385.78125 224.674688" xmlns="http://www.w3.org/2000/svg" version="1.1">
 <metadata>
  <rdf:RDF xmlns:dc="http://purl.org/dc/elements/1.1/" xmlns:cc="http://creativecommons.org/ns#" xmlns:rdf="http://www.w3.org/1999/02/22-rdf-syntax-ns#">
   <cc:Work>
    <dc:type rdf:resource="http://purl.org/dc/dcmitype/StillImage"/>
    <dc:date>2024-05-25T02:59:46.482033</dc:date>
    <dc:format>image/svg+xml</dc:format>
    <dc:creator>
     <cc:Agent>
      <dc:title>Matplotlib v3.7.1, https://matplotlib.org/</dc:title>
     </cc:Agent>
    </dc:creator>
   </cc:Work>
  </rdf:RDF>
 </metadata>
 <defs>
  <style type="text/css">*{stroke-linejoin: round; stroke-linecap: butt}</style>
 </defs>
 <g id="figure_1">
  <g id="patch_1">
   <path d="M 0 224.674688 
L 385.78125 224.674688 
L 385.78125 0 
L 0 0 
z
" style="fill: #ffffff"/>
  </g>
  <g id="axes_1">
   <g id="patch_2">
    <path d="M 43.78125 187.118437 
L 378.58125 187.118437 
L 378.58125 20.798437 
L 43.78125 20.798437 
z
" style="fill: #ffffff"/>
   </g>
   <g id="matplotlib.axis_1">
    <g id="xtick_1">
     <g id="line2d_1">
      <path d="M 107.377231 187.118437 
L 107.377231 20.798437 
" clip-path="url(#p15723889f1)" style="fill: none; stroke-dasharray: 2.96,1.28; stroke-dashoffset: 0; stroke: #b0b0b0; stroke-opacity: 0.6; stroke-width: 0.8"/>
     </g>
     <g id="line2d_2">
      <defs>
       <path id="me99e507c9d" d="M 0 0 
L 0 3.5 
" style="stroke: #000000; stroke-width: 0.8"/>
      </defs>
      <g>
       <use xlink:href="#me99e507c9d" x="107.377231" y="187.118437" style="stroke: #000000; stroke-width: 0.8"/>
      </g>
     </g>
     <g id="text_1">
      <!-- 200 -->
      <g transform="translate(97.833481 201.716875) scale(0.1 -0.1)">
       <defs>
        <path id="DejaVuSans-32" d="M 1228 531 
L 3431 531 
L 3431 0 
L 469 0 
L 469 531 
Q 828 903 1448 1529 
Q 2069 2156 2228 2338 
Q 2531 2678 2651 2914 
Q 2772 3150 2772 3378 
Q 2772 3750 2511 3984 
Q 2250 4219 1831 4219 
Q 1534 4219 1204 4116 
Q 875 4013 500 3803 
L 500 4441 
Q 881 4594 1212 4672 
Q 1544 4750 1819 4750 
Q 2544 4750 2975 4387 
Q 3406 4025 3406 3419 
Q 3406 3131 3298 2873 
Q 3191 2616 2906 2266 
Q 2828 2175 2409 1742 
Q 1991 1309 1228 531 
z
" transform="scale(0.015625)"/>
        <path id="DejaVuSans-30" d="M 2034 4250 
Q 1547 4250 1301 3770 
Q 1056 3291 1056 2328 
Q 1056 1369 1301 889 
Q 1547 409 2034 409 
Q 2525 409 2770 889 
Q 3016 1369 3016 2328 
Q 3016 3291 2770 3770 
Q 2525 4250 2034 4250 
z
M 2034 4750 
Q 2819 4750 3233 4129 
Q 3647 3509 3647 2328 
Q 3647 1150 3233 529 
Q 2819 -91 2034 -91 
Q 1250 -91 836 529 
Q 422 1150 422 2328 
Q 422 3509 836 4129 
Q 1250 4750 2034 4750 
z
" transform="scale(0.015625)"/>
       </defs>
       <use xlink:href="#DejaVuSans-32"/>
       <use xlink:href="#DejaVuSans-30" x="63.623047"/>
       <use xlink:href="#DejaVuSans-30" x="127.246094"/>
      </g>
     </g>
    </g>
    <g id="xtick_2">
     <g id="line2d_3">
      <path d="M 171.453786 187.118437 
L 171.453786 20.798437 
" clip-path="url(#p15723889f1)" style="fill: none; stroke-dasharray: 2.96,1.28; stroke-dashoffset: 0; stroke: #b0b0b0; stroke-opacity: 0.6; stroke-width: 0.8"/>
     </g>
     <g id="line2d_4">
      <g>
       <use xlink:href="#me99e507c9d" x="171.453786" y="187.118437" style="stroke: #000000; stroke-width: 0.8"/>
      </g>
     </g>
     <g id="text_2">
      <!-- 400 -->
      <g transform="translate(161.910036 201.716875) scale(0.1 -0.1)">
       <defs>
        <path id="DejaVuSans-34" d="M 2419 4116 
L 825 1625 
L 2419 1625 
L 2419 4116 
z
M 2253 4666 
L 3047 4666 
L 3047 1625 
L 3713 1625 
L 3713 1100 
L 3047 1100 
L 3047 0 
L 2419 0 
L 2419 1100 
L 313 1100 
L 313 1709 
L 2253 4666 
z
" transform="scale(0.015625)"/>
       </defs>
       <use xlink:href="#DejaVuSans-34"/>
       <use xlink:href="#DejaVuSans-30" x="63.623047"/>
       <use xlink:href="#DejaVuSans-30" x="127.246094"/>
      </g>
     </g>
    </g>
    <g id="xtick_3">
     <g id="line2d_5">
      <path d="M 235.530341 187.118437 
L 235.530341 20.798437 
" clip-path="url(#p15723889f1)" style="fill: none; stroke-dasharray: 2.96,1.28; stroke-dashoffset: 0; stroke: #b0b0b0; stroke-opacity: 0.6; stroke-width: 0.8"/>
     </g>
     <g id="line2d_6">
      <g>
       <use xlink:href="#me99e507c9d" x="235.530341" y="187.118437" style="stroke: #000000; stroke-width: 0.8"/>
      </g>
     </g>
     <g id="text_3">
      <!-- 600 -->
      <g transform="translate(225.986591 201.716875) scale(0.1 -0.1)">
       <defs>
        <path id="DejaVuSans-36" d="M 2113 2584 
Q 1688 2584 1439 2293 
Q 1191 2003 1191 1497 
Q 1191 994 1439 701 
Q 1688 409 2113 409 
Q 2538 409 2786 701 
Q 3034 994 3034 1497 
Q 3034 2003 2786 2293 
Q 2538 2584 2113 2584 
z
M 3366 4563 
L 3366 3988 
Q 3128 4100 2886 4159 
Q 2644 4219 2406 4219 
Q 1781 4219 1451 3797 
Q 1122 3375 1075 2522 
Q 1259 2794 1537 2939 
Q 1816 3084 2150 3084 
Q 2853 3084 3261 2657 
Q 3669 2231 3669 1497 
Q 3669 778 3244 343 
Q 2819 -91 2113 -91 
Q 1303 -91 875 529 
Q 447 1150 447 2328 
Q 447 3434 972 4092 
Q 1497 4750 2381 4750 
Q 2619 4750 2861 4703 
Q 3103 4656 3366 4563 
z
" transform="scale(0.015625)"/>
       </defs>
       <use xlink:href="#DejaVuSans-36"/>
       <use xlink:href="#DejaVuSans-30" x="63.623047"/>
       <use xlink:href="#DejaVuSans-30" x="127.246094"/>
      </g>
     </g>
    </g>
    <g id="xtick_4">
     <g id="line2d_7">
      <path d="M 299.606896 187.118437 
L 299.606896 20.798437 
" clip-path="url(#p15723889f1)" style="fill: none; stroke-dasharray: 2.96,1.28; stroke-dashoffset: 0; stroke: #b0b0b0; stroke-opacity: 0.6; stroke-width: 0.8"/>
     </g>
     <g id="line2d_8">
      <g>
       <use xlink:href="#me99e507c9d" x="299.606896" y="187.118437" style="stroke: #000000; stroke-width: 0.8"/>
      </g>
     </g>
     <g id="text_4">
      <!-- 800 -->
      <g transform="translate(290.063146 201.716875) scale(0.1 -0.1)">
       <defs>
        <path id="DejaVuSans-38" d="M 2034 2216 
Q 1584 2216 1326 1975 
Q 1069 1734 1069 1313 
Q 1069 891 1326 650 
Q 1584 409 2034 409 
Q 2484 409 2743 651 
Q 3003 894 3003 1313 
Q 3003 1734 2745 1975 
Q 2488 2216 2034 2216 
z
M 1403 2484 
Q 997 2584 770 2862 
Q 544 3141 544 3541 
Q 544 4100 942 4425 
Q 1341 4750 2034 4750 
Q 2731 4750 3128 4425 
Q 3525 4100 3525 3541 
Q 3525 3141 3298 2862 
Q 3072 2584 2669 2484 
Q 3125 2378 3379 2068 
Q 3634 1759 3634 1313 
Q 3634 634 3220 271 
Q 2806 -91 2034 -91 
Q 1263 -91 848 271 
Q 434 634 434 1313 
Q 434 1759 690 2068 
Q 947 2378 1403 2484 
z
M 1172 3481 
Q 1172 3119 1398 2916 
Q 1625 2713 2034 2713 
Q 2441 2713 2670 2916 
Q 2900 3119 2900 3481 
Q 2900 3844 2670 4047 
Q 2441 4250 2034 4250 
Q 1625 4250 1398 4047 
Q 1172 3844 1172 3481 
z
" transform="scale(0.015625)"/>
       </defs>
       <use xlink:href="#DejaVuSans-38"/>
       <use xlink:href="#DejaVuSans-30" x="63.623047"/>
       <use xlink:href="#DejaVuSans-30" x="127.246094"/>
      </g>
     </g>
    </g>
    <g id="xtick_5">
     <g id="line2d_9">
      <path d="M 363.683451 187.118437 
L 363.683451 20.798437 
" clip-path="url(#p15723889f1)" style="fill: none; stroke-dasharray: 2.96,1.28; stroke-dashoffset: 0; stroke: #b0b0b0; stroke-opacity: 0.6; stroke-width: 0.8"/>
     </g>
     <g id="line2d_10">
      <g>
       <use xlink:href="#me99e507c9d" x="363.683451" y="187.118437" style="stroke: #000000; stroke-width: 0.8"/>
      </g>
     </g>
     <g id="text_5">
      <!-- 1000 -->
      <g transform="translate(350.958451 201.716875) scale(0.1 -0.1)">
       <defs>
        <path id="DejaVuSans-31" d="M 794 531 
L 1825 531 
L 1825 4091 
L 703 3866 
L 703 4441 
L 1819 4666 
L 2450 4666 
L 2450 531 
L 3481 531 
L 3481 0 
L 794 0 
L 794 531 
z
" transform="scale(0.015625)"/>
       </defs>
       <use xlink:href="#DejaVuSans-31"/>
       <use xlink:href="#DejaVuSans-30" x="63.623047"/>
       <use xlink:href="#DejaVuSans-30" x="127.246094"/>
       <use xlink:href="#DejaVuSans-30" x="190.869141"/>
      </g>
     </g>
    </g>
    <g id="text_6">
     <!-- step -->
     <g transform="translate(200.365625 215.395) scale(0.1 -0.1)">
      <defs>
       <path id="DejaVuSans-73" d="M 2834 3397 
L 2834 2853 
Q 2591 2978 2328 3040 
Q 2066 3103 1784 3103 
Q 1356 3103 1142 2972 
Q 928 2841 928 2578 
Q 928 2378 1081 2264 
Q 1234 2150 1697 2047 
L 1894 2003 
Q 2506 1872 2764 1633 
Q 3022 1394 3022 966 
Q 3022 478 2636 193 
Q 2250 -91 1575 -91 
Q 1294 -91 989 -36 
Q 684 19 347 128 
L 347 722 
Q 666 556 975 473 
Q 1284 391 1588 391 
Q 1994 391 2212 530 
Q 2431 669 2431 922 
Q 2431 1156 2273 1281 
Q 2116 1406 1581 1522 
L 1381 1569 
Q 847 1681 609 1914 
Q 372 2147 372 2553 
Q 372 3047 722 3315 
Q 1072 3584 1716 3584 
Q 2034 3584 2315 3537 
Q 2597 3491 2834 3397 
z
" transform="scale(0.015625)"/>
       <path id="DejaVuSans-74" d="M 1172 4494 
L 1172 3500 
L 2356 3500 
L 2356 3053 
L 1172 3053 
L 1172 1153 
Q 1172 725 1289 603 
Q 1406 481 1766 481 
L 2356 481 
L 2356 0 
L 1766 0 
Q 1100 0 847 248 
Q 594 497 594 1153 
L 594 3053 
L 172 3053 
L 172 3500 
L 594 3500 
L 594 4494 
L 1172 4494 
z
" transform="scale(0.015625)"/>
       <path id="DejaVuSans-65" d="M 3597 1894 
L 3597 1613 
L 953 1613 
Q 991 1019 1311 708 
Q 1631 397 2203 397 
Q 2534 397 2845 478 
Q 3156 559 3463 722 
L 3463 178 
Q 3153 47 2828 -22 
Q 2503 -91 2169 -91 
Q 1331 -91 842 396 
Q 353 884 353 1716 
Q 353 2575 817 3079 
Q 1281 3584 2069 3584 
Q 2775 3584 3186 3129 
Q 3597 2675 3597 1894 
z
M 3022 2063 
Q 3016 2534 2758 2815 
Q 2500 3097 2075 3097 
Q 1594 3097 1305 2825 
Q 1016 2553 972 2059 
L 3022 2063 
z
" transform="scale(0.015625)"/>
       <path id="DejaVuSans-70" d="M 1159 525 
L 1159 -1331 
L 581 -1331 
L 581 3500 
L 1159 3500 
L 1159 2969 
Q 1341 3281 1617 3432 
Q 1894 3584 2278 3584 
Q 2916 3584 3314 3078 
Q 3713 2572 3713 1747 
Q 3713 922 3314 415 
Q 2916 -91 2278 -91 
Q 1894 -91 1617 61 
Q 1341 213 1159 525 
z
M 3116 1747 
Q 3116 2381 2855 2742 
Q 2594 3103 2138 3103 
Q 1681 3103 1420 2742 
Q 1159 2381 1159 1747 
Q 1159 1113 1420 752 
Q 1681 391 2138 391 
Q 2594 391 2855 752 
Q 3116 1113 3116 1747 
z
" transform="scale(0.015625)"/>
      </defs>
      <use xlink:href="#DejaVuSans-73"/>
      <use xlink:href="#DejaVuSans-74" x="52.099609"/>
      <use xlink:href="#DejaVuSans-65" x="91.308594"/>
      <use xlink:href="#DejaVuSans-70" x="152.832031"/>
     </g>
    </g>
   </g>
   <g id="matplotlib.axis_2">
    <g id="ytick_1">
     <g id="line2d_11">
      <path d="M 43.78125 173.258438 
L 378.58125 173.258438 
" clip-path="url(#p15723889f1)" style="fill: none; stroke-dasharray: 2.96,1.28; stroke-dashoffset: 0; stroke: #b0b0b0; stroke-opacity: 0.6; stroke-width: 0.8"/>
     </g>
     <g id="line2d_12">
      <defs>
       <path id="m2be0441293" d="M 0 0 
L -3.5 0 
" style="stroke: #000000; stroke-width: 0.8"/>
      </defs>
      <g>
       <use xlink:href="#m2be0441293" x="43.78125" y="173.258438" style="stroke: #000000; stroke-width: 0.8"/>
      </g>
     </g>
     <g id="text_7">
      <!-- 0.0 -->
      <g transform="translate(20.878125 177.057656) scale(0.1 -0.1)">
       <defs>
        <path id="DejaVuSans-2e" d="M 684 794 
L 1344 794 
L 1344 0 
L 684 0 
L 684 794 
z
" transform="scale(0.015625)"/>
       </defs>
       <use xlink:href="#DejaVuSans-30"/>
       <use xlink:href="#DejaVuSans-2e" x="63.623047"/>
       <use xlink:href="#DejaVuSans-30" x="95.410156"/>
      </g>
     </g>
    </g>
    <g id="ytick_2">
     <g id="line2d_13">
      <path d="M 43.78125 145.538438 
L 378.58125 145.538438 
" clip-path="url(#p15723889f1)" style="fill: none; stroke-dasharray: 2.96,1.28; stroke-dashoffset: 0; stroke: #b0b0b0; stroke-opacity: 0.6; stroke-width: 0.8"/>
     </g>
     <g id="line2d_14">
      <g>
       <use xlink:href="#m2be0441293" x="43.78125" y="145.538438" style="stroke: #000000; stroke-width: 0.8"/>
      </g>
     </g>
     <g id="text_8">
      <!-- 0.2 -->
      <g transform="translate(20.878125 149.337656) scale(0.1 -0.1)">
       <use xlink:href="#DejaVuSans-30"/>
       <use xlink:href="#DejaVuSans-2e" x="63.623047"/>
       <use xlink:href="#DejaVuSans-32" x="95.410156"/>
      </g>
     </g>
    </g>
    <g id="ytick_3">
     <g id="line2d_15">
      <path d="M 43.78125 117.818438 
L 378.58125 117.818438 
" clip-path="url(#p15723889f1)" style="fill: none; stroke-dasharray: 2.96,1.28; stroke-dashoffset: 0; stroke: #b0b0b0; stroke-opacity: 0.6; stroke-width: 0.8"/>
     </g>
     <g id="line2d_16">
      <g>
       <use xlink:href="#m2be0441293" x="43.78125" y="117.818438" style="stroke: #000000; stroke-width: 0.8"/>
      </g>
     </g>
     <g id="text_9">
      <!-- 0.4 -->
      <g transform="translate(20.878125 121.617656) scale(0.1 -0.1)">
       <use xlink:href="#DejaVuSans-30"/>
       <use xlink:href="#DejaVuSans-2e" x="63.623047"/>
       <use xlink:href="#DejaVuSans-34" x="95.410156"/>
      </g>
     </g>
    </g>
    <g id="ytick_4">
     <g id="line2d_17">
      <path d="M 43.78125 90.098438 
L 378.58125 90.098438 
" clip-path="url(#p15723889f1)" style="fill: none; stroke-dasharray: 2.96,1.28; stroke-dashoffset: 0; stroke: #b0b0b0; stroke-opacity: 0.6; stroke-width: 0.8"/>
     </g>
     <g id="line2d_18">
      <g>
       <use xlink:href="#m2be0441293" x="43.78125" y="90.098438" style="stroke: #000000; stroke-width: 0.8"/>
      </g>
     </g>
     <g id="text_10">
      <!-- 0.6 -->
      <g transform="translate(20.878125 93.897656) scale(0.1 -0.1)">
       <use xlink:href="#DejaVuSans-30"/>
       <use xlink:href="#DejaVuSans-2e" x="63.623047"/>
       <use xlink:href="#DejaVuSans-36" x="95.410156"/>
      </g>
     </g>
    </g>
    <g id="ytick_5">
     <g id="line2d_19">
      <path d="M 43.78125 62.378438 
L 378.58125 62.378438 
" clip-path="url(#p15723889f1)" style="fill: none; stroke-dasharray: 2.96,1.28; stroke-dashoffset: 0; stroke: #b0b0b0; stroke-opacity: 0.6; stroke-width: 0.8"/>
     </g>
     <g id="line2d_20">
      <g>
       <use xlink:href="#m2be0441293" x="43.78125" y="62.378438" style="stroke: #000000; stroke-width: 0.8"/>
      </g>
     </g>
     <g id="text_11">
      <!-- 0.8 -->
      <g transform="translate(20.878125 66.177656) scale(0.1 -0.1)">
       <use xlink:href="#DejaVuSans-30"/>
       <use xlink:href="#DejaVuSans-2e" x="63.623047"/>
       <use xlink:href="#DejaVuSans-38" x="95.410156"/>
      </g>
     </g>
    </g>
    <g id="ytick_6">
     <g id="line2d_21">
      <path d="M 43.78125 34.658437 
L 378.58125 34.658437 
" clip-path="url(#p15723889f1)" style="fill: none; stroke-dasharray: 2.96,1.28; stroke-dashoffset: 0; stroke: #b0b0b0; stroke-opacity: 0.6; stroke-width: 0.8"/>
     </g>
     <g id="line2d_22">
      <g>
       <use xlink:href="#m2be0441293" x="43.78125" y="34.658437" style="stroke: #000000; stroke-width: 0.8"/>
      </g>
     </g>
     <g id="text_12">
      <!-- 1.0 -->
      <g transform="translate(20.878125 38.457656) scale(0.1 -0.1)">
       <use xlink:href="#DejaVuSans-31"/>
       <use xlink:href="#DejaVuSans-2e" x="63.623047"/>
       <use xlink:href="#DejaVuSans-30" x="95.410156"/>
      </g>
     </g>
    </g>
    <g id="text_13">
     <!-- frac dead relu (MA) -->
     <g transform="translate(14.798438 152.056875) rotate(-90) scale(0.1 -0.1)">
      <defs>
       <path id="DejaVuSans-66" d="M 2375 4863 
L 2375 4384 
L 1825 4384 
Q 1516 4384 1395 4259 
Q 1275 4134 1275 3809 
L 1275 3500 
L 2222 3500 
L 2222 3053 
L 1275 3053 
L 1275 0 
L 697 0 
L 697 3053 
L 147 3053 
L 147 3500 
L 697 3500 
L 697 3744 
Q 697 4328 969 4595 
Q 1241 4863 1831 4863 
L 2375 4863 
z
" transform="scale(0.015625)"/>
       <path id="DejaVuSans-72" d="M 2631 2963 
Q 2534 3019 2420 3045 
Q 2306 3072 2169 3072 
Q 1681 3072 1420 2755 
Q 1159 2438 1159 1844 
L 1159 0 
L 581 0 
L 581 3500 
L 1159 3500 
L 1159 2956 
Q 1341 3275 1631 3429 
Q 1922 3584 2338 3584 
Q 2397 3584 2469 3576 
Q 2541 3569 2628 3553 
L 2631 2963 
z
" transform="scale(0.015625)"/>
       <path id="DejaVuSans-61" d="M 2194 1759 
Q 1497 1759 1228 1600 
Q 959 1441 959 1056 
Q 959 750 1161 570 
Q 1363 391 1709 391 
Q 2188 391 2477 730 
Q 2766 1069 2766 1631 
L 2766 1759 
L 2194 1759 
z
M 3341 1997 
L 3341 0 
L 2766 0 
L 2766 531 
Q 2569 213 2275 61 
Q 1981 -91 1556 -91 
Q 1019 -91 701 211 
Q 384 513 384 1019 
Q 384 1609 779 1909 
Q 1175 2209 1959 2209 
L 2766 2209 
L 2766 2266 
Q 2766 2663 2505 2880 
Q 2244 3097 1772 3097 
Q 1472 3097 1187 3025 
Q 903 2953 641 2809 
L 641 3341 
Q 956 3463 1253 3523 
Q 1550 3584 1831 3584 
Q 2591 3584 2966 3190 
Q 3341 2797 3341 1997 
z
" transform="scale(0.015625)"/>
       <path id="DejaVuSans-63" d="M 3122 3366 
L 3122 2828 
Q 2878 2963 2633 3030 
Q 2388 3097 2138 3097 
Q 1578 3097 1268 2742 
Q 959 2388 959 1747 
Q 959 1106 1268 751 
Q 1578 397 2138 397 
Q 2388 397 2633 464 
Q 2878 531 3122 666 
L 3122 134 
Q 2881 22 2623 -34 
Q 2366 -91 2075 -91 
Q 1284 -91 818 406 
Q 353 903 353 1747 
Q 353 2603 823 3093 
Q 1294 3584 2113 3584 
Q 2378 3584 2631 3529 
Q 2884 3475 3122 3366 
z
" transform="scale(0.015625)"/>
       <path id="DejaVuSans-20" transform="scale(0.015625)"/>
       <path id="DejaVuSans-64" d="M 2906 2969 
L 2906 4863 
L 3481 4863 
L 3481 0 
L 2906 0 
L 2906 525 
Q 2725 213 2448 61 
Q 2172 -91 1784 -91 
Q 1150 -91 751 415 
Q 353 922 353 1747 
Q 353 2572 751 3078 
Q 1150 3584 1784 3584 
Q 2172 3584 2448 3432 
Q 2725 3281 2906 2969 
z
M 947 1747 
Q 947 1113 1208 752 
Q 1469 391 1925 391 
Q 2381 391 2643 752 
Q 2906 1113 2906 1747 
Q 2906 2381 2643 2742 
Q 2381 3103 1925 3103 
Q 1469 3103 1208 2742 
Q 947 2381 947 1747 
z
" transform="scale(0.015625)"/>
       <path id="DejaVuSans-6c" d="M 603 4863 
L 1178 4863 
L 1178 0 
L 603 0 
L 603 4863 
z
" transform="scale(0.015625)"/>
       <path id="DejaVuSans-75" d="M 544 1381 
L 544 3500 
L 1119 3500 
L 1119 1403 
Q 1119 906 1312 657 
Q 1506 409 1894 409 
Q 2359 409 2629 706 
Q 2900 1003 2900 1516 
L 2900 3500 
L 3475 3500 
L 3475 0 
L 2900 0 
L 2900 538 
Q 2691 219 2414 64 
Q 2138 -91 1772 -91 
Q 1169 -91 856 284 
Q 544 659 544 1381 
z
M 1991 3584 
L 1991 3584 
z
" transform="scale(0.015625)"/>
       <path id="DejaVuSans-28" d="M 1984 4856 
Q 1566 4138 1362 3434 
Q 1159 2731 1159 2009 
Q 1159 1288 1364 580 
Q 1569 -128 1984 -844 
L 1484 -844 
Q 1016 -109 783 600 
Q 550 1309 550 2009 
Q 550 2706 781 3412 
Q 1013 4119 1484 4856 
L 1984 4856 
z
" transform="scale(0.015625)"/>
       <path id="DejaVuSans-4d" d="M 628 4666 
L 1569 4666 
L 2759 1491 
L 3956 4666 
L 4897 4666 
L 4897 0 
L 4281 0 
L 4281 4097 
L 3078 897 
L 2444 897 
L 1241 4097 
L 1241 0 
L 628 0 
L 628 4666 
z
" transform="scale(0.015625)"/>
       <path id="DejaVuSans-41" d="M 2188 4044 
L 1331 1722 
L 3047 1722 
L 2188 4044 
z
M 1831 4666 
L 2547 4666 
L 4325 0 
L 3669 0 
L 3244 1197 
L 1141 1197 
L 716 0 
L 50 0 
L 1831 4666 
z
" transform="scale(0.015625)"/>
       <path id="DejaVuSans-29" d="M 513 4856 
L 1013 4856 
Q 1481 4119 1714 3412 
Q 1947 2706 1947 2009 
Q 1947 1309 1714 600 
Q 1481 -109 1013 -844 
L 513 -844 
Q 928 -128 1133 580 
Q 1338 1288 1338 2009 
Q 1338 2731 1133 3434 
Q 928 4138 513 4856 
z
" transform="scale(0.015625)"/>
      </defs>
      <use xlink:href="#DejaVuSans-66"/>
      <use xlink:href="#DejaVuSans-72" x="35.205078"/>
      <use xlink:href="#DejaVuSans-61" x="76.318359"/>
      <use xlink:href="#DejaVuSans-63" x="137.597656"/>
      <use xlink:href="#DejaVuSans-20" x="192.578125"/>
      <use xlink:href="#DejaVuSans-64" x="224.365234"/>
      <use xlink:href="#DejaVuSans-65" x="287.841797"/>
      <use xlink:href="#DejaVuSans-61" x="349.365234"/>
      <use xlink:href="#DejaVuSans-64" x="410.644531"/>
      <use xlink:href="#DejaVuSans-20" x="474.121094"/>
      <use xlink:href="#DejaVuSans-72" x="505.908203"/>
      <use xlink:href="#DejaVuSans-65" x="544.771484"/>
      <use xlink:href="#DejaVuSans-6c" x="606.294922"/>
      <use xlink:href="#DejaVuSans-75" x="634.078125"/>
      <use xlink:href="#DejaVuSans-20" x="697.457031"/>
      <use xlink:href="#DejaVuSans-28" x="729.244141"/>
      <use xlink:href="#DejaVuSans-4d" x="768.257812"/>
      <use xlink:href="#DejaVuSans-41" x="854.537109"/>
      <use xlink:href="#DejaVuSans-29" x="922.945312"/>
     </g>
    </g>
   </g>
   <g id="line2d_23">
    <path d="M 58.999432 152.283636 
L 59.319815 152.006436 
L 59.640197 151.544436 
L 59.96058 150.712836 
L 60.280963 150.435636 
L 60.601346 150.897636 
L 60.921728 150.712836 
L 61.242111 150.712836 
L 61.562494 150.250836 
L 62.523642 149.788836 
L 62.844025 149.696436 
L 63.164408 150.250836 
L 63.484791 149.973636 
L 63.805173 149.881236 
L 64.125556 150.158436 
L 64.445939 149.234436 
L 65.086705 148.495236 
L 65.407087 149.049636 
L 65.72747 148.772436 
L 66.047853 149.511636 
L 66.688618 148.495236 
L 67.009001 148.402836 
L 67.329384 148.772436 
L 67.649767 148.495236 
L 67.97015 148.495236 
L 68.290532 147.571236 
L 68.931298 147.109236 
L 69.572063 147.386436 
L 69.892446 147.571236 
L 70.212829 147.201636 
L 70.853594 147.478836 
L 71.49436 148.218036 
L 71.814743 148.125636 
L 72.135126 148.587636 
L 72.455508 148.587636 
L 72.775891 148.772436 
L 73.096274 148.402836 
L 73.737039 148.495236 
L 74.057422 148.218036 
L 74.377805 149.142036 
L 74.698188 148.125636 
L 75.338953 148.310436 
L 75.659336 147.663636 
L 75.979719 148.218036 
L 76.300102 148.402836 
L 77.26125 146.924436 
L 77.581633 146.924436 
L 77.902016 147.109236 
L 78.222398 147.756036 
L 78.542781 147.386436 
L 78.863164 147.386436 
L 79.183547 147.109236 
L 79.503929 147.294036 
L 79.824312 147.016836 
L 80.144695 146.370036 
L 80.785461 146.832036 
L 81.105843 146.462436 
L 81.426226 147.109236 
L 81.746609 146.739636 
L 82.066992 146.554836 
L 82.387374 146.647236 
L 82.707757 146.924436 
L 83.02814 146.647236 
L 83.348523 146.000436 
L 83.668906 146.370036 
L 83.989288 145.446036 
L 84.309671 146.739636 
L 84.630054 147.016836 
L 85.270819 147.109236 
L 85.591202 147.109236 
L 85.911585 146.832036 
L 86.231968 146.924436 
L 86.55235 145.908036 
L 87.193116 145.446036 
L 87.513499 144.614436 
L 87.833882 144.799236 
L 88.154264 143.875236 
L 88.474647 144.522036 
L 88.79503 144.614436 
L 89.115413 145.261236 
L 89.435795 145.353636 
L 89.756178 144.891636 
L 90.076561 144.891636 
L 90.396944 145.076436 
L 91.037709 145.908036 
L 91.358092 145.538436 
L 91.678475 146.000436 
L 91.998858 146.092836 
L 92.31924 146.000436 
L 92.639623 145.538436 
L 92.960006 145.630836 
L 93.280389 146.277636 
L 93.600772 146.462436 
L 93.921154 146.185236 
L 94.241537 145.446036 
L 94.56192 145.630836 
L 94.882303 145.630836 
L 95.202685 146.092836 
L 95.523068 146.185236 
L 96.484217 147.756036 
L 96.804599 147.756036 
L 97.124982 147.478836 
L 97.445365 146.924436 
L 97.765748 147.663636 
L 98.08613 147.663636 
L 98.406513 148.033236 
L 98.726896 148.125636 
L 99.047279 148.587636 
L 99.688044 148.864836 
L 100.008427 149.511636 
L 100.649193 148.772436 
L 100.969575 149.049636 
L 101.289958 148.957236 
L 101.610341 149.142036 
L 101.930724 149.881236 
L 102.251106 150.158436 
L 102.571489 150.805236 
L 102.891872 150.805236 
L 103.212255 149.973636 
L 103.532638 150.712836 
L 103.85302 149.881236 
L 104.173403 150.805236 
L 104.493786 150.250836 
L 104.814169 149.234436 
L 105.775317 148.772436 
L 106.0957 148.218036 
L 106.416083 148.033236 
L 106.736465 148.587636 
L 107.056848 148.495236 
L 107.377231 148.772436 
L 108.017996 148.218036 
L 108.658762 148.864836 
L 109.299528 148.680036 
L 109.61991 148.957236 
L 109.940293 149.049636 
L 110.260676 149.326836 
L 111.542207 148.680036 
L 112.182972 148.772436 
L 112.503355 148.218036 
L 114.105269 148.772436 
L 114.425652 149.234436 
L 114.746035 148.772436 
L 115.066417 148.864836 
L 115.3868 148.772436 
L 116.668331 149.419236 
L 117.309097 149.419236 
L 117.62948 148.772436 
L 117.949862 147.756036 
L 118.270245 147.848436 
L 118.590628 148.218036 
L 118.911011 147.940836 
L 119.231394 149.049636 
L 119.551776 148.587636 
L 119.872159 149.142036 
L 120.192542 149.049636 
L 120.512925 149.326836 
L 120.833307 150.066036 
L 121.15369 149.788836 
L 121.794456 150.250836 
L 122.114839 150.620436 
L 122.755604 149.511636 
L 123.075987 149.142036 
L 123.39637 149.142036 
L 123.716752 149.419236 
L 124.037135 149.973636 
L 124.357518 149.788836 
L 124.998283 149.973636 
L 125.318666 149.511636 
L 125.639049 149.511636 
L 125.959432 149.696436 
L 126.600197 149.604036 
L 126.92058 148.957236 
L 127.240963 149.049636 
L 127.561346 149.419236 
L 127.881728 149.142036 
L 128.202111 149.696436 
L 128.522494 149.696436 
L 128.842877 149.142036 
L 129.16326 150.158436 
L 129.483642 149.696436 
L 129.804025 148.864836 
L 130.124408 148.864836 
L 130.444791 147.663636 
L 130.765173 147.386436 
L 131.085556 147.386436 
L 131.405939 147.940836 
L 131.726322 147.478836 
L 132.046705 147.848436 
L 132.367087 147.663636 
L 132.68747 147.756036 
L 133.328236 148.495236 
L 133.648618 149.234436 
L 133.969001 149.511636 
L 134.289384 149.234436 
L 134.609767 149.419236 
L 135.250532 148.957236 
L 135.570915 149.788836 
L 136.211681 149.326836 
L 136.532063 149.234436 
L 137.172829 149.881236 
L 137.493212 149.881236 
L 137.813594 149.604036 
L 138.133977 149.511636 
L 138.45436 150.250836 
L 139.095126 150.805236 
L 139.415508 150.435636 
L 139.735891 150.620436 
L 140.056274 150.343236 
L 140.376657 150.343236 
L 141.017422 149.881236 
L 141.337805 150.158436 
L 141.658188 150.158436 
L 141.978571 149.788836 
L 142.298953 150.066036 
L 142.619336 149.696436 
L 142.939719 150.250836 
L 143.260102 150.343236 
L 143.900867 148.772436 
L 144.22125 148.310436 
L 144.862016 149.696436 
L 145.182398 148.772436 
L 145.823164 149.881236 
L 146.143547 149.419236 
L 146.784312 151.636836 
L 147.425078 150.343236 
L 147.745461 150.435636 
L 148.065843 149.511636 
L 148.386226 149.419236 
L 148.706609 149.696436 
L 149.026992 149.234436 
L 149.347374 148.495236 
L 149.667757 148.402836 
L 149.98814 148.495236 
L 150.628906 147.940836 
L 150.949288 148.587636 
L 151.269671 148.772436 
L 151.910437 147.201636 
L 152.551202 147.571236 
L 152.871585 146.647236 
L 153.191968 146.185236 
L 153.51235 146.185236 
L 153.832733 146.739636 
L 154.793882 144.984036 
L 155.434647 144.152436 
L 156.075413 144.060036 
L 156.395795 143.690436 
L 156.716178 144.522036 
L 157.036561 144.614436 
L 157.356944 144.522036 
L 158.318092 142.581636 
L 158.638475 142.581636 
L 159.27924 141.657636 
L 159.599623 142.396836 
L 160.240389 142.119636 
L 160.560772 141.288036 
L 160.881154 141.103236 
L 161.201537 141.288036 
L 161.52192 140.641236 
L 161.842303 140.733636 
L 162.162685 141.103236 
L 162.483068 140.918436 
L 162.803451 140.918436 
L 163.123834 140.179236 
L 163.444217 140.456436 
L 163.764599 140.271636 
L 164.084982 140.826036 
L 165.04613 141.657636 
L 165.366513 142.304436 
L 165.686896 142.581636 
L 166.007279 143.136036 
L 166.327661 143.043636 
L 167.28881 140.733636 
L 167.609193 140.641236 
L 167.929575 141.472836 
L 168.570341 140.271636 
L 169.211106 141.103236 
L 169.531489 140.826036 
L 169.851872 140.086836 
L 170.172255 140.733636 
L 170.492638 140.918436 
L 170.81302 141.288036 
L 171.133403 141.010836 
L 171.453786 141.472836 
L 171.774169 141.472836 
L 172.094551 141.288036 
L 172.414934 141.750036 
L 172.735317 141.010836 
L 173.376083 140.548836 
L 173.696465 139.717236 
L 174.337231 141.195636 
L 174.657614 141.195636 
L 174.977996 141.750036 
L 175.618762 141.103236 
L 175.939145 142.212036 
L 176.259528 141.842436 
L 176.57991 142.304436 
L 176.900293 141.934836 
L 177.220676 142.212036 
L 177.541059 142.766436 
L 177.861441 142.489236 
L 178.181824 141.842436 
L 178.502207 142.027236 
L 178.82259 140.918436 
L 179.142972 141.103236 
L 179.463355 140.918436 
L 179.783738 140.918436 
L 180.104121 140.641236 
L 180.744886 140.548836 
L 181.065269 139.902036 
L 181.385652 139.717236 
L 181.706035 138.885636 
L 182.026417 137.407236 
L 182.3468 137.776836 
L 182.667183 138.423636 
L 183.307949 138.885636 
L 183.628331 139.070436 
L 184.58948 140.456436 
L 184.909862 140.641236 
L 185.230245 139.902036 
L 185.550628 139.809636 
L 185.871011 140.271636 
L 186.191394 140.179236 
L 186.511776 140.733636 
L 186.832159 140.548836 
L 187.152542 141.288036 
L 187.472925 141.565236 
L 187.793307 141.288036 
L 188.11369 141.565236 
L 188.434073 141.288036 
L 188.754456 141.195636 
L 189.074839 141.750036 
L 189.395221 141.565236 
L 189.715604 142.766436 
L 190.035987 142.581636 
L 190.676752 143.228436 
L 190.997135 142.766436 
L 191.317518 143.505636 
L 191.637901 143.690436 
L 191.958283 143.228436 
L 193.239815 143.136036 
L 193.88058 142.674036 
L 194.200963 142.674036 
L 194.521346 142.304436 
L 195.162111 144.152436 
L 195.482494 144.799236 
L 195.802877 144.337236 
L 196.12326 144.244836 
L 196.764025 142.951236 
L 197.084408 143.413236 
L 197.404791 143.136036 
L 198.045556 144.244836 
L 198.686322 143.967636 
L 199.006705 144.337236 
L 199.327087 144.060036 
L 199.64747 144.337236 
L 199.967853 143.875236 
L 200.288236 144.060036 
L 200.929001 144.060036 
L 201.249384 144.891636 
L 201.569767 144.429636 
L 202.210532 144.244836 
L 202.530915 143.875236 
L 202.851298 144.060036 
L 203.492063 143.136036 
L 203.812446 143.413236 
L 204.132829 142.674036 
L 204.453212 142.674036 
L 204.773594 143.505636 
L 205.093977 143.598036 
L 205.41436 144.060036 
L 206.055126 144.522036 
L 206.375508 144.244836 
L 206.695891 144.337236 
L 207.336657 145.168836 
L 207.657039 144.984036 
L 207.977422 145.538436 
L 208.618188 145.538436 
L 208.938571 145.168836 
L 209.258953 145.353636 
L 209.579336 145.168836 
L 209.899719 144.614436 
L 210.220102 144.706836 
L 210.540484 144.522036 
L 210.860867 144.522036 
L 211.18125 144.060036 
L 211.501633 143.875236 
L 211.822016 144.244836 
L 212.783164 146.370036 
L 213.103547 146.000436 
L 213.423929 146.277636 
L 213.744312 146.370036 
L 214.385078 146.185236 
L 215.025843 146.647236 
L 215.346226 147.109236 
L 215.666609 147.294036 
L 215.986992 146.832036 
L 216.627757 145.446036 
L 217.268523 145.538436 
L 217.909288 146.277636 
L 218.870437 147.016836 
L 219.190819 146.739636 
L 219.831585 147.201636 
L 220.47235 147.571236 
L 221.113116 146.277636 
L 221.433499 146.554836 
L 221.753882 146.370036 
L 222.074264 146.370036 
L 222.394647 145.815636 
L 222.71503 145.815636 
L 223.035413 145.538436 
L 223.355795 144.891636 
L 223.676178 145.261236 
L 223.996561 144.984036 
L 224.316944 145.353636 
L 224.637327 144.799236 
L 224.957709 145.261236 
L 225.278092 144.891636 
L 225.598475 145.446036 
L 225.918858 146.647236 
L 226.880006 146.000436 
L 227.200389 146.739636 
L 227.520772 146.739636 
L 227.841154 147.016836 
L 228.161537 147.109236 
L 228.802303 146.739636 
L 229.122685 146.924436 
L 229.763451 146.092836 
L 230.724599 146.924436 
L 231.044982 146.924436 
L 231.685748 145.538436 
L 232.00613 146.092836 
L 232.326513 146.185236 
L 232.967279 145.908036 
L 233.608044 144.706836 
L 233.928427 144.244836 
L 235.209958 145.446036 
L 235.850724 144.799236 
L 236.171106 145.168836 
L 236.491489 144.614436 
L 236.811872 144.891636 
L 237.132255 144.614436 
L 237.452638 144.060036 
L 237.77302 143.136036 
L 238.413786 142.951236 
L 238.734169 142.674036 
L 239.054551 142.766436 
L 239.374934 142.581636 
L 240.0157 140.641236 
L 240.336083 140.179236 
L 240.656465 140.086836 
L 241.297231 139.070436 
L 241.617614 139.162836 
L 241.937996 138.054036 
L 242.578762 138.793236 
L 242.899145 138.978036 
L 243.219528 137.961636 
L 243.53991 137.314836 
L 243.860293 137.314836 
L 244.180676 136.575636 
L 244.501059 136.760436 
L 244.821441 136.575636 
L 245.462207 137.499636 
L 246.102972 137.407236 
L 246.423355 137.407236 
L 246.743738 137.037636 
L 247.064121 136.483236 
L 247.704886 137.314836 
L 248.025269 136.575635 
L 248.345652 137.314835 
L 248.986417 137.592036 
L 249.627183 138.793236 
L 249.947566 138.516036 
L 250.267949 137.869236 
L 250.588331 137.499636 
L 251.229097 137.961636 
L 251.869862 136.852835 
L 252.190245 137.130035 
L 252.510628 137.222435 
L 252.831011 136.390835 
L 253.151394 137.222435 
L 253.471776 136.945235 
L 253.792159 137.037635 
L 254.112542 136.668035 
L 254.753307 137.869235 
L 255.394073 138.146435 
L 255.714456 138.516035 
L 256.034839 138.516035 
L 256.355221 138.885636 
L 256.675604 138.978036 
L 256.995987 138.793236 
L 257.31637 139.440036 
L 257.636752 139.162836 
L 257.957135 139.902036 
L 258.277518 139.255236 
L 258.597901 138.978036 
L 258.918283 138.331236 
L 259.559049 139.717236 
L 259.879432 138.978036 
L 260.199815 138.885636 
L 261.160963 136.760435 
L 261.481346 136.852835 
L 263.403642 135.836435 
L 263.724025 136.206035 
L 264.044408 136.390835 
L 264.364791 135.744035 
L 264.685173 135.744035 
L 265.005556 135.189635 
L 265.325939 134.080835 
L 265.966705 133.711235 
L 266.287087 133.988435 
L 266.60747 133.526435 
L 266.927853 132.787235 
L 267.248236 132.602435 
L 267.889001 133.341635 
L 268.209384 132.972035 
L 268.529767 133.156835 
L 268.85015 133.618835 
L 269.490915 133.156835 
L 269.811298 133.526435 
L 270.131681 133.618835 
L 270.452063 133.526435 
L 270.772446 133.156835 
L 271.092829 133.156835 
L 271.413212 132.787235 
L 272.053977 133.156835 
L 272.37436 133.526435 
L 272.694743 133.711235 
L 273.015126 133.249235 
L 273.335508 133.341635 
L 273.655891 132.972035 
L 273.976274 132.140435 
L 274.617039 132.694835 
L 274.937422 133.156835 
L 275.578188 131.678435 
L 275.898571 131.678435 
L 276.218953 132.048035 
L 276.539336 132.140435 
L 277.180102 132.602435 
L 277.500484 132.140435 
L 277.820867 132.048035 
L 278.14125 132.140435 
L 278.782016 131.216435 
L 279.422781 131.308835 
L 279.743164 130.384835 
L 280.063547 130.662035 
L 280.383929 130.477235 
L 281.024695 131.124035 
L 281.665461 130.569635 
L 281.985843 131.124035 
L 282.306226 130.846835 
L 282.946992 131.124035 
L 283.267374 130.107635 
L 283.587757 130.292435 
L 283.90814 130.754435 
L 284.228523 130.477235 
L 284.548906 129.830435 
L 284.869288 129.553235 
L 285.189671 129.553235 
L 285.510054 129.738035 
L 285.830437 129.553235 
L 286.471202 129.645635 
L 286.791585 128.629235 
L 287.111968 128.629235 
L 287.43235 128.998835 
L 287.752733 128.998835 
L 288.073116 128.536835 
L 288.393499 127.520435 
L 288.713882 127.335635 
L 289.034264 128.352035 
L 289.354647 128.536835 
L 289.67503 128.536835 
L 289.995413 128.906435 
L 290.315795 128.536835 
L 290.636178 127.243235 
L 290.956561 126.504035 
L 291.597327 127.335635 
L 291.917709 127.243235 
L 292.238092 126.504035 
L 292.558475 126.226835 
L 292.878858 126.319235 
L 293.19924 125.949635 
L 293.840006 125.764835 
L 294.480772 126.319235 
L 294.801154 127.058435 
L 295.121537 127.058435 
L 295.44192 126.411635 
L 295.762303 126.966035 
L 296.403068 126.873635 
L 296.723451 126.504035 
L 297.364217 127.058435 
L 297.684599 127.612835 
L 298.325365 126.688835 
L 298.645748 127.150835 
L 298.96613 126.873635 
L 299.286513 127.520435 
L 299.606896 127.335635 
L 299.927279 126.966035 
L 300.247661 127.243235 
L 300.568044 127.243235 
L 300.888427 127.428035 
L 301.20881 127.058435 
L 301.849575 127.243235 
L 302.169958 126.873635 
L 302.490341 126.688835 
L 302.810724 127.243235 
L 303.451489 125.857235 
L 303.771872 124.933235 
L 304.092255 124.563635 
L 304.412638 125.302835 
L 304.73302 125.580035 
L 305.053403 125.395235 
L 305.373786 124.194035 
L 306.014551 124.286435 
L 306.334934 125.025635 
L 306.9757 125.487635 
L 307.616465 124.378835 
L 308.257231 125.025635 
L 308.577614 125.118035 
L 308.897996 125.025635 
L 309.218379 125.949635 
L 309.859145 126.226835 
L 310.179528 125.672435 
L 310.49991 125.580035 
L 310.820293 124.563635 
L 311.140676 124.840835 
L 311.461059 124.840835 
L 311.781441 125.118035 
L 312.101824 124.840835 
L 312.422207 124.933235 
L 312.74259 125.764835 
L 313.062972 124.933235 
L 313.383355 125.672435 
L 313.703738 125.025635 
L 314.024121 125.210435 
L 314.344504 125.580035 
L 314.664886 125.025635 
L 314.985269 125.025635 
L 315.305652 124.563635 
L 315.626035 124.378835 
L 315.946417 124.563635 
L 316.2668 123.639635 
L 316.587183 124.471235 
L 316.907566 124.101635 
L 317.227949 123.916835 
L 317.548331 123.547235 
L 317.868714 123.547235 
L 318.189097 123.916835 
L 318.829862 122.438435 
L 319.150245 123.177635 
L 319.791011 123.639635 
L 320.111394 124.471235 
L 320.431776 124.194035 
L 321.072542 122.808035 
L 321.392925 123.454835 
L 321.713307 123.639635 
L 322.03369 124.101635 
L 322.354073 124.101635 
L 322.674456 124.840835 
L 322.994839 125.025635 
L 323.315221 125.395235 
L 323.635604 125.580035 
L 324.596752 125.302835 
L 324.917135 124.933235 
L 325.237518 124.101635 
L 325.557901 124.378835 
L 325.878283 124.286435 
L 326.198666 125.025635 
L 326.519049 124.748435 
L 326.839432 125.764835 
L 327.480197 125.857235 
L 327.80058 124.748435 
L 328.441346 125.025635 
L 328.761728 124.933235 
L 329.082111 125.764835 
L 329.402494 125.487635 
L 329.722877 125.580035 
L 330.04326 125.949635 
L 331.004408 126.226835 
L 331.645173 126.873635 
L 331.965556 126.134435 
L 332.285939 126.688835 
L 332.606322 126.042035 
L 333.247087 126.411635 
L 333.56747 126.873635 
L 333.887853 127.612835 
L 334.208236 127.150835 
L 334.528618 127.243235 
L 334.849001 128.721635 
L 335.169384 128.259635 
L 335.489767 128.814035 
L 336.130532 129.276035 
L 336.450915 129.183635 
L 336.771298 129.922835 
L 337.412063 130.107635 
L 337.732446 130.384835 
L 338.052829 130.292435 
L 338.373212 130.015235 
L 338.693594 129.922835 
L 339.013977 129.645635 
L 339.33436 129.738035 
L 339.654743 130.107635 
L 339.975126 130.754435 
L 340.295508 130.662035 
L 341.256657 131.770836 
L 341.577039 131.401236 
L 342.217805 131.955636 
L 342.858571 132.879636 
L 343.178953 132.972036 
L 343.499336 132.879636 
L 343.819719 133.803636 
L 344.140102 133.896036 
L 344.780867 132.879636 
L 345.10125 131.955636 
L 345.421633 131.770836 
L 346.062398 131.124036 
L 346.382781 131.124036 
L 346.703164 131.308836 
L 347.664312 130.662036 
L 347.984695 131.308836 
L 348.945843 131.493635 
L 349.266226 131.493635 
L 349.586609 131.678435 
L 349.906992 131.401235 
L 350.547757 132.602436 
L 350.86814 131.678435 
L 351.188523 131.955635 
L 351.829288 131.308835 
L 352.149671 131.031635 
L 352.470054 130.939235 
L 353.110819 131.401235 
L 353.431202 131.955635 
L 353.751585 131.955635 
L 354.071968 132.140435 
L 354.39235 132.694835 
L 355.033116 134.080835 
L 355.353499 134.173235 
L 355.673882 133.711235 
L 355.994264 132.879635 
L 356.63503 133.064435 
L 356.955413 132.972035 
L 357.275795 132.602435 
L 357.596178 132.787235 
L 357.916561 132.325235 
L 358.236944 132.510035 
L 359.198092 130.939235 
L 359.518475 131.031635 
L 359.838858 130.569635 
L 360.15924 130.754435 
L 360.479623 132.048035 
L 360.800006 131.770835 
L 361.440772 131.678435 
L 361.761154 132.417635 
L 362.081537 132.510035 
L 362.40192 132.972035 
L 362.722303 132.140435 
L 363.363068 132.417635 
L 363.363068 132.417635 
" clip-path="url(#p15723889f1)" style="fill: none; stroke: #1f77b4; stroke-width: 1.5; stroke-linecap: square"/>
   </g>
   <g id="line2d_24">
    <path d="M 58.999432 65.98203 
L 59.640197 62.56323 
L 60.280963 61.54683 
L 60.601346 61.45443 
L 60.921728 60.80763 
L 61.562494 60.16083 
L 61.882877 59.69883 
L 62.523642 59.42163 
L 64.125556 58.59003 
L 64.766322 57.85083 
L 65.086705 57.57363 
L 66.047853 57.85083 
L 66.688618 58.40523 
L 67.009001 58.22043 
L 67.329384 58.59003 
L 67.97015 58.59003 
L 68.290532 58.40523 
L 68.610915 58.40523 
L 68.931298 58.77483 
L 71.49436 59.51403 
L 71.814743 59.23683 
L 72.135126 59.32923 
L 72.455508 59.23683 
L 72.775891 59.32923 
L 73.416657 60.25323 
L 73.737039 60.43803 
L 74.057422 60.16083 
L 74.698188 60.25323 
L 75.018571 59.88363 
L 75.338953 59.88363 
L 75.979719 59.60643 
L 76.300102 59.69883 
L 76.620484 59.51403 
L 76.940867 59.88363 
L 77.581633 59.60643 
L 77.902016 59.88363 
L 78.863164 60.06843 
L 79.824312 59.97603 
L 80.144695 59.88363 
L 81.105843 60.80763 
L 81.426226 60.62283 
L 82.387374 60.80763 
L 82.707757 60.71523 
L 83.02814 60.99243 
L 83.348523 60.90003 
L 83.668906 60.99243 
L 84.309671 60.90003 
L 86.231968 60.80763 
L 86.872733 60.71523 
L 87.193116 60.80763 
L 87.513499 60.62283 
L 88.79503 60.71523 
L 89.435795 59.88363 
L 89.756178 59.88363 
L 90.396944 60.16083 
L 91.037709 60.25323 
L 91.998858 60.43803 
L 92.639623 60.43803 
L 92.960006 60.16083 
L 93.280389 60.25323 
L 93.600772 60.53043 
L 94.241537 60.43803 
L 94.882303 60.34563 
L 95.523068 60.43803 
L 96.484217 60.62283 
L 96.804599 60.62283 
L 97.124982 60.43803 
L 97.445365 60.53043 
L 97.765748 60.25323 
L 99.688044 60.34563 
L 100.969575 60.99243 
L 101.289958 60.80763 
L 101.930724 60.90003 
L 103.212255 61.26963 
L 104.173403 62.00883 
L 104.814169 62.28603 
L 105.134551 62.56323 
L 105.775317 62.65563 
L 106.416083 62.74803 
L 106.736465 63.02523 
L 107.056848 63.11763 
L 108.017996 62.93283 
L 108.658762 62.84043 
L 108.979145 63.11763 
L 109.61991 62.84043 
L 109.940293 62.56323 
L 110.260676 62.65563 
L 110.901441 62.56323 
L 111.86259 62.56323 
L 112.182972 62.37843 
L 113.144121 62.56323 
L 114.105269 62.28603 
L 114.425652 62.47083 
L 114.746035 62.19363 
L 115.066417 62.19363 
L 116.347949 62.840431 
L 116.668331 62.840431 
L 116.988714 63.117631 
L 117.62948 63.302431 
L 118.270245 63.025231 
L 118.590628 63.025231 
L 119.231394 62.748031 
L 120.192542 62.47083 
L 120.833307 62.748031 
L 121.15369 62.56323 
L 121.794456 62.65563 
L 122.435221 62.563231 
L 122.755604 62.28603 
L 123.39637 62.193631 
L 123.716752 62.470831 
L 124.357518 62.378431 
L 124.677901 62.28603 
L 124.998283 62.00883 
L 125.639049 61.91643 
L 125.959432 62.00883 
L 126.279815 61.73163 
L 127.240963 61.45443 
L 127.561346 61.17723 
L 129.483642 60.71523 
L 130.765173 60.62283 
L 131.085556 60.25323 
L 132.046705 59.791229 
L 132.367087 59.329229 
L 132.68747 59.329229 
L 133.007853 59.052029 
L 133.648618 58.959629 
L 134.289384 58.867229 
L 134.609767 59.144429 
L 134.93015 59.236829 
L 136.532063 58.682429 
L 136.852446 58.312829 
L 137.172829 58.220429 
L 137.493212 58.312829 
L 138.133977 58.03563 
L 139.735891 57.57363 
L 140.056274 57.666029 
L 140.376657 57.57363 
L 141.978571 58.12803 
L 142.619336 58.59003 
L 142.939719 58.77483 
L 143.900867 58.86723 
L 144.22125 59.14443 
L 144.862016 59.32923 
L 145.182398 59.23683 
L 146.143547 59.42163 
L 146.463929 59.42163 
L 146.784312 59.60643 
L 147.104695 59.97603 
L 148.386226 59.88363 
L 148.706609 59.79123 
L 149.026992 59.97603 
L 149.98814 59.42163 
L 150.308523 59.42163 
L 150.628906 59.14443 
L 150.949288 59.14443 
L 151.269671 59.32923 
L 152.551202 58.95963 
L 152.871585 59.23683 
L 153.832733 59.05203 
L 154.793882 58.95963 
L 155.114264 58.86723 
L 156.716178 59.23683 
L 157.036561 59.23683 
L 157.356944 59.69883 
L 157.997709 59.23683 
L 158.638475 58.77483 
L 158.958858 58.59003 
L 159.27924 58.68243 
L 159.920006 58.49763 
L 160.240389 58.22043 
L 161.201537 57.94323 
L 161.52192 57.66603 
L 162.483068 57.29643 
L 164.084982 56.46483 
L 164.725748 56.37243 
L 165.04613 56.095229 
L 166.007279 56.280029 
L 166.327661 56.280029 
L 167.609193 55.633229 
L 168.249958 55.725629 
L 168.890724 55.171229 
L 169.211106 55.171229 
L 169.531489 54.894029 
L 170.172255 54.801629 
L 172.094551 54.154829 
L 173.0557 53.600429 
L 173.376083 53.138429 
L 174.337231 53.138429 
L 175.298379 52.676429 
L 178.502207 52.584029 
L 179.142972 52.491629 
L 179.463355 52.676429 
L 186.832159 52.768829 
L 187.472925 52.861229 
L 188.754456 52.861229 
L 189.074839 53.046029 
L 189.715604 52.953629 
L 190.035987 53.138429 
L 190.35637 53.138429 
L 190.997135 53.508029 
L 193.239815 53.508029 
L 193.560197 53.692829 
L 193.88058 53.508029 
L 195.162111 53.970029 
L 195.482494 53.785229 
L 196.443642 53.970029 
L 197.404791 53.970029 
L 197.725173 54.154829 
L 198.365939 54.154829 
L 198.686322 53.970029 
L 200.608618 54.062429 
L 201.249384 54.154829 
L 201.569767 54.062429 
L 202.530915 54.247229 
L 203.812446 54.339629 
L 204.132829 54.432029 
L 204.453212 54.339629 
L 204.773594 54.616829 
L 205.093977 54.432029 
L 205.41436 54.616829 
L 205.734743 54.616829 
L 206.055126 54.432029 
L 206.695891 54.616829 
L 207.016274 54.894029 
L 207.336657 54.98643 
L 208.618188 56.00283 
L 209.258953 56.28003 
L 209.579336 56.37243 
L 210.540484 57.11163 
L 210.860867 57.11163 
L 211.18125 56.92683 
L 212.142398 56.83443 
L 212.462781 57.11163 
L 213.744312 57.38883 
L 214.064695 57.29643 
L 214.385078 57.38883 
L 214.705461 57.66603 
L 215.986992 57.75843 
L 216.627757 57.94323 
L 216.94814 57.75843 
L 217.588906 57.85083 
L 218.550054 57.388831 
L 220.47235 56.742031 
L 220.792733 56.372431 
L 222.394647 56.002831 
L 222.71503 56.002831 
L 223.035413 55.725631 
L 223.676178 55.633231 
L 224.316944 55.171231 
L 224.957709 54.801631 
L 225.278092 54.801631 
L 226.559623 53.600431 
L 227.841154 53.970031 
L 228.161537 53.877631 
L 228.48192 53.600431 
L 228.802303 53.508031 
L 229.122685 53.600431 
L 229.443068 53.508031 
L 229.763451 53.230831 
L 230.083834 53.415631 
L 230.724599 53.230831 
L 231.365365 53.415631 
L 231.685748 53.230831 
L 232.00613 53.323231 
L 232.326513 53.230831 
L 233.287661 53.41563 
L 233.928427 53.50803 
L 238.413786 56.18763 
L 238.734169 56.09523 
L 239.054551 56.28003 
L 243.53991 56.18763 
L 243.860293 56.09523 
L 244.180676 56.18763 
L 244.821441 56.00283 
L 245.141824 56.09523 
L 245.462207 56.00283 
L 245.78259 56.09523 
L 246.423355 56.00283 
L 247.384504 56.09523 
L 248.025269 56.18763 
L 248.345652 56.18763 
L 248.666035 55.91043 
L 249.627183 55.72563 
L 251.54948 55.63323 
L 252.831011 55.35603 
L 253.151394 55.35603 
L 253.471776 55.17123 
L 253.792159 54.80163 
L 254.112542 54.61683 
L 254.432925 54.15483 
L 254.753307 54.15483 
L 255.394073 53.69283 
L 256.995987 53.13843 
L 257.636752 52.86123 
L 257.957135 52.76883 
L 258.277518 52.86123 
L 258.918283 52.58403 
L 259.238666 52.58403 
L 259.559049 52.306831 
L 259.879432 52.306831 
L 260.199815 52.122031 
L 260.84058 52.122031 
L 261.160963 51.844831 
L 262.442494 51.752431 
L 262.762877 51.660031 
L 263.08326 51.752431 
L 265.005556 51.290431 
L 265.646322 51.198031 
L 266.287087 50.920831 
L 266.60747 50.643631 
L 269.170532 49.996832 
L 269.811298 50.089232 
L 271.733594 50.551231 
L 273.335508 50.643631 
L 273.976274 50.828431 
L 274.617039 50.736031 
L 275.257805 51.013231 
L 275.898571 51.013231 
L 276.218953 51.290431 
L 277.820867 51.198031 
L 279.422781 50.643631 
L 279.743164 50.458831 
L 280.383929 50.551231 
L 284.869288 50.458831 
L 285.830437 50.274031 
L 286.471202 50.181631 
L 288.073116 49.812032 
L 288.713882 49.904432 
L 289.354647 49.812032 
L 289.67503 49.719632 
L 290.315795 49.812032 
L 292.238092 49.350032 
L 293.519623 49.442432 
L 294.160389 49.719632 
L 294.801154 49.996832 
L 295.762303 50.181632 
L 296.082685 50.089232 
L 296.723451 50.181632 
L 298.325365 50.274032 
L 300.568044 51.013231 
L 301.20881 51.290431 
L 302.490341 51.567631 
L 303.131106 51.660031 
L 304.092255 51.84483 
L 304.412638 51.75243 
L 306.014551 52.12203 
L 306.9757 52.21443 
L 307.616465 52.30683 
L 309.859145 52.30683 
L 310.49991 52.02963 
L 312.101824 51.93723 
L 312.74259 51.84483 
L 314.344504 51.75243 
L 317.548331 50.92083 
L 318.189097 50.828431 
L 318.829862 50.736031 
L 319.150245 50.828431 
L 319.470628 50.736031 
L 320.431776 50.920831 
L 322.03369 50.551231 
L 324.917135 50.643631 
L 325.237518 50.736031 
L 325.878283 50.643631 
L 326.198666 50.736031 
L 327.480197 50.458831 
L 328.441346 50.643631 
L 333.887853 50.736031 
L 334.849001 50.920831 
L 335.169384 50.736031 
L 335.489767 50.828431 
L 337.091681 50.458831 
L 337.412063 50.551231 
L 337.732446 50.458831 
L 338.693594 50.643631 
L 340.936274 50.551231 
L 341.577039 50.458831 
L 342.217805 50.551231 
L 348.945843 50.458831 
L 349.586609 50.366431 
L 350.227374 50.366431 
L 350.547757 50.551231 
L 353.110819 50.458831 
L 355.353499 49.904432 
L 356.314647 49.812032 
L 356.955413 49.719632 
L 357.596178 49.719632 
L 357.916561 49.534832 
L 363.363068 49.627232 
L 363.363068 49.627232 
" clip-path="url(#p15723889f1)" style="fill: none; stroke: #ff7f0e; stroke-width: 1.5; stroke-linecap: square"/>
   </g>
   <g id="line2d_25">
    <path d="M 58.999432 69.031231 
L 59.319815 66.99843 
L 59.96058 65.05803 
L 60.601346 64.50363 
L 61.562494 62.93283 
L 61.882877 62.37843 
L 62.20326 62.19363 
L 63.164408 60.90003 
L 63.484791 60.62283 
L 63.805173 60.06843 
L 64.125556 59.97603 
L 64.445939 60.16083 
L 64.766322 59.791229 
L 65.407087 59.97603 
L 66.047853 59.05203 
L 66.368236 58.77483 
L 67.009001 58.68243 
L 67.329384 58.31283 
L 67.97015 58.12803 
L 68.290532 57.85083 
L 68.610915 57.85083 
L 68.931298 58.03563 
L 70.853594 58.12803 
L 71.173977 58.22043 
L 72.135126 58.03563 
L 73.416657 58.49763 
L 73.737039 58.68243 
L 75.659336 58.22043 
L 75.979719 58.22043 
L 77.902016 59.23683 
L 78.863164 59.606431 
L 79.183547 59.791231 
L 80.144695 59.69883 
L 80.465078 59.606431 
L 80.785461 59.698831 
L 82.066992 59.32923 
L 83.02814 58.59003 
L 83.348523 58.59003 
L 83.989288 58.31283 
L 86.55235 57.48123 
L 87.193116 57.20403 
L 89.115413 56.64963 
L 89.756178 56.18763 
L 90.396944 56.28003 
L 90.717327 56.28003 
L 91.037709 56.46483 
L 91.678475 56.37243 
L 91.998858 56.37243 
L 92.960006 55.91043 
L 93.280389 55.91043 
L 93.600772 55.54083 
L 94.241537 56.00283 
L 95.202685 55.81803 
L 95.523068 56.00283 
L 95.843451 56.64963 
L 96.484217 56.92683 
L 97.124982 57.57363 
L 97.445365 57.85083 
L 97.765748 57.94323 
L 98.08613 57.85083 
L 99.688044 58.40523 
L 100.32881 59.32923 
L 100.649193 59.42163 
L 101.610341 59.14443 
L 102.251106 59.23683 
L 102.891872 59.144431 
L 103.532638 59.236831 
L 103.85302 59.329231 
L 104.173403 59.236831 
L 105.775317 59.606431 
L 106.0957 59.514031 
L 106.736465 59.698831 
L 108.658762 59.236831 
L 109.940293 59.144431 
L 110.260676 58.959631 
L 110.581059 58.959631 
L 111.221824 59.421631 
L 111.542207 59.421631 
L 111.86259 58.959631 
L 112.182972 59.144431 
L 112.503355 59.144431 
L 113.464504 58.68243 
L 113.784886 58.774831 
L 114.105269 59.144431 
L 114.746035 59.421631 
L 115.3868 59.698831 
L 115.707183 59.698831 
L 116.347949 59.236831 
L 117.309097 59.88363 
L 118.590628 60.90003 
L 120.512925 62.10123 
L 121.794456 63.302431 
L 122.114839 63.672031 
L 122.755604 63.949231 
L 123.39637 64.318831 
L 124.037135 64.965631 
L 124.998283 65.427631 
L 125.639049 65.520031 
L 125.959432 65.242831 
L 126.92058 65.150431 
L 127.881728 64.87323 
L 128.202111 64.503631 
L 129.16326 64.22643 
L 129.483642 64.31883 
L 130.124408 63.76443 
L 132.68747 63.11763 
L 133.648618 63.02523 
L 134.609767 62.840429 
L 135.570915 62.748029 
L 137.493212 61.546829 
L 138.133977 60.992429 
L 139.735891 60.438029 
L 140.697039 59.236829 
L 141.337805 58.497629 
L 142.619336 57.666029 
L 143.260102 57.019229 
L 143.900867 56.280029 
L 144.22125 56.187629 
L 145.182398 55.078829 
L 145.502781 54.432029 
L 147.425078 52.861229 
L 147.745461 52.768829 
L 153.191968 46.57803 
L 154.153116 45.93123 
L 155.75503 44.452829 
L 157.677327 44.91483 
L 163.123834 44.822429 
L 164.084982 44.360429 
L 167.929575 44.452829 
L 168.249958 44.545229 
L 168.890724 44.452829 
L 169.531489 44.360429 
L 170.172255 44.083229 
L 172.094551 43.43643 
L 173.696465 42.60483 
L 182.026417 40.294832 
L 182.3468 40.294832 
L 182.667183 40.664432 
L 182.987566 40.849232 
L 185.550628 40.941632 
L 188.434073 41.680831 
L 190.676752 41.773231 
L 196.443642 43.34403 
L 198.045556 43.25163 
L 198.365939 43.15923 
L 198.686322 42.69723 
L 199.006705 42.51243 
L 200.288236 42.42003 
L 200.929001 42.32763 
L 203.171681 42.23523 
L 204.453212 41.958031 
L 205.41436 42.05043 
L 206.695891 42.32763 
L 207.016274 42.32763 
L 207.336657 42.69723 
L 207.657039 42.69723 
L 208.297805 43.34403 
L 209.258953 44.08323 
L 211.18125 44.545231 
L 216.307374 44.63763 
L 218.870437 45.469231 
L 220.47235 46.300831 
L 221.433499 46.578031 
L 222.074264 46.485631 
L 223.035413 46.485631 
L 223.355795 46.116031 
L 223.996561 46.023631 
L 224.316944 45.746431 
L 224.637327 45.838831 
L 224.957709 45.469231 
L 225.278092 45.654031 
L 226.23924 45.46923 
L 227.200389 45.561631 
L 230.404217 46.39323 
L 231.365365 46.48563 
L 231.685748 46.76283 
L 232.00613 46.670431 
L 232.646896 46.947631 
L 232.967279 47.132431 
L 233.287661 47.04003 
L 235.209958 47.50203 
L 235.850724 47.40963 
L 237.132255 47.68683 
L 237.452638 47.68683 
L 237.77302 47.87163 
L 238.093403 47.77923 
L 238.413786 47.871631 
L 238.734169 47.779231 
L 239.374934 48.148831 
L 239.695317 48.148831 
L 240.0157 47.871631 
L 240.336083 47.779231 
L 240.656465 47.409631 
L 240.976848 47.502031 
L 241.297231 47.317231 
L 241.937996 47.502031 
L 243.53991 46.947631 
L 244.180676 46.485631 
L 244.821441 46.393231 
L 247.704886 45.469232 
L 248.025269 45.654032 
L 248.986417 45.007232 
L 249.3068 44.730032 
L 249.627183 44.637632 
L 249.947566 44.268032 
L 250.908714 43.713632 
L 252.190245 43.621232 
L 252.510628 43.990832 
L 252.831011 43.990832 
L 253.792159 43.436432 
L 254.112542 43.436432 
L 254.432925 43.251632 
L 254.753307 43.251632 
L 255.394073 42.697232 
L 257.31637 42.050433 
L 258.597901 41.311233 
L 263.724025 41.311233 
L 264.044408 41.126433 
L 265.325939 41.034033 
L 265.646322 40.849233 
L 266.287087 40.849233 
L 266.60747 40.664433 
L 266.927853 40.664433 
L 267.568618 40.294833 
L 267.889001 40.294833 
L 268.209384 40.110033 
L 268.529767 39.463233 
L 269.170532 39.370833 
L 272.37436 39.370833 
L 272.694743 39.555633 
L 273.655891 39.648033 
L 274.937422 39.925233 
L 279.102398 40.017633 
L 279.422781 40.294832 
L 280.704312 40.387232 
L 282.306226 40.756832 
L 289.354647 40.664432 
L 290.956561 40.294832 
L 294.160389 40.387232 
L 295.121537 40.664432 
L 295.762303 40.387232 
L 296.082685 40.294832 
L 296.723451 40.387232 
L 298.325365 40.017633 
L 299.286513 40.110032 
L 302.490341 40.941632 
L 305.053403 41.034032 
L 306.655317 41.403631 
L 310.49991 41.311231 
L 312.422207 40.849232 
L 315.305652 40.756832 
L 318.50948 39.925232 
L 320.752159 39.832833 
L 322.674456 39.370833 
L 331.965556 39.463233 
L 332.606322 39.555633 
L 347.664312 39.463233 
L 348.625461 39.278433 
L 363.363068 39.278433 
L 363.363068 39.278433 
" clip-path="url(#p15723889f1)" style="fill: none; stroke: #2ca02c; stroke-width: 1.5; stroke-linecap: square"/>
   </g>
   <g id="patch_3">
    <path d="M 43.78125 187.118438 
L 43.78125 20.798438 
" style="fill: none; stroke: #000000; stroke-width: 0.8; stroke-linejoin: miter; stroke-linecap: square"/>
   </g>
   <g id="patch_4">
    <path d="M 378.58125 187.118438 
L 378.58125 20.798438 
" style="fill: none; stroke: #000000; stroke-width: 0.8; stroke-linejoin: miter; stroke-linecap: square"/>
   </g>
   <g id="patch_5">
    <path d="M 43.78125 187.118437 
L 378.58125 187.118437 
" style="fill: none; stroke: #000000; stroke-width: 0.8; stroke-linejoin: miter; stroke-linecap: square"/>
   </g>
   <g id="patch_6">
    <path d="M 43.78125 20.798437 
L 378.58125 20.798437 
" style="fill: none; stroke: #000000; stroke-width: 0.8; stroke-linejoin: miter; stroke-linecap: square"/>
   </g>
   <g id="text_14">
    <!-- sat_threshold=1.0e-08, frac_treshold=0.95 -->
    <g transform="translate(103.117969 14.798437) scale(0.1 -0.1)">
     <defs>
      <path id="DejaVuSans-5f" d="M 3263 -1063 
L 3263 -1509 
L -63 -1509 
L -63 -1063 
L 3263 -1063 
z
" transform="scale(0.015625)"/>
      <path id="DejaVuSans-68" d="M 3513 2113 
L 3513 0 
L 2938 0 
L 2938 2094 
Q 2938 2591 2744 2837 
Q 2550 3084 2163 3084 
Q 1697 3084 1428 2787 
Q 1159 2491 1159 1978 
L 1159 0 
L 581 0 
L 581 4863 
L 1159 4863 
L 1159 2956 
Q 1366 3272 1645 3428 
Q 1925 3584 2291 3584 
Q 2894 3584 3203 3211 
Q 3513 2838 3513 2113 
z
" transform="scale(0.015625)"/>
      <path id="DejaVuSans-6f" d="M 1959 3097 
Q 1497 3097 1228 2736 
Q 959 2375 959 1747 
Q 959 1119 1226 758 
Q 1494 397 1959 397 
Q 2419 397 2687 759 
Q 2956 1122 2956 1747 
Q 2956 2369 2687 2733 
Q 2419 3097 1959 3097 
z
M 1959 3584 
Q 2709 3584 3137 3096 
Q 3566 2609 3566 1747 
Q 3566 888 3137 398 
Q 2709 -91 1959 -91 
Q 1206 -91 779 398 
Q 353 888 353 1747 
Q 353 2609 779 3096 
Q 1206 3584 1959 3584 
z
" transform="scale(0.015625)"/>
      <path id="DejaVuSans-3d" d="M 678 2906 
L 4684 2906 
L 4684 2381 
L 678 2381 
L 678 2906 
z
M 678 1631 
L 4684 1631 
L 4684 1100 
L 678 1100 
L 678 1631 
z
" transform="scale(0.015625)"/>
      <path id="DejaVuSans-2d" d="M 313 2009 
L 1997 2009 
L 1997 1497 
L 313 1497 
L 313 2009 
z
" transform="scale(0.015625)"/>
      <path id="DejaVuSans-2c" d="M 750 794 
L 1409 794 
L 1409 256 
L 897 -744 
L 494 -744 
L 750 256 
L 750 794 
z
" transform="scale(0.015625)"/>
      <path id="DejaVuSans-39" d="M 703 97 
L 703 672 
Q 941 559 1184 500 
Q 1428 441 1663 441 
Q 2288 441 2617 861 
Q 2947 1281 2994 2138 
Q 2813 1869 2534 1725 
Q 2256 1581 1919 1581 
Q 1219 1581 811 2004 
Q 403 2428 403 3163 
Q 403 3881 828 4315 
Q 1253 4750 1959 4750 
Q 2769 4750 3195 4129 
Q 3622 3509 3622 2328 
Q 3622 1225 3098 567 
Q 2575 -91 1691 -91 
Q 1453 -91 1209 -44 
Q 966 3 703 97 
z
M 1959 2075 
Q 2384 2075 2632 2365 
Q 2881 2656 2881 3163 
Q 2881 3666 2632 3958 
Q 2384 4250 1959 4250 
Q 1534 4250 1286 3958 
Q 1038 3666 1038 3163 
Q 1038 2656 1286 2365 
Q 1534 2075 1959 2075 
z
" transform="scale(0.015625)"/>
      <path id="DejaVuSans-35" d="M 691 4666 
L 3169 4666 
L 3169 4134 
L 1269 4134 
L 1269 2991 
Q 1406 3038 1543 3061 
Q 1681 3084 1819 3084 
Q 2600 3084 3056 2656 
Q 3513 2228 3513 1497 
Q 3513 744 3044 326 
Q 2575 -91 1722 -91 
Q 1428 -91 1123 -41 
Q 819 9 494 109 
L 494 744 
Q 775 591 1075 516 
Q 1375 441 1709 441 
Q 2250 441 2565 725 
Q 2881 1009 2881 1497 
Q 2881 1984 2565 2268 
Q 2250 2553 1709 2553 
Q 1456 2553 1204 2497 
Q 953 2441 691 2322 
L 691 4666 
z
" transform="scale(0.015625)"/>
     </defs>
     <use xlink:href="#DejaVuSans-73"/>
     <use xlink:href="#DejaVuSans-61" x="52.099609"/>
     <use xlink:href="#DejaVuSans-74" x="113.378906"/>
     <use xlink:href="#DejaVuSans-5f" x="152.587891"/>
     <use xlink:href="#DejaVuSans-74" x="202.587891"/>
     <use xlink:href="#DejaVuSans-68" x="241.796875"/>
     <use xlink:href="#DejaVuSans-72" x="305.175781"/>
     <use xlink:href="#DejaVuSans-65" x="344.039062"/>
     <use xlink:href="#DejaVuSans-73" x="405.5625"/>
     <use xlink:href="#DejaVuSans-68" x="457.662109"/>
     <use xlink:href="#DejaVuSans-6f" x="521.041016"/>
     <use xlink:href="#DejaVuSans-6c" x="582.222656"/>
     <use xlink:href="#DejaVuSans-64" x="610.005859"/>
     <use xlink:href="#DejaVuSans-3d" x="673.482422"/>
     <use xlink:href="#DejaVuSans-31" x="757.271484"/>
     <use xlink:href="#DejaVuSans-2e" x="820.894531"/>
     <use xlink:href="#DejaVuSans-30" x="852.681641"/>
     <use xlink:href="#DejaVuSans-65" x="916.304688"/>
     <use xlink:href="#DejaVuSans-2d" x="977.828125"/>
     <use xlink:href="#DejaVuSans-30" x="1013.912109"/>
     <use xlink:href="#DejaVuSans-38" x="1077.535156"/>
     <use xlink:href="#DejaVuSans-2c" x="1141.158203"/>
     <use xlink:href="#DejaVuSans-20" x="1172.945312"/>
     <use xlink:href="#DejaVuSans-66" x="1204.732422"/>
     <use xlink:href="#DejaVuSans-72" x="1239.9375"/>
     <use xlink:href="#DejaVuSans-61" x="1281.050781"/>
     <use xlink:href="#DejaVuSans-63" x="1342.330078"/>
     <use xlink:href="#DejaVuSans-5f" x="1397.310547"/>
     <use xlink:href="#DejaVuSans-74" x="1447.310547"/>
     <use xlink:href="#DejaVuSans-72" x="1486.519531"/>
     <use xlink:href="#DejaVuSans-65" x="1525.382812"/>
     <use xlink:href="#DejaVuSans-73" x="1586.90625"/>
     <use xlink:href="#DejaVuSans-68" x="1639.005859"/>
     <use xlink:href="#DejaVuSans-6f" x="1702.384766"/>
     <use xlink:href="#DejaVuSans-6c" x="1763.566406"/>
     <use xlink:href="#DejaVuSans-64" x="1791.349609"/>
     <use xlink:href="#DejaVuSans-3d" x="1854.826172"/>
     <use xlink:href="#DejaVuSans-30" x="1938.615234"/>
     <use xlink:href="#DejaVuSans-2e" x="2002.238281"/>
     <use xlink:href="#DejaVuSans-39" x="2034.025391"/>
     <use xlink:href="#DejaVuSans-35" x="2097.648438"/>
    </g>
   </g>
   <g id="legend_1">
    <g id="patch_7">
     <path d="M 304.998438 182.118437 
L 371.58125 182.118437 
Q 373.58125 182.118437 373.58125 180.118437 
L 373.58125 137.084063 
Q 373.58125 135.084063 371.58125 135.084063 
L 304.998438 135.084063 
Q 302.998438 135.084063 302.998438 137.084063 
L 302.998438 180.118437 
Q 302.998438 182.118437 304.998438 182.118437 
z
" style="fill: #ffffff; opacity: 0.8; stroke: #cccccc; stroke-linejoin: miter"/>
    </g>
    <g id="line2d_26">
     <path d="M 306.998438 143.1825 
L 316.998438 143.1825 
L 326.998438 143.1825 
" style="fill: none; stroke: #1f77b4; stroke-width: 1.5; stroke-linecap: square"/>
    </g>
    <g id="text_15">
     <!-- ReLU.0 -->
     <g transform="translate(334.998438 146.6825) scale(0.1 -0.1)">
      <defs>
       <path id="DejaVuSans-52" d="M 2841 2188 
Q 3044 2119 3236 1894 
Q 3428 1669 3622 1275 
L 4263 0 
L 3584 0 
L 2988 1197 
Q 2756 1666 2539 1819 
Q 2322 1972 1947 1972 
L 1259 1972 
L 1259 0 
L 628 0 
L 628 4666 
L 2053 4666 
Q 2853 4666 3247 4331 
Q 3641 3997 3641 3322 
Q 3641 2881 3436 2590 
Q 3231 2300 2841 2188 
z
M 1259 4147 
L 1259 2491 
L 2053 2491 
Q 2509 2491 2742 2702 
Q 2975 2913 2975 3322 
Q 2975 3731 2742 3939 
Q 2509 4147 2053 4147 
L 1259 4147 
z
" transform="scale(0.015625)"/>
       <path id="DejaVuSans-4c" d="M 628 4666 
L 1259 4666 
L 1259 531 
L 3531 531 
L 3531 0 
L 628 0 
L 628 4666 
z
" transform="scale(0.015625)"/>
       <path id="DejaVuSans-55" d="M 556 4666 
L 1191 4666 
L 1191 1831 
Q 1191 1081 1462 751 
Q 1734 422 2344 422 
Q 2950 422 3222 751 
Q 3494 1081 3494 1831 
L 3494 4666 
L 4128 4666 
L 4128 1753 
Q 4128 841 3676 375 
Q 3225 -91 2344 -91 
Q 1459 -91 1007 375 
Q 556 841 556 1753 
L 556 4666 
z
" transform="scale(0.015625)"/>
      </defs>
      <use xlink:href="#DejaVuSans-52"/>
      <use xlink:href="#DejaVuSans-65" x="64.982422"/>
      <use xlink:href="#DejaVuSans-4c" x="126.505859"/>
      <use xlink:href="#DejaVuSans-55" x="177.21875"/>
      <use xlink:href="#DejaVuSans-2e" x="250.412109"/>
      <use xlink:href="#DejaVuSans-30" x="282.199219"/>
     </g>
    </g>
    <g id="line2d_27">
     <path d="M 306.998438 157.860625 
L 316.998438 157.860625 
L 326.998438 157.860625 
" style="fill: none; stroke: #ff7f0e; stroke-width: 1.5; stroke-linecap: square"/>
    </g>
    <g id="text_16">
     <!-- ReLU.1 -->
     <g transform="translate(334.998438 161.360625) scale(0.1 -0.1)">
      <use xlink:href="#DejaVuSans-52"/>
      <use xlink:href="#DejaVuSans-65" x="64.982422"/>
      <use xlink:href="#DejaVuSans-4c" x="126.505859"/>
      <use xlink:href="#DejaVuSans-55" x="177.21875"/>
      <use xlink:href="#DejaVuSans-2e" x="250.412109"/>
      <use xlink:href="#DejaVuSans-31" x="282.199219"/>
     </g>
    </g>
    <g id="line2d_28">
     <path d="M 306.998438 172.53875 
L 316.998438 172.53875 
L 326.998438 172.53875 
" style="fill: none; stroke: #2ca02c; stroke-width: 1.5; stroke-linecap: square"/>
    </g>
    <g id="text_17">
     <!-- ReLU.2 -->
     <g transform="translate(334.998438 176.03875) scale(0.1 -0.1)">
      <use xlink:href="#DejaVuSans-52"/>
      <use xlink:href="#DejaVuSans-65" x="64.982422"/>
      <use xlink:href="#DejaVuSans-4c" x="126.505859"/>
      <use xlink:href="#DejaVuSans-55" x="177.21875"/>
      <use xlink:href="#DejaVuSans-2e" x="250.412109"/>
      <use xlink:href="#DejaVuSans-32" x="282.199219"/>
     </g>
    </g>
   </g>
  </g>
 </g>
 <defs>
  <clipPath id="p15723889f1">
   <rect x="43.78125" y="20.798437" width="334.8" height="166.32"/>
  </clipPath>
 </defs>
</svg>