<?xml version="1.0" encoding="utf-8" standalone="no"?>
<!DOCTYPE svg PUBLIC "-//W3C//DTD SVG 1.1//EN"
  "http://www.w3.org/Graphics/SVG/1.1/DTD/svg11.dtd">
<svg xmlns:xlink="http://www.w3.org/1999/xlink" width="329.98125pt" height="201.197344pt" viewBox="0 0 329.98125 201.197344" xmlns="http://www.w3.org/2000/svg" version="1.1">
 <metadata>
  <rdf:RDF xmlns:dc="http://purl.org/dc/elements/1.1/" xmlns:cc="http://creativecommons.org/ns#" xmlns:rdf="http://www.w3.org/1999/02/22-rdf-syntax-ns#">
   <cc:Work>
    <dc:type rdf:resource="http://purl.org/dc/dcmitype/StillImage"/>
    <dc:date>2024-05-25T02:59:15.276567</dc:date>
    <dc:format>image/svg+xml</dc:format>
    <dc:creator>
     <cc:Agent>
      <dc:title>Matplotlib v3.7.1, https://matplotlib.org/</dc:title>
     </cc:Agent>
    </dc:creator>
   </cc:Work>
  </rdf:RDF>
 </metadata>
 <defs>
  <style type="text/css">*{stroke-linejoin: round; stroke-linecap: butt}</style>
 </defs>
 <g id="figure_1">
  <g id="patch_1">
   <path d="M 0 201.197344 
L 329.98125 201.197344 
L 329.98125 0 
L 0 0 
z
" style="fill: #ffffff"/>
  </g>
  <g id="axes_1">
   <g id="patch_2">
    <path d="M 43.78125 177.319219 
L 322.78125 177.319219 
L 322.78125 10.999219 
L 43.78125 10.999219 
z
" style="fill: #ffffff"/>
   </g>
   <g id="patch_3">
    <path d="M 80.110324 177.319219 
L 84.533222 177.319219 
L 84.533222 177.274474 
L 80.110324 177.274474 
z
" clip-path="url(#pf072c09df4)" style="fill: #1f77b4; opacity: 0.4"/>
   </g>
   <g id="patch_4">
    <path d="M 84.533222 177.319219 
L 88.95612 177.319219 
L 88.95612 177.274474 
L 84.533222 177.274474 
z
" clip-path="url(#pf072c09df4)" style="fill: #1f77b4; opacity: 0.4"/>
   </g>
   <g id="patch_5">
    <path d="M 88.95612 177.319219 
L 93.379018 177.319219 
L 93.379018 177.22973 
L 88.95612 177.22973 
z
" clip-path="url(#pf072c09df4)" style="fill: #1f77b4; opacity: 0.4"/>
   </g>
   <g id="patch_6">
    <path d="M 93.379018 177.319219 
L 97.801916 177.319219 
L 97.801916 177.155156 
L 93.379018 177.155156 
z
" clip-path="url(#pf072c09df4)" style="fill: #1f77b4; opacity: 0.4"/>
   </g>
   <g id="patch_7">
    <path d="M 97.801916 177.319219 
L 102.224814 177.319219 
L 102.224814 177.170071 
L 97.801916 177.170071 
z
" clip-path="url(#pf072c09df4)" style="fill: #1f77b4; opacity: 0.4"/>
   </g>
   <g id="patch_8">
    <path d="M 102.224814 177.319219 
L 106.647711 177.319219 
L 106.647711 177.035838 
L 102.224814 177.035838 
z
" clip-path="url(#pf072c09df4)" style="fill: #1f77b4; opacity: 0.4"/>
   </g>
   <g id="patch_9">
    <path d="M 106.647711 177.319219 
L 111.070609 177.319219 
L 111.070609 176.439247 
L 106.647711 176.439247 
z
" clip-path="url(#pf072c09df4)" style="fill: #1f77b4; opacity: 0.4"/>
   </g>
   <g id="patch_10">
    <path d="M 111.070609 177.319219 
L 115.493507 177.319219 
L 115.493507 175.753167 
L 111.070609 175.753167 
z
" clip-path="url(#pf072c09df4)" style="fill: #1f77b4; opacity: 0.4"/>
   </g>
   <g id="patch_11">
    <path d="M 115.493507 177.319219 
L 119.916405 177.319219 
L 119.916405 174.992514 
L 115.493507 174.992514 
z
" clip-path="url(#pf072c09df4)" style="fill: #1f77b4; opacity: 0.4"/>
   </g>
   <g id="patch_12">
    <path d="M 119.916405 177.319219 
L 124.339303 177.319219 
L 124.339303 173.441377 
L 119.916405 173.441377 
z
" clip-path="url(#pf072c09df4)" style="fill: #1f77b4; opacity: 0.4"/>
   </g>
   <g id="patch_13">
    <path d="M 124.339303 177.319219 
L 128.7622 177.319219 
L 128.7622 171.174331 
L 124.339303 171.174331 
z
" clip-path="url(#pf072c09df4)" style="fill: #1f77b4; opacity: 0.4"/>
   </g>
   <g id="patch_14">
    <path d="M 128.7622 177.319219 
L 133.185098 177.319219 
L 133.185098 167.072768 
L 128.7622 167.072768 
z
" clip-path="url(#pf072c09df4)" style="fill: #1f77b4; opacity: 0.4"/>
   </g>
   <g id="patch_15">
    <path d="M 133.185098 177.319219 
L 137.607996 177.319219 
L 137.607996 163.284415 
L 133.185098 163.284415 
z
" clip-path="url(#pf072c09df4)" style="fill: #1f77b4; opacity: 0.4"/>
   </g>
   <g id="patch_16">
    <path d="M 137.607996 177.319219 
L 142.030894 177.319219 
L 142.030894 156.930721 
L 137.607996 156.930721 
z
" clip-path="url(#pf072c09df4)" style="fill: #1f77b4; opacity: 0.4"/>
   </g>
   <g id="patch_17">
    <path d="M 142.030894 177.319219 
L 146.453792 177.319219 
L 146.453792 149.577737 
L 142.030894 149.577737 
z
" clip-path="url(#pf072c09df4)" style="fill: #1f77b4; opacity: 0.4"/>
   </g>
   <g id="patch_18">
    <path d="M 146.453792 177.319219 
L 150.876689 177.319219 
L 150.876689 139.883133 
L 146.453792 139.883133 
z
" clip-path="url(#pf072c09df4)" style="fill: #1f77b4; opacity: 0.4"/>
   </g>
   <g id="patch_19">
    <path d="M 150.876689 177.319219 
L 155.299587 177.319219 
L 155.299587 129.025177 
L 150.876689 129.025177 
z
" clip-path="url(#pf072c09df4)" style="fill: #1f77b4; opacity: 0.4"/>
   </g>
   <g id="patch_20">
    <path d="M 155.299587 177.319219 
L 159.722485 177.319219 
L 159.722485 115.527305 
L 155.299587 115.527305 
z
" clip-path="url(#pf072c09df4)" style="fill: #1f77b4; opacity: 0.4"/>
   </g>
   <g id="patch_21">
    <path d="M 159.722485 177.319219 
L 164.145383 177.319219 
L 164.145383 105.086963 
L 159.722485 105.086963 
z
" clip-path="url(#pf072c09df4)" style="fill: #1f77b4; opacity: 0.4"/>
   </g>
   <g id="patch_22">
    <path d="M 164.145383 177.319219 
L 168.568281 177.319219 
L 168.568281 91.201307 
L 164.145383 91.201307 
z
" clip-path="url(#pf072c09df4)" style="fill: #1f77b4; opacity: 0.4"/>
   </g>
   <g id="patch_23">
    <path d="M 168.568281 177.319219 
L 172.991178 177.319219 
L 172.991178 81.998891 
L 168.568281 81.998891 
z
" clip-path="url(#pf072c09df4)" style="fill: #1f77b4; opacity: 0.4"/>
   </g>
   <g id="patch_24">
    <path d="M 172.991178 177.319219 
L 177.414076 177.319219 
L 177.414076 72.78156 
L 172.991178 72.78156 
z
" clip-path="url(#pf072c09df4)" style="fill: #1f77b4; opacity: 0.4"/>
   </g>
   <g id="patch_25">
    <path d="M 177.414076 177.319219 
L 181.836974 177.319219 
L 181.836974 71.46906 
L 177.414076 71.46906 
z
" clip-path="url(#pf072c09df4)" style="fill: #1f77b4; opacity: 0.4"/>
   </g>
   <g id="patch_26">
    <path d="M 181.836974 177.319219 
L 186.259872 177.319219 
L 186.259872 65.637383 
L 181.836974 65.637383 
z
" clip-path="url(#pf072c09df4)" style="fill: #1f77b4; opacity: 0.4"/>
   </g>
   <g id="patch_27">
    <path d="M 186.259872 177.319219 
L 190.68277 177.319219 
L 190.68277 70.723321 
L 186.259872 70.723321 
z
" clip-path="url(#pf072c09df4)" style="fill: #1f77b4; opacity: 0.4"/>
   </g>
   <g id="patch_28">
    <path d="M 190.68277 177.319219 
L 195.105667 177.319219 
L 195.105667 75.704856 
L 190.68277 75.704856 
z
" clip-path="url(#pf072c09df4)" style="fill: #1f77b4; opacity: 0.4"/>
   </g>
   <g id="patch_29">
    <path d="M 195.105667 177.319219 
L 199.528565 177.319219 
L 199.528565 81.447044 
L 195.105667 81.447044 
z
" clip-path="url(#pf072c09df4)" style="fill: #1f77b4; opacity: 0.4"/>
   </g>
   <g id="patch_30">
    <path d="M 199.528565 177.319219 
L 203.951463 177.319219 
L 203.951463 95.198467 
L 199.528565 95.198467 
z
" clip-path="url(#pf072c09df4)" style="fill: #1f77b4; opacity: 0.4"/>
   </g>
   <g id="patch_31">
    <path d="M 203.951463 177.319219 
L 208.374361 177.319219 
L 208.374361 107.324179 
L 203.951463 107.324179 
z
" clip-path="url(#pf072c09df4)" style="fill: #1f77b4; opacity: 0.4"/>
   </g>
   <g id="patch_32">
    <path d="M 208.374361 177.319219 
L 212.797259 177.319219 
L 212.797259 118.927874 
L 208.374361 118.927874 
z
" clip-path="url(#pf072c09df4)" style="fill: #1f77b4; opacity: 0.4"/>
   </g>
   <g id="patch_33">
    <path d="M 212.797259 177.319219 
L 217.220156 177.319219 
L 217.220156 130.233274 
L 212.797259 130.233274 
z
" clip-path="url(#pf072c09df4)" style="fill: #1f77b4; opacity: 0.4"/>
   </g>
   <g id="patch_34">
    <path d="M 217.220156 177.319219 
L 221.643054 177.319219 
L 221.643054 142.135264 
L 217.220156 142.135264 
z
" clip-path="url(#pf072c09df4)" style="fill: #1f77b4; opacity: 0.4"/>
   </g>
   <g id="patch_35">
    <path d="M 221.643054 177.319219 
L 226.065952 177.319219 
L 226.065952 150.02518 
L 221.643054 150.02518 
z
" clip-path="url(#pf072c09df4)" style="fill: #1f77b4; opacity: 0.4"/>
   </g>
   <g id="patch_36">
    <path d="M 226.065952 177.319219 
L 230.48885 177.319219 
L 230.48885 158.034415 
L 226.065952 158.034415 
z
" clip-path="url(#pf072c09df4)" style="fill: #1f77b4; opacity: 0.4"/>
   </g>
   <g id="patch_37">
    <path d="M 230.48885 177.319219 
L 234.911748 177.319219 
L 234.911748 163.64237 
L 230.48885 163.64237 
z
" clip-path="url(#pf072c09df4)" style="fill: #1f77b4; opacity: 0.4"/>
   </g>
   <g id="patch_38">
    <path d="M 234.911748 177.319219 
L 239.334645 177.319219 
L 239.334645 168.787967 
L 234.911748 168.787967 
z
" clip-path="url(#pf072c09df4)" style="fill: #1f77b4; opacity: 0.4"/>
   </g>
   <g id="patch_39">
    <path d="M 239.334645 177.319219 
L 243.757543 177.319219 
L 243.757543 171.815667 
L 239.334645 171.815667 
z
" clip-path="url(#pf072c09df4)" style="fill: #1f77b4; opacity: 0.4"/>
   </g>
   <g id="patch_40">
    <path d="M 243.757543 177.319219 
L 248.180441 177.319219 
L 248.180441 173.57561 
L 243.757543 173.57561 
z
" clip-path="url(#pf072c09df4)" style="fill: #1f77b4; opacity: 0.4"/>
   </g>
   <g id="patch_41">
    <path d="M 248.180441 177.319219 
L 252.603339 177.319219 
L 252.603339 174.903025 
L 248.180441 174.903025 
z
" clip-path="url(#pf072c09df4)" style="fill: #1f77b4; opacity: 0.4"/>
   </g>
   <g id="patch_42">
    <path d="M 252.603339 177.319219 
L 257.026237 177.319219 
L 257.026237 175.991804 
L 252.603339 175.991804 
z
" clip-path="url(#pf072c09df4)" style="fill: #1f77b4; opacity: 0.4"/>
   </g>
   <g id="patch_43">
    <path d="M 257.026237 177.319219 
L 261.449134 177.319219 
L 261.449134 176.57348 
L 257.026237 176.57348 
z
" clip-path="url(#pf072c09df4)" style="fill: #1f77b4; opacity: 0.4"/>
   </g>
   <g id="patch_44">
    <path d="M 261.449134 177.319219 
L 265.872032 177.319219 
L 265.872032 176.871775 
L 261.449134 176.871775 
z
" clip-path="url(#pf072c09df4)" style="fill: #1f77b4; opacity: 0.4"/>
   </g>
   <g id="patch_45">
    <path d="M 265.872032 177.319219 
L 270.29493 177.319219 
L 270.29493 177.125327 
L 265.872032 177.125327 
z
" clip-path="url(#pf072c09df4)" style="fill: #1f77b4; opacity: 0.4"/>
   </g>
   <g id="patch_46">
    <path d="M 270.29493 177.319219 
L 274.717828 177.319219 
L 274.717828 177.25956 
L 270.29493 177.25956 
z
" clip-path="url(#pf072c09df4)" style="fill: #1f77b4; opacity: 0.4"/>
   </g>
   <g id="patch_47">
    <path d="M 274.717828 177.319219 
L 279.140726 177.319219 
L 279.140726 177.244645 
L 274.717828 177.244645 
z
" clip-path="url(#pf072c09df4)" style="fill: #1f77b4; opacity: 0.4"/>
   </g>
   <g id="patch_48">
    <path d="M 279.140726 177.319219 
L 283.563623 177.319219 
L 283.563623 177.274474 
L 279.140726 177.274474 
z
" clip-path="url(#pf072c09df4)" style="fill: #1f77b4; opacity: 0.4"/>
   </g>
   <g id="patch_49">
    <path d="M 283.563623 177.319219 
L 287.986521 177.319219 
L 287.986521 177.319219 
L 283.563623 177.319219 
z
" clip-path="url(#pf072c09df4)" style="fill: #1f77b4; opacity: 0.4"/>
   </g>
   <g id="patch_50">
    <path d="M 287.986521 177.319219 
L 292.409419 177.319219 
L 292.409419 177.304304 
L 287.986521 177.304304 
z
" clip-path="url(#pf072c09df4)" style="fill: #1f77b4; opacity: 0.4"/>
   </g>
   <g id="patch_51">
    <path d="M 292.409419 177.319219 
L 296.832317 177.319219 
L 296.832317 177.319219 
L 292.409419 177.319219 
z
" clip-path="url(#pf072c09df4)" style="fill: #1f77b4; opacity: 0.4"/>
   </g>
   <g id="patch_52">
    <path d="M 296.832317 177.319219 
L 301.255215 177.319219 
L 301.255215 177.304304 
L 296.832317 177.304304 
z
" clip-path="url(#pf072c09df4)" style="fill: #1f77b4; opacity: 0.4"/>
   </g>
   <g id="patch_53">
    <path d="M 62.646193 177.319219 
L 67.471595 177.319219 
L 67.471595 177.312383 
L 62.646193 177.312383 
z
" clip-path="url(#pf072c09df4)" style="fill: #ff7f0e; opacity: 0.4"/>
   </g>
   <g id="patch_54">
    <path d="M 67.471595 177.319219 
L 72.296997 177.319219 
L 72.296997 177.319219 
L 67.471595 177.319219 
z
" clip-path="url(#pf072c09df4)" style="fill: #ff7f0e; opacity: 0.4"/>
   </g>
   <g id="patch_55">
    <path d="M 72.296997 177.319219 
L 77.1224 177.319219 
L 77.1224 177.305548 
L 72.296997 177.305548 
z
" clip-path="url(#pf072c09df4)" style="fill: #ff7f0e; opacity: 0.4"/>
   </g>
   <g id="patch_56">
    <path d="M 77.1224 177.319219 
L 81.947802 177.319219 
L 81.947802 177.305548 
L 77.1224 177.305548 
z
" clip-path="url(#pf072c09df4)" style="fill: #ff7f0e; opacity: 0.4"/>
   </g>
   <g id="patch_57">
    <path d="M 81.947802 177.319219 
L 86.773204 177.319219 
L 86.773204 177.298713 
L 81.947802 177.298713 
z
" clip-path="url(#pf072c09df4)" style="fill: #ff7f0e; opacity: 0.4"/>
   </g>
   <g id="patch_58">
    <path d="M 86.773204 177.319219 
L 91.598606 177.319219 
L 91.598606 177.237195 
L 86.773204 177.237195 
z
" clip-path="url(#pf072c09df4)" style="fill: #ff7f0e; opacity: 0.4"/>
   </g>
   <g id="patch_59">
    <path d="M 91.598606 177.319219 
L 96.424009 177.319219 
L 96.424009 177.264536 
L 91.598606 177.264536 
z
" clip-path="url(#pf072c09df4)" style="fill: #ff7f0e; opacity: 0.4"/>
   </g>
   <g id="patch_60">
    <path d="M 96.424009 177.319219 
L 101.249411 177.319219 
L 101.249411 177.107323 
L 96.424009 177.107323 
z
" clip-path="url(#pf072c09df4)" style="fill: #ff7f0e; opacity: 0.4"/>
   </g>
   <g id="patch_61">
    <path d="M 101.249411 177.319219 
L 106.074813 177.319219 
L 106.074813 176.93644 
L 101.249411 176.93644 
z
" clip-path="url(#pf072c09df4)" style="fill: #ff7f0e; opacity: 0.4"/>
   </g>
   <g id="patch_62">
    <path d="M 106.074813 177.319219 
L 110.900216 177.319219 
L 110.900216 176.567331 
L 106.074813 176.567331 
z
" clip-path="url(#pf072c09df4)" style="fill: #ff7f0e; opacity: 0.4"/>
   </g>
   <g id="patch_63">
    <path d="M 110.900216 177.319219 
L 115.725618 177.319219 
L 115.725618 175.986328 
L 110.900216 175.986328 
z
" clip-path="url(#pf072c09df4)" style="fill: #ff7f0e; opacity: 0.4"/>
   </g>
   <g id="patch_64">
    <path d="M 115.725618 177.319219 
L 120.55102 177.319219 
L 120.55102 174.728625 
L 115.725618 174.728625 
z
" clip-path="url(#pf072c09df4)" style="fill: #ff7f0e; opacity: 0.4"/>
   </g>
   <g id="patch_65">
    <path d="M 120.55102 177.319219 
L 125.376422 177.319219 
L 125.376422 173.135991 
L 120.55102 173.135991 
z
" clip-path="url(#pf072c09df4)" style="fill: #ff7f0e; opacity: 0.4"/>
   </g>
   <g id="patch_66">
    <path d="M 125.376422 177.319219 
L 130.201825 177.319219 
L 130.201825 170.449703 
L 125.376422 170.449703 
z
" clip-path="url(#pf072c09df4)" style="fill: #ff7f0e; opacity: 0.4"/>
   </g>
   <g id="patch_67">
    <path d="M 130.201825 177.319219 
L 135.027227 177.319219 
L 135.027227 166.492041 
L 130.201825 166.492041 
z
" clip-path="url(#pf072c09df4)" style="fill: #ff7f0e; opacity: 0.4"/>
   </g>
   <g id="patch_68">
    <path d="M 135.027227 177.319219 
L 139.852629 177.319219 
L 139.852629 160.688838 
L 135.027227 160.688838 
z
" clip-path="url(#pf072c09df4)" style="fill: #ff7f0e; opacity: 0.4"/>
   </g>
   <g id="patch_69">
    <path d="M 139.852629 177.319219 
L 144.678032 177.319219 
L 144.678032 153.826157 
L 139.852629 153.826157 
z
" clip-path="url(#pf072c09df4)" style="fill: #ff7f0e; opacity: 0.4"/>
   </g>
   <g id="patch_70">
    <path d="M 144.678032 177.319219 
L 149.503434 177.319219 
L 149.503434 142.71873 
L 144.678032 142.71873 
z
" clip-path="url(#pf072c09df4)" style="fill: #ff7f0e; opacity: 0.4"/>
   </g>
   <g id="patch_71">
    <path d="M 149.503434 177.319219 
L 154.328836 177.319219 
L 154.328836 132.903182 
L 149.503434 132.903182 
z
" clip-path="url(#pf072c09df4)" style="fill: #ff7f0e; opacity: 0.4"/>
   </g>
   <g id="patch_72">
    <path d="M 154.328836 177.319219 
L 159.154239 177.319219 
L 159.154239 119.710977 
L 154.328836 119.710977 
z
" clip-path="url(#pf072c09df4)" style="fill: #ff7f0e; opacity: 0.4"/>
   </g>
   <g id="patch_73">
    <path d="M 159.154239 177.319219 
L 163.979641 177.319219 
L 163.979641 106.628137 
L 159.154239 106.628137 
z
" clip-path="url(#pf072c09df4)" style="fill: #ff7f0e; opacity: 0.4"/>
   </g>
   <g id="patch_74">
    <path d="M 163.979641 177.319219 
L 168.805043 177.319219 
L 168.805043 91.98684 
L 163.979641 91.98684 
z
" clip-path="url(#pf072c09df4)" style="fill: #ff7f0e; opacity: 0.4"/>
   </g>
   <g id="patch_75">
    <path d="M 168.805043 177.319219 
L 173.630445 177.319219 
L 173.630445 79.389309 
L 168.805043 79.389309 
z
" clip-path="url(#pf072c09df4)" style="fill: #ff7f0e; opacity: 0.4"/>
   </g>
   <g id="patch_76">
    <path d="M 173.630445 177.319219 
L 178.455848 177.319219 
L 178.455848 71.35095 
L 173.630445 71.35095 
z
" clip-path="url(#pf072c09df4)" style="fill: #ff7f0e; opacity: 0.4"/>
   </g>
   <g id="patch_77">
    <path d="M 178.455848 177.319219 
L 183.28125 177.319219 
L 183.28125 65.814325 
L 178.455848 65.814325 
z
" clip-path="url(#pf072c09df4)" style="fill: #ff7f0e; opacity: 0.4"/>
   </g>
   <g id="patch_78">
    <path d="M 183.28125 177.319219 
L 188.106652 177.319219 
L 188.106652 66.860132 
L 183.28125 66.860132 
z
" clip-path="url(#pf072c09df4)" style="fill: #ff7f0e; opacity: 0.4"/>
   </g>
   <g id="patch_79">
    <path d="M 188.106652 177.319219 
L 192.932055 177.319219 
L 192.932055 71.063866 
L 188.106652 71.063866 
z
" clip-path="url(#pf072c09df4)" style="fill: #ff7f0e; opacity: 0.4"/>
   </g>
   <g id="patch_80">
    <path d="M 192.932055 177.319219 
L 197.757457 177.319219 
L 197.757457 76.908081 
L 192.932055 76.908081 
z
" clip-path="url(#pf072c09df4)" style="fill: #ff7f0e; opacity: 0.4"/>
   </g>
   <g id="patch_81">
    <path d="M 197.757457 177.319219 
L 202.582859 177.319219 
L 202.582859 90.07978 
L 197.757457 90.07978 
z
" clip-path="url(#pf072c09df4)" style="fill: #ff7f0e; opacity: 0.4"/>
   </g>
   <g id="patch_82">
    <path d="M 202.582859 177.319219 
L 207.408261 177.319219 
L 207.408261 103.757295 
L 202.582859 103.757295 
z
" clip-path="url(#pf072c09df4)" style="fill: #ff7f0e; opacity: 0.4"/>
   </g>
   <g id="patch_83">
    <path d="M 207.408261 177.319219 
L 212.233664 177.319219 
L 212.233664 117.776576 
L 207.408261 117.776576 
z
" clip-path="url(#pf072c09df4)" style="fill: #ff7f0e; opacity: 0.4"/>
   </g>
   <g id="patch_84">
    <path d="M 212.233664 177.319219 
L 217.059066 177.319219 
L 217.059066 131.372066 
L 212.233664 131.372066 
z
" clip-path="url(#pf072c09df4)" style="fill: #ff7f0e; opacity: 0.4"/>
   </g>
   <g id="patch_85">
    <path d="M 217.059066 177.319219 
L 221.884468 177.319219 
L 221.884468 141.973678 
L 217.059066 141.973678 
z
" clip-path="url(#pf072c09df4)" style="fill: #ff7f0e; opacity: 0.4"/>
   </g>
   <g id="patch_86">
    <path d="M 221.884468 177.319219 
L 226.709871 177.319219 
L 226.709871 152.670984 
L 221.884468 152.670984 
z
" clip-path="url(#pf072c09df4)" style="fill: #ff7f0e; opacity: 0.4"/>
   </g>
   <g id="patch_87">
    <path d="M 226.709871 177.319219 
L 231.535273 177.319219 
L 231.535273 159.608854 
L 226.709871 159.608854 
z
" clip-path="url(#pf072c09df4)" style="fill: #ff7f0e; opacity: 0.4"/>
   </g>
   <g id="patch_88">
    <path d="M 231.535273 177.319219 
L 236.360675 177.319219 
L 236.360675 165.535093 
L 231.535273 165.535093 
z
" clip-path="url(#pf072c09df4)" style="fill: #ff7f0e; opacity: 0.4"/>
   </g>
   <g id="patch_89">
    <path d="M 236.360675 177.319219 
L 241.186078 177.319219 
L 241.186078 169.622626 
L 236.360675 169.622626 
z
" clip-path="url(#pf072c09df4)" style="fill: #ff7f0e; opacity: 0.4"/>
   </g>
   <g id="patch_90">
    <path d="M 241.186078 177.319219 
L 246.01148 177.319219 
L 246.01148 172.691694 
L 241.186078 172.691694 
z
" clip-path="url(#pf072c09df4)" style="fill: #ff7f0e; opacity: 0.4"/>
   </g>
   <g id="patch_91">
    <path d="M 246.01148 177.319219 
L 250.836882 177.319219 
L 250.836882 174.441541 
L 246.01148 174.441541 
z
" clip-path="url(#pf072c09df4)" style="fill: #ff7f0e; opacity: 0.4"/>
   </g>
   <g id="patch_92">
    <path d="M 250.836882 177.319219 
L 255.662284 177.319219 
L 255.662284 175.794938 
L 250.836882 175.794938 
z
" clip-path="url(#pf072c09df4)" style="fill: #ff7f0e; opacity: 0.4"/>
   </g>
   <g id="patch_93">
    <path d="M 255.662284 177.319219 
L 260.487687 177.319219 
L 260.487687 176.382777 
L 255.662284 176.382777 
z
" clip-path="url(#pf072c09df4)" style="fill: #ff7f0e; opacity: 0.4"/>
   </g>
   <g id="patch_94">
    <path d="M 260.487687 177.319219 
L 265.313089 177.319219 
L 265.313089 176.827074 
L 260.487687 176.827074 
z
" clip-path="url(#pf072c09df4)" style="fill: #ff7f0e; opacity: 0.4"/>
   </g>
   <g id="patch_95">
    <path d="M 265.313089 177.319219 
L 270.138491 177.319219 
L 270.138491 177.052641 
L 265.313089 177.052641 
z
" clip-path="url(#pf072c09df4)" style="fill: #ff7f0e; opacity: 0.4"/>
   </g>
   <g id="patch_96">
    <path d="M 270.138491 177.319219 
L 274.963894 177.319219 
L 274.963894 177.209853 
L 270.138491 177.209853 
z
" clip-path="url(#pf072c09df4)" style="fill: #ff7f0e; opacity: 0.4"/>
   </g>
   <g id="patch_97">
    <path d="M 274.963894 177.319219 
L 279.789296 177.319219 
L 279.789296 177.271371 
L 274.963894 177.271371 
z
" clip-path="url(#pf072c09df4)" style="fill: #ff7f0e; opacity: 0.4"/>
   </g>
   <g id="patch_98">
    <path d="M 279.789296 177.319219 
L 284.614698 177.319219 
L 284.614698 177.305548 
L 279.789296 177.305548 
z
" clip-path="url(#pf072c09df4)" style="fill: #ff7f0e; opacity: 0.4"/>
   </g>
   <g id="patch_99">
    <path d="M 284.614698 177.319219 
L 289.4401 177.319219 
L 289.4401 177.285042 
L 284.614698 177.285042 
z
" clip-path="url(#pf072c09df4)" style="fill: #ff7f0e; opacity: 0.4"/>
   </g>
   <g id="patch_100">
    <path d="M 289.4401 177.319219 
L 294.265503 177.319219 
L 294.265503 177.305548 
L 289.4401 177.305548 
z
" clip-path="url(#pf072c09df4)" style="fill: #ff7f0e; opacity: 0.4"/>
   </g>
   <g id="patch_101">
    <path d="M 294.265503 177.319219 
L 299.090905 177.319219 
L 299.090905 177.319219 
L 294.265503 177.319219 
z
" clip-path="url(#pf072c09df4)" style="fill: #ff7f0e; opacity: 0.4"/>
   </g>
   <g id="patch_102">
    <path d="M 299.090905 177.319219 
L 303.916307 177.319219 
L 303.916307 177.312383 
L 299.090905 177.312383 
z
" clip-path="url(#pf072c09df4)" style="fill: #ff7f0e; opacity: 0.4"/>
   </g>
   <g id="matplotlib.axis_1">
    <g id="xtick_1">
     <g id="line2d_1">
      <defs>
       <path id="m4e5ff7d2cb" d="M 0 0 
L 0 3.5 
" style="stroke: #000000; stroke-width: 0.8"/>
      </defs>
      <g>
       <use xlink:href="#m4e5ff7d2cb" x="88.44213" y="177.319219" style="stroke: #000000; stroke-width: 0.8"/>
      </g>
     </g>
     <g id="text_1">
      <!-- −4 -->
      <g transform="translate(81.071036 191.917656) scale(0.1 -0.1)">
       <defs>
        <path id="DejaVuSans-2212" d="M 678 2272 
L 4684 2272 
L 4684 1741 
L 678 1741 
L 678 2272 
z
" transform="scale(0.015625)"/>
        <path id="DejaVuSans-34" d="M 2419 4116 
L 825 1625 
L 2419 1625 
L 2419 4116 
z
M 2253 4666 
L 3047 4666 
L 3047 1625 
L 3713 1625 
L 3713 1100 
L 3047 1100 
L 3047 0 
L 2419 0 
L 2419 1100 
L 313 1100 
L 313 1709 
L 2253 4666 
z
" transform="scale(0.015625)"/>
       </defs>
       <use xlink:href="#DejaVuSans-2212"/>
       <use xlink:href="#DejaVuSans-34" x="83.789062"/>
      </g>
     </g>
    </g>
    <g id="xtick_2">
     <g id="line2d_2">
      <g>
       <use xlink:href="#m4e5ff7d2cb" x="136.037026" y="177.319219" style="stroke: #000000; stroke-width: 0.8"/>
      </g>
     </g>
     <g id="text_2">
      <!-- −2 -->
      <g transform="translate(128.665932 191.917656) scale(0.1 -0.1)">
       <defs>
        <path id="DejaVuSans-32" d="M 1228 531 
L 3431 531 
L 3431 0 
L 469 0 
L 469 531 
Q 828 903 1448 1529 
Q 2069 2156 2228 2338 
Q 2531 2678 2651 2914 
Q 2772 3150 2772 3378 
Q 2772 3750 2511 3984 
Q 2250 4219 1831 4219 
Q 1534 4219 1204 4116 
Q 875 4013 500 3803 
L 500 4441 
Q 881 4594 1212 4672 
Q 1544 4750 1819 4750 
Q 2544 4750 2975 4387 
Q 3406 4025 3406 3419 
Q 3406 3131 3298 2873 
Q 3191 2616 2906 2266 
Q 2828 2175 2409 1742 
Q 1991 1309 1228 531 
z
" transform="scale(0.015625)"/>
       </defs>
       <use xlink:href="#DejaVuSans-2212"/>
       <use xlink:href="#DejaVuSans-32" x="83.789062"/>
      </g>
     </g>
    </g>
    <g id="xtick_3">
     <g id="line2d_3">
      <g>
       <use xlink:href="#m4e5ff7d2cb" x="183.631922" y="177.319219" style="stroke: #000000; stroke-width: 0.8"/>
      </g>
     </g>
     <g id="text_3">
      <!-- 0 -->
      <g transform="translate(180.450672 191.917656) scale(0.1 -0.1)">
       <defs>
        <path id="DejaVuSans-30" d="M 2034 4250 
Q 1547 4250 1301 3770 
Q 1056 3291 1056 2328 
Q 1056 1369 1301 889 
Q 1547 409 2034 409 
Q 2525 409 2770 889 
Q 3016 1369 3016 2328 
Q 3016 3291 2770 3770 
Q 2525 4250 2034 4250 
z
M 2034 4750 
Q 2819 4750 3233 4129 
Q 3647 3509 3647 2328 
Q 3647 1150 3233 529 
Q 2819 -91 2034 -91 
Q 1250 -91 836 529 
Q 422 1150 422 2328 
Q 422 3509 836 4129 
Q 1250 4750 2034 4750 
z
" transform="scale(0.015625)"/>
       </defs>
       <use xlink:href="#DejaVuSans-30"/>
      </g>
     </g>
    </g>
    <g id="xtick_4">
     <g id="line2d_4">
      <g>
       <use xlink:href="#m4e5ff7d2cb" x="231.226818" y="177.319219" style="stroke: #000000; stroke-width: 0.8"/>
      </g>
     </g>
     <g id="text_4">
      <!-- 2 -->
      <g transform="translate(228.045568 191.917656) scale(0.1 -0.1)">
       <use xlink:href="#DejaVuSans-32"/>
      </g>
     </g>
    </g>
    <g id="xtick_5">
     <g id="line2d_5">
      <g>
       <use xlink:href="#m4e5ff7d2cb" x="278.821714" y="177.319219" style="stroke: #000000; stroke-width: 0.8"/>
      </g>
     </g>
     <g id="text_5">
      <!-- 4 -->
      <g transform="translate(275.640464 191.917656) scale(0.1 -0.1)">
       <use xlink:href="#DejaVuSans-34"/>
      </g>
     </g>
    </g>
   </g>
   <g id="matplotlib.axis_2">
    <g id="ytick_1">
     <g id="line2d_6">
      <defs>
       <path id="m4919d8f17c" d="M 0 0 
L -3.5 0 
" style="stroke: #000000; stroke-width: 0.8"/>
      </defs>
      <g>
       <use xlink:href="#m4919d8f17c" x="43.78125" y="177.319219" style="stroke: #000000; stroke-width: 0.8"/>
      </g>
     </g>
     <g id="text_6">
      <!-- 0.0 -->
      <g transform="translate(20.878125 181.118438) scale(0.1 -0.1)">
       <defs>
        <path id="DejaVuSans-2e" d="M 684 794 
L 1344 794 
L 1344 0 
L 684 0 
L 684 794 
z
" transform="scale(0.015625)"/>
       </defs>
       <use xlink:href="#DejaVuSans-30"/>
       <use xlink:href="#DejaVuSans-2e" x="63.623047"/>
       <use xlink:href="#DejaVuSans-30" x="95.410156"/>
      </g>
     </g>
    </g>
    <g id="ytick_2">
     <g id="line2d_7">
      <g>
       <use xlink:href="#m4919d8f17c" x="43.78125" y="149.599219" style="stroke: #000000; stroke-width: 0.8"/>
      </g>
     </g>
     <g id="text_7">
      <!-- 0.1 -->
      <g transform="translate(20.878125 153.398438) scale(0.1 -0.1)">
       <defs>
        <path id="DejaVuSans-31" d="M 794 531 
L 1825 531 
L 1825 4091 
L 703 3866 
L 703 4441 
L 1819 4666 
L 2450 4666 
L 2450 531 
L 3481 531 
L 3481 0 
L 794 0 
L 794 531 
z
" transform="scale(0.015625)"/>
       </defs>
       <use xlink:href="#DejaVuSans-30"/>
       <use xlink:href="#DejaVuSans-2e" x="63.623047"/>
       <use xlink:href="#DejaVuSans-31" x="95.410156"/>
      </g>
     </g>
    </g>
    <g id="ytick_3">
     <g id="line2d_8">
      <g>
       <use xlink:href="#m4919d8f17c" x="43.78125" y="121.879219" style="stroke: #000000; stroke-width: 0.8"/>
      </g>
     </g>
     <g id="text_8">
      <!-- 0.2 -->
      <g transform="translate(20.878125 125.678438) scale(0.1 -0.1)">
       <use xlink:href="#DejaVuSans-30"/>
       <use xlink:href="#DejaVuSans-2e" x="63.623047"/>
       <use xlink:href="#DejaVuSans-32" x="95.410156"/>
      </g>
     </g>
    </g>
    <g id="ytick_4">
     <g id="line2d_9">
      <g>
       <use xlink:href="#m4919d8f17c" x="43.78125" y="94.159219" style="stroke: #000000; stroke-width: 0.8"/>
      </g>
     </g>
     <g id="text_9">
      <!-- 0.3 -->
      <g transform="translate(20.878125 97.958438) scale(0.1 -0.1)">
       <defs>
        <path id="DejaVuSans-33" d="M 2597 2516 
Q 3050 2419 3304 2112 
Q 3559 1806 3559 1356 
Q 3559 666 3084 287 
Q 2609 -91 1734 -91 
Q 1441 -91 1130 -33 
Q 819 25 488 141 
L 488 750 
Q 750 597 1062 519 
Q 1375 441 1716 441 
Q 2309 441 2620 675 
Q 2931 909 2931 1356 
Q 2931 1769 2642 2001 
Q 2353 2234 1838 2234 
L 1294 2234 
L 1294 2753 
L 1863 2753 
Q 2328 2753 2575 2939 
Q 2822 3125 2822 3475 
Q 2822 3834 2567 4026 
Q 2313 4219 1838 4219 
Q 1578 4219 1281 4162 
Q 984 4106 628 3988 
L 628 4550 
Q 988 4650 1302 4700 
Q 1616 4750 1894 4750 
Q 2613 4750 3031 4423 
Q 3450 4097 3450 3541 
Q 3450 3153 3228 2886 
Q 3006 2619 2597 2516 
z
" transform="scale(0.015625)"/>
       </defs>
       <use xlink:href="#DejaVuSans-30"/>
       <use xlink:href="#DejaVuSans-2e" x="63.623047"/>
       <use xlink:href="#DejaVuSans-33" x="95.410156"/>
      </g>
     </g>
    </g>
    <g id="ytick_5">
     <g id="line2d_10">
      <g>
       <use xlink:href="#m4919d8f17c" x="43.78125" y="66.439219" style="stroke: #000000; stroke-width: 0.8"/>
      </g>
     </g>
     <g id="text_10">
      <!-- 0.4 -->
      <g transform="translate(20.878125 70.238438) scale(0.1 -0.1)">
       <use xlink:href="#DejaVuSans-30"/>
       <use xlink:href="#DejaVuSans-2e" x="63.623047"/>
       <use xlink:href="#DejaVuSans-34" x="95.410156"/>
      </g>
     </g>
    </g>
    <g id="ytick_6">
     <g id="line2d_11">
      <g>
       <use xlink:href="#m4919d8f17c" x="43.78125" y="38.719219" style="stroke: #000000; stroke-width: 0.8"/>
      </g>
     </g>
     <g id="text_11">
      <!-- 0.5 -->
      <g transform="translate(20.878125 42.518438) scale(0.1 -0.1)">
       <defs>
        <path id="DejaVuSans-35" d="M 691 4666 
L 3169 4666 
L 3169 4134 
L 1269 4134 
L 1269 2991 
Q 1406 3038 1543 3061 
Q 1681 3084 1819 3084 
Q 2600 3084 3056 2656 
Q 3513 2228 3513 1497 
Q 3513 744 3044 326 
Q 2575 -91 1722 -91 
Q 1428 -91 1123 -41 
Q 819 9 494 109 
L 494 744 
Q 775 591 1075 516 
Q 1375 441 1709 441 
Q 2250 441 2565 725 
Q 2881 1009 2881 1497 
Q 2881 1984 2565 2268 
Q 2250 2553 1709 2553 
Q 1456 2553 1204 2497 
Q 953 2441 691 2322 
L 691 4666 
z
" transform="scale(0.015625)"/>
       </defs>
       <use xlink:href="#DejaVuSans-30"/>
       <use xlink:href="#DejaVuSans-2e" x="63.623047"/>
       <use xlink:href="#DejaVuSans-35" x="95.410156"/>
      </g>
     </g>
    </g>
    <g id="ytick_7">
     <g id="line2d_12">
      <g>
       <use xlink:href="#m4919d8f17c" x="43.78125" y="10.999219" style="stroke: #000000; stroke-width: 0.8"/>
      </g>
     </g>
     <g id="text_12">
      <!-- 0.6 -->
      <g transform="translate(20.878125 14.798438) scale(0.1 -0.1)">
       <defs>
        <path id="DejaVuSans-36" d="M 2113 2584 
Q 1688 2584 1439 2293 
Q 1191 2003 1191 1497 
Q 1191 994 1439 701 
Q 1688 409 2113 409 
Q 2538 409 2786 701 
Q 3034 994 3034 1497 
Q 3034 2003 2786 2293 
Q 2538 2584 2113 2584 
z
M 3366 4563 
L 3366 3988 
Q 3128 4100 2886 4159 
Q 2644 4219 2406 4219 
Q 1781 4219 1451 3797 
Q 1122 3375 1075 2522 
Q 1259 2794 1537 2939 
Q 1816 3084 2150 3084 
Q 2853 3084 3261 2657 
Q 3669 2231 3669 1497 
Q 3669 778 3244 343 
Q 2819 -91 2113 -91 
Q 1303 -91 875 529 
Q 447 1150 447 2328 
Q 447 3434 972 4092 
Q 1497 4750 2381 4750 
Q 2619 4750 2861 4703 
Q 3103 4656 3366 4563 
z
" transform="scale(0.015625)"/>
       </defs>
       <use xlink:href="#DejaVuSans-30"/>
       <use xlink:href="#DejaVuSans-2e" x="63.623047"/>
       <use xlink:href="#DejaVuSans-36" x="95.410156"/>
      </g>
     </g>
    </g>
    <g id="text_13">
     <!-- Density -->
     <g transform="translate(14.798438 113.167813) rotate(-90) scale(0.1 -0.1)">
      <defs>
       <path id="DejaVuSans-44" d="M 1259 4147 
L 1259 519 
L 2022 519 
Q 2988 519 3436 956 
Q 3884 1394 3884 2338 
Q 3884 3275 3436 3711 
Q 2988 4147 2022 4147 
L 1259 4147 
z
M 628 4666 
L 1925 4666 
Q 3281 4666 3915 4102 
Q 4550 3538 4550 2338 
Q 4550 1131 3912 565 
Q 3275 0 1925 0 
L 628 0 
L 628 4666 
z
" transform="scale(0.015625)"/>
       <path id="DejaVuSans-65" d="M 3597 1894 
L 3597 1613 
L 953 1613 
Q 991 1019 1311 708 
Q 1631 397 2203 397 
Q 2534 397 2845 478 
Q 3156 559 3463 722 
L 3463 178 
Q 3153 47 2828 -22 
Q 2503 -91 2169 -91 
Q 1331 -91 842 396 
Q 353 884 353 1716 
Q 353 2575 817 3079 
Q 1281 3584 2069 3584 
Q 2775 3584 3186 3129 
Q 3597 2675 3597 1894 
z
M 3022 2063 
Q 3016 2534 2758 2815 
Q 2500 3097 2075 3097 
Q 1594 3097 1305 2825 
Q 1016 2553 972 2059 
L 3022 2063 
z
" transform="scale(0.015625)"/>
       <path id="DejaVuSans-6e" d="M 3513 2113 
L 3513 0 
L 2938 0 
L 2938 2094 
Q 2938 2591 2744 2837 
Q 2550 3084 2163 3084 
Q 1697 3084 1428 2787 
Q 1159 2491 1159 1978 
L 1159 0 
L 581 0 
L 581 3500 
L 1159 3500 
L 1159 2956 
Q 1366 3272 1645 3428 
Q 1925 3584 2291 3584 
Q 2894 3584 3203 3211 
Q 3513 2838 3513 2113 
z
" transform="scale(0.015625)"/>
       <path id="DejaVuSans-73" d="M 2834 3397 
L 2834 2853 
Q 2591 2978 2328 3040 
Q 2066 3103 1784 3103 
Q 1356 3103 1142 2972 
Q 928 2841 928 2578 
Q 928 2378 1081 2264 
Q 1234 2150 1697 2047 
L 1894 2003 
Q 2506 1872 2764 1633 
Q 3022 1394 3022 966 
Q 3022 478 2636 193 
Q 2250 -91 1575 -91 
Q 1294 -91 989 -36 
Q 684 19 347 128 
L 347 722 
Q 666 556 975 473 
Q 1284 391 1588 391 
Q 1994 391 2212 530 
Q 2431 669 2431 922 
Q 2431 1156 2273 1281 
Q 2116 1406 1581 1522 
L 1381 1569 
Q 847 1681 609 1914 
Q 372 2147 372 2553 
Q 372 3047 722 3315 
Q 1072 3584 1716 3584 
Q 2034 3584 2315 3537 
Q 2597 3491 2834 3397 
z
" transform="scale(0.015625)"/>
       <path id="DejaVuSans-69" d="M 603 3500 
L 1178 3500 
L 1178 0 
L 603 0 
L 603 3500 
z
M 603 4863 
L 1178 4863 
L 1178 4134 
L 603 4134 
L 603 4863 
z
" transform="scale(0.015625)"/>
       <path id="DejaVuSans-74" d="M 1172 4494 
L 1172 3500 
L 2356 3500 
L 2356 3053 
L 1172 3053 
L 1172 1153 
Q 1172 725 1289 603 
Q 1406 481 1766 481 
L 2356 481 
L 2356 0 
L 1766 0 
Q 1100 0 847 248 
Q 594 497 594 1153 
L 594 3053 
L 172 3053 
L 172 3500 
L 594 3500 
L 594 4494 
L 1172 4494 
z
" transform="scale(0.015625)"/>
       <path id="DejaVuSans-79" d="M 2059 -325 
Q 1816 -950 1584 -1140 
Q 1353 -1331 966 -1331 
L 506 -1331 
L 506 -850 
L 844 -850 
Q 1081 -850 1212 -737 
Q 1344 -625 1503 -206 
L 1606 56 
L 191 3500 
L 800 3500 
L 1894 763 
L 2988 3500 
L 3597 3500 
L 2059 -325 
z
" transform="scale(0.015625)"/>
      </defs>
      <use xlink:href="#DejaVuSans-44"/>
      <use xlink:href="#DejaVuSans-65" x="77.001953"/>
      <use xlink:href="#DejaVuSans-6e" x="138.525391"/>
      <use xlink:href="#DejaVuSans-73" x="201.904297"/>
      <use xlink:href="#DejaVuSans-69" x="254.003906"/>
      <use xlink:href="#DejaVuSans-74" x="281.787109"/>
      <use xlink:href="#DejaVuSans-79" x="320.996094"/>
     </g>
    </g>
   </g>
   <g id="line2d_13">
    <path d="M 72.955809 177.31902 
L 93.069963 177.207335 
L 104.901818 176.947616 
L 108.451375 176.511232 
L 115.550488 175.424246 
L 117.916859 174.800247 
L 122.649601 173.170987 
L 123.832787 172.638872 
L 125.015972 171.975689 
L 127.382344 170.224083 
L 133.298271 165.268691 
L 134.481457 164.027777 
L 136.847828 161.052017 
L 139.214199 157.601153 
L 143.946941 149.947759 
L 145.130127 147.811904 
L 147.496498 142.766547 
L 151.046054 134.27262 
L 153.412425 127.750511 
L 156.961982 117.069677 
L 159.328353 111.078595 
L 161.694724 105.166258 
L 166.427466 91.921184 
L 169.977023 83.759448 
L 172.343394 78.765972 
L 174.709765 74.497996 
L 175.89295 72.833335 
L 177.076136 71.616503 
L 178.259321 70.799382 
L 180.625693 69.484564 
L 181.808878 68.732636 
L 182.992064 68.124569 
L 184.175249 67.938524 
L 185.358435 68.267274 
L 186.54162 68.956411 
L 188.907991 70.687428 
L 190.091177 71.751134 
L 191.274362 73.10244 
L 192.457548 74.764037 
L 196.007104 80.489436 
L 197.19029 82.641278 
L 198.373476 85.26319 
L 199.556661 88.446259 
L 204.289403 102.323138 
L 218.48763 139.322764 
L 220.854001 144.273183 
L 225.586743 153.293967 
L 227.953114 157.288482 
L 230.319485 160.736222 
L 233.869042 165.190056 
L 236.235413 167.79643 
L 238.601784 169.719292 
L 240.968155 171.261693 
L 243.334526 172.492201 
L 245.700897 173.455282 
L 248.067268 174.25334 
L 252.80001 175.488864 
L 255.166381 176.001162 
L 258.715938 176.503023 
L 263.44868 176.847478 
L 271.730979 177.235147 
L 287.112391 177.309436 
L 308.40973 177.319096 
L 308.40973 177.319096 
" clip-path="url(#pf072c09df4)" style="fill: none; stroke: #1f77b4; stroke-width: 1.5; stroke-linecap: square"/>
   </g>
   <g id="line2d_14">
    <path d="M 56.463068 177.319148 
L 95.974261 177.211478 
L 104.896143 176.828825 
L 109.994361 176.420895 
L 113.818025 175.843434 
L 117.641689 174.899066 
L 121.465352 173.692911 
L 124.014462 172.569115 
L 126.563571 171.172074 
L 129.11268 169.436246 
L 131.661789 167.274858 
L 134.210898 164.618858 
L 136.760007 161.597761 
L 139.309117 158.233539 
L 140.583671 156.340933 
L 141.858226 154.227511 
L 143.13278 151.841887 
L 145.68189 146.276313 
L 148.230999 140.627572 
L 150.780108 135.25107 
L 153.329217 129.121194 
L 155.878326 122.334452 
L 166.074763 92.992611 
L 168.623872 86.276433 
L 172.447536 76.821724 
L 173.722091 74.201824 
L 174.996645 72.206133 
L 176.2712 70.736441 
L 180.094864 67.105533 
L 181.369418 66.403435 
L 182.643973 66.196568 
L 183.918527 66.31529 
L 185.193082 66.626677 
L 186.467636 67.232764 
L 187.742191 68.24697 
L 190.2913 71.049456 
L 194.114964 75.644978 
L 195.389519 77.578203 
L 196.664073 80.179336 
L 197.938628 83.441691 
L 201.762292 94.612859 
L 204.311401 101.904909 
L 206.86051 108.786832 
L 213.233283 127.548202 
L 215.782392 133.740291 
L 219.606056 142.44523 
L 223.42972 150.660098 
L 224.704274 152.995392 
L 227.253383 156.792946 
L 231.077047 162.209103 
L 233.626156 165.20826 
L 234.900711 166.548291 
L 236.175266 167.723822 
L 238.724375 169.602175 
L 243.822593 172.717423 
L 245.097148 173.381369 
L 246.371702 173.889369 
L 251.469921 175.250163 
L 254.01903 175.846116 
L 256.568139 176.250308 
L 260.391803 176.631097 
L 265.490021 176.91809 
L 271.862794 177.20077 
L 298.62844 177.318938 
L 310.099432 177.319148 
L 310.099432 177.319148 
" clip-path="url(#pf072c09df4)" style="fill: none; stroke: #ff7f0e; stroke-width: 1.5; stroke-linecap: square"/>
   </g>
   <g id="patch_103">
    <path d="M 43.78125 177.319219 
L 43.78125 10.999219 
" style="fill: none; stroke: #000000; stroke-width: 0.8; stroke-linejoin: miter; stroke-linecap: square"/>
   </g>
   <g id="patch_104">
    <path d="M 322.78125 177.319219 
L 322.78125 10.999219 
" style="fill: none; stroke: #000000; stroke-width: 0.8; stroke-linejoin: miter; stroke-linecap: square"/>
   </g>
   <g id="patch_105">
    <path d="M 43.78125 177.319219 
L 322.78125 177.319219 
" style="fill: none; stroke: #000000; stroke-width: 0.8; stroke-linejoin: miter; stroke-linecap: square"/>
   </g>
   <g id="patch_106">
    <path d="M 43.78125 10.999219 
L 322.78125 10.999219 
" style="fill: none; stroke: #000000; stroke-width: 0.8; stroke-linejoin: miter; stroke-linecap: square"/>
   </g>
   <g id="legend_1">
    <g id="patch_107">
     <path d="M 233.28125 48.499219 
L 315.78125 48.499219 
Q 317.78125 48.499219 317.78125 46.499219 
L 317.78125 17.999219 
Q 317.78125 15.999219 315.78125 15.999219 
L 233.28125 15.999219 
Q 231.28125 15.999219 231.28125 17.999219 
L 231.28125 46.499219 
Q 231.28125 48.499219 233.28125 48.499219 
z
" style="fill: #ffffff; opacity: 0.8; stroke: #cccccc; stroke-linejoin: miter"/>
    </g>
    <g id="patch_108">
     <path d="M 235.28125 27.599219 
L 255.28125 27.599219 
L 255.28125 20.599219 
L 235.28125 20.599219 
z
" style="fill: #1f77b4; opacity: 0.4"/>
    </g>
    <g id="text_14">
     <!-- $\mathbf{x}$ (input) -->
     <g transform="translate(263.28125 27.599219) scale(0.1 -0.1)">
      <defs>
       <path id="DejaVuSans-Bold-78" d="M 1422 1791 
L 159 3500 
L 1344 3500 
L 2059 2463 
L 2784 3500 
L 3969 3500 
L 2706 1797 
L 4031 0 
L 2847 0 
L 2059 1106 
L 1281 0 
L 97 0 
L 1422 1791 
z
" transform="scale(0.015625)"/>
       <path id="DejaVuSans-20" transform="scale(0.015625)"/>
       <path id="DejaVuSans-28" d="M 1984 4856 
Q 1566 4138 1362 3434 
Q 1159 2731 1159 2009 
Q 1159 1288 1364 580 
Q 1569 -128 1984 -844 
L 1484 -844 
Q 1016 -109 783 600 
Q 550 1309 550 2009 
Q 550 2706 781 3412 
Q 1013 4119 1484 4856 
L 1984 4856 
z
" transform="scale(0.015625)"/>
       <path id="DejaVuSans-70" d="M 1159 525 
L 1159 -1331 
L 581 -1331 
L 581 3500 
L 1159 3500 
L 1159 2969 
Q 1341 3281 1617 3432 
Q 1894 3584 2278 3584 
Q 2916 3584 3314 3078 
Q 3713 2572 3713 1747 
Q 3713 922 3314 415 
Q 2916 -91 2278 -91 
Q 1894 -91 1617 61 
Q 1341 213 1159 525 
z
M 3116 1747 
Q 3116 2381 2855 2742 
Q 2594 3103 2138 3103 
Q 1681 3103 1420 2742 
Q 1159 2381 1159 1747 
Q 1159 1113 1420 752 
Q 1681 391 2138 391 
Q 2594 391 2855 752 
Q 3116 1113 3116 1747 
z
" transform="scale(0.015625)"/>
       <path id="DejaVuSans-75" d="M 544 1381 
L 544 3500 
L 1119 3500 
L 1119 1403 
Q 1119 906 1312 657 
Q 1506 409 1894 409 
Q 2359 409 2629 706 
Q 2900 1003 2900 1516 
L 2900 3500 
L 3475 3500 
L 3475 0 
L 2900 0 
L 2900 538 
Q 2691 219 2414 64 
Q 2138 -91 1772 -91 
Q 1169 -91 856 284 
Q 544 659 544 1381 
z
M 1991 3584 
L 1991 3584 
z
" transform="scale(0.015625)"/>
       <path id="DejaVuSans-29" d="M 513 4856 
L 1013 4856 
Q 1481 4119 1714 3412 
Q 1947 2706 1947 2009 
Q 1947 1309 1714 600 
Q 1481 -109 1013 -844 
L 513 -844 
Q 928 -128 1133 580 
Q 1338 1288 1338 2009 
Q 1338 2731 1133 3434 
Q 928 4138 513 4856 
z
" transform="scale(0.015625)"/>
      </defs>
      <use xlink:href="#DejaVuSans-Bold-78" transform="translate(0 0.015625)"/>
      <use xlink:href="#DejaVuSans-20" transform="translate(64.501953 0.015625)"/>
      <use xlink:href="#DejaVuSans-28" transform="translate(96.289062 0.015625)"/>
      <use xlink:href="#DejaVuSans-69" transform="translate(135.302734 0.015625)"/>
      <use xlink:href="#DejaVuSans-6e" transform="translate(163.085938 0.015625)"/>
      <use xlink:href="#DejaVuSans-70" transform="translate(226.464844 0.015625)"/>
      <use xlink:href="#DejaVuSans-75" transform="translate(289.941406 0.015625)"/>
      <use xlink:href="#DejaVuSans-74" transform="translate(353.320312 0.015625)"/>
      <use xlink:href="#DejaVuSans-29" transform="translate(392.529297 0.015625)"/>
     </g>
    </g>
    <g id="patch_109">
     <path d="M 235.28125 42.299219 
L 255.28125 42.299219 
L 255.28125 35.299219 
L 235.28125 35.299219 
z
" style="fill: #ff7f0e; opacity: 0.4"/>
    </g>
    <g id="text_15">
     <!-- $\mathbf{y}$ (output) -->
     <g transform="translate(263.28125 42.299219) scale(0.1 -0.1)">
      <defs>
       <path id="DejaVuSans-Bold-79" d="M 78 3500 
L 1197 3500 
L 2138 1125 
L 2938 3500 
L 4056 3500 
L 2584 -331 
Q 2363 -916 2067 -1148 
Q 1772 -1381 1288 -1381 
L 641 -1381 
L 641 -647 
L 991 -647 
Q 1275 -647 1404 -556 
Q 1534 -466 1606 -231 
L 1638 -134 
L 78 3500 
z
" transform="scale(0.015625)"/>
       <path id="DejaVuSans-6f" d="M 1959 3097 
Q 1497 3097 1228 2736 
Q 959 2375 959 1747 
Q 959 1119 1226 758 
Q 1494 397 1959 397 
Q 2419 397 2687 759 
Q 2956 1122 2956 1747 
Q 2956 2369 2687 2733 
Q 2419 3097 1959 3097 
z
M 1959 3584 
Q 2709 3584 3137 3096 
Q 3566 2609 3566 1747 
Q 3566 888 3137 398 
Q 2709 -91 1959 -91 
Q 1206 -91 779 398 
Q 353 888 353 1747 
Q 353 2609 779 3096 
Q 1206 3584 1959 3584 
z
" transform="scale(0.015625)"/>
      </defs>
      <use xlink:href="#DejaVuSans-Bold-79" transform="translate(0 0.125)"/>
      <use xlink:href="#DejaVuSans-20" transform="translate(65.185547 0.125)"/>
      <use xlink:href="#DejaVuSans-28" transform="translate(96.972656 0.125)"/>
      <use xlink:href="#DejaVuSans-6f" transform="translate(135.986328 0.125)"/>
      <use xlink:href="#DejaVuSans-75" transform="translate(197.167969 0.125)"/>
      <use xlink:href="#DejaVuSans-74" transform="translate(260.546875 0.125)"/>
      <use xlink:href="#DejaVuSans-70" transform="translate(299.755859 0.125)"/>
      <use xlink:href="#DejaVuSans-75" transform="translate(363.232422 0.125)"/>
      <use xlink:href="#DejaVuSans-74" transform="translate(426.611328 0.125)"/>
      <use xlink:href="#DejaVuSans-29" transform="translate(465.820312 0.125)"/>
     </g>
    </g>
   </g>
  </g>
 </g>
 <defs>
  <clipPath id="pf072c09df4">
   <rect x="43.78125" y="10.999219" width="279" height="166.32"/>
  </clipPath>
 </defs>
</svg>