<?xml version="1.0" encoding="utf-8" standalone="no"?>
<!DOCTYPE svg PUBLIC "-//W3C//DTD SVG 1.1//EN"
  "http://www.w3.org/Graphics/SVG/1.1/DTD/svg11.dtd">
<svg xmlns:xlink="http://www.w3.org/1999/xlink" width="329.98125pt" height="197.398125pt" viewBox="0 0 329.98125 197.398125" xmlns="http://www.w3.org/2000/svg" version="1.1">
 <metadata>
  <rdf:RDF xmlns:dc="http://purl.org/dc/elements/1.1/" xmlns:cc="http://creativecommons.org/ns#" xmlns:rdf="http://www.w3.org/1999/02/22-rdf-syntax-ns#">
   <cc:Work>
    <dc:type rdf:resource="http://purl.org/dc/dcmitype/StillImage"/>
    <dc:date>2024-05-25T02:59:13.359087</dc:date>
    <dc:format>image/svg+xml</dc:format>
    <dc:creator>
     <cc:Agent>
      <dc:title>Matplotlib v3.7.1, https://matplotlib.org/</dc:title>
     </cc:Agent>
    </dc:creator>
   </cc:Work>
  </rdf:RDF>
 </metadata>
 <defs>
  <style type="text/css">*{stroke-linejoin: round; stroke-linecap: butt}</style>
 </defs>
 <g id="figure_1">
  <g id="patch_1">
   <path d="M 0 197.398125 
L 329.98125 197.398125 
L 329.98125 0 
L 0 0 
z
" style="fill: #ffffff"/>
  </g>
  <g id="axes_1">
   <g id="patch_2">
    <path d="M 43.78125 173.52 
L 322.78125 173.52 
L 322.78125 7.2 
L 43.78125 7.2 
z
" style="fill: #ffffff"/>
   </g>
   <g id="patch_3">
    <path d="M 173.570871 173.52 
L 174.022624 173.52 
L 174.022624 173.496672 
L 173.570871 173.496672 
z
" clip-path="url(#p75ebfbde77)" style="fill: #1f77b4; opacity: 0.4"/>
   </g>
   <g id="patch_4">
    <path d="M 174.022624 173.52 
L 174.474378 173.52 
L 174.474378 173.496672 
L 174.022624 173.496672 
z
" clip-path="url(#p75ebfbde77)" style="fill: #1f77b4; opacity: 0.4"/>
   </g>
   <g id="patch_5">
    <path d="M 174.474378 173.52 
L 174.926131 173.52 
L 174.926131 173.426686 
L 174.474378 173.426686 
z
" clip-path="url(#p75ebfbde77)" style="fill: #1f77b4; opacity: 0.4"/>
   </g>
   <g id="patch_6">
    <path d="M 174.926131 173.52 
L 175.377885 173.52 
L 175.377885 173.403358 
L 174.926131 173.403358 
z
" clip-path="url(#p75ebfbde77)" style="fill: #1f77b4; opacity: 0.4"/>
   </g>
   <g id="patch_7">
    <path d="M 175.377885 173.52 
L 175.829638 173.52 
L 175.829638 173.356701 
L 175.377885 173.356701 
z
" clip-path="url(#p75ebfbde77)" style="fill: #1f77b4; opacity: 0.4"/>
   </g>
   <g id="patch_8">
    <path d="M 175.829638 173.52 
L 176.281392 173.52 
L 176.281392 173.240059 
L 175.829638 173.240059 
z
" clip-path="url(#p75ebfbde77)" style="fill: #1f77b4; opacity: 0.4"/>
   </g>
   <g id="patch_9">
    <path d="M 176.281392 173.52 
L 176.733146 173.52 
L 176.733146 172.703505 
L 176.281392 172.703505 
z
" clip-path="url(#p75ebfbde77)" style="fill: #1f77b4; opacity: 0.4"/>
   </g>
   <g id="patch_10">
    <path d="M 176.733146 173.52 
L 177.184899 173.52 
L 177.184899 172.283594 
L 176.733146 172.283594 
z
" clip-path="url(#p75ebfbde77)" style="fill: #1f77b4; opacity: 0.4"/>
   </g>
   <g id="patch_11">
    <path d="M 177.184899 173.52 
L 177.636653 173.52 
L 177.636653 171.700383 
L 177.184899 171.700383 
z
" clip-path="url(#p75ebfbde77)" style="fill: #1f77b4; opacity: 0.4"/>
   </g>
   <g id="patch_12">
    <path d="M 177.636653 173.52 
L 178.088406 173.52 
L 178.088406 170.510633 
L 177.636653 170.510633 
z
" clip-path="url(#p75ebfbde77)" style="fill: #1f77b4; opacity: 0.4"/>
   </g>
   <g id="patch_13">
    <path d="M 178.088406 173.52 
L 178.54016 173.52 
L 178.54016 168.224448 
L 178.088406 168.224448 
z
" clip-path="url(#p75ebfbde77)" style="fill: #1f77b4; opacity: 0.4"/>
   </g>
   <g id="patch_14">
    <path d="M 178.54016 173.52 
L 178.991913 173.52 
L 178.991913 166.101561 
L 178.54016 166.101561 
z
" clip-path="url(#p75ebfbde77)" style="fill: #1f77b4; opacity: 0.4"/>
   </g>
   <g id="patch_15">
    <path d="M 178.991913 173.52 
L 179.443667 173.52 
L 179.443667 162.555641 
L 178.991913 162.555641 
z
" clip-path="url(#p75ebfbde77)" style="fill: #1f77b4; opacity: 0.4"/>
   </g>
   <g id="patch_16">
    <path d="M 179.443667 173.52 
L 179.89542 173.52 
L 179.89542 157.936613 
L 179.443667 157.936613 
z
" clip-path="url(#p75ebfbde77)" style="fill: #1f77b4; opacity: 0.4"/>
   </g>
   <g id="patch_17">
    <path d="M 179.89542 173.52 
L 180.347174 173.52 
L 180.347174 150.72813 
L 179.89542 150.72813 
z
" clip-path="url(#p75ebfbde77)" style="fill: #1f77b4; opacity: 0.4"/>
   </g>
   <g id="patch_18">
    <path d="M 180.347174 173.52 
L 180.798928 173.52 
L 180.798928 142.446539 
L 180.347174 142.446539 
z
" clip-path="url(#p75ebfbde77)" style="fill: #1f77b4; opacity: 0.4"/>
   </g>
   <g id="patch_19">
    <path d="M 180.798928 173.52 
L 181.250681 173.52 
L 181.250681 132.088719 
L 180.798928 132.088719 
z
" clip-path="url(#p75ebfbde77)" style="fill: #1f77b4; opacity: 0.4"/>
   </g>
   <g id="patch_20">
    <path d="M 181.250681 173.52 
L 181.702435 173.52 
L 181.702435 117.345155 
L 181.250681 117.345155 
z
" clip-path="url(#p75ebfbde77)" style="fill: #1f77b4; opacity: 0.4"/>
   </g>
   <g id="patch_21">
    <path d="M 181.702435 173.52 
L 182.154188 173.52 
L 182.154188 101.621797 
L 181.702435 101.621797 
z
" clip-path="url(#p75ebfbde77)" style="fill: #1f77b4; opacity: 0.4"/>
   </g>
   <g id="patch_22">
    <path d="M 182.154188 173.52 
L 182.605942 173.52 
L 182.605942 88.137968 
L 182.154188 88.137968 
z
" clip-path="url(#p75ebfbde77)" style="fill: #1f77b4; opacity: 0.4"/>
   </g>
   <g id="patch_23">
    <path d="M 182.605942 173.52 
L 183.057695 173.52 
L 183.057695 68.56542 
L 182.605942 68.56542 
z
" clip-path="url(#p75ebfbde77)" style="fill: #1f77b4; opacity: 0.4"/>
   </g>
   <g id="patch_24">
    <path d="M 183.057695 173.52 
L 183.509449 173.52 
L 183.509449 56.434639 
L 183.057695 56.434639 
z
" clip-path="url(#p75ebfbde77)" style="fill: #1f77b4; opacity: 0.4"/>
   </g>
   <g id="patch_25">
    <path d="M 183.509449 173.52 
L 183.961203 173.52 
L 183.961203 39.778144 
L 183.509449 39.778144 
z
" clip-path="url(#p75ebfbde77)" style="fill: #1f77b4; opacity: 0.4"/>
   </g>
   <g id="patch_26">
    <path d="M 183.961203 173.52 
L 184.412956 173.52 
L 184.412956 27.600707 
L 183.961203 27.600707 
z
" clip-path="url(#p75ebfbde77)" style="fill: #1f77b4; opacity: 0.4"/>
   </g>
   <g id="patch_27">
    <path d="M 184.412956 173.52 
L 184.86471 173.52 
L 184.86471 16.986274 
L 184.412956 16.986274 
z
" clip-path="url(#p75ebfbde77)" style="fill: #1f77b4; opacity: 0.4"/>
   </g>
   <g id="patch_28">
    <path d="M 184.86471 173.52 
L 185.316463 173.52 
L 185.316463 18.829219 
L 184.86471 18.829219 
z
" clip-path="url(#p75ebfbde77)" style="fill: #1f77b4; opacity: 0.4"/>
   </g>
   <g id="patch_29">
    <path d="M 185.316463 173.52 
L 185.768217 173.52 
L 185.768217 15.12 
L 185.316463 15.12 
z
" clip-path="url(#p75ebfbde77)" style="fill: #1f77b4; opacity: 0.4"/>
   </g>
   <g id="patch_30">
    <path d="M 185.768217 173.52 
L 186.21997 173.52 
L 186.21997 24.00813 
L 185.768217 24.00813 
z
" clip-path="url(#p75ebfbde77)" style="fill: #1f77b4; opacity: 0.4"/>
   </g>
   <g id="patch_31">
    <path d="M 186.21997 173.52 
L 186.671724 173.52 
L 186.671724 26.107688 
L 186.21997 26.107688 
z
" clip-path="url(#p75ebfbde77)" style="fill: #1f77b4; opacity: 0.4"/>
   </g>
   <g id="patch_32">
    <path d="M 186.671724 173.52 
L 187.123477 173.52 
L 187.123477 38.938321 
L 186.671724 38.938321 
z
" clip-path="url(#p75ebfbde77)" style="fill: #1f77b4; opacity: 0.4"/>
   </g>
   <g id="patch_33">
    <path d="M 187.123477 173.52 
L 187.575231 173.52 
L 187.575231 54.218439 
L 187.123477 54.218439 
z
" clip-path="url(#p75ebfbde77)" style="fill: #1f77b4; opacity: 0.4"/>
   </g>
   <g id="patch_34">
    <path d="M 187.575231 173.52 
L 188.026985 173.52 
L 188.026985 71.854728 
L 187.575231 71.854728 
z
" clip-path="url(#p75ebfbde77)" style="fill: #1f77b4; opacity: 0.4"/>
   </g>
   <g id="patch_35">
    <path d="M 188.026985 173.52 
L 188.478738 173.52 
L 188.478738 86.714934 
L 188.026985 86.714934 
z
" clip-path="url(#p75ebfbde77)" style="fill: #1f77b4; opacity: 0.4"/>
   </g>
   <g id="patch_36">
    <path d="M 188.478738 173.52 
L 188.930492 173.52 
L 188.930492 102.181679 
L 188.478738 102.181679 
z
" clip-path="url(#p75ebfbde77)" style="fill: #1f77b4; opacity: 0.4"/>
   </g>
   <g id="patch_37">
    <path d="M 188.930492 173.52 
L 189.382245 173.52 
L 189.382245 120.284536 
L 188.930492 120.284536 
z
" clip-path="url(#p75ebfbde77)" style="fill: #1f77b4; opacity: 0.4"/>
   </g>
   <g id="patch_38">
    <path d="M 189.382245 173.52 
L 189.833999 173.52 
L 189.833999 133.021856 
L 189.382245 133.021856 
z
" clip-path="url(#p75ebfbde77)" style="fill: #1f77b4; opacity: 0.4"/>
   </g>
   <g id="patch_39">
    <path d="M 189.833999 173.52 
L 190.285752 173.52 
L 190.285752 141.443417 
L 189.833999 141.443417 
z
" clip-path="url(#p75ebfbde77)" style="fill: #1f77b4; opacity: 0.4"/>
   </g>
   <g id="patch_40">
    <path d="M 190.285752 173.52 
L 190.737506 173.52 
L 190.737506 150.844772 
L 190.285752 150.844772 
z
" clip-path="url(#p75ebfbde77)" style="fill: #1f77b4; opacity: 0.4"/>
   </g>
   <g id="patch_41">
    <path d="M 190.737506 173.52 
L 191.189259 173.52 
L 191.189259 157.423387 
L 190.737506 157.423387 
z
" clip-path="url(#p75ebfbde77)" style="fill: #1f77b4; opacity: 0.4"/>
   </g>
   <g id="patch_42">
    <path d="M 191.189259 173.52 
L 191.641013 173.52 
L 191.641013 161.995758 
L 191.189259 161.995758 
z
" clip-path="url(#p75ebfbde77)" style="fill: #1f77b4; opacity: 0.4"/>
   </g>
   <g id="patch_43">
    <path d="M 191.641013 173.52 
L 192.092767 173.52 
L 192.092767 166.031576 
L 191.641013 166.031576 
z
" clip-path="url(#p75ebfbde77)" style="fill: #1f77b4; opacity: 0.4"/>
   </g>
   <g id="patch_44">
    <path d="M 192.092767 173.52 
L 192.54452 173.52 
L 192.54452 169.110928 
L 192.092767 169.110928 
z
" clip-path="url(#p75ebfbde77)" style="fill: #1f77b4; opacity: 0.4"/>
   </g>
   <g id="patch_45">
    <path d="M 192.54452 173.52 
L 192.996274 173.52 
L 192.996274 170.533962 
L 192.54452 170.533962 
z
" clip-path="url(#p75ebfbde77)" style="fill: #1f77b4; opacity: 0.4"/>
   </g>
   <g id="patch_46">
    <path d="M 192.996274 173.52 
L 193.448027 173.52 
L 193.448027 171.817025 
L 192.996274 171.817025 
z
" clip-path="url(#p75ebfbde77)" style="fill: #1f77b4; opacity: 0.4"/>
   </g>
   <g id="patch_47">
    <path d="M 193.448027 173.52 
L 193.899781 173.52 
L 193.899781 172.213608 
L 193.448027 172.213608 
z
" clip-path="url(#p75ebfbde77)" style="fill: #1f77b4; opacity: 0.4"/>
   </g>
   <g id="patch_48">
    <path d="M 193.899781 173.52 
L 194.351534 173.52 
L 194.351534 172.77349 
L 193.899781 172.77349 
z
" clip-path="url(#p75ebfbde77)" style="fill: #1f77b4; opacity: 0.4"/>
   </g>
   <g id="patch_49">
    <path d="M 194.351534 173.52 
L 194.803288 173.52 
L 194.803288 173.170074 
L 194.351534 173.170074 
z
" clip-path="url(#p75ebfbde77)" style="fill: #1f77b4; opacity: 0.4"/>
   </g>
   <g id="patch_50">
    <path d="M 194.803288 173.52 
L 195.255041 173.52 
L 195.255041 173.426686 
L 194.803288 173.426686 
z
" clip-path="url(#p75ebfbde77)" style="fill: #1f77b4; opacity: 0.4"/>
   </g>
   <g id="patch_51">
    <path d="M 195.255041 173.52 
L 195.706795 173.52 
L 195.706795 173.473343 
L 195.255041 173.473343 
z
" clip-path="url(#p75ebfbde77)" style="fill: #1f77b4; opacity: 0.4"/>
   </g>
   <g id="patch_52">
    <path d="M 195.706795 173.52 
L 196.158549 173.52 
L 196.158549 173.450015 
L 195.706795 173.450015 
z
" clip-path="url(#p75ebfbde77)" style="fill: #1f77b4; opacity: 0.4"/>
   </g>
   <g id="patch_53">
    <path d="M 63.399126 173.52 
L 68.194411 173.52 
L 68.194411 173.516703 
L 63.399126 173.516703 
z
" clip-path="url(#p75ebfbde77)" style="fill: #ff7f0e; opacity: 0.4"/>
   </g>
   <g id="patch_54">
    <path d="M 68.194411 173.52 
L 72.989696 173.52 
L 72.989696 173.514506 
L 68.194411 173.514506 
z
" clip-path="url(#p75ebfbde77)" style="fill: #ff7f0e; opacity: 0.4"/>
   </g>
   <g id="patch_55">
    <path d="M 72.989696 173.52 
L 77.784981 173.52 
L 77.784981 173.514506 
L 72.989696 173.514506 
z
" clip-path="url(#p75ebfbde77)" style="fill: #ff7f0e; opacity: 0.4"/>
   </g>
   <g id="patch_56">
    <path d="M 77.784981 173.52 
L 82.580266 173.52 
L 82.580266 173.513407 
L 77.784981 173.513407 
z
" clip-path="url(#p75ebfbde77)" style="fill: #ff7f0e; opacity: 0.4"/>
   </g>
   <g id="patch_57">
    <path d="M 82.580266 173.52 
L 87.375551 173.52 
L 87.375551 173.496924 
L 82.580266 173.496924 
z
" clip-path="url(#p75ebfbde77)" style="fill: #ff7f0e; opacity: 0.4"/>
   </g>
   <g id="patch_58">
    <path d="M 87.375551 173.52 
L 92.170836 173.52 
L 92.170836 173.494726 
L 87.375551 173.494726 
z
" clip-path="url(#p75ebfbde77)" style="fill: #ff7f0e; opacity: 0.4"/>
   </g>
   <g id="patch_59">
    <path d="M 92.170836 173.52 
L 96.966121 173.52 
L 96.966121 173.472749 
L 92.170836 173.472749 
z
" clip-path="url(#p75ebfbde77)" style="fill: #ff7f0e; opacity: 0.4"/>
   </g>
   <g id="patch_60">
    <path d="M 96.966121 173.52 
L 101.761406 173.52 
L 101.761406 173.420004 
L 96.966121 173.420004 
z
" clip-path="url(#p75ebfbde77)" style="fill: #ff7f0e; opacity: 0.4"/>
   </g>
   <g id="patch_61">
    <path d="M 101.761406 173.52 
L 106.556691 173.52 
L 106.556691 173.367258 
L 101.761406 173.367258 
z
" clip-path="url(#p75ebfbde77)" style="fill: #ff7f0e; opacity: 0.4"/>
   </g>
   <g id="patch_62">
    <path d="M 106.556691 173.52 
L 111.351976 173.52 
L 111.351976 173.268361 
L 106.556691 173.268361 
z
" clip-path="url(#p75ebfbde77)" style="fill: #ff7f0e; opacity: 0.4"/>
   </g>
   <g id="patch_63">
    <path d="M 111.351976 173.52 
L 116.14726 173.52 
L 116.14726 173.098038 
L 111.351976 173.098038 
z
" clip-path="url(#p75ebfbde77)" style="fill: #ff7f0e; opacity: 0.4"/>
   </g>
   <g id="patch_64">
    <path d="M 116.14726 173.52 
L 120.942545 173.52 
L 120.942545 172.846399 
L 116.14726 172.846399 
z
" clip-path="url(#p75ebfbde77)" style="fill: #ff7f0e; opacity: 0.4"/>
   </g>
   <g id="patch_65">
    <path d="M 120.942545 173.52 
L 125.73783 173.52 
L 125.73783 172.477181 
L 120.942545 172.477181 
z
" clip-path="url(#p75ebfbde77)" style="fill: #ff7f0e; opacity: 0.4"/>
   </g>
   <g id="patch_66">
    <path d="M 125.73783 173.52 
L 130.533115 173.52 
L 130.533115 171.947531 
L 125.73783 171.947531 
z
" clip-path="url(#p75ebfbde77)" style="fill: #ff7f0e; opacity: 0.4"/>
   </g>
   <g id="patch_67">
    <path d="M 130.533115 173.52 
L 135.3284 173.52 
L 135.3284 171.301401 
L 130.533115 171.301401 
z
" clip-path="url(#p75ebfbde77)" style="fill: #ff7f0e; opacity: 0.4"/>
   </g>
   <g id="patch_68">
    <path d="M 135.3284 173.52 
L 140.123685 173.52 
L 140.123685 170.322316 
L 135.3284 170.322316 
z
" clip-path="url(#p75ebfbde77)" style="fill: #ff7f0e; opacity: 0.4"/>
   </g>
   <g id="patch_69">
    <path d="M 140.123685 173.52 
L 144.91897 173.52 
L 144.91897 169.194885 
L 140.123685 169.194885 
z
" clip-path="url(#p75ebfbde77)" style="fill: #ff7f0e; opacity: 0.4"/>
   </g>
   <g id="patch_70">
    <path d="M 144.91897 173.52 
L 149.714255 173.52 
L 149.714255 167.979545 
L 144.91897 167.979545 
z
" clip-path="url(#p75ebfbde77)" style="fill: #ff7f0e; opacity: 0.4"/>
   </g>
   <g id="patch_71">
    <path d="M 149.714255 173.52 
L 154.50954 173.52 
L 154.50954 166.344441 
L 149.714255 166.344441 
z
" clip-path="url(#p75ebfbde77)" style="fill: #ff7f0e; opacity: 0.4"/>
   </g>
   <g id="patch_72">
    <path d="M 154.50954 173.52 
L 159.304825 173.52 
L 159.304825 164.558793 
L 154.50954 164.558793 
z
" clip-path="url(#p75ebfbde77)" style="fill: #ff7f0e; opacity: 0.4"/>
   </g>
   <g id="patch_73">
    <path d="M 159.304825 173.52 
L 164.10011 173.52 
L 164.10011 162.920392 
L 159.304825 162.920392 
z
" clip-path="url(#p75ebfbde77)" style="fill: #ff7f0e; opacity: 0.4"/>
   </g>
   <g id="patch_74">
    <path d="M 164.10011 173.52 
L 168.895395 173.52 
L 168.895395 161.345724 
L 164.10011 161.345724 
z
" clip-path="url(#p75ebfbde77)" style="fill: #ff7f0e; opacity: 0.4"/>
   </g>
   <g id="patch_75">
    <path d="M 168.895395 173.52 
L 173.69068 173.52 
L 173.69068 159.701829 
L 168.895395 159.701829 
z
" clip-path="url(#p75ebfbde77)" style="fill: #ff7f0e; opacity: 0.4"/>
   </g>
   <g id="patch_76">
    <path d="M 173.69068 173.52 
L 178.485965 173.52 
L 178.485965 158.44693 
L 173.69068 158.44693 
z
" clip-path="url(#p75ebfbde77)" style="fill: #ff7f0e; opacity: 0.4"/>
   </g>
   <g id="patch_77">
    <path d="M 178.485965 173.52 
L 183.28125 173.52 
L 183.28125 157.779922 
L 178.485965 157.779922 
z
" clip-path="url(#p75ebfbde77)" style="fill: #ff7f0e; opacity: 0.4"/>
   </g>
   <g id="patch_78">
    <path d="M 183.28125 173.52 
L 188.076535 173.52 
L 188.076535 157.443671 
L 183.28125 157.443671 
z
" clip-path="url(#p75ebfbde77)" style="fill: #ff7f0e; opacity: 0.4"/>
   </g>
   <g id="patch_79">
    <path d="M 188.076535 173.52 
L 192.87182 173.52 
L 192.87182 158.011782 
L 188.076535 158.011782 
z
" clip-path="url(#p75ebfbde77)" style="fill: #ff7f0e; opacity: 0.4"/>
   </g>
   <g id="patch_80">
    <path d="M 192.87182 173.52 
L 197.667105 173.52 
L 197.667105 158.889771 
L 192.87182 158.889771 
z
" clip-path="url(#p75ebfbde77)" style="fill: #ff7f0e; opacity: 0.4"/>
   </g>
   <g id="patch_81">
    <path d="M 197.667105 173.52 
L 202.46239 173.52 
L 202.46239 159.949073 
L 197.667105 159.949073 
z
" clip-path="url(#p75ebfbde77)" style="fill: #ff7f0e; opacity: 0.4"/>
   </g>
   <g id="patch_82">
    <path d="M 202.46239 173.52 
L 207.257675 173.52 
L 207.257675 161.287485 
L 202.46239 161.287485 
z
" clip-path="url(#p75ebfbde77)" style="fill: #ff7f0e; opacity: 0.4"/>
   </g>
   <g id="patch_83">
    <path d="M 207.257675 173.52 
L 212.05296 173.52 
L 212.05296 163.245654 
L 207.257675 163.245654 
z
" clip-path="url(#p75ebfbde77)" style="fill: #ff7f0e; opacity: 0.4"/>
   </g>
   <g id="patch_84">
    <path d="M 212.05296 173.52 
L 216.848245 173.52 
L 216.848245 164.967569 
L 212.05296 164.967569 
z
" clip-path="url(#p75ebfbde77)" style="fill: #ff7f0e; opacity: 0.4"/>
   </g>
   <g id="patch_85">
    <path d="M 216.848245 173.52 
L 221.64353 173.52 
L 221.64353 166.582894 
L 216.848245 166.582894 
z
" clip-path="url(#p75ebfbde77)" style="fill: #ff7f0e; opacity: 0.4"/>
   </g>
   <g id="patch_86">
    <path d="M 221.64353 173.52 
L 226.438815 173.52 
L 226.438815 168.048774 
L 221.64353 168.048774 
z
" clip-path="url(#p75ebfbde77)" style="fill: #ff7f0e; opacity: 0.4"/>
   </g>
   <g id="patch_87">
    <path d="M 226.438815 173.52 
L 231.2341 173.52 
L 231.2341 169.45971 
L 226.438815 169.45971 
z
" clip-path="url(#p75ebfbde77)" style="fill: #ff7f0e; opacity: 0.4"/>
   </g>
   <g id="patch_88">
    <path d="M 231.2341 173.52 
L 236.029385 173.52 
L 236.029385 170.448685 
L 231.2341 170.448685 
z
" clip-path="url(#p75ebfbde77)" style="fill: #ff7f0e; opacity: 0.4"/>
   </g>
   <g id="patch_89">
    <path d="M 236.029385 173.52 
L 240.82467 173.52 
L 240.82467 171.35964 
L 236.029385 171.35964 
z
" clip-path="url(#p75ebfbde77)" style="fill: #ff7f0e; opacity: 0.4"/>
   </g>
   <g id="patch_90">
    <path d="M 240.82467 173.52 
L 245.619955 173.52 
L 245.619955 172.032143 
L 240.82467 172.032143 
z
" clip-path="url(#p75ebfbde77)" style="fill: #ff7f0e; opacity: 0.4"/>
   </g>
   <g id="patch_91">
    <path d="M 245.619955 173.52 
L 250.41524 173.52 
L 250.41524 172.572782 
L 245.619955 172.572782 
z
" clip-path="url(#p75ebfbde77)" style="fill: #ff7f0e; opacity: 0.4"/>
   </g>
   <g id="patch_92">
    <path d="M 250.41524 173.52 
L 255.210524 173.52 
L 255.210524 172.858486 
L 250.41524 172.858486 
z
" clip-path="url(#p75ebfbde77)" style="fill: #ff7f0e; opacity: 0.4"/>
   </g>
   <g id="patch_93">
    <path d="M 255.210524 173.52 
L 260.005809 173.52 
L 260.005809 173.118916 
L 255.210524 173.118916 
z
" clip-path="url(#p75ebfbde77)" style="fill: #ff7f0e; opacity: 0.4"/>
   </g>
   <g id="patch_94">
    <path d="M 260.005809 173.52 
L 264.801094 173.52 
L 264.801094 173.285943 
L 260.005809 173.285943 
z
" clip-path="url(#p75ebfbde77)" style="fill: #ff7f0e; opacity: 0.4"/>
   </g>
   <g id="patch_95">
    <path d="M 264.801094 173.52 
L 269.596379 173.52 
L 269.596379 173.352973 
L 264.801094 173.352973 
z
" clip-path="url(#p75ebfbde77)" style="fill: #ff7f0e; opacity: 0.4"/>
   </g>
   <g id="patch_96">
    <path d="M 269.596379 173.52 
L 274.391664 173.52 
L 274.391664 173.445277 
L 269.596379 173.445277 
z
" clip-path="url(#p75ebfbde77)" style="fill: #ff7f0e; opacity: 0.4"/>
   </g>
   <g id="patch_97">
    <path d="M 274.391664 173.52 
L 279.186949 173.52 
L 279.186949 173.476046 
L 274.391664 173.476046 
z
" clip-path="url(#p75ebfbde77)" style="fill: #ff7f0e; opacity: 0.4"/>
   </g>
   <g id="patch_98">
    <path d="M 279.186949 173.52 
L 283.982234 173.52 
L 283.982234 173.496924 
L 279.186949 173.496924 
z
" clip-path="url(#p75ebfbde77)" style="fill: #ff7f0e; opacity: 0.4"/>
   </g>
   <g id="patch_99">
    <path d="M 283.982234 173.52 
L 288.777519 173.52 
L 288.777519 173.507913 
L 283.982234 173.507913 
z
" clip-path="url(#p75ebfbde77)" style="fill: #ff7f0e; opacity: 0.4"/>
   </g>
   <g id="patch_100">
    <path d="M 288.777519 173.52 
L 293.572804 173.52 
L 293.572804 173.505715 
L 288.777519 173.505715 
z
" clip-path="url(#p75ebfbde77)" style="fill: #ff7f0e; opacity: 0.4"/>
   </g>
   <g id="patch_101">
    <path d="M 293.572804 173.52 
L 298.368089 173.52 
L 298.368089 173.517802 
L 293.572804 173.517802 
z
" clip-path="url(#p75ebfbde77)" style="fill: #ff7f0e; opacity: 0.4"/>
   </g>
   <g id="patch_102">
    <path d="M 298.368089 173.52 
L 303.163374 173.52 
L 303.163374 173.517802 
L 298.368089 173.517802 
z
" clip-path="url(#p75ebfbde77)" style="fill: #ff7f0e; opacity: 0.4"/>
   </g>
   <g id="matplotlib.axis_1">
    <g id="xtick_1">
     <g id="line2d_1">
      <defs>
       <path id="m468656b171" d="M 0 0 
L 0 3.5 
" style="stroke: #000000; stroke-width: 0.8"/>
      </defs>
      <g>
       <use xlink:href="#m468656b171" x="79.806621" y="173.52" style="stroke: #000000; stroke-width: 0.8"/>
      </g>
     </g>
     <g id="text_1">
      <!-- −40 -->
      <g transform="translate(69.254277 188.118438) scale(0.1 -0.1)">
       <defs>
        <path id="DejaVuSans-2212" d="M 678 2272 
L 4684 2272 
L 4684 1741 
L 678 1741 
L 678 2272 
z
" transform="scale(0.015625)"/>
        <path id="DejaVuSans-34" d="M 2419 4116 
L 825 1625 
L 2419 1625 
L 2419 4116 
z
M 2253 4666 
L 3047 4666 
L 3047 1625 
L 3713 1625 
L 3713 1100 
L 3047 1100 
L 3047 0 
L 2419 0 
L 2419 1100 
L 313 1100 
L 313 1709 
L 2253 4666 
z
" transform="scale(0.015625)"/>
        <path id="DejaVuSans-30" d="M 2034 4250 
Q 1547 4250 1301 3770 
Q 1056 3291 1056 2328 
Q 1056 1369 1301 889 
Q 1547 409 2034 409 
Q 2525 409 2770 889 
Q 3016 1369 3016 2328 
Q 3016 3291 2770 3770 
Q 2525 4250 2034 4250 
z
M 2034 4750 
Q 2819 4750 3233 4129 
Q 3647 3509 3647 2328 
Q 3647 1150 3233 529 
Q 2819 -91 2034 -91 
Q 1250 -91 836 529 
Q 422 1150 422 2328 
Q 422 3509 836 4129 
Q 1250 4750 2034 4750 
z
" transform="scale(0.015625)"/>
       </defs>
       <use xlink:href="#DejaVuSans-2212"/>
       <use xlink:href="#DejaVuSans-34" x="83.789062"/>
       <use xlink:href="#DejaVuSans-30" x="147.412109"/>
      </g>
     </g>
    </g>
    <g id="xtick_2">
     <g id="line2d_2">
      <g>
       <use xlink:href="#m468656b171" x="132.560464" y="173.52" style="stroke: #000000; stroke-width: 0.8"/>
      </g>
     </g>
     <g id="text_2">
      <!-- −20 -->
      <g transform="translate(122.00812 188.118438) scale(0.1 -0.1)">
       <defs>
        <path id="DejaVuSans-32" d="M 1228 531 
L 3431 531 
L 3431 0 
L 469 0 
L 469 531 
Q 828 903 1448 1529 
Q 2069 2156 2228 2338 
Q 2531 2678 2651 2914 
Q 2772 3150 2772 3378 
Q 2772 3750 2511 3984 
Q 2250 4219 1831 4219 
Q 1534 4219 1204 4116 
Q 875 4013 500 3803 
L 500 4441 
Q 881 4594 1212 4672 
Q 1544 4750 1819 4750 
Q 2544 4750 2975 4387 
Q 3406 4025 3406 3419 
Q 3406 3131 3298 2873 
Q 3191 2616 2906 2266 
Q 2828 2175 2409 1742 
Q 1991 1309 1228 531 
z
" transform="scale(0.015625)"/>
       </defs>
       <use xlink:href="#DejaVuSans-2212"/>
       <use xlink:href="#DejaVuSans-32" x="83.789062"/>
       <use xlink:href="#DejaVuSans-30" x="147.412109"/>
      </g>
     </g>
    </g>
    <g id="xtick_3">
     <g id="line2d_3">
      <g>
       <use xlink:href="#m468656b171" x="185.314307" y="173.52" style="stroke: #000000; stroke-width: 0.8"/>
      </g>
     </g>
     <g id="text_3">
      <!-- 0 -->
      <g transform="translate(182.133057 188.118438) scale(0.1 -0.1)">
       <use xlink:href="#DejaVuSans-30"/>
      </g>
     </g>
    </g>
    <g id="xtick_4">
     <g id="line2d_4">
      <g>
       <use xlink:href="#m468656b171" x="238.06815" y="173.52" style="stroke: #000000; stroke-width: 0.8"/>
      </g>
     </g>
     <g id="text_4">
      <!-- 20 -->
      <g transform="translate(231.70565 188.118438) scale(0.1 -0.1)">
       <use xlink:href="#DejaVuSans-32"/>
       <use xlink:href="#DejaVuSans-30" x="63.623047"/>
      </g>
     </g>
    </g>
    <g id="xtick_5">
     <g id="line2d_5">
      <g>
       <use xlink:href="#m468656b171" x="290.821993" y="173.52" style="stroke: #000000; stroke-width: 0.8"/>
      </g>
     </g>
     <g id="text_5">
      <!-- 40 -->
      <g transform="translate(284.459493 188.118438) scale(0.1 -0.1)">
       <use xlink:href="#DejaVuSans-34"/>
       <use xlink:href="#DejaVuSans-30" x="63.623047"/>
      </g>
     </g>
    </g>
   </g>
   <g id="matplotlib.axis_2">
    <g id="ytick_1">
     <g id="line2d_6">
      <defs>
       <path id="m42ceff7b5a" d="M 0 0 
L -3.5 0 
" style="stroke: #000000; stroke-width: 0.8"/>
      </defs>
      <g>
       <use xlink:href="#m42ceff7b5a" x="43.78125" y="173.52" style="stroke: #000000; stroke-width: 0.8"/>
      </g>
     </g>
     <g id="text_6">
      <!-- 0.0 -->
      <g transform="translate(20.878125 177.319219) scale(0.1 -0.1)">
       <defs>
        <path id="DejaVuSans-2e" d="M 684 794 
L 1344 794 
L 1344 0 
L 684 0 
L 684 794 
z
" transform="scale(0.015625)"/>
       </defs>
       <use xlink:href="#DejaVuSans-30"/>
       <use xlink:href="#DejaVuSans-2e" x="63.623047"/>
       <use xlink:href="#DejaVuSans-30" x="95.410156"/>
      </g>
     </g>
    </g>
    <g id="ytick_2">
     <g id="line2d_7">
      <g>
       <use xlink:href="#m42ceff7b5a" x="43.78125" y="133.56576" style="stroke: #000000; stroke-width: 0.8"/>
      </g>
     </g>
     <g id="text_7">
      <!-- 0.1 -->
      <g transform="translate(20.878125 137.364979) scale(0.1 -0.1)">
       <defs>
        <path id="DejaVuSans-31" d="M 794 531 
L 1825 531 
L 1825 4091 
L 703 3866 
L 703 4441 
L 1819 4666 
L 2450 4666 
L 2450 531 
L 3481 531 
L 3481 0 
L 794 0 
L 794 531 
z
" transform="scale(0.015625)"/>
       </defs>
       <use xlink:href="#DejaVuSans-30"/>
       <use xlink:href="#DejaVuSans-2e" x="63.623047"/>
       <use xlink:href="#DejaVuSans-31" x="95.410156"/>
      </g>
     </g>
    </g>
    <g id="ytick_3">
     <g id="line2d_8">
      <g>
       <use xlink:href="#m42ceff7b5a" x="43.78125" y="93.61152" style="stroke: #000000; stroke-width: 0.8"/>
      </g>
     </g>
     <g id="text_8">
      <!-- 0.2 -->
      <g transform="translate(20.878125 97.410738) scale(0.1 -0.1)">
       <use xlink:href="#DejaVuSans-30"/>
       <use xlink:href="#DejaVuSans-2e" x="63.623047"/>
       <use xlink:href="#DejaVuSans-32" x="95.410156"/>
      </g>
     </g>
    </g>
    <g id="ytick_4">
     <g id="line2d_9">
      <g>
       <use xlink:href="#m42ceff7b5a" x="43.78125" y="53.657279" style="stroke: #000000; stroke-width: 0.8"/>
      </g>
     </g>
     <g id="text_9">
      <!-- 0.3 -->
      <g transform="translate(20.878125 57.456498) scale(0.1 -0.1)">
       <defs>
        <path id="DejaVuSans-33" d="M 2597 2516 
Q 3050 2419 3304 2112 
Q 3559 1806 3559 1356 
Q 3559 666 3084 287 
Q 2609 -91 1734 -91 
Q 1441 -91 1130 -33 
Q 819 25 488 141 
L 488 750 
Q 750 597 1062 519 
Q 1375 441 1716 441 
Q 2309 441 2620 675 
Q 2931 909 2931 1356 
Q 2931 1769 2642 2001 
Q 2353 2234 1838 2234 
L 1294 2234 
L 1294 2753 
L 1863 2753 
Q 2328 2753 2575 2939 
Q 2822 3125 2822 3475 
Q 2822 3834 2567 4026 
Q 2313 4219 1838 4219 
Q 1578 4219 1281 4162 
Q 984 4106 628 3988 
L 628 4550 
Q 988 4650 1302 4700 
Q 1616 4750 1894 4750 
Q 2613 4750 3031 4423 
Q 3450 4097 3450 3541 
Q 3450 3153 3228 2886 
Q 3006 2619 2597 2516 
z
" transform="scale(0.015625)"/>
       </defs>
       <use xlink:href="#DejaVuSans-30"/>
       <use xlink:href="#DejaVuSans-2e" x="63.623047"/>
       <use xlink:href="#DejaVuSans-33" x="95.410156"/>
      </g>
     </g>
    </g>
    <g id="ytick_5">
     <g id="line2d_10">
      <g>
       <use xlink:href="#m42ceff7b5a" x="43.78125" y="13.703039" style="stroke: #000000; stroke-width: 0.8"/>
      </g>
     </g>
     <g id="text_10">
      <!-- 0.4 -->
      <g transform="translate(20.878125 17.502258) scale(0.1 -0.1)">
       <use xlink:href="#DejaVuSans-30"/>
       <use xlink:href="#DejaVuSans-2e" x="63.623047"/>
       <use xlink:href="#DejaVuSans-34" x="95.410156"/>
      </g>
     </g>
    </g>
    <g id="text_11">
     <!-- Density -->
     <g transform="translate(14.798438 109.368594) rotate(-90) scale(0.1 -0.1)">
      <defs>
       <path id="DejaVuSans-44" d="M 1259 4147 
L 1259 519 
L 2022 519 
Q 2988 519 3436 956 
Q 3884 1394 3884 2338 
Q 3884 3275 3436 3711 
Q 2988 4147 2022 4147 
L 1259 4147 
z
M 628 4666 
L 1925 4666 
Q 3281 4666 3915 4102 
Q 4550 3538 4550 2338 
Q 4550 1131 3912 565 
Q 3275 0 1925 0 
L 628 0 
L 628 4666 
z
" transform="scale(0.015625)"/>
       <path id="DejaVuSans-65" d="M 3597 1894 
L 3597 1613 
L 953 1613 
Q 991 1019 1311 708 
Q 1631 397 2203 397 
Q 2534 397 2845 478 
Q 3156 559 3463 722 
L 3463 178 
Q 3153 47 2828 -22 
Q 2503 -91 2169 -91 
Q 1331 -91 842 396 
Q 353 884 353 1716 
Q 353 2575 817 3079 
Q 1281 3584 2069 3584 
Q 2775 3584 3186 3129 
Q 3597 2675 3597 1894 
z
M 3022 2063 
Q 3016 2534 2758 2815 
Q 2500 3097 2075 3097 
Q 1594 3097 1305 2825 
Q 1016 2553 972 2059 
L 3022 2063 
z
" transform="scale(0.015625)"/>
       <path id="DejaVuSans-6e" d="M 3513 2113 
L 3513 0 
L 2938 0 
L 2938 2094 
Q 2938 2591 2744 2837 
Q 2550 3084 2163 3084 
Q 1697 3084 1428 2787 
Q 1159 2491 1159 1978 
L 1159 0 
L 581 0 
L 581 3500 
L 1159 3500 
L 1159 2956 
Q 1366 3272 1645 3428 
Q 1925 3584 2291 3584 
Q 2894 3584 3203 3211 
Q 3513 2838 3513 2113 
z
" transform="scale(0.015625)"/>
       <path id="DejaVuSans-73" d="M 2834 3397 
L 2834 2853 
Q 2591 2978 2328 3040 
Q 2066 3103 1784 3103 
Q 1356 3103 1142 2972 
Q 928 2841 928 2578 
Q 928 2378 1081 2264 
Q 1234 2150 1697 2047 
L 1894 2003 
Q 2506 1872 2764 1633 
Q 3022 1394 3022 966 
Q 3022 478 2636 193 
Q 2250 -91 1575 -91 
Q 1294 -91 989 -36 
Q 684 19 347 128 
L 347 722 
Q 666 556 975 473 
Q 1284 391 1588 391 
Q 1994 391 2212 530 
Q 2431 669 2431 922 
Q 2431 1156 2273 1281 
Q 2116 1406 1581 1522 
L 1381 1569 
Q 847 1681 609 1914 
Q 372 2147 372 2553 
Q 372 3047 722 3315 
Q 1072 3584 1716 3584 
Q 2034 3584 2315 3537 
Q 2597 3491 2834 3397 
z
" transform="scale(0.015625)"/>
       <path id="DejaVuSans-69" d="M 603 3500 
L 1178 3500 
L 1178 0 
L 603 0 
L 603 3500 
z
M 603 4863 
L 1178 4863 
L 1178 4134 
L 603 4134 
L 603 4863 
z
" transform="scale(0.015625)"/>
       <path id="DejaVuSans-74" d="M 1172 4494 
L 1172 3500 
L 2356 3500 
L 2356 3053 
L 1172 3053 
L 1172 1153 
Q 1172 725 1289 603 
Q 1406 481 1766 481 
L 2356 481 
L 2356 0 
L 1766 0 
Q 1100 0 847 248 
Q 594 497 594 1153 
L 594 3053 
L 172 3053 
L 172 3500 
L 594 3500 
L 594 4494 
L 1172 4494 
z
" transform="scale(0.015625)"/>
       <path id="DejaVuSans-79" d="M 2059 -325 
Q 1816 -950 1584 -1140 
Q 1353 -1331 966 -1331 
L 506 -1331 
L 506 -850 
L 844 -850 
Q 1081 -850 1212 -737 
Q 1344 -625 1503 -206 
L 1606 56 
L 191 3500 
L 800 3500 
L 1894 763 
L 2988 3500 
L 3597 3500 
L 2059 -325 
z
" transform="scale(0.015625)"/>
      </defs>
      <use xlink:href="#DejaVuSans-44"/>
      <use xlink:href="#DejaVuSans-65" x="77.001953"/>
      <use xlink:href="#DejaVuSans-6e" x="138.525391"/>
      <use xlink:href="#DejaVuSans-73" x="201.904297"/>
      <use xlink:href="#DejaVuSans-69" x="254.003906"/>
      <use xlink:href="#DejaVuSans-74" x="281.787109"/>
      <use xlink:href="#DejaVuSans-79" x="320.996094"/>
     </g>
    </g>
   </g>
   <g id="line2d_11">
    <path d="M 172.778981 173.519823 
L 174.965344 173.413072 
L 176.058525 173.181087 
L 176.544384 172.704509 
L 177.394636 171.617969 
L 177.880494 170.443026 
L 178.244888 168.749322 
L 179.216605 162.473213 
L 179.702464 157.128548 
L 180.309787 147.225054 
L 180.91711 134.050352 
L 181.767362 107.662616 
L 184.07519 30.487741 
L 184.561048 19.85732 
L 184.803977 18.152451 
L 185.289836 16.843532 
L 185.4113 16.828731 
L 185.532765 17.333662 
L 185.897159 21.458207 
L 186.504482 28.824643 
L 186.868876 38.575823 
L 188.690845 102.426858 
L 189.662562 133.309696 
L 190.755743 154.346392 
L 191.363066 161.437245 
L 192.091854 167.546876 
L 192.577712 169.934752 
L 193.3065 171.858549 
L 193.792359 172.443791 
L 194.88554 173.318033 
L 195.492863 173.452644 
L 196.950438 173.519666 
L 196.950438 173.519666 
" clip-path="url(#p75ebfbde77)" style="fill: none; stroke: #1f77b4; stroke-width: 1.5; stroke-linecap: square"/>
   </g>
   <g id="line2d_12">
    <path d="M 56.463068 173.519986 
L 99.797924 173.417432 
L 109.994361 173.226474 
L 117.641689 172.893518 
L 125.289016 172.275437 
L 131.661789 171.460637 
L 136.760007 170.54202 
L 141.858226 169.356695 
L 148.230999 167.651446 
L 162.251099 162.749163 
L 168.623872 160.531313 
L 172.447536 159.47599 
L 178.820309 157.943978 
L 181.369418 157.734736 
L 185.193082 157.575587 
L 187.742191 157.713297 
L 192.840409 158.380374 
L 196.664073 159.190382 
L 203.036846 160.783818 
L 205.585955 161.613334 
L 215.782392 165.379092 
L 224.704274 168.295639 
L 228.527938 169.339566 
L 233.626156 170.452161 
L 238.724375 171.38861 
L 243.822593 172.087937 
L 250.195366 172.722099 
L 260.391803 173.227998 
L 269.313685 173.394389 
L 282.059231 173.496749 
L 310.099432 173.51999 
L 310.099432 173.51999 
" clip-path="url(#p75ebfbde77)" style="fill: none; stroke: #ff7f0e; stroke-width: 1.5; stroke-linecap: square"/>
   </g>
   <g id="patch_103">
    <path d="M 43.78125 173.52 
L 43.78125 7.2 
" style="fill: none; stroke: #000000; stroke-width: 0.8; stroke-linejoin: miter; stroke-linecap: square"/>
   </g>
   <g id="patch_104">
    <path d="M 322.78125 173.52 
L 322.78125 7.2 
" style="fill: none; stroke: #000000; stroke-width: 0.8; stroke-linejoin: miter; stroke-linecap: square"/>
   </g>
   <g id="patch_105">
    <path d="M 43.78125 173.52 
L 322.78125 173.52 
" style="fill: none; stroke: #000000; stroke-width: 0.8; stroke-linejoin: miter; stroke-linecap: square"/>
   </g>
   <g id="patch_106">
    <path d="M 43.78125 7.2 
L 322.78125 7.2 
" style="fill: none; stroke: #000000; stroke-width: 0.8; stroke-linejoin: miter; stroke-linecap: square"/>
   </g>
   <g id="legend_1">
    <g id="patch_107">
     <path d="M 233.28125 44.7 
L 315.78125 44.7 
Q 317.78125 44.7 317.78125 42.7 
L 317.78125 14.2 
Q 317.78125 12.2 315.78125 12.2 
L 233.28125 12.2 
Q 231.28125 12.2 231.28125 14.2 
L 231.28125 42.7 
Q 231.28125 44.7 233.28125 44.7 
z
" style="fill: #ffffff; opacity: 0.8; stroke: #cccccc; stroke-linejoin: miter"/>
    </g>
    <g id="patch_108">
     <path d="M 235.28125 23.8 
L 255.28125 23.8 
L 255.28125 16.8 
L 235.28125 16.8 
z
" style="fill: #1f77b4; opacity: 0.4"/>
    </g>
    <g id="text_12">
     <!-- $\mathbf{x}$ (input) -->
     <g transform="translate(263.28125 23.8) scale(0.1 -0.1)">
      <defs>
       <path id="DejaVuSans-Bold-78" d="M 1422 1791 
L 159 3500 
L 1344 3500 
L 2059 2463 
L 2784 3500 
L 3969 3500 
L 2706 1797 
L 4031 0 
L 2847 0 
L 2059 1106 
L 1281 0 
L 97 0 
L 1422 1791 
z
" transform="scale(0.015625)"/>
       <path id="DejaVuSans-20" transform="scale(0.015625)"/>
       <path id="DejaVuSans-28" d="M 1984 4856 
Q 1566 4138 1362 3434 
Q 1159 2731 1159 2009 
Q 1159 1288 1364 580 
Q 1569 -128 1984 -844 
L 1484 -844 
Q 1016 -109 783 600 
Q 550 1309 550 2009 
Q 550 2706 781 3412 
Q 1013 4119 1484 4856 
L 1984 4856 
z
" transform="scale(0.015625)"/>
       <path id="DejaVuSans-70" d="M 1159 525 
L 1159 -1331 
L 581 -1331 
L 581 3500 
L 1159 3500 
L 1159 2969 
Q 1341 3281 1617 3432 
Q 1894 3584 2278 3584 
Q 2916 3584 3314 3078 
Q 3713 2572 3713 1747 
Q 3713 922 3314 415 
Q 2916 -91 2278 -91 
Q 1894 -91 1617 61 
Q 1341 213 1159 525 
z
M 3116 1747 
Q 3116 2381 2855 2742 
Q 2594 3103 2138 3103 
Q 1681 3103 1420 2742 
Q 1159 2381 1159 1747 
Q 1159 1113 1420 752 
Q 1681 391 2138 391 
Q 2594 391 2855 752 
Q 3116 1113 3116 1747 
z
" transform="scale(0.015625)"/>
       <path id="DejaVuSans-75" d="M 544 1381 
L 544 3500 
L 1119 3500 
L 1119 1403 
Q 1119 906 1312 657 
Q 1506 409 1894 409 
Q 2359 409 2629 706 
Q 2900 1003 2900 1516 
L 2900 3500 
L 3475 3500 
L 3475 0 
L 2900 0 
L 2900 538 
Q 2691 219 2414 64 
Q 2138 -91 1772 -91 
Q 1169 -91 856 284 
Q 544 659 544 1381 
z
M 1991 3584 
L 1991 3584 
z
" transform="scale(0.015625)"/>
       <path id="DejaVuSans-29" d="M 513 4856 
L 1013 4856 
Q 1481 4119 1714 3412 
Q 1947 2706 1947 2009 
Q 1947 1309 1714 600 
Q 1481 -109 1013 -844 
L 513 -844 
Q 928 -128 1133 580 
Q 1338 1288 1338 2009 
Q 1338 2731 1133 3434 
Q 928 4138 513 4856 
z
" transform="scale(0.015625)"/>
      </defs>
      <use xlink:href="#DejaVuSans-Bold-78" transform="translate(0 0.015625)"/>
      <use xlink:href="#DejaVuSans-20" transform="translate(64.501953 0.015625)"/>
      <use xlink:href="#DejaVuSans-28" transform="translate(96.289062 0.015625)"/>
      <use xlink:href="#DejaVuSans-69" transform="translate(135.302734 0.015625)"/>
      <use xlink:href="#DejaVuSans-6e" transform="translate(163.085938 0.015625)"/>
      <use xlink:href="#DejaVuSans-70" transform="translate(226.464844 0.015625)"/>
      <use xlink:href="#DejaVuSans-75" transform="translate(289.941406 0.015625)"/>
      <use xlink:href="#DejaVuSans-74" transform="translate(353.320312 0.015625)"/>
      <use xlink:href="#DejaVuSans-29" transform="translate(392.529297 0.015625)"/>
     </g>
    </g>
    <g id="patch_109">
     <path d="M 235.28125 38.5 
L 255.28125 38.5 
L 255.28125 31.5 
L 235.28125 31.5 
z
" style="fill: #ff7f0e; opacity: 0.4"/>
    </g>
    <g id="text_13">
     <!-- $\mathbf{y}$ (output) -->
     <g transform="translate(263.28125 38.5) scale(0.1 -0.1)">
      <defs>
       <path id="DejaVuSans-Bold-79" d="M 78 3500 
L 1197 3500 
L 2138 1125 
L 2938 3500 
L 4056 3500 
L 2584 -331 
Q 2363 -916 2067 -1148 
Q 1772 -1381 1288 -1381 
L 641 -1381 
L 641 -647 
L 991 -647 
Q 1275 -647 1404 -556 
Q 1534 -466 1606 -231 
L 1638 -134 
L 78 3500 
z
" transform="scale(0.015625)"/>
       <path id="DejaVuSans-6f" d="M 1959 3097 
Q 1497 3097 1228 2736 
Q 959 2375 959 1747 
Q 959 1119 1226 758 
Q 1494 397 1959 397 
Q 2419 397 2687 759 
Q 2956 1122 2956 1747 
Q 2956 2369 2687 2733 
Q 2419 3097 1959 3097 
z
M 1959 3584 
Q 2709 3584 3137 3096 
Q 3566 2609 3566 1747 
Q 3566 888 3137 398 
Q 2709 -91 1959 -91 
Q 1206 -91 779 398 
Q 353 888 353 1747 
Q 353 2609 779 3096 
Q 1206 3584 1959 3584 
z
" transform="scale(0.015625)"/>
      </defs>
      <use xlink:href="#DejaVuSans-Bold-79" transform="translate(0 0.125)"/>
      <use xlink:href="#DejaVuSans-20" transform="translate(65.185547 0.125)"/>
      <use xlink:href="#DejaVuSans-28" transform="translate(96.972656 0.125)"/>
      <use xlink:href="#DejaVuSans-6f" transform="translate(135.986328 0.125)"/>
      <use xlink:href="#DejaVuSans-75" transform="translate(197.167969 0.125)"/>
      <use xlink:href="#DejaVuSans-74" transform="translate(260.546875 0.125)"/>
      <use xlink:href="#DejaVuSans-70" transform="translate(299.755859 0.125)"/>
      <use xlink:href="#DejaVuSans-75" transform="translate(363.232422 0.125)"/>
      <use xlink:href="#DejaVuSans-74" transform="translate(426.611328 0.125)"/>
      <use xlink:href="#DejaVuSans-29" transform="translate(465.820312 0.125)"/>
     </g>
    </g>
   </g>
  </g>
 </g>
 <defs>
  <clipPath id="p75ebfbde77">
   <rect x="43.78125" y="7.2" width="279" height="166.32"/>
  </clipPath>
 </defs>
</svg>