<?xml version="1.0" encoding="utf-8" standalone="no"?>
<!DOCTYPE svg PUBLIC "-//W3C//DTD SVG 1.1//EN"
  "http://www.w3.org/Graphics/SVG/1.1/DTD/svg11.dtd">
<svg xmlns:xlink="http://www.w3.org/1999/xlink" width="352.187315pt" height="208.398125pt" viewBox="0 0 352.187315 208.398125" xmlns="http://www.w3.org/2000/svg" version="1.1">
 <metadata>
  <rdf:RDF xmlns:dc="http://purl.org/dc/elements/1.1/" xmlns:cc="http://creativecommons.org/ns#" xmlns:rdf="http://www.w3.org/1999/02/22-rdf-syntax-ns#">
   <cc:Work>
    <dc:type rdf:resource="http://purl.org/dc/dcmitype/StillImage"/>
    <dc:date>2024-06-14T22:02:04.019169</dc:date>
    <dc:format>image/svg+xml</dc:format>
    <dc:creator>
     <cc:Agent>
      <dc:title>Matplotlib v3.9.0, https://matplotlib.org/</dc:title>
     </cc:Agent>
    </dc:creator>
   </cc:Work>
  </rdf:RDF>
 </metadata>
 <defs>
  <style type="text/css">*{stroke-linejoin: round; stroke-linecap: butt}</style>
 </defs>
 <g id="figure_1">
  <g id="patch_1">
   <path d="M 0 208.398125 
L 352.187315 208.398125 
L 352.187315 0 
L 0 0 
z
" style="fill: #ffffff"/>
  </g>
  <g id="axes_1">
   <g id="patch_2">
    <path d="M 31.8 184.52 
L 344.987315 184.52 
L 344.987315 7.2 
L 31.8 7.2 
z
" style="fill: #ffffff"/>
   </g>
   <g id="matplotlib.axis_1">
    <g id="xtick_1">
     <g id="line2d_1">
      <defs>
       <path id="m3e8643128b" d="M 0 0 
L 0 3.5 
" style="stroke: #000000; stroke-width: 0.8"/>
      </defs>
      <g>
       <use xlink:href="#m3e8643128b" x="46.035787" y="184.52" style="stroke: #000000; stroke-width: 0.8"/>
      </g>
     </g>
     <g id="text_1">
      <!-- 0.0 -->
      <g transform="translate(38.084225 199.118437) scale(0.1 -0.1)">
       <defs>
        <path id="DejaVuSans-30" d="M 2034 4250 
Q 1547 4250 1301 3770 
Q 1056 3291 1056 2328 
Q 1056 1369 1301 889 
Q 1547 409 2034 409 
Q 2525 409 2770 889 
Q 3016 1369 3016 2328 
Q 3016 3291 2770 3770 
Q 2525 4250 2034 4250 
z
M 2034 4750 
Q 2819 4750 3233 4129 
Q 3647 3509 3647 2328 
Q 3647 1150 3233 529 
Q 2819 -91 2034 -91 
Q 1250 -91 836 529 
Q 422 1150 422 2328 
Q 422 3509 836 4129 
Q 1250 4750 2034 4750 
z
" transform="scale(0.015625)"/>
        <path id="DejaVuSans-2e" d="M 684 794 
L 1344 794 
L 1344 0 
L 684 0 
L 684 794 
z
" transform="scale(0.015625)"/>
       </defs>
       <use xlink:href="#DejaVuSans-30"/>
       <use xlink:href="#DejaVuSans-2e" x="63.623047"/>
       <use xlink:href="#DejaVuSans-30" x="95.410156"/>
      </g>
     </g>
    </g>
    <g id="xtick_2">
     <g id="line2d_2">
      <g>
       <use xlink:href="#m3e8643128b" x="102.978935" y="184.52" style="stroke: #000000; stroke-width: 0.8"/>
      </g>
     </g>
     <g id="text_2">
      <!-- 0.2 -->
      <g transform="translate(95.027373 199.118437) scale(0.1 -0.1)">
       <defs>
        <path id="DejaVuSans-32" d="M 1228 531 
L 3431 531 
L 3431 0 
L 469 0 
L 469 531 
Q 828 903 1448 1529 
Q 2069 2156 2228 2338 
Q 2531 2678 2651 2914 
Q 2772 3150 2772 3378 
Q 2772 3750 2511 3984 
Q 2250 4219 1831 4219 
Q 1534 4219 1204 4116 
Q 875 4013 500 3803 
L 500 4441 
Q 881 4594 1212 4672 
Q 1544 4750 1819 4750 
Q 2544 4750 2975 4387 
Q 3406 4025 3406 3419 
Q 3406 3131 3298 2873 
Q 3191 2616 2906 2266 
Q 2828 2175 2409 1742 
Q 1991 1309 1228 531 
z
" transform="scale(0.015625)"/>
       </defs>
       <use xlink:href="#DejaVuSans-30"/>
       <use xlink:href="#DejaVuSans-2e" x="63.623047"/>
       <use xlink:href="#DejaVuSans-32" x="95.410156"/>
      </g>
     </g>
    </g>
    <g id="xtick_3">
     <g id="line2d_3">
      <g>
       <use xlink:href="#m3e8643128b" x="159.922084" y="184.52" style="stroke: #000000; stroke-width: 0.8"/>
      </g>
     </g>
     <g id="text_3">
      <!-- 0.4 -->
      <g transform="translate(151.970521 199.118437) scale(0.1 -0.1)">
       <defs>
        <path id="DejaVuSans-34" d="M 2419 4116 
L 825 1625 
L 2419 1625 
L 2419 4116 
z
M 2253 4666 
L 3047 4666 
L 3047 1625 
L 3713 1625 
L 3713 1100 
L 3047 1100 
L 3047 0 
L 2419 0 
L 2419 1100 
L 313 1100 
L 313 1709 
L 2253 4666 
z
" transform="scale(0.015625)"/>
       </defs>
       <use xlink:href="#DejaVuSans-30"/>
       <use xlink:href="#DejaVuSans-2e" x="63.623047"/>
       <use xlink:href="#DejaVuSans-34" x="95.410156"/>
      </g>
     </g>
    </g>
    <g id="xtick_4">
     <g id="line2d_4">
      <g>
       <use xlink:href="#m3e8643128b" x="216.865232" y="184.52" style="stroke: #000000; stroke-width: 0.8"/>
      </g>
     </g>
     <g id="text_4">
      <!-- 0.6 -->
      <g transform="translate(208.913669 199.118437) scale(0.1 -0.1)">
       <defs>
        <path id="DejaVuSans-36" d="M 2113 2584 
Q 1688 2584 1439 2293 
Q 1191 2003 1191 1497 
Q 1191 994 1439 701 
Q 1688 409 2113 409 
Q 2538 409 2786 701 
Q 3034 994 3034 1497 
Q 3034 2003 2786 2293 
Q 2538 2584 2113 2584 
z
M 3366 4563 
L 3366 3988 
Q 3128 4100 2886 4159 
Q 2644 4219 2406 4219 
Q 1781 4219 1451 3797 
Q 1122 3375 1075 2522 
Q 1259 2794 1537 2939 
Q 1816 3084 2150 3084 
Q 2853 3084 3261 2657 
Q 3669 2231 3669 1497 
Q 3669 778 3244 343 
Q 2819 -91 2113 -91 
Q 1303 -91 875 529 
Q 447 1150 447 2328 
Q 447 3434 972 4092 
Q 1497 4750 2381 4750 
Q 2619 4750 2861 4703 
Q 3103 4656 3366 4563 
z
" transform="scale(0.015625)"/>
       </defs>
       <use xlink:href="#DejaVuSans-30"/>
       <use xlink:href="#DejaVuSans-2e" x="63.623047"/>
       <use xlink:href="#DejaVuSans-36" x="95.410156"/>
      </g>
     </g>
    </g>
    <g id="xtick_5">
     <g id="line2d_5">
      <g>
       <use xlink:href="#m3e8643128b" x="273.80838" y="184.52" style="stroke: #000000; stroke-width: 0.8"/>
      </g>
     </g>
     <g id="text_5">
      <!-- 0.8 -->
      <g transform="translate(265.856817 199.118437) scale(0.1 -0.1)">
       <defs>
        <path id="DejaVuSans-38" d="M 2034 2216 
Q 1584 2216 1326 1975 
Q 1069 1734 1069 1313 
Q 1069 891 1326 650 
Q 1584 409 2034 409 
Q 2484 409 2743 651 
Q 3003 894 3003 1313 
Q 3003 1734 2745 1975 
Q 2488 2216 2034 2216 
z
M 1403 2484 
Q 997 2584 770 2862 
Q 544 3141 544 3541 
Q 544 4100 942 4425 
Q 1341 4750 2034 4750 
Q 2731 4750 3128 4425 
Q 3525 4100 3525 3541 
Q 3525 3141 3298 2862 
Q 3072 2584 2669 2484 
Q 3125 2378 3379 2068 
Q 3634 1759 3634 1313 
Q 3634 634 3220 271 
Q 2806 -91 2034 -91 
Q 1263 -91 848 271 
Q 434 634 434 1313 
Q 434 1759 690 2068 
Q 947 2378 1403 2484 
z
M 1172 3481 
Q 1172 3119 1398 2916 
Q 1625 2713 2034 2713 
Q 2441 2713 2670 2916 
Q 2900 3119 2900 3481 
Q 2900 3844 2670 4047 
Q 2441 4250 2034 4250 
Q 1625 4250 1398 4047 
Q 1172 3844 1172 3481 
z
" transform="scale(0.015625)"/>
       </defs>
       <use xlink:href="#DejaVuSans-30"/>
       <use xlink:href="#DejaVuSans-2e" x="63.623047"/>
       <use xlink:href="#DejaVuSans-38" x="95.410156"/>
      </g>
     </g>
    </g>
    <g id="xtick_6">
     <g id="line2d_6">
      <g>
       <use xlink:href="#m3e8643128b" x="330.751528" y="184.52" style="stroke: #000000; stroke-width: 0.8"/>
      </g>
     </g>
     <g id="text_6">
      <!-- 1.0 -->
      <g transform="translate(322.799966 199.118437) scale(0.1 -0.1)">
       <defs>
        <path id="DejaVuSans-31" d="M 794 531 
L 1825 531 
L 1825 4091 
L 703 3866 
L 703 4441 
L 1819 4666 
L 2450 4666 
L 2450 531 
L 3481 531 
L 3481 0 
L 794 0 
L 794 531 
z
" transform="scale(0.015625)"/>
       </defs>
       <use xlink:href="#DejaVuSans-31"/>
       <use xlink:href="#DejaVuSans-2e" x="63.623047"/>
       <use xlink:href="#DejaVuSans-30" x="95.410156"/>
      </g>
     </g>
    </g>
   </g>
   <g id="matplotlib.axis_2">
    <g id="ytick_1">
     <g id="line2d_7">
      <defs>
       <path id="m46403506f8" d="M 0 0 
L -3.5 0 
" style="stroke: #000000; stroke-width: 0.8"/>
      </defs>
      <g>
       <use xlink:href="#m46403506f8" x="31.8" y="176.46" style="stroke: #000000; stroke-width: 0.8"/>
      </g>
     </g>
     <g id="text_7">
      <!-- $\mathdefault{10^{0}}$ -->
      <g transform="translate(7.2 180.259219) scale(0.1 -0.1)">
       <use xlink:href="#DejaVuSans-31" transform="translate(0 0.765625)"/>
       <use xlink:href="#DejaVuSans-30" transform="translate(63.623047 0.765625)"/>
       <use xlink:href="#DejaVuSans-30" transform="translate(128.203125 39.046875) scale(0.7)"/>
      </g>
     </g>
    </g>
    <g id="ytick_2">
     <g id="line2d_8">
      <g>
       <use xlink:href="#m46403506f8" x="31.8" y="131.520404" style="stroke: #000000; stroke-width: 0.8"/>
      </g>
     </g>
     <g id="text_8">
      <!-- $\mathdefault{10^{1}}$ -->
      <g transform="translate(7.2 135.319622) scale(0.1 -0.1)">
       <use xlink:href="#DejaVuSans-31" transform="translate(0 0.684375)"/>
       <use xlink:href="#DejaVuSans-30" transform="translate(63.623047 0.684375)"/>
       <use xlink:href="#DejaVuSans-31" transform="translate(128.203125 38.965625) scale(0.7)"/>
      </g>
     </g>
    </g>
    <g id="ytick_3">
     <g id="line2d_9">
      <g>
       <use xlink:href="#m46403506f8" x="31.8" y="86.580807" style="stroke: #000000; stroke-width: 0.8"/>
      </g>
     </g>
     <g id="text_9">
      <!-- $\mathdefault{10^{2}}$ -->
      <g transform="translate(7.2 90.380026) scale(0.1 -0.1)">
       <use xlink:href="#DejaVuSans-31" transform="translate(0 0.765625)"/>
       <use xlink:href="#DejaVuSans-30" transform="translate(63.623047 0.765625)"/>
       <use xlink:href="#DejaVuSans-32" transform="translate(128.203125 39.046875) scale(0.7)"/>
      </g>
     </g>
    </g>
    <g id="ytick_4">
     <g id="line2d_10">
      <g>
       <use xlink:href="#m46403506f8" x="31.8" y="41.641211" style="stroke: #000000; stroke-width: 0.8"/>
      </g>
     </g>
     <g id="text_10">
      <!-- $\mathdefault{10^{3}}$ -->
      <g transform="translate(7.2 45.44043) scale(0.1 -0.1)">
       <defs>
        <path id="DejaVuSans-33" d="M 2597 2516 
Q 3050 2419 3304 2112 
Q 3559 1806 3559 1356 
Q 3559 666 3084 287 
Q 2609 -91 1734 -91 
Q 1441 -91 1130 -33 
Q 819 25 488 141 
L 488 750 
Q 750 597 1062 519 
Q 1375 441 1716 441 
Q 2309 441 2620 675 
Q 2931 909 2931 1356 
Q 2931 1769 2642 2001 
Q 2353 2234 1838 2234 
L 1294 2234 
L 1294 2753 
L 1863 2753 
Q 2328 2753 2575 2939 
Q 2822 3125 2822 3475 
Q 2822 3834 2567 4026 
Q 2313 4219 1838 4219 
Q 1578 4219 1281 4162 
Q 984 4106 628 3988 
L 628 4550 
Q 988 4650 1302 4700 
Q 1616 4750 1894 4750 
Q 2613 4750 3031 4423 
Q 3450 4097 3450 3541 
Q 3450 3153 3228 2886 
Q 3006 2619 2597 2516 
z
" transform="scale(0.015625)"/>
       </defs>
       <use xlink:href="#DejaVuSans-31" transform="translate(0 0.765625)"/>
       <use xlink:href="#DejaVuSans-30" transform="translate(63.623047 0.765625)"/>
       <use xlink:href="#DejaVuSans-33" transform="translate(128.203125 39.046875) scale(0.7)"/>
      </g>
     </g>
    </g>
    <g id="ytick_5">
     <g id="line2d_11">
      <defs>
       <path id="m6fccc0e603" d="M 0 0 
L -2 0 
" style="stroke: #000000; stroke-width: 0.6"/>
      </defs>
      <g>
       <use xlink:href="#m6fccc0e603" x="31.8" y="183.421232" style="stroke: #000000; stroke-width: 0.6"/>
      </g>
     </g>
    </g>
    <g id="ytick_6">
     <g id="line2d_12">
      <g>
       <use xlink:href="#m6fccc0e603" x="31.8" y="180.815097" style="stroke: #000000; stroke-width: 0.6"/>
      </g>
     </g>
    </g>
    <g id="ytick_7">
     <g id="line2d_13">
      <g>
       <use xlink:href="#m6fccc0e603" x="31.8" y="178.516323" style="stroke: #000000; stroke-width: 0.6"/>
      </g>
     </g>
    </g>
    <g id="ytick_8">
     <g id="line2d_14">
      <g>
       <use xlink:href="#m6fccc0e603" x="31.8" y="162.931834" style="stroke: #000000; stroke-width: 0.6"/>
      </g>
     </g>
    </g>
    <g id="ytick_9">
     <g id="line2d_15">
      <g>
       <use xlink:href="#m6fccc0e603" x="31.8" y="155.018363" style="stroke: #000000; stroke-width: 0.6"/>
      </g>
     </g>
    </g>
    <g id="ytick_10">
     <g id="line2d_16">
      <g>
       <use xlink:href="#m6fccc0e603" x="31.8" y="149.403667" style="stroke: #000000; stroke-width: 0.6"/>
      </g>
     </g>
    </g>
    <g id="ytick_11">
     <g id="line2d_17">
      <g>
       <use xlink:href="#m6fccc0e603" x="31.8" y="145.04857" style="stroke: #000000; stroke-width: 0.6"/>
      </g>
     </g>
    </g>
    <g id="ytick_12">
     <g id="line2d_18">
      <g>
       <use xlink:href="#m6fccc0e603" x="31.8" y="141.490197" style="stroke: #000000; stroke-width: 0.6"/>
      </g>
     </g>
    </g>
    <g id="ytick_13">
     <g id="line2d_19">
      <g>
       <use xlink:href="#m6fccc0e603" x="31.8" y="138.481635" style="stroke: #000000; stroke-width: 0.6"/>
      </g>
     </g>
    </g>
    <g id="ytick_14">
     <g id="line2d_20">
      <g>
       <use xlink:href="#m6fccc0e603" x="31.8" y="135.875501" style="stroke: #000000; stroke-width: 0.6"/>
      </g>
     </g>
    </g>
    <g id="ytick_15">
     <g id="line2d_21">
      <g>
       <use xlink:href="#m6fccc0e603" x="31.8" y="133.576727" style="stroke: #000000; stroke-width: 0.6"/>
      </g>
     </g>
    </g>
    <g id="ytick_16">
     <g id="line2d_22">
      <g>
       <use xlink:href="#m6fccc0e603" x="31.8" y="117.992237" style="stroke: #000000; stroke-width: 0.6"/>
      </g>
     </g>
    </g>
    <g id="ytick_17">
     <g id="line2d_23">
      <g>
       <use xlink:href="#m6fccc0e603" x="31.8" y="110.078767" style="stroke: #000000; stroke-width: 0.6"/>
      </g>
     </g>
    </g>
    <g id="ytick_18">
     <g id="line2d_24">
      <g>
       <use xlink:href="#m6fccc0e603" x="31.8" y="104.464071" style="stroke: #000000; stroke-width: 0.6"/>
      </g>
     </g>
    </g>
    <g id="ytick_19">
     <g id="line2d_25">
      <g>
       <use xlink:href="#m6fccc0e603" x="31.8" y="100.108974" style="stroke: #000000; stroke-width: 0.6"/>
      </g>
     </g>
    </g>
    <g id="ytick_20">
     <g id="line2d_26">
      <g>
       <use xlink:href="#m6fccc0e603" x="31.8" y="96.550601" style="stroke: #000000; stroke-width: 0.6"/>
      </g>
     </g>
    </g>
    <g id="ytick_21">
     <g id="line2d_27">
      <g>
       <use xlink:href="#m6fccc0e603" x="31.8" y="93.542039" style="stroke: #000000; stroke-width: 0.6"/>
      </g>
     </g>
    </g>
    <g id="ytick_22">
     <g id="line2d_28">
      <g>
       <use xlink:href="#m6fccc0e603" x="31.8" y="90.935904" style="stroke: #000000; stroke-width: 0.6"/>
      </g>
     </g>
    </g>
    <g id="ytick_23">
     <g id="line2d_29">
      <g>
       <use xlink:href="#m6fccc0e603" x="31.8" y="88.637131" style="stroke: #000000; stroke-width: 0.6"/>
      </g>
     </g>
    </g>
    <g id="ytick_24">
     <g id="line2d_30">
      <g>
       <use xlink:href="#m6fccc0e603" x="31.8" y="73.052641" style="stroke: #000000; stroke-width: 0.6"/>
      </g>
     </g>
    </g>
    <g id="ytick_25">
     <g id="line2d_31">
      <g>
       <use xlink:href="#m6fccc0e603" x="31.8" y="65.139171" style="stroke: #000000; stroke-width: 0.6"/>
      </g>
     </g>
    </g>
    <g id="ytick_26">
     <g id="line2d_32">
      <g>
       <use xlink:href="#m6fccc0e603" x="31.8" y="59.524474" style="stroke: #000000; stroke-width: 0.6"/>
      </g>
     </g>
    </g>
    <g id="ytick_27">
     <g id="line2d_33">
      <g>
       <use xlink:href="#m6fccc0e603" x="31.8" y="55.169378" style="stroke: #000000; stroke-width: 0.6"/>
      </g>
     </g>
    </g>
    <g id="ytick_28">
     <g id="line2d_34">
      <g>
       <use xlink:href="#m6fccc0e603" x="31.8" y="51.611004" style="stroke: #000000; stroke-width: 0.6"/>
      </g>
     </g>
    </g>
    <g id="ytick_29">
     <g id="line2d_35">
      <g>
       <use xlink:href="#m6fccc0e603" x="31.8" y="48.602443" style="stroke: #000000; stroke-width: 0.6"/>
      </g>
     </g>
    </g>
    <g id="ytick_30">
     <g id="line2d_36">
      <g>
       <use xlink:href="#m6fccc0e603" x="31.8" y="45.996308" style="stroke: #000000; stroke-width: 0.6"/>
      </g>
     </g>
    </g>
    <g id="ytick_31">
     <g id="line2d_37">
      <g>
       <use xlink:href="#m6fccc0e603" x="31.8" y="43.697534" style="stroke: #000000; stroke-width: 0.6"/>
      </g>
     </g>
    </g>
    <g id="ytick_32">
     <g id="line2d_38">
      <g>
       <use xlink:href="#m6fccc0e603" x="31.8" y="28.113045" style="stroke: #000000; stroke-width: 0.6"/>
      </g>
     </g>
    </g>
    <g id="ytick_33">
     <g id="line2d_39">
      <g>
       <use xlink:href="#m6fccc0e603" x="31.8" y="20.199575" style="stroke: #000000; stroke-width: 0.6"/>
      </g>
     </g>
    </g>
    <g id="ytick_34">
     <g id="line2d_40">
      <g>
       <use xlink:href="#m6fccc0e603" x="31.8" y="14.584878" style="stroke: #000000; stroke-width: 0.6"/>
      </g>
     </g>
    </g>
    <g id="ytick_35">
     <g id="line2d_41">
      <g>
       <use xlink:href="#m6fccc0e603" x="31.8" y="10.229781" style="stroke: #000000; stroke-width: 0.6"/>
      </g>
     </g>
    </g>
   </g>
   <g id="line2d_42">
    <path d="M 46.035787 15.26 
L 46.374734 21.276141 
L 46.713682 22.119037 
L 47.052629 23.930458 
L 47.391576 27.385142 
L 47.730524 28.587166 
L 48.069471 28.617184 
L 48.408418 29.217129 
L 48.747366 29.237793 
L 49.086313 29.624075 
L 50.103155 32.516995 
L 51.119997 33.482078 
L 51.458944 34.674125 
L 52.136839 35.582708 
L 52.475786 35.755171 
L 52.814733 35.755171 
L 53.153681 36.595853 
L 53.492628 36.686489 
L 53.831575 37.037882 
L 54.170523 37.161603 
L 54.848417 37.728266 
L 55.865259 38.213387 
L 56.543154 39.657235 
L 56.882101 39.745587 
L 57.221048 39.959279 
L 57.559996 39.959279 
L 57.898943 40.988664 
L 58.915785 41.389125 
L 60.610521 44.113972 
L 60.949469 44.381638 
L 61.288416 44.471682 
L 61.627363 44.744334 
L 61.966311 44.744334 
L 62.644205 45.113898 
L 62.983153 45.923256 
L 63.999995 46.615948 
L 64.677889 46.793032 
L 65.016836 47.676776 
L 65.355784 47.917565 
L 65.694731 47.998492 
L 66.033678 48.546759 
L 66.711573 48.714288 
L 67.05052 49.02521 
L 67.389468 49.110874 
L 67.728415 49.632906 
L 69.084204 49.929073 
L 69.423152 50.108954 
L 69.762099 50.139096 
L 70.101046 50.53524 
L 70.439993 50.566048 
L 70.778941 50.720823 
L 71.795783 50.908188 
L 72.812625 51.384624 
L 73.490519 51.64356 
L 74.846308 52.784054 
L 75.86315 52.992422 
L 76.541045 53.451668 
L 77.21894 53.487446 
L 77.557887 54.25435 
L 77.896834 54.592478 
L 78.235782 54.66842 
L 78.574729 55.169378 
L 78.913676 55.404998 
L 79.591571 55.523884 
L 79.930518 56.047592 
L 80.269465 56.211602 
L 80.608413 56.627758 
L 81.286307 57.096019 
L 81.625255 57.096019 
L 82.303149 57.35625 
L 82.981044 57.487678 
L 83.658939 58.61876 
L 84.336833 58.947575 
L 85.014728 59.622304 
L 86.709464 60.018603 
L 87.387359 60.888443 
L 87.726306 60.940838 
L 88.065254 61.204942 
L 88.404201 61.689528 
L 88.743148 61.689528 
L 89.082096 62.019401 
L 89.75999 62.354945 
L 90.098937 62.811504 
L 90.776832 62.869333 
L 91.793674 63.279 
L 92.132621 63.576976 
L 92.471569 63.637121 
L 92.810516 64.125072 
L 94.166305 64.311245 
L 94.505253 64.562271 
L 95.183147 64.752683 
L 95.861042 64.94497 
L 96.199989 64.94497 
L 97.216831 65.335323 
L 97.894726 65.868244 
L 98.233673 65.868244 
L 98.911568 66.140263 
L 99.250515 67.123342 
L 99.928409 67.340603 
L 100.267357 67.560309 
L 100.606304 68.234668 
L 101.623146 68.933165 
L 101.962093 68.933165 
L 102.301041 69.251817 
L 102.978935 69.3323 
L 103.317883 69.413116 
L 103.995777 70.581149 
L 104.334725 70.581149 
L 104.673672 70.753867 
L 105.012619 71.19247 
L 105.351566 71.281386 
L 105.690514 71.915406 
L 106.368408 72.193563 
L 106.707356 72.570715 
L 109.079987 73.150471 
L 109.757881 73.248794 
L 110.096829 73.546769 
L 110.435776 74.053733 
L 110.774723 74.053733 
L 111.452618 74.364355 
L 112.130513 74.574218 
L 112.46946 75.217694 
L 114.503144 76.572019 
L 114.842091 77.165287 
L 115.181038 77.165287 
L 115.519986 77.286136 
L 115.858933 77.530102 
L 116.19788 77.530102 
L 116.536828 77.901866 
L 116.875775 78.027378 
L 117.214722 78.027378 
L 117.55367 78.153702 
L 117.892617 78.153702 
L 118.231564 78.280849 
L 118.570512 78.667337 
L 119.248406 78.667337 
L 119.587354 78.797886 
L 120.265248 79.600069 
L 120.604195 79.737031 
L 120.943143 79.737031 
L 121.28209 80.294698 
L 122.298932 80.72366 
L 122.637879 81.014965 
L 122.976827 81.460239 
L 123.315774 81.460239 
L 123.993669 81.762835 
L 124.332616 81.762835 
L 125.01051 82.070196 
L 125.349458 82.382475 
L 125.688405 82.382475 
L 126.027352 82.699831 
L 126.3663 82.699831 
L 126.705247 83.022434 
L 127.044194 83.022434 
L 127.722089 83.350459 
L 128.061036 83.684091 
L 129.416826 84.368969 
L 129.755773 84.368969 
L 130.09472 84.544011 
L 130.433667 84.898876 
L 130.772615 84.898876 
L 131.450509 85.628569 
L 131.789457 85.628569 
L 132.128404 85.815336 
L 132.806299 85.815336 
L 133.145246 86.003908 
L 133.484193 86.003908 
L 133.823141 86.580807 
L 134.162088 86.580807 
L 134.839983 87.377531 
L 135.17893 87.377531 
L 135.856824 87.788431 
L 136.534719 87.788431 
L 136.873666 87.997171 
L 137.212614 88.421471 
L 137.551561 88.637131 
L 137.890508 88.637131 
L 138.568403 89.075734 
L 138.90735 89.524421 
L 139.246298 89.752692 
L 139.585245 89.752692 
L 140.263139 90.217405 
L 140.602087 90.693454 
L 140.941034 90.693454 
L 141.279981 91.430032 
L 141.618929 91.681868 
L 141.957876 92.195504 
L 142.296823 92.992227 
L 143.652613 92.992227 
L 143.99156 93.265197 
L 144.669455 93.265197 
L 145.008402 93.822864 
L 146.703138 95.291001 
L 147.042086 96.227998 
L 148.058928 96.227998 
L 148.397875 96.550601 
L 149.07577 96.550601 
L 149.414717 96.878625 
L 150.092611 96.878625 
L 150.431559 97.212258 
L 150.770506 97.212258 
L 151.109453 97.551693 
L 151.448401 97.551693 
L 151.787348 97.897136 
L 152.465243 97.897136 
L 152.80419 98.248803 
L 154.498927 98.248803 
L 154.837874 98.606924 
L 155.515768 98.606924 
L 155.854716 99.343502 
L 156.193663 99.343502 
L 156.871558 100.108974 
L 157.549452 100.108974 
L 157.8884 100.50327 
L 158.227347 100.50327 
L 158.566294 101.316597 
L 159.583136 101.316597 
L 159.922084 101.736334 
L 160.261031 101.736334 
L 160.599978 103.052587 
L 161.277873 103.052587 
L 161.61682 103.511832 
L 162.972609 103.511832 
L 163.311557 103.982145 
L 163.989451 103.982145 
L 164.328399 104.464071 
L 165.006293 104.464071 
L 165.34524 104.958199 
L 165.684188 104.958199 
L 166.023135 105.465163 
L 167.378924 105.465163 
L 167.717872 105.985648 
L 168.056819 105.985648 
L 168.395766 106.520394 
L 169.073661 106.520394 
L 169.412608 107.635956 
L 169.751556 107.635956 
L 170.090503 108.819168 
L 171.107345 108.819168 
L 171.446292 109.438808 
L 171.785239 109.438808 
L 172.124187 110.078767 
L 174.157871 110.078767 
L 174.496818 110.740424 
L 175.51366 110.740424 
L 175.852607 111.425302 
L 176.869449 111.425302 
L 177.208396 112.13509 
L 179.24208 112.13509 
L 179.581028 112.871669 
L 180.597869 112.871669 
L 180.936817 113.63714 
L 181.614711 113.63714 
L 181.953659 114.433864 
L 183.309448 114.433864 
L 183.648395 116.132067 
L 185.343132 116.132067 
L 185.682079 117.039999 
L 187.037868 117.039999 
L 187.376816 117.992237 
L 187.715763 117.992237 
L 188.05471 120.04856 
L 189.071552 120.04856 
L 189.4105 121.164122 
L 192.799973 121.164122 
L 193.13892 122.347334 
L 194.494709 122.347334 
L 194.833657 123.606934 
L 196.528393 123.606934 
L 196.86734 124.953469 
L 198.901024 124.953469 
L 199.239972 126.399835 
L 200.595761 126.399835 
L 200.934708 127.96203 
L 203.307339 127.96203 
L 203.646287 129.660233 
L 206.357865 129.660233 
L 206.696812 131.520404 
L 208.730496 131.520404 
L 209.069444 133.576727 
L 211.781022 133.576727 
L 212.119969 135.875501 
L 214.831548 135.875501 
L 215.170495 138.481635 
L 219.915758 138.481635 
L 220.254705 141.490197 
L 225.338915 141.490197 
L 225.677862 145.04857 
L 230.423124 145.04857 
L 230.762071 149.403667 
L 236.524176 149.403667 
L 236.863123 155.018363 
L 243.981017 155.018363 
L 244.319964 162.931834 
L 252.793647 162.931834 
L 253.132594 176.46 
L 269.402065 176.46 
L 269.402313 209.398125 
L 269.402313 209.398125 
" clip-path="url(#p807f526b44)" style="fill: none; stroke: #1f77b4; stroke-width: 1.5; stroke-linecap: square"/>
   </g>
   <g id="line2d_43">
    <path d="M 46.035787 30.68575 
L 46.304299 55.723651 
L 46.724578 65.401148 
L 46.736252 65.401148 
L 46.969741 68.234668 
L 47.646857 75.770621 
L 47.670206 75.770621 
L 47.880345 76.807167 
L 47.89202 76.807167 
L 48.218903 79.061634 
L 48.230578 79.061634 
L 48.382345 80.013872 
L 48.405694 80.013872 
L 48.615834 81.310683 
L 48.627508 81.310683 
L 48.919369 83.684091 
L 48.931043 83.684091 
L 49.106159 84.720637 
L 49.141183 84.720637 
L 49.29295 85.443572 
L 49.316299 85.443572 
L 49.491415 86.580807 
L 49.514764 86.580807 
L 49.643183 86.975104 
L 49.68988 86.975104 
L 49.841648 87.788431 
L 49.888345 87.788431 
L 50.040113 88.637131 
L 50.110159 88.637131 
L 50.250252 89.298788 
L 50.308625 89.298788 
L 50.448718 89.983666 
L 50.483741 89.983666 
L 50.623834 90.693454 
L 50.658857 90.693454 
L 50.787276 91.181405 
L 50.79895 91.181405 
L 50.927369 91.681868 
L 50.962392 91.681868 
L 51.090811 92.195504 
L 51.125834 92.195504 
L 51.254253 92.723023 
L 51.265927 92.723023 
L 51.394346 93.265197 
L 51.429369 93.265197 
L 51.546113 93.542039 
L 51.557787 93.542039 
L 51.686206 94.107789 
L 51.744578 94.107789 
L 51.861322 94.396936 
L 51.872997 94.396936 
L 52.001415 94.988406 
L 52.071462 94.988406 
L 52.188206 95.291001 
L 52.234904 95.291001 
L 52.363322 95.910641 
L 52.468392 95.910641 
L 52.596811 96.550601 
L 52.631834 96.550601 
L 52.748578 96.878625 
L 52.771927 96.878625 
L 52.888671 97.212258 
L 52.91202 97.212258 
L 53.028764 97.551693 
L 53.052113 97.551693 
L 53.168857 97.897136 
L 53.215555 97.897136 
L 53.332299 98.248803 
L 53.460718 98.248803 
L 53.577462 98.606924 
L 53.600811 98.606924 
L 53.717555 98.971739 
L 53.752578 98.971739 
L 53.869322 99.343502 
L 53.939369 99.343502 
L 54.056113 99.722486 
L 54.067788 99.722486 
L 54.184532 100.108974 
L 54.254578 100.108974 
L 54.371323 100.50327 
L 54.41802 100.50327 
L 54.546439 101.316597 
L 54.651509 101.316597 
L 54.779927 102.165297 
L 54.826625 102.165297 
L 54.943369 102.6039 
L 55.013416 102.6039 
L 55.13016 103.052587 
L 55.200206 103.052587 
L 55.316951 103.511832 
L 55.410346 103.511832 
L 55.52709 103.982145 
L 55.772253 103.982145 
L 55.888997 104.464071 
L 56.02909 104.464071 
L 56.145834 104.958199 
L 56.227555 104.958199 
L 56.344299 105.465163 
L 56.63616 105.465163 
L 56.752904 105.985648 
L 56.869648 105.985648 
L 56.986392 106.520394 
L 57.173183 106.520394 
L 57.289927 107.070205 
L 57.371648 107.070205 
L 57.488393 107.635956 
L 57.663509 107.635956 
L 57.780253 108.218597 
L 57.838625 108.218597 
L 57.955369 108.819168 
L 58.165509 108.819168 
L 58.282253 109.438808 
L 58.469044 109.438808 
L 58.585788 110.078767 
L 58.772579 110.078767 
L 58.889323 110.740424 
L 59.087788 110.740424 
L 59.204532 111.425302 
L 59.484718 111.425302 
L 59.601462 112.13509 
L 59.951695 112.13509 
L 60.068439 112.871669 
L 60.290253 112.871669 
L 60.406997 113.63714 
L 60.780579 113.63714 
L 60.897323 114.433864 
L 61.317602 114.433864 
L 61.434346 115.264501 
L 61.831277 115.264501 
L 61.948021 116.132067 
L 62.391649 116.132067 
L 62.508393 117.039999 
L 62.846951 117.039999 
L 62.963695 117.992237 
L 63.465695 117.992237 
L 63.582439 118.993329 
L 64.154486 118.993329 
L 64.27123 120.04856 
L 64.808254 120.04856 
L 64.924998 121.164122 
L 65.426998 121.164122 
L 65.543742 122.347334 
L 66.220858 122.347334 
L 66.337602 123.606934 
L 67.213184 123.606934 
L 67.329928 124.953469 
L 68.123789 124.953469 
L 68.240533 126.399835 
L 69.139463 126.399835 
L 69.256207 127.96203 
L 70.260207 127.96203 
L 70.376952 129.660233 
L 71.4043 129.660233 
L 71.521045 131.520404 
L 72.840254 131.520404 
L 72.956998 133.576727 
L 74.392952 133.576727 
L 74.509696 135.875501 
L 76.34258 135.875501 
L 76.459324 138.481635 
L 78.794208 138.481635 
L 78.910952 141.490197 
L 81.666115 141.490197 
L 81.782859 145.04857 
L 85.08672 145.04857 
L 85.203464 149.403667 
L 89.476302 149.403667 
L 89.593046 155.018363 
L 94.811511 155.018363 
L 94.928256 162.931834 
L 103.660721 162.931834 
L 103.777466 176.46 
L 120.541932 176.46 
L 120.54194 209.398125 
L 120.54194 209.398125 
" clip-path="url(#p807f526b44)" style="fill: none; stroke: #ff7f0e; stroke-width: 1.5; stroke-linecap: square"/>
   </g>
   <g id="patch_3">
    <path d="M 31.8 184.52 
L 31.8 7.2 
" style="fill: none; stroke: #000000; stroke-width: 0.8; stroke-linejoin: miter; stroke-linecap: square"/>
   </g>
   <g id="patch_4">
    <path d="M 344.987315 184.52 
L 344.987315 7.2 
" style="fill: none; stroke: #000000; stroke-width: 0.8; stroke-linejoin: miter; stroke-linecap: square"/>
   </g>
   <g id="patch_5">
    <path d="M 31.8 184.52 
L 344.987315 184.52 
" style="fill: none; stroke: #000000; stroke-width: 0.8; stroke-linejoin: miter; stroke-linecap: square"/>
   </g>
   <g id="patch_6">
    <path d="M 31.8 7.2 
L 344.987315 7.2 
" style="fill: none; stroke: #000000; stroke-width: 0.8; stroke-linejoin: miter; stroke-linecap: square"/>
   </g>
   <g id="legend_1">
    <g id="patch_7">
     <path d="M 263.64044 44.55625 
L 337.987315 44.55625 
Q 339.987315 44.55625 339.987315 42.55625 
L 339.987315 14.2 
Q 339.987315 12.2 337.987315 12.2 
L 263.64044 12.2 
Q 261.64044 12.2 261.64044 14.2 
L 261.64044 42.55625 
Q 261.64044 44.55625 263.64044 44.55625 
z
" style="fill: #ffffff; opacity: 0.8; stroke: #cccccc; stroke-linejoin: miter"/>
    </g>
    <g id="line2d_44">
     <path d="M 265.64044 20.298438 
L 275.64044 20.298438 
L 285.64044 20.298438 
" style="fill: none; stroke: #1f77b4; stroke-width: 1.5; stroke-linecap: square"/>
    </g>
    <g id="text_11">
     <!-- bigrams -->
     <g transform="translate(293.64044 23.798438) scale(0.1 -0.1)">
      <defs>
       <path id="DejaVuSans-62" d="M 3116 1747 
Q 3116 2381 2855 2742 
Q 2594 3103 2138 3103 
Q 1681 3103 1420 2742 
Q 1159 2381 1159 1747 
Q 1159 1113 1420 752 
Q 1681 391 2138 391 
Q 2594 391 2855 752 
Q 3116 1113 3116 1747 
z
M 1159 2969 
Q 1341 3281 1617 3432 
Q 1894 3584 2278 3584 
Q 2916 3584 3314 3078 
Q 3713 2572 3713 1747 
Q 3713 922 3314 415 
Q 2916 -91 2278 -91 
Q 1894 -91 1617 61 
Q 1341 213 1159 525 
L 1159 0 
L 581 0 
L 581 4863 
L 1159 4863 
L 1159 2969 
z
" transform="scale(0.015625)"/>
       <path id="DejaVuSans-69" d="M 603 3500 
L 1178 3500 
L 1178 0 
L 603 0 
L 603 3500 
z
M 603 4863 
L 1178 4863 
L 1178 4134 
L 603 4134 
L 603 4863 
z
" transform="scale(0.015625)"/>
       <path id="DejaVuSans-67" d="M 2906 1791 
Q 2906 2416 2648 2759 
Q 2391 3103 1925 3103 
Q 1463 3103 1205 2759 
Q 947 2416 947 1791 
Q 947 1169 1205 825 
Q 1463 481 1925 481 
Q 2391 481 2648 825 
Q 2906 1169 2906 1791 
z
M 3481 434 
Q 3481 -459 3084 -895 
Q 2688 -1331 1869 -1331 
Q 1566 -1331 1297 -1286 
Q 1028 -1241 775 -1147 
L 775 -588 
Q 1028 -725 1275 -790 
Q 1522 -856 1778 -856 
Q 2344 -856 2625 -561 
Q 2906 -266 2906 331 
L 2906 616 
Q 2728 306 2450 153 
Q 2172 0 1784 0 
Q 1141 0 747 490 
Q 353 981 353 1791 
Q 353 2603 747 3093 
Q 1141 3584 1784 3584 
Q 2172 3584 2450 3431 
Q 2728 3278 2906 2969 
L 2906 3500 
L 3481 3500 
L 3481 434 
z
" transform="scale(0.015625)"/>
       <path id="DejaVuSans-72" d="M 2631 2963 
Q 2534 3019 2420 3045 
Q 2306 3072 2169 3072 
Q 1681 3072 1420 2755 
Q 1159 2438 1159 1844 
L 1159 0 
L 581 0 
L 581 3500 
L 1159 3500 
L 1159 2956 
Q 1341 3275 1631 3429 
Q 1922 3584 2338 3584 
Q 2397 3584 2469 3576 
Q 2541 3569 2628 3553 
L 2631 2963 
z
" transform="scale(0.015625)"/>
       <path id="DejaVuSans-61" d="M 2194 1759 
Q 1497 1759 1228 1600 
Q 959 1441 959 1056 
Q 959 750 1161 570 
Q 1363 391 1709 391 
Q 2188 391 2477 730 
Q 2766 1069 2766 1631 
L 2766 1759 
L 2194 1759 
z
M 3341 1997 
L 3341 0 
L 2766 0 
L 2766 531 
Q 2569 213 2275 61 
Q 1981 -91 1556 -91 
Q 1019 -91 701 211 
Q 384 513 384 1019 
Q 384 1609 779 1909 
Q 1175 2209 1959 2209 
L 2766 2209 
L 2766 2266 
Q 2766 2663 2505 2880 
Q 2244 3097 1772 3097 
Q 1472 3097 1187 3025 
Q 903 2953 641 2809 
L 641 3341 
Q 956 3463 1253 3523 
Q 1550 3584 1831 3584 
Q 2591 3584 2966 3190 
Q 3341 2797 3341 1997 
z
" transform="scale(0.015625)"/>
       <path id="DejaVuSans-6d" d="M 3328 2828 
Q 3544 3216 3844 3400 
Q 4144 3584 4550 3584 
Q 5097 3584 5394 3201 
Q 5691 2819 5691 2113 
L 5691 0 
L 5113 0 
L 5113 2094 
Q 5113 2597 4934 2840 
Q 4756 3084 4391 3084 
Q 3944 3084 3684 2787 
Q 3425 2491 3425 1978 
L 3425 0 
L 2847 0 
L 2847 2094 
Q 2847 2600 2669 2842 
Q 2491 3084 2119 3084 
Q 1678 3084 1418 2786 
Q 1159 2488 1159 1978 
L 1159 0 
L 581 0 
L 581 3500 
L 1159 3500 
L 1159 2956 
Q 1356 3278 1631 3431 
Q 1906 3584 2284 3584 
Q 2666 3584 2933 3390 
Q 3200 3197 3328 2828 
z
" transform="scale(0.015625)"/>
       <path id="DejaVuSans-73" d="M 2834 3397 
L 2834 2853 
Q 2591 2978 2328 3040 
Q 2066 3103 1784 3103 
Q 1356 3103 1142 2972 
Q 928 2841 928 2578 
Q 928 2378 1081 2264 
Q 1234 2150 1697 2047 
L 1894 2003 
Q 2506 1872 2764 1633 
Q 3022 1394 3022 966 
Q 3022 478 2636 193 
Q 2250 -91 1575 -91 
Q 1294 -91 989 -36 
Q 684 19 347 128 
L 347 722 
Q 666 556 975 473 
Q 1284 391 1588 391 
Q 1994 391 2212 530 
Q 2431 669 2431 922 
Q 2431 1156 2273 1281 
Q 2116 1406 1581 1522 
L 1381 1569 
Q 847 1681 609 1914 
Q 372 2147 372 2553 
Q 372 3047 722 3315 
Q 1072 3584 1716 3584 
Q 2034 3584 2315 3537 
Q 2597 3491 2834 3397 
z
" transform="scale(0.015625)"/>
      </defs>
      <use xlink:href="#DejaVuSans-62"/>
      <use xlink:href="#DejaVuSans-69" x="63.476562"/>
      <use xlink:href="#DejaVuSans-67" x="91.259766"/>
      <use xlink:href="#DejaVuSans-72" x="154.736328"/>
      <use xlink:href="#DejaVuSans-61" x="195.849609"/>
      <use xlink:href="#DejaVuSans-6d" x="257.128906"/>
      <use xlink:href="#DejaVuSans-73" x="354.541016"/>
     </g>
    </g>
    <g id="line2d_45">
     <path d="M 265.64044 34.976562 
L 275.64044 34.976562 
L 285.64044 34.976562 
" style="fill: none; stroke: #ff7f0e; stroke-width: 1.5; stroke-linecap: square"/>
    </g>
    <g id="text_12">
     <!-- trigrams -->
     <g transform="translate(293.64044 38.476562) scale(0.1 -0.1)">
      <defs>
       <path id="DejaVuSans-74" d="M 1172 4494 
L 1172 3500 
L 2356 3500 
L 2356 3053 
L 1172 3053 
L 1172 1153 
Q 1172 725 1289 603 
Q 1406 481 1766 481 
L 2356 481 
L 2356 0 
L 1766 0 
Q 1100 0 847 248 
Q 594 497 594 1153 
L 594 3053 
L 172 3053 
L 172 3500 
L 594 3500 
L 594 4494 
L 1172 4494 
z
" transform="scale(0.015625)"/>
      </defs>
      <use xlink:href="#DejaVuSans-74"/>
      <use xlink:href="#DejaVuSans-72" x="39.208984"/>
      <use xlink:href="#DejaVuSans-69" x="80.322266"/>
      <use xlink:href="#DejaVuSans-67" x="108.105469"/>
      <use xlink:href="#DejaVuSans-72" x="171.582031"/>
      <use xlink:href="#DejaVuSans-61" x="212.695312"/>
      <use xlink:href="#DejaVuSans-6d" x="273.974609"/>
      <use xlink:href="#DejaVuSans-73" x="371.386719"/>
     </g>
    </g>
   </g>
  </g>
 </g>
 <defs>
  <clipPath id="p807f526b44">
   <rect x="31.8" y="7.2" width="313.187315" height="177.32"/>
  </clipPath>
 </defs>
</svg>